<mxfile host="www.draw.io" modified="2019-11-06T10:53:08.436Z" agent="Mozilla/5.0 (Macintosh; Intel Mac OS X 10_14_6) AppleWebKit/605.1.15 (KHTML, like Gecko) Version/13.0.3 Safari/605.1.15" etag="Jrc7Ag4_u6vA9CASWDI6" version="12.2.0" type="github" pages="1">
  <diagram id="4f1FF0JR875sqyUcqD1P" name="Page-1">
    <mxGraphModel dx="1316" dy="1945" grid="1" gridSize="10" guides="1" tooltips="1" connect="1" arrows="1" fold="1" page="1" pageScale="1" pageWidth="827" pageHeight="1169" math="0" shadow="0">
      <root>
        <mxCell id="0"/>
        <mxCell id="1" parent="0"/>
        <mxCell id="5qyHvGWRTOX7RbQ3_Q41-1" value="Application&lt;br&gt;Server" style="rounded=1;whiteSpace=wrap;html=1;" parent="1" vertex="1">
          <mxGeometry x="53" y="190" width="77" height="60" as="geometry"/>
        </mxCell>
        <mxCell id="5qyHvGWRTOX7RbQ3_Q41-2" value="Communication Manager (CM)" style="rounded=1;whiteSpace=wrap;html=1;" parent="1" vertex="1">
          <mxGeometry x="157.5" y="190" width="100" height="60" as="geometry"/>
        </mxCell>
        <mxCell id="5qyHvGWRTOX7RbQ3_Q41-3" value="Database Server" style="rounded=1;whiteSpace=wrap;html=1;" parent="1" vertex="1">
          <mxGeometry x="280" y="190" width="80" height="60" as="geometry"/>
        </mxCell>
        <mxCell id="5qyHvGWRTOX7RbQ3_Q41-5" value="OPC UA Server" style="rounded=1;whiteSpace=wrap;html=1;" parent="1" vertex="1">
          <mxGeometry x="370" y="330" width="67" height="60" as="geometry"/>
        </mxCell>
        <mxCell id="Om71xXF0C_-sWj4UQDyn-4" value="" style="shape=image;verticalLabelPosition=bottom;verticalAlign=top;aspect=fixed;image=data:image/png,iVBORw0KGgoAAAANSUhEUgAAAfgAAAIACAYAAABuAX6WAAAABGdBTUEAALGPC/xhBQAAACBjSFJNAAB6JgAAgIQAAPoAAACA6AAAdTAAAOpgAAA6mAAAF3CculE8AAAABmJLR0QA/wD/AP+gvaeTAAAACXBIWXMAAAsTAAALEwEAmpwYAAAAB3RJTUUH4wIVDjc3YycfcAAAdM1JREFUeNrtnXmcJGdd/z9Pdc/snWR3Q3Y3O0dXzyQBwmEuEEQYoIM/DwRURO4A+YGiInKJiiKCAvEiooicCVFE5QwCCg0Mh/qDEJBgCMnOdPfMTnazye7sbrLnTHd9f39M96S6uqrr7n6q+/N9vXiRrZl59/dTz/Hpp+o5AAaDwWAwGAMXKglIqTSzzimXZ4U88sgjjzzyyOsvL58UOIkgjzzyyCOPPPKS4UX+wCbc/vcS59sIeeSRRx555JGXHC/SCL5UmjGc12ImSx555JFHHnnkJcgLPYJvwp3fHKyYyZJHHnnkkUceeQnyQo3gS6WZnPNazGTJI4888sgjj7wUeIEMvvm8v+ObA4BIyZJHHnnkkUceeenyfA2+Cc+5/MiK8h6BPPLII4888shLn9f1HbwN7vzm0IiZLHnkkUceeeSRlyLPbwRvuFyLk2yePPLII4888shLn2d4/aD5Qt85wq8nnCx55JFHHnnkkZcCz3UE77LOLu5jBi3Fk0ceeeSRR96g8jpG8C7r7ACaO3nkkUceeeRlhgcnrNS5t60g3uw/bcWTRx555JFH3iDyWrEOLHXubQvQ3MkjjzzyyCMvMzwb03MWfeTt9HQXTx555JFHHnmDyLMxATTfwTsfzdPcySOPPPLIIy87vCazbQ6dEx75CDvdxZNHHnnkkUfeIPKazLZJ8+XyrOSdFyKCtRZPHnnkkUceeQPMa5l729+rsLCMiiePPPLII4+8QeTZR+4C25N4Iywwg+LJI4888sgjbxB5HTvO2lmRDT4j4skjjzzyyCNvEHnOU+Y6Vr9FMviMiCePPPLII4+8QeX5rn4LbfAZEk8eeeSRRx55g86Tcnm24fb7oQw+o+LJI4888sgjb1B5nvvWBJ5Fn2Hx5JFHHnnkkTdoPIHPQXCBRvAZFU8eeeSRRx55g8rzPeXV1+A9ZutlQTx55JFHHnnkDS2v6yN6r3V2gyKePPLII4888gaV5zeCd/v5wIgnjzzyyCOPvEHleRp8qTTDkTt55JFHHnnkZZTnBkHJcSoNAszWy6J48sgjjzzyyBtUXscIvuQ4T7YZNHfyyCOPPPLIywgPTljzA+whACwdkiWPPPLII4888oLHOrD5AU6Dp7mTRx555JFHXkZ4Nqb7O3i4nEozKOLJI4888sgjbxB5NiaA5jt456N5mjt55JFHHnnkZYfXZLbNoXPCJea3Bm3Fk0ceeeSRR94g8prMtknz5fKs5J0XIoK1Fk8eeeSRRx55A8xrmXvb36uwsIyKJ4888sgjj7xB5NlH7gLbk/hQ58FnVDx55JFHHnnkDSKvY8dZOyuywWdEPHnkkUceeeQNIs95ymvH6rdIBp8R8eSRRx555JE3qDzf1W+hDT5D4skjjzzyyCNv0HlSLs823H4/lMFnVDx55JFHHnnkDSrPc9+awLPoMyyePPLII4888gaNJ/A5CC7QCD6j4skjjzzyyCNvUHm+p7z6GrzHbL0siCePPPLII4+8oeV1fUTvtc5uUMSTRx555JFH3qDy/Ebwbj8fGPHkkUceeeSRN6g8T4MvlWY4ciePPPLII4+8jPLcICg5TqVBgNl6WRRPHnnkkUceeYPK6xjBlxznyTaD5k4eeeSRRx55GeEBDiNvfoByXLdSSBaFQmGXYRgPsSwrF4SnFJRh5HLKlpkIYFmNhghC50ceeeSRRx55afKUUpZhGPfMz8/fB3h/ThrmDtiM3Gbu9uuJmvvcXG1cKfU7AJ4NYHu4G9o54V8ksm7yyCOPPPLI6xXvgFLqAysrK9cvLS0t23+Qhrk3mZ4G77pxfQhwR7KVyuILReRvAWzswc0kjzzyyCOPPN14R0XklbVa7WNAuuYONA3ddkEByZv73FztZUqpv+vDzSSPPPLII4883Xi/MTU1+R4kb+6teXUCdE6yk+RH7gsPV0r9dRSmxoVDHnnkkUceeVFx76rVli53uZ6EuQMAyuVZyTsvRAR7PmYQwVsBjIRlal445JFHHnnkkReVl7cs6y0AnmW7HGf2fdvIff1zImfYDnc19zvu2LdjdHT0XoQ8ljYDhUMeeeSRRx55cXiWYai9hcL4ESRj7sCawUuLFcp4PeCe7xA2bNhwWdjPyFDhkEceeeSRR15UngGoRyOeuXfsOGtnRTb4ILP/RGR3DPFoMqKmSB555JFHHnna8hqNxkNimntbes45dJEMPujUfhHJB2VmsXDII4888sgjLyovjEe2wua/zpF7xwT50AafynZ6GS0c8sgjjzzyyOsVz8N/pVyebbj9fiiDp7mTRx555JFHXu95XfzXc2l7YIOnuZNHHnnkkUde73leI3f4HAQXyOBp7uSRRx555JHXe14X//U95dXX4D1m6wE0d/LII4888shLjRd3cN3V4L3W2QWFpy2ePPLII4888gaRl8STc78p+m5fAHpp7l9SSv2wC89w4VlunxMwP/LII4888sgLFCLycABXN3luP4+UW1KvxT0NvlSa6fvIXUQ+Wq1Wb0hLPHnkkUceeeRF5RUKhWuUUlfraO7wgHScSoMAs/W6ha7iySOPPPLIIy8qD9Db3zoeUTTN3ZkxzZ088sgjjzzybDzDUB0T0HXxN8Bh8M0PaMsVEc1dd/HkkUceeeSRF4/Xbpm6+Fsr1oHND3AavDWI4skjjzzyyCMvSZ4u/mZjek6y6ziVZlDEk0ceeeSRR54O5t6MVMx9Hex8NK+LuSctPquVhzzyyCOPPB15gjj25vYaO2p+zRxbr90F6Jxkl/DIXWKZe5Lis1l5yCOPPPLI05VnWdIIy2rF2gT0jknoSZg7AKBcnm0/izbmIwFX8TE2IXC7rHVhk0ceeeSRNzy8sKxWpOBvbSP3VuSB6MaeIfGZrDzkkUceeeTpyysUCmGRaZp7K6TFCnUefFjxUZg0d/LII4888gaNB7j5m8TNr2PHWTsrssFnRLy2hU0eeeSRR95w8AD3watlSeR9ZtB5ymvHHLpIBp8R8doWNnnkkUceecPBA1Lb0dV39Vtog8+Q+ETyI4888sgjjzyN/U3K5VnX2fyhDD6j4iPnRx555JFHHnma+5vn0vbABp9h8VoUNnnkkUceecPBA3ozcofPWTGBDD6j4iPnRx555JFHHnma+5vvHDVfg/eYrZcF8VoUNnnkkUceecPBA/Tyt64G77XOblDEk0ceeeSRR14SPEA/f/Mbwbv9fGDEk0ceeeSRR15cHqCnv3kafKk0w5E7eeSRRx555PmErv7mBkHJcSoNAszWy6J48sgjjzzyyIvKA/T2t44RfNPcnRnT3MkjjzzyyCPPxnM70lwXfwMcBt/8gLZcEdHcdRdPHnnkkUceefF47Zapi7+1Yh3Y/ACnwVuDKJ488sgjjzzykuTp4m82pvs7eLicSjMo4skjjzzyyCNPB3NvRirmvg52PprXxdyTFp/VykMeeeSRR56OPEEce3N7jR01v2aOrdfuAnROskt45C6xzD1J8dmsPOSRRx555OnKsyxphGW1Ym0Cesck9CTMHQBQLs9K3nkhIthTvNss+uDiO0LrwiaPPPLII294eGFZrUjB39pG7q3IA9GNPUPiM1l5yCOPPPLI05dXKBTCItM091ZIixXqPPiw4qMwae7kkUceeeQNGg9w8zeJm1/HjrN2VrTn5wHFFwqFa5RSH44h/tpicfJDOhROqTSjarWlJzYajZcopS4DsBvAhjhzDJLcBIg88gIyTliWtaCU+nw+n/vI5OTYPY5f0aIzHAKempyc3K2UutgwjCkAE83/7QKwE8C5ALaKyEYAI82/sQCcFZGTSqn7ASyLyL1KqQMisl8pVbEsa+7888+f2759W10zvQPJC+Nxbu3XsqyX1Gq1GyLmZ5+jJnCZQ5cPRU3pZnqLl8ib7CSZ3/j42PnV6v4PiMgz7Hn2u7Mmj7ywISLnKqX2KqUe32hYf1CpLP5FoTDxNsNAHRnrXLPE27t37858Pv/EXC73RBG5AsCjsGbiEJFQ5Wv/3dZ/t/7fMAwsLy/Xjx49eieA7wNyq1LGt3bvvuC7mzZtOJPV+5dlHpDqjq7rELcJ8qENPmPiY+c3PT29y7Ksr4nIJUnkl7Re8siLwdsA4PdqtcWHTk5O/MpXv9r/znBQeFNTUxdYlvVEAE9q/u+RgHu5pVC+eQCXrv1PPU9EcODAPSeVUl8sFAo35/P5z83Nzd2n8/0bFB7QE3+TcnnWdTZ/KIPPqPjI+Y2P7zUsy/ooAJo7eYPM+4VqtfZ7AN4ShqV759prXtPUfxnA8yzLelwQZg/ryxYReZZS6lmNRkNM0/x/SqmbDcP47Nzc3A/hmH3dj/s3aDygZ/7mubQ98CS7DIuPXNijoxufDeApSeSXtF7yyEuSp5T6vbGxsb1BWbp3rr3iLS7evXl+fuGFpmn+u2VZBwC8G4Bu5t7xqwAeJyJvbzQa/2ua5rxpmtcVbFPCs1oeuvCA3ozc4XNWTCCDz6j4yPm1eCLy8iTyS1oveeSlwBsdGRl5SRCW7p1rL3i12tKj5ucXPrS6Wr8HwI0Afgrtk566hmb1xQTweqXUfLFY/GShUHjyiRMnR1x+T9vy0IkH9MzffOeo+Rq8y2y9rIiPVdgHDx7KAXhC3PyS1kseeSnynuTH0r1zTZN38uQpVa3uL1Uqi59vNBrfAfACABvDMjWuL4aIPMswjK/ce++RW6vV/S89ePDQpqTunyMGkgfo5W9d38F7rbMbFPHdeKurjYcAGI2TX9J6ySMvZd54N5bunWtavDNnVkYOHjz0bBF5DYBHZbh8w/AeISLvPX367J/OzdXet7q6+ucAjkS5fy4/0qp8k+I57t969NPf/Ebwbj8fGPHdeCLWhjj5Ja2XPPJ6wPMcjereuabBO3Hi5Ei1uv/nDhy45zYRuQHDY+523g6l1BtHR0f3FQqFV11xxRUjQVhZKN8keV3uXxRUYvl5GnypNDOUI/ck8ktaL3nk9ZOne+eaBq9SWXjkvfce+TcR+SSAqTj3D9C7fAPytiulrl9eXr5tcnLyp/3uHzQv3yR5Ae9fX/JzNXjnqTRYm603cOK78er1RsxTgpLRSx55/eTp3rkmzZuYGN9ZqSy+G1DfBXB13PsH6F2+EXgPNQzj86ZpfmFiYuLhzh/qXr7DZO6Ai8E3zd2ZcaQd5XQX340nEZMcsMZM3hDzdO9cE+Yp0zRfmM+P3Ang12GbWKxLeWjG+z+5XO420zTffckll2wDtC/fVHhuR5rr0t4Ah8E3P6AtV0Q0d93F6/5Njjzy+snTvb0lySsUCucVi8WPKqU+grV94GPfP0Dv8k2IlwPwGysrK9+dmpq6EpqWb7q89nuoS3trxTqw+QHOErcGUTzNnTzyvEP39pYkzzTNJwK4CWsHvSRy/wC9yzcF3rSI/Fe1uvimc87Zev3OnTtaO6v1vXx7ydOlvdmYnsvkOk6lGRTxNHfyyPMO3dtbUrwrrrhiZHl5+Y8A/K5yuYG6lEeGeCMieOfx4yeecubMykv37t19cJDqix8vzv1LMj9bjg+CnY/mdTH3pMX32NyPAliMwHPrbCLfQPKGjvcwEQm0lMkjtG1vSfFM09y1vLz8aQA/rrF5nlRKHQNwEsBZrL0uzQHYLCLbAOxAiK3GU8jPi/dTZ86cvbVSWXwhgHIYlq71pTtPEMfe3F5jR82vmWOrTghcxEvMbw3aiu/DyP3marV6Tb/yI284efPzC/sATIblAe5fPnTXG5ZXKBQeCuDzAEwNzP24Uuq7AG6zLOsOwzDmlFILZ8+evfuhD50+46PXuPjii3ecPXt2HEBBKXWRUuoRAB6NtZPkOvrOHurdLSJfLBaLf1ypVN4Cl4NsnKFrffHjWZY03JtNtPsXNb9mjm1f+MrlWck7L0QEay1e98fyWa3c5OnHC8tqhc7tLUFzf5JS6tMAzuuTuR8FUBaRr1iW9fXFxcUfweUksIB6rbvuuuswgMMAvmf/pV27dm3ZtGnTlUqppwF4OoBH9kGvEpE3m6a5p1qtvhKA57JjXetLEF6S9y9mfm0j91bkgejGniHxNHfyhoJnmmZYpNbtLSlesVh8voh8GMBIj83uIIB/BfCJycnJ/5qdne3aLyah99ChQycBfA3A10qlmTfVavunLcv6OUD9HIAnYu0grbT0OuPlpmnuyOVyL5ibmzubht5+8mwH8MW6fzHz69i3psUKdR58RsXT3MkjzyN0bm8JmvvvisifeulNwexWlVKfEJEPVavVL6M5Sq9Wq325f4XCeA3A3wD4m6Wlg+eePbvyLBH5LaXUpQnp9fuzX2o0Guddeumlz7r99ttPpK1XV577/ZO4+eXsIKB9wB56kkbGxNPcySPPI4bE3H+7h+Z+r2VZbzYMY6xSqTy3Wq1+CS6P4Pt5/8bG9hypVqvvr9Vqj1RKXQ3g3xDgHXkC96906tSpL+/du3dnL/XqwvO6f5YlkfeZQec8i47Vb5FG8BkRT3MnjzyP8KjPkSbZ6qrXNM0XichfdtEb5dZ13D+l1AEReWej0fjAwsLCqYzcP6lUKmUA5ampqWnLsn4TwMvhceBQQvfvMaOjo9+46KKLfgrAPT3W2zcekKp/2EfuHV8mQ4/gMyZ+4PMjj7ywMQz12TTNnwfwoaT1OnhHlVKv37x50yXF4sS7M2TubTE/Pz9XrVZ/C8BDAfxLF71J3L+HNRqN8v79B7b3S28veUBP2puUy7OukxhDGXxGxQ9sfuSRFzaGoT4XCoUnYc2ocimZuwXgb0dG8g81zfHrd+06/6QO5RuXV61WF6rV6nMAPLG5fC+tL0cXr67W/+WBB06O9lNv2ryk71+X/DxfAwV+RJ9h8ZHyU2uhbX7kkRc2hqE+T05OXq6U+iyADSmZ062GoX61UBj/vg560+BVq9Vv7Nix/TE7dux4iWXJ2wDsSvD+teJJhw8vv+fAgQMv2b//7oG6fx56ASQ/cofPWTGBRvAZFR85v1JpRuXzuaE5KIe8weYB+re3JHjFYvFiwzD+HcC2FMx9BZDfLxQmfnKQzb3Fu/zyRxuFwviNmzdvugxrGwMlvtrAsqwX5fOjb9RBb5I8L70ptDffOWq+Bu8xWy8L4rXYa1j3ykjeYPOAbLa3sLyxsbFNlmV9EsBDUjD3uwxD/USxOPlnhrG+v4cW5Zs2b/fuhxy+4IKdz7Is67cBrEa8fx3XbOXxJ4VC4Tm66I3LC6C3p/l1NXibuTszHgjxQXm650ceeV6RxfYWhTcyMvLnSqlLUzD3f8rljMfaRu1a6O0lb+vWLau1Wu1dhmE8DsBcyPvXcc1ZHkqpG6emph6vi96ovKB6e5mf3wje7ecDIz4Ib1APyiFvsHlANttbFF6hUHgGgFcmbO4NAK/dtev8ayYnx07qpLdfvPn5+VtHR0cvh8tMe7cIUR4bLMv69Pj4+IU66Q0bOrY3T4MvlWY4co/3zT+xL0e6V27y9OIB2WxvUXhjY2N7lVIfStjcH1BK/fzU1OS7t2zZbIf0XW+/eXfeeecD1Wr1uQD+uhszQnk8JJfL3QQXT9L9/kXU25P8XA3eeSoN1mbrDZz4brx6vdEIy+qmN+n8yCPPK7LY3iLycqOjozcppXYkpRfAPYZhPKVYnPiShnp14VnVavXVIvJmtx9GrX9KqaeYpvkaDfX65R1Jby/yc/u2ZKBz5B5pRzndxXfjRT2jm+ZOXj95HufNh0VlQm+xWHwDgCcnpRfA/g0bRmdMs+19uzZ6NeNJrVb7YwC/ab+YQH//J5OTkw/TUK8rz+1Ic13aG+Aw+OYHtOWKiOauu3ju7U3eMPAGtb0Vi8XHAHhrUnoBLOTzuaeMje2p6KhXV161Wv0bpdTzATQSGsyNGobxwW3btuZ11NvJa9esS3trxbrBNz/AWULWIIqnuZM3DLxBbW/j43sNAO+GY/luDHM/YBjqaZOTYws66tWdVyxO/JNhqFc6r8coj8ddcMGuX9VVr+7trcUslWaU1yQ7KZdnEz3oRRfxPXwHE/PLkZ56ycsGb1DbW6k0o0ZHNz4HwGOS0Avg2Ojo6M+Y5kRVV71Z4JnmxIdF5LrW9bib4ojIW++++9AFuup1XtdltZUtRwDNEbzz0bzbqTSDIH7YJliQN5y8QW1vpdKMOnLk6ObW8a8J6F1VSv3i+PieH+qqN0u8887b9ocAPpHQjnfnnT179o901rsWEqu9ub3GjppfM8e2OXQds+WTNXd9xNPcyRsGXtTJocDa+Qu6673//hO/BqBg0xtVLnI545XF4sQ3dNabJd7OnTusRqPxIgDfCssDXPvTl9Zq+x+qq15g7UjzKFof1NuhOa65r0e5PCsdFyKCtRZPcydvWHhhWa3IwhyShYWlHSLye63rMUeKf1cojN+os94s8ppH5j4DwEIYpkd/ajQa1p/orDcsq5veOPl57FuzNoIvl2claXPXSTxo7uSR5xk6tzc7r9Gw3ghgOxDb3G99yEN2vl53vVnlVavVQ0qpZyOgB/j0p08vFAo/rrPesJFCe3N7Ei9AyPPgMyqe5k4eeR6hc3uz86rV/SaAXwdim/sJpdTztm3bsqKz3qzzKpXKLQDe7McM0p8ahvGHuusNGp16JW5+HSN3OyuywWdEPM2dPPI8Iivm3ozXARiJO4FLKfU60xy3z5jXVW/meZOTk9cBuMWLGbQ/FZGfnpycvFx3vX7hfmSuxFmt5pyj1jGHLpLBZ0Q8zZ088jzCoz5HelWXtt6DB+89V0Sel8Ds7C9dcMHODyedH3nuMTs7WwdwLVwe1YftT5VSr9Ndb7dIyT98V7+FNvgMiR+K/MgjL2xkrT6fPn3m+SKyJVKCD+o9o5T6DdvhMVqUx6DzqtXqbQCut1+LUv+UUs8eGxvbq7tej9xD6w2Zn5TLs64T2kMZfEbFD2x+5JEXNrJWn0+cOKkAvDxSgja9InKd7dG8FuUxLLxcLvfHAO4FYtW//MjIyCuyoNcePWpvnkvbAxt8hsVHyk8p13M7tMmPPPLCRhbr8z333Pd4EXl4TL13b9688S/SyI88/5ibm7tfKfVHCdS/a2dmZvK6621FL0bu8DkrJpDBZ1R85PxKpRmVz+eG5qAc8gabB+jf3rx4SqlfS0Dvm/fs2XU6jfzIC8bbs2fXDQDskxuj1L89i4uL/0d3vUDP2pvvHDVfg/eYrZcF8Vps/6l7ZSRvsHlANtsbgPrcXG0XgF+IqfeuQmHiH9PIj7zgvE2bNtQNw3h763rU+ici1+isF9CrvXU1eK91doMiPihP9/zII88rstjeWjyl1LUePw+sVym8wzBwVofyGHbezp3bPwrg7pirIX7u0KHD5+iot5lfx7V+tje/EbzbzwdGfBDeIB/cQd7g8oBstjcbTwF4YUy9d+/YsfMfdSgP8oBt27asiMj1YVmtaJbvhtOnz/ysbnpt+bVFv9ubp8F77G07UOL9eDG/aSb25SiLjZm8/vGAbLY3O69YLD4CwMVx9AL4m1tuuWUlKKOfeoeFt7q6+kEAZ8Iy7eXbaDSepZNeZ36t0KG9uRq881QarM3WGzjx3Xj1eiPmQTnp5kceeV6Rxfbm5InIM2LqXcnn8x/Iit5h4S0tLS0D+OcwzM7XLurq/fsP5nTQ65YfoE976zD4kuM82WZE2lFOd/HdeFGP3aS5k9dPntvaziy0NxfezwVhdulfPnXXXXcdzpDeoeGJyIeDMj3Kd8vKyspP6qDX7UhzXdob4DD45ge05YqI5q67eO7tTd4w8LLY3sbGxnYAuMqP2W3wYFnWjVnRO2y8Wq32DQCLfkyfweHT9NDbnqMu7a0V6wbf/ADnHbUGUTzNnbxh4GW1vY2Ojj4ZPhOAfTr/5fPPP7+cFb1DyLMA/Gs3ZoAnv0/WTa8u7a3FLJVmlFcjknJ5NtGDXnQR38N3MDG/HOmpl7xs8LLc3kTkSd2YATr/L996662rWdE7jDyl1Ke7/Kzjmkt9vmx6evoc+ITu7a0ZiZt7678N5wXA/VSaQRA/bBMsyBtO3gC0N8/3qwHbW6DRe1bLdxB4lUrlvwEsO6+H6E8Ny7Ie03+9Equ9ub3GjppfM8e2OXQds+WTNXd9xNPcyRsGXtTJocDa+Qv91rtr164tAB7lkV/HNTe5uVzuy2nlR15ivAYcX8TC9qci8th+67UsibnaqkNzXHNfj3J5VvLOCxHBnuI93k0HFN8RWlRur/xo7uT1mxeW1Qpd2tuWLVsuE5GOV4ch2tvC3NxcJa38yEuOJyJfUUr9MhD5CNkr+603LMuWu9vlOPm12kzb3xvAmrEnbe6aiae5k0eeR+jU3kTkx4Lk16W9leHo5NK8f+RF5+Xz+W8C0ftTEel40qOz3lakaO7rt6bFCnUefEbF09zJI88jNGxvbZ122PamlPJ8PK97eQwbb3n5yI+UUvc7r4foT83mK51M6AXc6rPEza9jx1k7K7LBZ0Q8zZ088jxCQ3MHgId1y8+vvdXr9W+lnB95CfEuv/zRBoD/sV8P2Z+qTZs2XZQFvYB7fbYsibNazTlHrWMOXSSDz4h4mjt55HmER32O9Kou4fwu7pKf39+eWFxcrKV9/8hLlHdb63qU/lQpNa273maeHdcS8A/f1W+hDT5D4ociP/LICxu61ufm49YLYuT3I6xtopLa/SMvcd6PgFhLO02d9QI9aW9SLs+6zuYPZfAZFT+w+ZFHXtjQuT5v2rRpMmZ+82nmR17yPMMw9sU8tXNSV73N/DqupdDePJe2Bzb4DIuPlJ9Srud2aJMfeeSFDd3rcz6fH4+Tn1KqlmZ+5CXPU0pVwrJsfwsAF+qo15ZfWyQ9cofPWTGBDD6j4iPnt9bZ5IbmoBzyBpsH6N/emrxdcfKzLOtAyvmRlzBvdXV1KSwPaKvPD9FNryO/9UihvfnOUfM1eI/ZelkQr8X2n1lufORlnwdkp71ZVuP8mPndq3t5kNfOq9VqZwAcD8O012cR2aGTXmd+tjyjoGLn19XgvdbZDYr4oDzd8yOPPK/IUnsTwblx8gNwLM38yEuNtxwQ2VGflVLn6qLXLT+gv+3NbwTv9vOBER+ENwAHd5A3hDwge+1NKbUlTnvL5/On08yPvNR4gUbwHvV5sw56u+QXBZVYfp4GXyrNcOQeb3ZnYl+OBqwxk5cyD8hse9sQKcGmXsMwzqSZH3mp8U77ILvV54391uuTX+hIMj9Xg3eeSoO12XoDJ74br15vxDwlKN38yCPPK7LY3gDUlVIjcfRaVlub1aI8yAvEW+3G9KnPeYSIYWtvHQZfcpwn24xIO8rpLr4bL+qxmzR38vrJc1vbmYX2lkT/Ylnrp9BpkR95gXmePwvgH31b6l0qzSi3I811aW8dN6f5AW25IqK56y5+iPb2Jm+IeRlrb6G4LmdXbEg5P/JS4ImI65ObgIPDQKeWpqe3PUdd2lsr1oHND3DeUWsQxdPcyRsGXgbb29mgTPf2pjboXB7kuYdSaoPLtY7f86jPK7ro1aW92Zie7y86TqUZFPE9fAcT88uRnnrJywYvi+3NsqzTHl+U28Kr81dKnZMlveStx7n2f4R8rXtKB726rLay5Qig+Yje+WheF3NPWvywTbAgbzh5WW1vhmHc78fs1t5E5Hy/v4+TH3mp8ba3/iNCf/pAf/VKrPbm9ho7an7NHNvm0HXMlk/W3PURT3Mnbxh4USeHAmvnL/RTr2VZR33y67hmlysiu9PMj7zkeTMzM3kAO4DI/alrnemVXsuSmKutOjTHNff1KJdnJe+8EBHsKT7IIzdv8R2hReX2yo/mTl6/eWFZrdChvRmGcZ9XGwrS3pRSY2nmR17yvKWlpd3w+G4ZpD8Vkfv6qTcsqxUptLeWubf9fR6IbuwZEk9zJ28oeKZphkVq096UUgfd2lGI9lZMMz/ykueJSCFmf3pPP/UWCoWwyDTNff32tVihzoMPKz4KU5fOJkx+NHfyssgD9GpvIrIUJL8u7e2iNPMjL3meiHWx83rII4LvzoreZr5OtXHz69hx1s6KbPAZEU9zJ488j9DJ3AFgYmLiAGy7mkVobxPT09OuM+l1L49h5SllPNR+PWx/qpSqZUFvM9eOa5YlkfeZQecprx1z6CIZfEbE09zJI88jPOqz9DO/2dnZOoBKl/x8GZZlPSrt+0deorxHtq5H6U8ty5rXXS+Qmn/4rn4LbfAZEj8U+ZFHXtjQuT4D+FGc/CzLujLN/MhLjnfy5CklIpcB0eufUuounfU2c+y4lnB7k3J51nU2fyiDz6j4gc2PPPLChu71WSl1e5z8lFKPTzM/8pLjHT68PAFgV4yVncu7dp1/RFe9QM/am+fS9r5t1N9D8ZHyU0pFXrrRi/zIIy9sZKE+G4bx/Zj5/SQApXt5kAdYlvWEmEdy/2Dr1i1OgBZ6m/l1XEt65A6fs2ICGXxGxUfOr1SaUfl8bmgOyiFvsHmA/u2txTMMdWvM/HZPT089Iq38yEtyUyY8KSyrFUopiMj/6Ki3lV+n3sTbm+8cNV+D95itlwXxWmz/mdXGR95g8IBstbedO7fvB3BPnJFdo2H9Ylr5kZcM78479zVE5KfC8oAH67NS6tu66bXnZ49+tbeuBu+1zm5QxAfl6Z4feeR5Rdba25Ytm0VEvhkpwQf1Pjut/MhLhmcY+UcD2BOWaa/PIyP5/6eTXmd+rehne/Mbwbv9fGDEB+Fl9eAO8oabB2SzvWFtB8zZOHqVUg/fv//gw9PKj7z4PMMwfiEs01GfF8fHL9yvi16X/AD0v715GnypNMORe7wJIIl9Ocp6Yyavtzwgm+3NxivH1Vuv138xxfzIi8dTAJ4ThuksXxH5qi563fJr5hgFlWh+rgbvPJUGa7P1Bk58N1693oh5SlC6+ZFHnldksb3ZedVq9S4AtTh6Lcv6pXJ5NhN6h41XKBQeC59the3hUZ+/oIPeLvlFQSWeX4fBlxznyTYj0o5yuovvxot67CbNnbx+8tzWdmahvTl4AuCzQZhd+peHmab5yCAMDfQOFU8p9bKgTI/ytSzL+qIOet2ONNelvQEOg29+QFuuiGjuuosfhr29ySMvq+3NMIxP+zEDDB5+Myt6h4VXKBTOA/C8IEyv8lVKfW1xcfGoHno7Xh2ERaWSXyvWDb75Ac47ag2ieJo7ecPAy3J7Gx8f/zqA+7yYAZ8Mvnh6etr3jHgd9A4LTyl1LYDNfsxu5Ssin9RRry7trcUslWaU1yQ7KZdnEz3oRRfxPXwHE/PLkZ56ycsGL+vtrXnwzL+4/SzEa7+Rer3+mizoHQbe9PT0BqXUq/2YPuUrIvJx3fTqstrKliOA5gje+Wje7VSaQRA/bBMsyBtO3gC1t484L4Rtb0qpV1x88cXnp5QfeSF49Xr9GhHZ240ZoHzLtVrtHn30Sqz25vYaO2p+zRzb5tB1zJZP1tz1EU9zJ28YeFEnhwJr5y/opLdard4C4A5bfh2/E0Du5nq93vEuPqvlm1VeoVDYqJT6/W7MIOWrlLpBJ72WJTFXW3Vojmvu61Euz0rHhYhgrcXT3MkbFl5YVis0nUMiIvL3XvkFbW8i8qpisXhuCvmRF5CnlPpNAONezIDle3RlZeVTOukNy+qmN05+HvvWrI3gy+VZSdrcdRIPmjt55HmGzu3NMNRHlFKnnNdDtrfzLMt6exr5kefPM01zF4A3eTFD9KcfWlpaOq27Xr9Iob25PYkXIOR58BkVT3MnjzyP0Lm9lUozqlicPCEiN9mvR2lvSqlfm5qaekLS+ZEXiHcdgHPcfhCiP5VGo/GejOj1jE69Eje/jpG7nRXZ4DMinuZOHnkeobu5t3gjIyPXo9kZxJxA+L7l5WMbdNc7SLypqamnAHiR289C9qefXFxcrOiut1u477gocVarOeeodcyhi2TwGRFPcyePPI/wqM+RXtWlrXdi4sI5AJ+MeTYERORhR48ef33S+ZHnHpdccsk2y7I+6PazsP2pZVl/orvebpGSf/iufgtt8BkSPxT5kUde2MhmfZa3RkrQoVcp9cZabf8lyedHnjPOnj37LgAF5/UI9e8fFhYWvqe7Xq/oQXuTcnnWdUJ7KIPPqPiBzY888sJGVutzpVL9voj8UwJ6RxsN60Nzc7UNYVm6l69OvEKh8CtKqZc6r0eof2e8ltfppNcretTePJe2Bzb4DIuPlJ9Srud2aJMfeeSFjazXZ8Mw3gjgTAJ6r1JKvR8uy4p00ptV3uTk5MOa97ctotQ/EfmrSqWyqLNer+jFyB0+Z8UEMviMio+cX6k0o/L53NAclEPeYPMA/dtbEF6zo/+LhPS+oFAovD4IS/fy1Yk3MTGx3TCMzwDYar8esf7dl8/n36GzXq/oUXvznaPma/Aes/WyIF6L7T91r4zkDTYPyGZ78+Jt3rz5HQC6blUaVK9S6h2maT5dZ71Z4l1xxRUjuVzuX+E46z1q/VNK/dHc3Nz9uurtknckvWnk19XgvdbZDYr4oDzd8yOPPK/IYnvrxrv99ttPdNvyNKReBeCj09PTl+qqN0M8Y3l5+YMAnmq/GKP+3bl9+/a2x/ya6XUN3dqb3wje7ecDIz4Ib4AO7iBviHhANttbEF6lUrkRwLcS0ru10Wh8bnJy0tRVbwZ4yjTNvwLwwraLMeqfUup1t95666qmer1yjqw3rfw8Dd5jb9uBEu/Hi7nuNrEvR7pXbvL04gHZbG8heA0RuQa2CXcx9U7mcrlvmKZ5iaZ6deYp0zSvA/CqtovxyuODlUrl3zTV634TNG1vrgbvPJUGa7P1Bk58N1693oh5UE66+ZFHnldksb2F5dVqtR+JyO8mpbd5jOnXi0Xz0Trq1ZRnmKb5LgCvs1+MWR53nTp16rc01esaOre3DoMvOc6TbUakHeV0F9+NF/XYTZo7ef3kua3tzEJ7i8K7//7j71ZKfT0pvQAuANRXFxbuvlJHvTrxrrjiihHTNG9AsiP3Vcuynnvo0KGTuun14rkdaa5LewMcBt/8gLZcEdHcdRc/zHt7kzc8vEFtb6XSjLr88kcbhqGuBXAyrl5gvf1ubzQa/1GtLj5RN7268AqFwnnLy8tfQILv3Jt//8aFhYXv6qa3O69dsy7trRXrBt/8AGcJWYMonuZO3jDwBrW92XmFwnhNKfUbcfQCHe13mwj+Y26u9tvl8mzgzXCyeP/C8gqFwo8rpb6L5GbLt+I/KpXKu3TTG4anS3trMUulGeU1yU7K5dlED3rRRXwP38HE/HKkp17yssEb1PbmxjPN8X8E8K5IguHZfnNKqXeapnnz3r17d+qkt0+8XLFY/F2l1DcBtK04SMDc721OmrQ00huKp8tqK1uOAJojeOejebdTaQZB/LBNsCBvOHmD2t668SYmJl4vIl8JywzQfn92dHT0e4VC4cd10ttL3vj4+IWFQuGLIvKncGx6lkD/t6qUel6tVrtHF73heBKrvbm9xo6aXzPHtjl0HbPlkzV3fcTT3MkbBl7UyaHA2vkLWdPb4s3OztZHR0efA6AWQm/HNY/bN66U+kahUHjDFVdcMaKD3l7xTNN8ej6fv00p9ZQY988rREReVKlUvqyL3rA8y5KYq6067mFcc1+PcnlWOi5EBGstnuZO3rDwwrJaMQhzSO66667DAJ4J4FQUvT7tN6+UeueRI0e+VywW294/Z7m+ePGmp6fPMU3zbwHcDKDjFUVC/d9v1Wq1j+mgNyovLKsVSbc3j31r1kbw5fKsJG3uOokHzZ088jxD5/YWlletVr+vlHoGgLNh9IbYYe1SESmbpvnxQqFQ6LfeFHiGaZovajQaPwLwyqTvny3eWq1W362B3p7ygFTam9uTeAFCngefUfE0d/LI8wid21tUXqVSKSulfgkug4wE2+8vKqXuqFb3v2Vp6eDmAbh/yjTNq03T/DaAGwHscWMmdP/eV61W36xLfekVD3C7fxI3v46Ru50V2eAzIp7mTh55HjGI5t6K5lanzwWwPqcoyfbb5G0UkT9YWVmdr1QW/7haXdyTwfunTNN8mmmaXwfwRQBXdNEb+/6JyCer1eorS6UZ9ElvX3he98+yJM5qNecctY45dJEMPiPiae7kkecRHvU50qs6XfVWq9WPA7gGgKRg7vZ/7gTwRsuSufn5hY9MTk5ervv9KxQKGwuFwotN0/wegP8A8IQQeqPev88BeH6pNGP1Wm8/eUBq/uG7+i0fFJpB8UORH3nkhY1hqs9TU5P/UKksjAB4P2wDmgTN3c4bAfACwzBe0BwRv7/RaHxucXHxqCb3D5OTk5cZhnENgBcA2BFTb5h79t6JiYnfzOfR6KHevvOSun8++Um5POs6oT2UwWdU/MDmRx55YWMY63OxOHlTpbJ4HMA/ANiYkrk744kAnpjL5eqmaX4NwKcNw/jM/Pz8/l7ev8OHjxj333/yUSLy86ZpPhvAJSnp7RZvqFQqf14sTiBtvTrxgJ61N8+l7YENPsPiI+WnlOu5HdrkRx55YWOY63OxOHFztbp4tWXJpwCc38P7l8fatq5PtSzr3aZp3qqU+jcA3zxw4ND3Lrxw1/1J6j148FCuXrcuqdfrj7cs64kAngxgVw/12uMsgBdVq9V/yVp9ictL6P755SfwOSsmkMFnVHzk/EqlGbWwsJRrNNq/GOmUH3nkhQnd21sveKY58Z/79lUfYxjGZwA8sk/37woRuUIphTNnzkqlsjivlLrdsqwfKaXuBLA4OTl5oF6v37t79+77b7311lVnKpdeeumW06dP7xCR3UqpMREpViqLDwPw8KauLVESS1jvEcMwnjE/P/+fWa0vUXkJ3b8g+fnOUVPwCa+p+EHEFwqFa5RSH44qXkReUqvVbogoPlZhLywsTTYa1r5u+fnEKpobbqQ8wYc88uxxDhxtNQRvoVqtFrrBde9cg/AuvfTSradOnfoAgOcEYfa5fFea/2tNTNuE6OWbRn5uMaeU+plKpbJvEOpLt3DzuDD3z8/j4ubXdQQfx9y9IosjiYj5jQA4V8PGRx55kVi6da5RebfffvsJAM81TfMbAP4Ma6aZ+v2LyBtt/k/X/Jzx/tHR0dfeeeedDwxKfenx/Us0P79lcm4/HxjxQXi6dK7kkddPnu6dawSeVKvVvzUM41EAvpb2/RsC3iGl1NOr1erLae6R7l8q+XkavMfetgMl3o83QI2PPPK0b2/94M3Pz89Vq9WniMivAXggjfs3BLxPjIyMPKK5uZBW5dsLXgL3L7X8XA3eeSoN1mbrDZz4brx6vRHzoJxk9JJHXj95uneuCfGsWq32XsMwLlVKfUHn8tCMdxzAC6vV6rObB/3oWr6p8WLev9Tz6zB453myzYi0o5zu4rvxoh67qVHjI4+8WDzdO9ekeaY5vnTBBTufqZR6CYDluPcP0Lt8Y/JuNgzjkdVq9R/Q3FNc9/JNg+d2pLku7Q1wGHzzA9pyRURz11287t/kyCOvnzzd21tavK1bt4hpjv/jyMjIo5VSfy0iZyLdQOhdvjF43zQM4wnVavUZvd60R09e+z3Upb21Yh3Y/ABniVuDKJ7mTh553qF7e+sFb3x8zyEAr56bq71dKfU6AL8GYHNQps7lG5H3v0qp361UKp9Dc8Te7f41Q9vyTYOnS3uzMT2XyXWcSjMo4oPy8vn8yUbA1/AaND7yyEuCt5zVzjVF3j0AXjc1NXWdiLxWRH4dPhvJaFy+UXiLAP6gWq3+I4CODnEAyjcRXpzySDI/W44Amo/onY/mdTH3pMWHKey5ubkjAE76MQesMZM3xDyl1PeRwc61F7z5+fl7K5XK74yMjBQA/ClsM+4d97Djmi7lG5JXA/CqXC53cbVa/Qho7h48iVUebq+xo+bXzLFtDp3bqTRxvjW4iI+sPVHxEQrbAlAG8Awv5gA1ZvLIg1KYdbmscefae15ztvjvF4vF60TkRQCuBfCotfune/kG4pVF5G9rtdpn4WLqce/foPEsSxpu9zVIePxdXHNfj3J5VvLOCxHBWouPWtiWZV1vGIarwQ9IYyaPvBbv6HnnnXuz47LWnWs/eZVK5TiAdwP4m0Jh8vJcLv9iEfklAHtav6NZ+XbjVZRS/9BoNG5YWFio9uL+DQovLKsVKfhby9zb/j4PRDf2DImPVNgLCwtfNU3zHwE83y+/DDVm8shz471p+/ZzT9gua9+5asIDgNsAvPbgwUNvOHt25XGNhvUMAD8D4KKwPKBn9WUfgE8D+Hi1Wr0FDmPo4f3LNK9QKIRFpmnurVh/Eh/qPPiMio9V2GfPnn35hg0bxgA8ySs/DTtr8sgLzBOR63fvfsgHbJcz0bnqxtuzZ1cDwDcBzJbLs6+enp6eqtfrJaXUkwH8JIAL/Zgp1pdlpdQ3ROSrSqkvVCqVu3S7f4POA9zKV+Lml7ODgPYBe2SDz4j42PkdOHDg1PT09E/V6/W3G4bxKjx4Q9cy1KyzJo+8ELyjSqnf3bXr/A9v2bK5BdKiMxwE3tzc3DyAeQB/DwDFYnECwFUicjnW3ts/HEABzRFYguV7H4AfKqV+AOB7hmF8e9u2zft27txhZen+DRIPcC9fy5LI+8zA4UVwWf0WyeAzIj6x/AqFsRUAv7OwsPSeRsN6gVLqMhHZIyKjYVk2vR2Co+6eRx55IeIBEdmfy+X+a+PGDR/bs+eC47afadEZDiqvUqksYm3Z2Sda16anpzc0Go2iUspsnu2+Wyl1vohsx9pyvM0ANuDBmdGrAM6IyAOGYRwXkSMADlmWtQRgQUSqF19cPKaDXvIejBT3qbCP3DtWv4U2+IyJj52fnTc5ObYA4E+S4iWdH3nkkZctXnPwMNf8n3b5kRePB/TE36RcnnVd8eB3XOwgiI+cH3nkkUceeeRp7m+e+9YENvgMi9eisMkjjzzyyBsOHtCbkTt8zooJZPAZFR85P/LII4888sjT3N9856j5GrzHbL0siNeisMkjjzzyyBsOHqCXv3U1eJu5OzMeCPHkkUceeeSRlwQP0M/f/Ebwbj8fGPHkkUceeeSRF5cH6OlvngZfKs1w5E4eeeSRRx55PqGrv7mug3eeSoMAs/WyKJ488sgjjzzyovIAvf2tYwRfcpwn2wyaO3nkkUceeeTZeG5Hmuvib4DD4Jsf0JYrIpq77uLJI4888sgjLx6v3TJ18bdWrAObH+A0eGsQxZNHHnnkkUdekjxd/M3GdH8HD5dTaQZFPHnkkUceeeTpYO7NSMXc18HOR/O6mHvS4rNaecgjjzzyyNORJ4hjb26vsaPm18yx9dpdgM5JdgmP3CWWuScpPpuVhzzyyCOPPF15liWNsKxWrE1A75iEnoS5AwDK5VnJOy9EBHuKd5tFH1x8R2hd2OSRRx555A0PLyyrFSn4W9vIvRV5ILqxZ0h8JisPeeSRRx55+vIKhUJYZJrm3gppsUKdBx9WfBQmzZ088sgjj7xB4wFu/iZx8+vYcdbOimzwGRGvbWGTRx555JE3HDzAffBqWRJ5nxl0nvLaMYcuksFnRLy2hU0eeeSRR95w8IDUdnT1Xf0W2uAzJD6R/MgjjzzyyCNPY3+TcnnWdTZ/KIPPqPjI+ZFHHnnkkUee5v7mubQ9sMFnWLwWhU0eeeSRR95w8IDejNzhc1ZMIIPPqPjI+ZFHHnnkkUee5v7mO0fN1+A9ZutlQbwWhU0eeeSRR95w8AC9/K2rwXutsxsU8eSRRx555JGXBA/Qz9/8RvBuPx8Y8eSRRx555JEXlwfo6W+eBl8qzXDkTh555JFHHnk+oau/uUFQcpxKgwCz9bIonjzyyCOPPPKi8gC9/a1jBN80d2fGNHfyyCOPPPLIs/HcjjTXxd8Ah8E3P6AtV0Q0d93Fk0ceeeSRR148Xrtl6uJvrVjPrvkBynHdiiO+Ull8EYAPRBUvIi+p1Wo36FLYu3bt2rJly5ZnWJb1BMMw9ojI+v1Ta48q7KUtErW0M8AzDOOsiNxhGMZnC4Wx24LcP69Iu3wPHjyUO3NmZcayrKeIyJRSKheWqXt5hODVAVQBfKlarX4ZQMcWl7q0N/LI051n97gozVdEXjI9XbgxyfxsObq/g4fLqTRRxDuERMHpUtjKNM2XAniHiJyvlGrTk+RriKzwWn9vWdab5+cXvqCUemWlUqmFZaVdvouLdz9+dbX+HgAP97oX/bh/GvBeZ5rmHQBeUa1Wv+F1/2yhXedKHnm68OK03yTzs+UIoPmI3vloXhdzT1p8xMI2TNN8H9a+pZ3v/KEmnXVfeQB+WkS+UywWrwzDSrvxVSqLL6rXG19B09x1vX995D0MwKxpmi8Dstu5kkde/3gSq/26vcaOml8zx7Y5dB2z5ZM1d33ERy1s0zTfAuBat59p1ln3m7dTRL4wNja2Nwgr7cZXre6/GsD7RCTSkch9uH/94hkA3l8oFH4ametcySOvvzzLkkZYVis636pFz6+ZY1tfVy7PSseFiGCtxccw90cB+D3v/NpDg86637zzR0ZGrvdj9eCd+yYR+Xuae3CcYRjvP3jw0CbHda07V/LI6zcvLKsVHk9CI+fnsW/N2gi+XJ6VpM1dJ/GIXtivg8tSQs07637zfrFYLF7k9cNeNL6zZ1eeIyJjPdI7KLy9Z86s/IrtsvadK3nkZY0HpOJvbk/iBQh5HnxGxUfNTwF4epD8NOys+8qzLOtn3K73qvE1GtbP9lLvAPFa902LzpA88gaJB7i1X4mbX8fI3c6KbPAZER85v0KhsAvAed3z07qz7hvPMIyHOa/1+LHZQ3upd1B4IvJQaNIZkkfeIPEA9/ZrWRJ5nxl0nvLaMYcuksFnRHzc/Db65adzZ91Pnoi03bs+NL6NIZFa3b8+8jbo0BmSR94g8YDUdnT1Xf0W2uAzJF7L/IaNN2yNb9h4upcveeT1kwf0pL1JuTzrOqE9lMFnVLw2+Q0bb9ga37DxdC9f8sjrJw/oWXvzXNoe2OAzLD5SfmotEssvab2684at8Q0bT/fyJY+8fvKA3ozc4XNWTCCDz6j4yPmVSjMqn88ldlBO0nqzwMMQNb5h4+neuZJHXj95QM/am+8cNV+D95itlwXx2uw1rHNnnRLPrV4NZOMbNp7unSt55PWTB+jV3roavNc6u0ERH5SnS+eaVR4GtPENG0/3zpU88vrJA/Rrb34j+MRGYjqKD8LTpXPNKg8D2viGjad750oeef3kAXq2N6/jYuGxt+1AiffjxXwH/c8bNoz+po0lKysrjShnfhuGUqOjozn7rL80eUqpCQDfD8McIHPfLyKPinP/wuaWJE8pdRuA8Sy2N/LIyyIP0NffXA3eeSoNAszWy6L4brx6vRHzoBys7N27+1ha+aXJKxQK54U5N32AzB0ArFqtdqxX+SXNM03TymJ7I4+8LPIAvf2t4xG88zzZZgyVuQOoRxmJeelNIz8deF56RcTSPL8oKO3Lo1SacV3bOch6ySOvnzy3I811aW+Aw+CbH9CWKyKau+7iB/ygnL7p1aV8dc9P99dMWdVLHnm95bX3Mbq0t1asA5sf4OwRY47E9BRPc09Hry7lq3t+NHfyyBs8ni7tzcb0nGTXcSrNoIgftsfUw2ielcri0D+mHja95JHXT54um4LZcnwQ7Hw0r4u5Jy1+GM2OevXPTxe9zcicXvLI6x9PEKe5ub3GjppfM8fWa3cBOifZJTxyl1idTZLiaXbDqVf3/FLQG7nBKff3TFrrJY+8fvIsS2KutupockmYOwCgXJ6VvPNCRLCn+DDLrTrFd4QWhe2V36CaSVb16p5fGrxIgqF3eyOPPF15YVmtSKG9tY3cW5EHoht7hsQPvdkNm95hfUxtmmZosTq3N/LI05lXKBTCItM091ZIixXqPPiw4qMwde5svPLT3eyGTS8fU4fS63ZZi/zII2+QeIBbe5O4+XXsOGtnRTb4jIgferMbRr2REsRwmd2w6SWPvH7yAPf2ZlkSeZ8ZdJ7y2jGHLpLBZ0Q8zS4iTynXDdEGVm9Ts9tlLfLrYX0WHfIjj7xB4gGp+Yfv6rfQBp8h8UORXxq8fD7HHQg1yY/1mTzysssDetLepFyedZ3NH8rgMyp+YPPTfcKa7noBmjswuOVLHnn95AE9a2+eS9vzCBgZFt+vx9Q7CoXCjz3Ig6pW9+fsSBHAshoNEYSejZkuT10YQW9bZLjxjczN1R6tV3mE4o2G1Bvl1mlfvuSR108e0JuRO3zOiglk8BkVHzm/UmlGLSws5RqN9i9GIfN7ulLq6Xa9Iu27Hq3xFKJsFZAuT6LodUZWG98epdT3ovB0L18PvaFD986VPPL6yQN61t5856j5PqL3mK2XBfFaPKZOWm9GeG71aiAb37DxdO9cySOvnzxAr/bW1eC91tkNivigPF0616zyMKCNb9h4uneu5JHXTx6gX3vzG8EnNhLTUXwQni6da1Z5GNDGN2w83TtX8sjrJw/Qs715GnypNMORuyada1Z5GNDGN2w83TtX8sjrJw/Qt725TrJznkqDALP1sii+G69eb8Q8JSgZvVnlYUAb37DxdO9cySOvnzxA7/bWMYJvmrsz46EydwD1qPuZ69xZ95BnDWLjGzae7p0reeT1m+d2pLku7Q1wGHzzA9pyRURz1108zUQvHstDL57u7Y088vTgtbc5XdpbK9aBzQ9w9hAxR2J6ig/Cy+fzJxshntLr3Fn3gXciDCuFTYpOul3P0P3rC09ETgBZ6lzJI08fni7+ZmN6TrKTcnk20YNedBEflDc3N3cYwKEgTB07637yROR/g7JSKt/be6l3UHhKqf/NaudKHnn95OmyKZgtRwBNg3c+mnc7lWYQxIcsbAHwCT+mrp11H3mNRqNxcxBWWo1PKfXJHuodJN4nkMHOlTzy+seTWO3X7TV21PyaObbNoeuYLZ+suesjPkphi8ifATjjxdS8s+4LTyn1/v379x/wY6XZ+CYnxz8jIj/M4v3rI+9/TXPysy7XNe5cySOvvzzLkpirrTracFxzX49yeVY6LkQEay0+amHXarWaiPy2d37toVFn3S/ePgBv9GOl3fgMA3Wl1EtE5ExYVp/vX794Z5RSLzMMONur1p0reeT1mxeW1YqklxZ77FuzNoIvl2claXPXSTxiFHatVnuvUur3/PLTqLPuF+9OAFdXKpXj3Vi9anzF4sQtAH4ewAMZuX/94j2Qy+WeWSxOfM9xXfvOlTzyssYDUvE3tyfxAoQ8Dz6j4mPnV6lU3q6UKgG4TfPOuh+8s0qp60dHR6+qVqsL3Vi9bnzVavVLuVzuMgCfDcocgPIIE5/dsGH0qkJh7CuO61p0huSRN0g8wK39Stz8Okbudlbg8+AzKj6x/IrFia+cOHHyqsOHj14pYj1BBHuUUjkRsTy+lATR2/EFKys8ETmhlPrhysrKvy8tLS37sfq4GmIewM9PTEwUDcO42jCMIoAN/b5/feSdtSyrKiJfuugic9Hv/gUN3TtX8sjrJw9w/3JuWRJntZpzjlrHHLpIBp8R8YkX9tatW2Tr1i23ALglCV7S+ZHnzVtcXKwA+Htd8yOPPPIGkwekugnVOsRtgnzoR/QZEx87P/LII4888sjT2N+kXJ51ndAeyuAzKj5yfuSRRx555JGnub95Lm0PbPAZFq9FYZNHHnnkkTccPKA3I3f4nBUTyOAzKj5yfuSRRx555JGnub/5zlHzNXiP2XpZEK9FYZNHHnnkkTccPEAvf+tq8F7r7AZFPHnkkUceeeQlwQP08ze/EbzbzwdGPHnkkUceeeTF5QF6+punwXvsbTtQ4skjjzzyyCMvDg/Q199cN7opOU6lQYDZelkUTx555JFHHnlReYDe/tYxgi85zpNtBs2dPPLII4888mw8tyPNdfE3wGHwzQ9oyxURzV138eSRRx555JEXj9dumbr4WyvWgc0PcBq8NYjiySOPPPLIIy9Jni7+ZmO6v4OHy6k0gyKePPLII4888nQw92akYu7rYOejeV3MPWnxWa085JFHHnnk6cgTxLE3t9fYUfNr5th67S5A5yS7hEfuEsvckxSfzcpDHnnkkUeerjzLkkZYVivWJqB3TEJPwtwBAOXyrOSdFyKCPcW7zaIPLr4jtC5s8sgjjzzyhocXltWKFPytbeTeijwQ3dgzJD6TlYc88sgjjzx9eYVCISwyTXNvhbRYoc6DDys+CpPmTh555JFH3qDxADd/k7j5dew4a2dFNviMiNe2sMkjjzzyyBsOHuA+eLUsibzPDDpPee2YQxfJ4DMiXtvCJo888sgjbzh4QGo7uvqufgtt8BkSn0h+5JFHHnnkkaexv0m5POs6mz+UwWdUfOT8yCOPPPLII09zf/Nc2h7Y4DMsXovCJo888sgjbzh4QG9G7vA5KyaQwWdUfOT8yCOPPPLII09zf/Odo+Zr8B6z9bIgXovCJo888sgjbzh4gF7+1tXgvdbZDYp48sgjjzzyyEuCB+jnb34jeLefD4x48sgjjzzyyIvLA/T0N0+DL5VmOHInjzzyyCOPPJ/Q1d/cICg5TqVBgNl6WRRPHnnkkUceeVF5gN7+1jGCb5q7M2OaO3nkkUceeeTZeG5Hmuvib4DDyJsfoBzXrajiK5WFlwLqAzHEnwawsp5sgl8WyCOPPPLIIy8mbxTApqg8EXlJrVa7IQ1zhx1oM3d7RDb3NXY7LsLN3NS6eRkpbPLII4888sgLHGmYe5Pp/g4eLqfSxE1Wl5tJHnnkkUceebrwkJK5A8138PYLgPupNCHANHfyyCOPPPLI8wm3d/iIZ+5tc+jcTqWJ863BwRPE+WKje+GQRx555JFHXlI8xDf39SiXZyXvvBAR7DpytyxpeIiIJF73wiGPPPLII4+8KDzEWx3QMve2v88D0Y3dBnd9h5CkeN0LhzzyyCOPPPKi8JCMua+n12KFOg/eA67tpgHkkUceeeSRpy9PgHjm3rHjrJ0V2eCDmLthGPfHE6974ZBHHnnkkUdeNJ5lyeGY5t6WnnOCfCSDDzpyV0otxBGve+GQRx555JFHXlSeiNwVlmXzX9/Vb6ENPsxj+Y0bN/4AwNGo4qMGeeSRRx555GnOu3dhYeHOMCwP/5Vyebbh9vuhDD7sO/fbb799BcB7IoqPFOSRRx555JGXAd77AQTec6aL/3oyAht81Al1o6Oj7xSR+QjiQwd55JFHHnnk6c4TkfnNmze/IyjLa+QOn4PgAi1SjztbvlAoPFQp9VUAu/txM8kjjzzyyCNPE949IvLkWq32oyCsOP7rO4L3mK0XCN6KWq32o9XV1SsBfKYPN5M88sgjjzzy+s5TSn0hl8td1QtzB3xG8F7r7ILC3XiLi3c/rNFoPF0EjwFQAJAX77s5AWB71JsJ4A7YjpsNEsoFKNFKeweA8RiVZz+A5RTzS5O3A8BYSL2u2jOi1x47RGQsEmyNtwRHuWuu187bAWA8JM/+zyUAyxnSa49A2rv0B67tXWO9gbQH7P8Ca09B7wYAD/XJr1scBbDolZ9SqiEi91iW9SMA/1yr1b4VFJzEPjN+Bt8yd/vvxVmUHypZ0zRvAPBiz+R9Ko+ImLVardarm2mPQqFwjWEYH+6WX7eQ5jnBaeWXJq9SWXwRgA+E0evUPj1duDEreu0xN1d7vlLqw2F5wHp9vrZYnPhIVvTaeYVC4Zow2l02/bi2WJz8UFb02iOIdp93sm3tXXe9QbQHHdwE0Z6W3oWFpclGw9rXLT+fuLFarV6jU3nYw/MRvc3ctUnWHkk+VkmjcNxOCdIpv17w4jzmyqJeJLw9cxb0Jtl+LUsaOuQ3jP0V9eqfXxSeq8E7T6XB2my9vifbimxUnvYc9csvTZ7EMvckj1DU/f4BNHdgcNsH9WZD76AORjoM3nmebDO0+GYNDFfl0b0xdztFMJJgtMq3o4y11huV96Bee4g2+bH9Uu8w6I05oc5tkKxNebTBmh/Qph2ApUuyw1Z5epFfGryoYjmS5WNq6qXeXuqt1xsxByPp5heV14p1YPMDnBnT3CPzBHG8PcuPqQuFQmi9OjcW1mfqpd7B1Csi4tH3hNabRn5Ry6M1WM97/LzjVJp+JpvFymNZ0ohScbz0Jp2fLjx3vXxMTb3UmwW9pdKMqlQWMjuheNAGIzYmgOY7eOejeZp7fF6kBKF35eFj6nT0ZqE+Uy/1evOGY0IxoHf/3GS2zaHrmC2vi7mXSjPKbQIDK89g6x228qVe6s2i3mGbUAx4lq82r7Gdq9/K5VnJOy9EBLPyxOABfEwNDFv5Uu+g6M36Y+qkeIM6oRjIRH1umXvb3+eB6MaeYrJDbu58TE291JsFvcP2mHrYJhQDmajPbk/iBQh5HnyPkk3M3Jv7AmvbWJo5dlzTrPJQL/VSbwjesOkd1H0vHsyvPTQr344dZ+2syAave2MBgHw+x2+G1Eu9PeJxe+bBfUw9bBOKvfLTrD4721vHHLpIBt/DxhJpwh/AykO91Nt73rA/po5u7jo/ph62CcVe+WlYn31Xv4U2eH4zjMfzyk/DykO91BuZN2x6B/Ux9bBNKHbPT/v6LOXyrGv9C2Xw2aw8+ueneeWh3hA8PqbmY+owoXN/NWwTir3yy0D79XzSHdjgs1p5+pWfYRgd9zZM5TEMo+s2eDqXR0t71Mbipl1nvXaeYeTayj1s59DSnhW97bkrI+acmUzptfPc2rtf2NuHrc5nQq/9QlDtXv2BX1/XC73d8osSvRq5w+cguBwCRL8qz/bt258J4MeCMN2/GVrv+u53/+doWvm5xdTU1BXnnXfedQBeb2dEqDwz27dv37tz5859R48eXU4qv6T1emlXSsUZ2bVp11Wvnbe4ePdjjhw59nYReU2LHbFzmNm+ffvekydPVc49d5uz7mqj185bXDxw+ZEjR99uWQ9qDxtKKYjgSUePHt974sSpfU3tWuq186rV/Ze7tfcgeu0hIk9aXj625/jxB+5ytned9Np5Xn1dEL1Nza3/9Ozr0tZ73nnnnaeUenUMc//+sWPHPp1Wfj483ycfvt+cvKbip5BsB880zRsAvNiP6VU4ImLWarVaWvnZY3p6+tJGo/FOAD8bNL+AYYnIjfV6/Q+Wlpbu1tHsnNoT/CZsiciNhqHeUixOHtBFrz0uumj6EY2G9U4AP5OAXtjunyUiNyml/qhYnLhbF7123v79Bx++urr6pwB+JgG99rAsy1qv87rotcfCwtIl9XrjHXBp7xH02utLW3vXRa+d162vi6DXHr7ak9ZrmqaplKoEzM8tbqxWq9eklV9cXtcRfD/NHQg2gvepPNcfO3bsWJo3c3p6esM555zzNhG5CcAlIfMLEkopdVkul3vFeeedd9KyGt/bvHmzE9CXyuOmPcnHXACUYRiXAer/Hjt2/IRlNW7dvHmT9Euvm3YAHeWekNkppdSPAfi/y8vHjn/3u/9zCxy7VPVSr523vHxsw4EDh95iWdYNAC5J2NyxdsDXWp3fvn37A8eOHftOEO296FyPHDk6euDAoTd7tfeIeh2/Ekx7r83Er6+LqDew9jT0PvDAiZ0i8qqA+bnF+gheN3MHfEbwpdJMy9ztv9ezZP1G8H6VJ8wIPqK5TzUajX8FcFmU/MJGk1feuHHjiy+88IL7/PJLWq+f9pT02uNLuVzuBfv27bu313rdtCulOso9BbNr/ecXc7ncC+bm5u4Lwkqrs1lauqe4srLyzwAenbJee/hq70XnurR0sHj27MrHEPC1YQy9vtr7YO5TjUbj42G0J9AfrGtPS+/CwtJko2Hti5gf0BzB62juQJdJdjZz1yZZe/R7QsTU1NRPNBqNb6O35g4ApTNnzvz3/v0HHx71/sUtDzftPTB3iMjV9Xr9lunp6Ut7qddNe4/NHQCe1mg0vhNEe4qd4U+srKz8N3pr7r7ae9G51mpLjz97duW/0Vtzd9XeazMpFotPaDQat4TRnlB/8LRGo/Gdiy6afkQv9Go+oS4Sz9XgnafSYO0xSd+TbUW/zb1YLD7VsqwvAdiRdn4evImVlZWvViqLV/RCr5/2Hpn7uvZGo/GNYrF4ZS/0umlXSnWUe4/Mzld7Wp1Ntbq/1GhYnwewvYd6fbX3onOtVvc/tdFofKGlvUd6XbX32kxM07xaRL4YRnvC/cFEo2F9fWHhbmdfp4W5N0NLcwdcDN55nmwzuE6xGcVi8UoRuRnAprTz8+FtF5EvhhnNJmDuHdp7bO6tCKQ9YXO/UkRuVkp1lHuPzc5Te1qdf622dJWIfBzNcu+Dubtq783Iff9VlmV9Ah7tPWW9Hdr37z/4qDT12nmmaT4GwKfDaE+pP9jeaDQ+33xqmbjemPm5DZK1MHfAYfDND2jTDpr7ehQKhd0i8lkAm9POLyBve6PR+Pz09PRD0tDrov1mu/Y+mbtd++e8tCdZ/1ralVId5d4ns+vQnt5j+bv3WJb1cTTLvY/m3qb9oosuuiANvfZrCwtLuxuNB7X3Sa+dt311dfXmAwfutdf5VMxkcnJyD9bMPbD2lPuD7aurqzcvLNy9PUm99Xoj5g6E7vcvqfyi8lqxbvDND3BmrM1h9v02dwCGUuojAHannV9I3kSj0fgHdJ9PEbc8DKXUTQD2aKDXHpNu2hOuf4ZS6ial1B7nD/psduva0zL3I0eWjUaj8SE0y10Dc2/TfuTIsrPOJ9a5Hj58xKjXH9TeZ7123sSZM2duOHz4iJGkXsf9MwzD+EgY7T3qDybq9fpNSHAHVomYpO7mXirNqFJpRnndKCmXZzlyt4VpmtcCuDrt/CLynlYsFn81Sb0u2ksa6W3TbprmryWp16ldKVVyXtfE7FraUxnJ3n//yZcCeKpGeu28q++//8QrktRrj+PHT7wYtjqvgV57XH38+Ilr0+qfne1dA712Xlt7T0JvEvlF5aVl7uu5Oi6srcNyOZWmH8mapnmDUqpjmVzQyuNcJhc1v4mJie25XG4eLhNNNDK7+w3DuGh+fn59CVkS5dHUPofmpDqN9NrjOIBLpqYm742r1x6FwuQOw8jtg2MypQZ67bzjIyMjjxgf33Morl57fVlYWNrRaFh3YO3dr0567f88PjKSv3R8/MIDSXaud901f04ul9+HCJPqetg+jgO4pFqtHgrKCtIfjI2N7RgZGZkLqr1P/UEg7UH0FgqFglKqGiO/m4rFiRdrZO6tQbsAnY86RBdzL5VmlNsEhn4sZTAM4w3Q29wB4BzLsn4/Cb32yOfzvwO9zR0AzgXwe0nobUWpNKNyufwbobe5A8C5q6urv5OEXtjuX73e+G3obe4AcO7Kyuobku5cDSP3Wuht7sCDdT62Xvv9y+fzrwuqvY/9ga/2Hj5J1uY1tnP1W7k8Kx0XIoJ7snSjH+Y+PT19jlLq153XNTW7V0xNTV2QVHlMT0+fIyKv1Fivnfdyx+Sj0HpbUSrNqHvuuW+7iLS99tBMr/2f1x44cOj8OHphqy8HD957rlLqlRrrtfNeHmSSaTe9tqhXKovnKKV+Q2O99gikPWh/UCwWzw2qXYP+4OW9mGCbht40/NJj35q1EXy5PCs0d/doNBovBLDNfk2Dyu0VG0TkpXH0OrS/CMA2jfXaeRvPnj37kjh6gQfry+nTp9vKXUO99th45szZxB4Tnj595vkisi0sq4d67byNlmW9LI7eZtTL5VkRkY72rplee/hqD9P/BdWuSX/gqn0YzR3uT+IFHh/U72QTM3e1VjJx82ubAxCzsI8opT4uIrdYlrWcy+W2K6V+XESeBeD8uHpt+f5FDL1trAQr92EAnzIM9R3LkuVcLrddRK4SkWeJyPlRgEBHeTwfwHVR9drrnwheGFOvPb/DAD6jlPq2ZVnLSqlzlFKPEZFfhK3cI+hdz08p9UIA74iq18F7QUy99lhurqH/tmVZy4Zh7FBKXSUivwRgZ1S9jgikPWB/9WI/Toj8lgGE0h6hvXlqj9A/+2oPkV8g7TH7lzbtQ2rurfNk1v/ezlJhoSkn28arVBY/2PxWGSny+dxFk5NjC1Hzm5qaGrcsa3H9ZkUv7LNKqT9aWVm5fmlp6bRT79LSwc0rK6uvBvD7IjISVW8rv3w+f+nExIWt/ZUjlcfU1NSkiNQi6nVqf0uj0bj+oovMVecP77xzfjSfz78GwB8i5BdOt/JQSl0yPz9/V9gk209JOzC+ulqfj6jXnstZpdTbNm4c/es9e3adbl5eL48LL7xw84YNG14bVLtf/VNKXVypVPb5cZx67VGrLe1pNBoLQRg++Z1VSr21Xq//1cLCwinn7wbRHqa9+WkP0l8523tIvfb8ziql3rKysvKuVnsPoj1q/+KmPWz/HER7wPwCa495pHSb9qh+1G2SXUC9bafJeUXK5g6sGXzHHLpQ6wlTTtatsCNN+AOSWcpgWdbTuvECVsajIvKkSqXyDjdzB4CxsT2nisWJP7Us66cAnAoC7abXshpPjaK3FWv5yU9F1GuPYyLypGJx4h1u5g6gvn///pPVavWtzXsdWHuXI4JDL21ymWBWiqjXnt8xpdRTTXP8nW7mDgAHDhw4FVR7wPp3NQJEt/ZrWVYSS8OOKoWnmub4n7qZexDtEdqbp/ag/ZWIBLp/Pvm12vvb3QzOS3vMkWJb3lH6Zz/tAfMLpH1qavJtAH4ajnKP2N6uHtKRex6OAbrbBPnQBt/LvZDDslqR1DpFEXm8Fy9gYTcAPLNWq30riN5arfZVEXl+XL2WJY+Noteen2XJ4yLobUtDRJ45PV34NgLUl4WFha9alhXo0XC38hCRx0bR237/rMfFNHdLKfySaY5/20uvPfy0B61/QbT7tV/Lsp4QQa/9nw2l1C+Y5sR/Bal/CwsLX22+XgitN4j2MP1VUO1d8msAeIa9vQfRHtdM7Nqj9s/dtAfML5D2Vn5TU5NfMwzjmih6XbQPo7m3pVcuz7ruyJfYjkC6LBVIchMCpdSjYxb2e6rV6tfD6K3Vap8G8C9x9IrIpXHLwzCMR0fQ26Z9errwdT+99lhYWPgUgH+NoNf+z0chYHiVh1IqMMMjv/ea5sTXbZd965+X9pD1r2veQeqfvdxD6LXHe01z/Gth6l+lUvlkS3uM9tahPWz/EkS7T37vqVar3wiqu1SaUcXixGcBfCKC3g7tMZcCu2oPUR6+2p35FQpjnwbwiZhfpt3yHiZzBwDPJ92BDX7YzH18fK+hlLrIeT1EYYthGH8WRa9lWYEmS3WpjMWwep35ichUSL1tYRjGnwfV69D+9gh67TEVRa89PxGZjqK5ld/ISN4+yTFw/XNqj9DZeGoPWP+UiFyEgOGWXy6Xe2eU9iZivTNm59qmPUL/4qvdL79cLndd0GQd+V3nxgsRUzH7U1ftYcrDT7tXfpbVeDsiRjM/Z183TOYu8DkrJpDBZ9Xc6/VG5O12N2zYuA3AOfbrIQv7tvn5+f1R9C4sLPwPgFpYvbb8zhkbGwt8ApQzv4WFpS0Azonxzfo20xw/EFRvEO0hGt+2QqGwMYxee34/+MEdm+Eo9yBhy+8H4+MX7g+q10t7xM7GVXvQ+rdr167NCLhEzCO/7+/bt29/kL935rd79wU/ALDg4IXBrGuP0r/4aQ9QHt+fm5tbCqrXnt+uXef/D4CFGO1t26FDh7eE0eunPWT966q9+2vJhe/Cp69zC1t+2+6990irzg+TuQMBDoLzNXiX2XppJZt44UQ5SKCVn1LGuU5eyJiLoVcA3BZWrz02bty4NYxex+VtMR+bzYXU21V72MY3Ojrqqd2vPDZu3BjH3IFmuYfQ26E9Tmfj1B6m/gXV3iW/QDP43fLbunWLAPhBWL1O7VH7l27aA5ZH5NULW7ZsFhH5fmjBtvxc9i0IXP+c2iPUvzirF7r2dV567WFZ1pYweh0slVFzD8TravA2c3feAe3NPUrY88vnc7mYPImjV0ROxtHbaDSCfnlzyS/y6slEXpPYtUcp39XVVbcvpIHq38jISA4hwiU/CavXkV/H7OMw9c+uPWz9C6LdpzxCaXZ5LXQyrN42UfV6PozeINpD1D/fpH1eC530+/tu+a2u1u35h6p/du0R+1PXXwixeiGwdrf8Tp06HWkX1lJpRtn7+RB6PXlB9PaS52cCWh9mn+43L7UShwfAjKNXKXVhHL25XM51mYq33gfzE5EzUQTb8psMq9dNe9TyHR0d7Vh2FaL+nY2g157fRJz24TyWNmz9a2mPuFRqJYJe+z/NsHod/D1xnhxt27bVrewC1T837SHrX1ftfuXh1t79wp7fxo0bTtl5YTgt7TH60w7tYepfUO1e+Y2MjIT+cqTbjqlp8bqdIT6UI/dW7Nhx3nLc2Z0LC0s7HJcD6W2+P78qht7Vubm5B8Loted37rnnHkPI0Zgjvx+r1fZvD6rXTXuM8q3feeedJ8LotV8Iqr1LfpeNjY3t8Pt7t/wOHjy0CcCVIfV2aI/a3s4777yjEfTa47K9e/f67k7nlt+BA/dsFJEr/f62S371zZs3Ojv6wPXPqT1C/fPU7lcebu09gN42zqZNG06E0WuPHTt2HIvZn7ZpD1P/gmrvkl9He/eLYTF3wMPgnafSIP5jx0yZOwBs2rThjFLq7hj55S3LuiaK3pGRkRcC2BxD737EeGx26623rgIIrN0lv1yjYb0oSvmOjIy8UCm12Xk9xBHBC3btYetfEO0+5ZEbGRl5aVC99vzOnFl5PprlHqU+i8hCqTSDMHqd2t3qfIj6lxsdHe2q3as8Tp8++1zY6nyYaL6DXtyyZbM9qVD9i117xP7FVXvA10Jt7T2IXkdui1u3blmN2j+fe+4WUUodcDDDYNa1R3gt5KvdZ9+LtvYeRC8SNPdmaGnugIvBN83deUcjz0ZPMlmgt7MdReSOOPmJ4A379x+4IIzeQqGwG8DbYup1zTtkefwwrF5Hfr9rmuauMPfONM09Sqm3efAChVJqXXuM+uepPWB5BNJuz29x8cBuEXlLWL0u2mO1N2edj1D/3uil3as85ucXzoetzofU3Pr/H0XR69Qes39p0x7wPPK29h5UryN+GP/shQfLPWL9e2OxWNztp9ceQbQH2J45cB+dhrm7HWkOTcwdcBh88wPatGNIzb353/8vZn47VlZW/2FurrYhyN9PTExsV0p9FsBD4uhVSn0nol57+O7G5ZPfDgAf81uy1opCYXKHXXsYvY6cbo2o11d7iPLw1e7Y+357vV7/FICHxOlsDMP4XkS99liv8xHr3w4A/+JcpulVHnNz1W0Aboaj3IOEPT+l1Hcj6l3PTyn1bef1kOWxrj1I/XO29zB67fm16nxYvY78vhVBb4f25msmV732CKI9SP0Lqt2rPOr1RiPI3wfNDxqZO2Az+OYHODPW5jD7fixlEJEvJ5DfjFLqi9PT02Pd/n5qaurxuVzu22i+g42jt9FofC2KXsdnddUeML8ZpdSXxsbG9vpo/wnDyH0bwBVR9NrDsqzZuPXPTXuE8vDU3j5yv/txq6v1/wJwRfxT6+TrjstRJlx9OaJeezxxZGTkP1ravcqjWt3/GKWMb8E27yCc3rbcZqPoteenFL4aUW+H9kplYcLlZ/aDbdrae1i99vwsy5qNotdx+SsJnJr4k6dPn/1cpbLYqvNeB9v4ag9a/4Jo95lQ3PdN1dLwy+YZ8Q9m6TR4t43re52saZo3IMaRpSJi1mq1WtT8rrjiipHl5eWD8DnWMmB+JwC8V0Q+vmHDhh9u3br1zPLy8oVKqccDeKGI/HRInlcc27x5867bb799Jaxee8zMzOQXFhYOwuU40wj5ddWOtYMnouq1x/Hzzz//gnPP3eL2x4Hrn1N7zPJo037OOeecPX782LhlyeNE5Pki8n9i6IUtv+MXXrj7wo0bR1uH+kTqHK666qrRI0eOHICjzkfM7wSA9xqG+vTWrVvv2LZt65l7771vj2VZj7MseZ69zkfQa4/jO3fuvOCWW25ZCctyzIEYOXDgnkUAOxMojxMA3qeU+uTWrVt+ODq64eThw4f3uLX3CHrt5XF8x44dD2nOHQmlt+0GHj+pDh8+3FHuEfM7ISKB+roIetvS9tPu1/91O00uYH43FYsTL4Nm5r6eq+OCAvQwd2DN4JVSL3ZeDzHhqs3go+Rnmub1AF7l9RlJPllIiPfBarV6bVS99igWi38lIq/WXG+b9qmpyV+LqtdNu+Z67bwPF4sTr4iqF3iwvlQqi38J4Dc012vnrdf5KHrt1yqVxb8Ukd8Iy+qxXvs/A2v36w/8+jpN9AbWHnAORCiDd8nvpmJx4sUamXvrqbwAnZPsRBdzb74T65jA0OulDCLyd62b5QxNO//3xdHr+Oz32rVrqnc98vncB+PodcTfK6U6/k4nvXZeLpd7fxy9joOG/h7NctdVr52nlPr7OHodvPcAwWdl90Ov43cCaQ/SH3Tr63TRG1R7D18Ta/Ma27n6rVyelY4LEcE9WQfYj3WKtVrtR3Cc9gT0v3J7xNeq1eq3kyqParV6J4CPa6zXzvv65OSYc3Jh5PpXLE7MA/ikxnrt//z65OTe78TRi/ZTvu4E8CmN9dp5X6tUKrfE0WuLerVavQMu7V0jvfYIpD1of+DV12mkN5D2QZkDFobnsW/N2gi+XJ4Vmrt3iMgfwHY+vQaV24vzpqTLQyn1h0qpuvO6DnrtvFzOeHMSeu33L5fLvRnNctdNrz0Mw/jDJPQ68nsTbHVeJ712nlLqTUnoRftItq2966TX8Xu+2sP2B0G069D/eWkfRnOH+5N410f0OiSbmLk3TxGInV+tVvuRUuovmsyOn+vQ+YvIR4vFif9MQm8rWiNZEflL3fTaeSLyscnJsf9MQq/9/k1O7r1LRP5SN70O1scKhbGvJ/2YsFqt3tGq8zrptfNE5KOVSuWbSeh1jmSDau9XfxBEe5T+2U+7Dv2fl/YhNfeOkbudFdngdTd3oP3AmLj5NRqNPzYMo2NTBU06/0MjIyO/jZTKY9u2rW9rbSihiV4779CmTZtem6ReexiG8UdKqUCb/vRIrz0O5fP530rrHeDKyspbwmjvced/KJ/PvzpJvfYIor2PZuerPU7/7KVdB3P30j7E5t6WnnMOXSSD76G5R5rwByS/TvGii8zVXC73PADrB5loYnaWYRjPn5zcezRJvbCVxwUX7DyTz+efG/XEq4T12nlWLpd70YUXXnBfknrt929+fv60YRi/DCCU9h50hpZS6vn79u27N0m99vu3tLR0Win1HNjqfB/12nmWYRjPm5ubuy8IK0p/5ae9j2bnqz1u/+ymXRNzd9U+pOaeR+fIvcMvQxt8LzfWD8tqRVqbEExMXHi7iLwYiHTUfNf8YvBeZZrjX3e5nmh5jI/vuU1Eno8IM4zT6hyUwm9PTu5tbU6S2jrUubm528No71Fn+Kr5+fnAGzGF0WuP+fn5/7Us6wXdtPeh83/V/Pz8V9LQG0R7n82uq/ak+me7dk3M3VX7EJt7W3rl8qzrjnyhDF7nU3NakfYOQ1NTk58RkV+NkptXfjEay5umpibfl6ZeO69Wq30GwMv7qNfOe7NpTvxdmnrtF4Jq71Fn+KZqtfq3aeq1x8LCwqcAuNb5PnT+gbUn0b84tffZ7LpqT7o/vegi89OGoX69j3q7aqe5r4fnk+7ABk9zf5BXrVbfp5R6GYBQ+xgnWXmUUq+Zmpq8rhd67bxqtfoBEbkmiPb0Ru7q9cXixNt7odceftp70fkDeE21Wv2TXuh1aO+o8702O6VUYO1J9i8t7UqpjnLvldn5aU+rfzbNiQ8YhvFyNMu9H+bupp3mvpYefM6KCWTwWTX3er2R2kE5lUrlQ5ZlPR3A8aj5Raw894vIM4vFib9J6v6FLY9arXajiPwsgGM90Gvn3Q/gl0xz/Ppe6g2ivQdmd79lWc+sVCp/1Uu99rDX+R6b+/0iElh7Gv1VsThxk4g8C7b23iOz89Wedv9cKIzdICLPFJFAfV1Mvb7aae7r4etvvgbvMVsvjWQTL5woL8rD5LewsPCFRqNxOXxOnUuw8nxDRC6bni58Pqn7F7U8arXaf1iWdbmI/FeKeu28bxqGurJYnLi5H3q7ae+B2X3TsqzLmq8Jeq7XHhddZP67YajHwHHiXopm9w3Lsn4sqPY0O9epqcl/V2pNe4/M3Vd7r8xkamryc0H6uph6fbWnsM+Hyqi5B+J1NXivdXb9StYt+l04i4uLlWq1+oTmnu0d33ATyu8QgGuPHz/25Onpwv6k7l/c8lhYWKjWarUnishvtbSnYHaHlFKvOPfcraVCYbzWT71O7UeOHH4SgNfAUe4Jdv6HlMIrjh07OlOr1Sr91GvnmeZEddOmDTOAvBbA8ZTM7hCAa6vV6szCwkK1n3rt10xzvHrfffd6tvcYeu0RSHuvzcSvr4uhN5D2NPS6LaUeFHMH/EfwWh9m329zt0WjVqtdv7KyMqWUeifWHiUnkd+SUuq1p06dmpqamvzQ5Zc/WsfyaNRqtb9uNOpTAK5raY+ot027YRhvyOWMh5rm+Id37tzRmkjSb73rvMc+9ko1NTX5N7mccYmIXIe1R4pR9drry91KqTcYhrrENCfev7x8NPSZ1Wl3Nnv27GoUi5PvXl1dmbbX+Yh610NE1ut8tVr9ILpMIOqlXjvvgQdO1N3ae0S99n8G1t5HM2kE1R6y/+uqXfd9V3Q0d8Bl71rbB9hH7q3/72myreNiXRMPUHncjotN82a24hGPeMS206dPPdey5FeUUj/ZYgesPMsAPq+U+qeJiYkvzs7O1nWtPG68o0ePbz127P5nW5b1KwDWtQeMlvaPFQoTXzaMjsls2um1xz33HN548uTJXxaR5ymlnhhGu1JqGcC/G4bxzxMTY18yDNR112vnXXrppVtPnTr1nKDaHe13GcC/A/joxMTEf8zOzoZaItvv9hFEe5f+qqO96643iPaA5h5Ie5p6FxaWJhsNa59HfkHixqmpyZeklV9cnqvBN0+lUY6fpzZhzSu8DD7Edo6+Bp92Yzl06PA5J0+eeiyARwG4RET2ADi3eW/PKqWOAFgQkR+KyC21Wu022L696tSYw/JqtaVt9Xr9cYZhXBZUe6k0I1nVa+dNT0+fE1S7YRjfO+ecLT+wPaXInF57+Gk3DGMZwCKAO5TCd7Zu3fyD88/fuZJVvX7alVLn4cFyXwawYFnW/7q196zpddH++Fwud3lT+240y11Ezvj1df3Q2zL4GE/ebpyamvy/aeUXl9fhlDZzt/+85+YOuBt8mMc+fgavc2MhjzzyyCMvXd7CwtJkvd7YF5bVCqXUTcXixMt01AsnrPkB9hAA2px3q9E7d/LII4888jLOq9cboee3tKJX+65E9UvYgc0PcGZMcyePPPLII28geSIiHkbdNXQ399Zg3WsiTMepNP1MluZOHnnkkUde0rxCoRAWmRlzB5rL4JyP5mnu5JFHHnnkkdceGTB3+xy6jnXu2ozcS6UZpZTqWPdNcyePPPLII6+XPMBzsKnNa+ymua9HuTwreeeFiGBuQkAeeeSRR97A8YBMPElumXvb3+eB6MaeYrI0d/LII4888vrKAzJl7uvptVihzoPvUbKJmXvzFAFtKw955JFHHnl68oBMmHvHWTF2VmSD193cAcDtIIGk8yOPPPLII2+weEBmzL0tPeccukgG30NzjzThD9B7tiN55JFHHnl68oBMmHsenSP3Dr8MbfC9LJywrFbQ3MkjjzzyyAvLAzJj7m3plcuzrjvyhTL4rBaOLvmRRx555JGnJw/IpLkDXQ7sCWzwWS0cXfIjjzzyyCNPTx6QSXMX+BwEF8jgs1o49XqjL6fgkUceeeSRlw0ekElzBwKc8qrgE15T8VNItoPndR58hwjvwnmriCyHzVEplbMjRQARiXPqEHnkkUceeZrxlFI7lFJ/4LwewtxvrFar17T+oduXmXy3H/bT3IOGzzevPwh7UpD77wuinDhEHnnkkUdetngZGLkH5vk9onf7eVbMnTzyyCOPPPJS5+lo7kAXgy+VZrI8ciePPPLII4+81Hm6mjs8IB2n0iDAbL1eiQf0LmzyyCOPPPKGhwdNzR1wGcE7z5NtBs2dPPLII4888tp5Wr/GboM1P6BNOwBtzrvNQGGTRx555JE3pDxoZO6wA5sf4MyY5k4eeeSRRx55PjxoZO6twbrXMrmOU2n6kayIWEqpTBY2eeSRRx55A89rnZminbmjBXY+mtfB3AHAMIx73a5rXNjkkUceeeQND+8Q9DL31pwAATon2WkxcrfxfuC8rnlhk0ceeeSRNyQ8AD/Q0NwBAOXyrOSdFyKCU1kHuG3b1i888MCJBwBsA/QvbPLII4888oaGdyKXy/1bWFZKftk2cm9FDgAqlRoqlVok4Wku8t+yZdPK0aPHDQBPzkBhk0ceeeSRNzy8t1UqlS+FYaVs7uvptVihzoPvUbJtvD17dv25ZVlfiZpjhisPeeSRRx55GvJE5Cs7dux4RxhWSn7ZseOsnZWLKrxX2/ONjORXzp5d/cTq6uojAVwShpnVykMeeeSRR562vM9s2bLll7///e+fCcpK0dzb0nPOoVPBkakn68dTxWLxuSLyRgCP9GNmuPKQRx555JGnH+97IvLOWq32L3C86+4WKftl6++lXJ7tODI3tMHrsLH+2NjY3pGRkaKI7HT7uWEYHU8mLMuKfP4weeSRRx55w8lTSi0bhjG3b9++/WFZPfBLgYe5Az7nwfch2UC8paWluwHcrWt+5JFHHnnkkdcjnufS9sAj+AyLJ4888sgjj7xB4wl8DoILNIs+o+LJI4888sgjb1B5vqe8+hq8x2y9LIgnjzzyyCOPvKHldX1E77XOblDEk0ceeeSRR96g8vxG8NoeZk8eeeSRRx555HmHp8GXSjMcuZNHHnnkkUdeRnmuy+Scp9IgwGy9LIonjzzyyCOPvEHldYzgm+buHLnT3MkjjzzyyCMvIzw4Yc0PsIcAsHRIljzyyCOPPPLICx7rwOYHOA2e5k4eeeSRRx55GeHZmO7v4OFyKs2giCePPPLII4+8QeTZmACa7+Cdj+Zp7uSRRx555JGXHV6T2TaHzgmXmN8atBVPHnnkkUceeYPIazLbJs2Xy7OSd16ICNZaPHnkkUceeeQNMK9l7m1/r8LCMiqePPLII4888gaRZx+5C2xP4gOdJpdx8eSRRx555JE3iLyOHWftrMgGnxHx5JFHHnnkkTeIPOcprx2r3yIZfEbEk0ceeeSRR96g8nxXv4U2+AyJJ4888sgjj7xB50m5PNtw+/1QBp9R8eSRRx555JE3qDzPfWsCz6LPsHjyyCOPPPLIGzSewOcguEAj+IyKJ4888sgjj7xB5fme8upr8B6z9bIgnjzyyCOPPPKGltf1Eb3XOrtBEU8eeeSRRx55g8rzG8G7/XxgxJNHHnnkkUfeoPI8Db5UmuHInTzyyCOPPPIyynODoOQ4lQYBZutlUTx55JFHHnnkDSqvYwRfcpwn2wyaO3nkkUceeeRlhAcnrPkB9hAAlg7JkkceeeSRRx55wWMd2PwAp8HT3MkjjzzyyCMvIzwb0/0dPFxOpRkU8eSRRx555JE3iDwbE0DzHbzz0TzNnTzyyCOPPPKyw2sy2+bQOeES81uDtuLJI4888sgjbxB5TWbbpPlyeVbyzgsRwVqLJ4888sgjj7wB5rXMve3vVVhYRsWTRx555JFH3iDy7CN3ge1JfKjz4DMqnjzyyCOPPPIGkdex46ydFdngMyKePPLII4888gaR5zzltWP1Wz440h+OeDvekUceeeSRRx55wXgKtnfubqvfQr+D90gWCYsnjzzyyCOPPPL8eVIuzzbcfj/UCN7lhT4Qfztb8sgjjzzyyCMvIs/rb8I+ou+Yiu/1zYE88sgjjzzyyOsfL7DBl1yOkI264x155JFHHnnkkZcuL9A7eBd45O1sySOPPPLII4+89Hm+I/iSY596xNjOljzyyCOPPPLI6w2v6wjeBR55O1vyyCOPPPLII693vMDv4OMkSh555JFHHnnk9Zb3/wEr7krYuqYzcQAAACV0RVh0ZGF0ZTpjcmVhdGUAMjAxOS0wMi0yMVQwODo1NTo1NC0wNjowMFgSOHUAAAAldEVYdGRhdGU6bW9kaWZ5ADIwMTktMDItMjFUMDg6NTU6NTQtMDY6MDApT4DJAAAAAElFTkSuQmCC" vertex="1" parent="1">
          <mxGeometry x="50" y="540" width="49" height="50" as="geometry"/>
        </mxCell>
        <mxCell id="Om71xXF0C_-sWj4UQDyn-5" value="" style="shape=image;verticalLabelPosition=bottom;verticalAlign=top;aspect=fixed;image=data:image/png,iVBORw0KGgoAAAANSUhEUgAAAfgAAAIACAYAAABuAX6WAAAABGdBTUEAALGPC/xhBQAAACBjSFJNAAB6JgAAgIQAAPoAAACA6AAAdTAAAOpgAAA6mAAAF3CculE8AAAABmJLR0QA/wD/AP+gvaeTAAAACXBIWXMAAAsTAAALEwEAmpwYAAAAB3RJTUUH4wIVDjc3YycfcAAAdM1JREFUeNrtnXmcJGdd/z9Pdc/snWR3Q3Y3O0dXzyQBwmEuEEQYoIM/DwRURO4A+YGiInKJiiKCAvEiooicCVFE5QwCCg0Mh/qDEJBgCMnOdPfMTnazye7sbrLnTHd9f39M96S6uqrr7n6q+/N9vXiRrZl59/dTz/Hpp+o5AAaDwWAwGAMXKglIqTSzzimXZ4U88sgjjzzyyOsvL58UOIkgjzzyyCOPPPKS4UX+wCbc/vcS59sIeeSRRx555JGXHC/SCL5UmjGc12ImSx555JFHHnnkJcgLPYJvwp3fHKyYyZJHHnnkkUceeQnyQo3gS6WZnPNazGTJI4888sgjj7wUeIEMvvm8v+ObA4BIyZJHHnnkkUceeenyfA2+Cc+5/MiK8h6BPPLII4888shLn9f1HbwN7vzm0IiZLHnkkUceeeSRlyLPbwRvuFyLk2yePPLII4888shLn2d4/aD5Qt85wq8nnCx55JFHHnnkkZcCz3UE77LOLu5jBi3Fk0ceeeSRR96g8jpG8C7r7ACaO3nkkUceeeRlhgcnrNS5t60g3uw/bcWTRx555JFH3iDyWrEOLHXubQvQ3MkjjzzyyCMvMzwb03MWfeTt9HQXTx555JFHHnmDyLMxATTfwTsfzdPcySOPPPLIIy87vCazbQ6dEx75CDvdxZNHHnnkkUfeIPKazLZJ8+XyrOSdFyKCtRZPHnnkkUceeQPMa5l729+rsLCMiiePPPLII4+8QeTZR+4C25N4Iywwg+LJI4888sgjbxB5HTvO2lmRDT4j4skjjzzyyCNvEHnOU+Y6Vr9FMviMiCePPPLII4+8QeX5rn4LbfAZEk8eeeSRRx55g86Tcnm24fb7oQw+o+LJI4888sgjb1B5nvvWBJ5Fn2Hx5JFHHnnkkTdoPIHPQXCBRvAZFU8eeeSRRx55g8rzPeXV1+A9ZutlQTx55JFHHnnkDS2v6yN6r3V2gyKePPLII4888gaV5zeCd/v5wIgnjzzyyCOPvEHleRp8qTTDkTt55JFHHnnkZZTnBkHJcSoNAszWy6J48sgjjzzyyBtUXscIvuQ4T7YZNHfyyCOPPPLIywgPTljzA+whACwdkiWPPPLII4888oLHOrD5AU6Dp7mTRx555JFHXkZ4Nqb7O3i4nEozKOLJI4888sgjbxB5NiaA5jt456N5mjt55JFHHnnkZYfXZLbNoXPCJea3Bm3Fk0ceeeSRR94g8prMtknz5fKs5J0XIoK1Fk8eeeSRRx55A8xrmXvb36uwsIyKJ4888sgjj7xB5NlH7gLbk/hQ58FnVDx55JFHHnnkDSKvY8dZOyuywWdEPHnkkUceeeQNIs95ymvH6rdIBp8R8eSRRx555JE3qDzf1W+hDT5D4skjjzzyyCNv0HlSLs823H4/lMFnVDx55JFHHnnkDSrPc9+awLPoMyyePPLII4888gaNJ/A5CC7QCD6j4skjjzzyyCNvUHm+p7z6GrzHbL0siCePPPLII4+8oeV1fUTvtc5uUMSTRx555JFH3qDy/Ebwbj8fGPHkkUceeeSRN6g8T4MvlWY4ciePPPLII4+8jPLcICg5TqVBgNl6WRRPHnnkkUceeYPK6xjBlxznyTaD5k4eeeSRRx55GeEBDiNvfoByXLdSSBaFQmGXYRgPsSwrF4SnFJRh5HLKlpkIYFmNhghC50ceeeSRRx55afKUUpZhGPfMz8/fB3h/ThrmDtiM3Gbu9uuJmvvcXG1cKfU7AJ4NYHu4G9o54V8ksm7yyCOPPPLI6xXvgFLqAysrK9cvLS0t23+Qhrk3mZ4G77pxfQhwR7KVyuILReRvAWzswc0kjzzyyCOPPN14R0XklbVa7WNAuuYONA3ddkEByZv73FztZUqpv+vDzSSPPPLII4883Xi/MTU1+R4kb+6teXUCdE6yk+RH7gsPV0r9dRSmxoVDHnnkkUceeVFx76rVli53uZ6EuQMAyuVZyTsvRAR7PmYQwVsBjIRlal445JFHHnnkkReVl7cs6y0AnmW7HGf2fdvIff1zImfYDnc19zvu2LdjdHT0XoQ8ljYDhUMeeeSRRx55cXiWYai9hcL4ESRj7sCawUuLFcp4PeCe7xA2bNhwWdjPyFDhkEceeeSRR15UngGoRyOeuXfsOGtnRTb4ILP/RGR3DPFoMqKmSB555JFHHnna8hqNxkNimntbes45dJEMPujUfhHJB2VmsXDII4888sgjLyovjEe2wua/zpF7xwT50AafynZ6GS0c8sgjjzzyyOsVz8N/pVyebbj9fiiDp7mTRx555JFHXu95XfzXc2l7YIOnuZNHHnnkkUde73leI3f4HAQXyOBp7uSRRx555JHXe14X//U95dXX4D1m6wE0d/LII4888shLjRd3cN3V4L3W2QWFpy2ePPLII4888gaRl8STc78p+m5fAHpp7l9SSv2wC89w4VlunxMwP/LII4888sgLFCLycABXN3luP4+UW1KvxT0NvlSa6fvIXUQ+Wq1Wb0hLPHnkkUceeeRF5RUKhWuUUlfraO7wgHScSoMAs/W6ha7iySOPPPLIIy8qD9Db3zoeUTTN3ZkxzZ088sgjjzzybDzDUB0T0HXxN8Bh8M0PaMsVEc1dd/HkkUceeeSRF4/Xbpm6+Fsr1oHND3AavDWI4skjjzzyyCMvSZ4u/mZjek6y6ziVZlDEk0ceeeSRR54O5t6MVMx9Hex8NK+LuSctPquVhzzyyCOPPB15gjj25vYaO2p+zRxbr90F6Jxkl/DIXWKZe5Lis1l5yCOPPPLI05VnWdIIy2rF2gT0jknoSZg7AKBcnm0/izbmIwFX8TE2IXC7rHVhk0ceeeSRNzy8sKxWpOBvbSP3VuSB6MaeIfGZrDzkkUceeeTpyysUCmGRaZp7K6TFCnUefFjxUZg0d/LII4888gaNB7j5m8TNr2PHWTsrssFnRLy2hU0eeeSRR95w8AD3watlSeR9ZtB5ymvHHLpIBp8R8doWNnnkkUceecPBA1Lb0dV39Vtog8+Q+ETyI4888sgjjzyN/U3K5VnX2fyhDD6j4iPnRx555JFHHnma+5vn0vbABp9h8VoUNnnkkUceecPBA3ozcofPWTGBDD6j4iPnRx555JFHHnma+5vvHDVfg/eYrZcF8VoUNnnkkUceecPBA/Tyt64G77XOblDEk0ceeeSRR14SPEA/f/Mbwbv9fGDEk0ceeeSRR15cHqCnv3kafKk0w5E7eeSRRx555PmErv7mBkHJcSoNAszWy6J48sgjjzzyyIvKA/T2t44RfNPcnRnT3MkjjzzyyCPPxnM70lwXfwMcBt/8gLZcEdHcdRdPHnnkkUceefF47Zapi7+1Yh3Y/ACnwVuDKJ488sgjjzzykuTp4m82pvs7eLicSjMo4skjjzzyyCNPB3NvRirmvg52PprXxdyTFp/VykMeeeSRR56OPEEce3N7jR01v2aOrdfuAnROskt45C6xzD1J8dmsPOSRRx555OnKsyxphGW1Ym0Cesck9CTMHQBQLs9K3nkhIthTvNss+uDiO0LrwiaPPPLII294eGFZrUjB39pG7q3IA9GNPUPiM1l5yCOPPPLI05dXKBTCItM091ZIixXqPPiw4qMwae7kkUceeeQNGg9w8zeJm1/HjrN2VrTn5wHFFwqFa5RSH44h/tpicfJDOhROqTSjarWlJzYajZcopS4DsBvAhjhzDJLcBIg88gIyTliWtaCU+nw+n/vI5OTYPY5f0aIzHAKempyc3K2UutgwjCkAE83/7QKwE8C5ALaKyEYAI82/sQCcFZGTSqn7ASyLyL1KqQMisl8pVbEsa+7888+f2759W10zvQPJC+Nxbu3XsqyX1Gq1GyLmZ5+jJnCZQ5cPRU3pZnqLl8ib7CSZ3/j42PnV6v4PiMgz7Hn2u7Mmj7ywISLnKqX2KqUe32hYf1CpLP5FoTDxNsNAHRnrXLPE27t37858Pv/EXC73RBG5AsCjsGbiEJFQ5Wv/3dZ/t/7fMAwsLy/Xjx49eieA7wNyq1LGt3bvvuC7mzZtOJPV+5dlHpDqjq7rELcJ8qENPmPiY+c3PT29y7Ksr4nIJUnkl7Re8siLwdsA4PdqtcWHTk5O/MpXv9r/znBQeFNTUxdYlvVEAE9q/u+RgHu5pVC+eQCXrv1PPU9EcODAPSeVUl8sFAo35/P5z83Nzd2n8/0bFB7QE3+TcnnWdTZ/KIPPqPjI+Y2P7zUsy/ooAJo7eYPM+4VqtfZ7AN4ShqV759prXtPUfxnA8yzLelwQZg/ryxYReZZS6lmNRkNM0/x/SqmbDcP47Nzc3A/hmH3dj/s3aDygZ/7mubQ98CS7DIuPXNijoxufDeApSeSXtF7yyEuSp5T6vbGxsb1BWbp3rr3iLS7evXl+fuGFpmn+u2VZBwC8G4Bu5t7xqwAeJyJvbzQa/2ua5rxpmtcVbFPCs1oeuvCA3ozc4XNWTCCDz6j4yPm1eCLy8iTyS1oveeSlwBsdGRl5SRCW7p1rL3i12tKj5ucXPrS6Wr8HwI0Afgrtk566hmb1xQTweqXUfLFY/GShUHjyiRMnR1x+T9vy0IkH9MzffOeo+Rq8y2y9rIiPVdgHDx7KAXhC3PyS1kseeSnynuTH0r1zTZN38uQpVa3uL1Uqi59vNBrfAfACABvDMjWuL4aIPMswjK/ce++RW6vV/S89ePDQpqTunyMGkgfo5W9d38F7rbMbFPHdeKurjYcAGI2TX9J6ySMvZd54N5bunWtavDNnVkYOHjz0bBF5DYBHZbh8w/AeISLvPX367J/OzdXet7q6+ucAjkS5fy4/0qp8k+I57t969NPf/Ebwbj8fGPHdeCLWhjj5Ja2XPPJ6wPMcjereuabBO3Hi5Ei1uv/nDhy45zYRuQHDY+523g6l1BtHR0f3FQqFV11xxRUjQVhZKN8keV3uXxRUYvl5GnypNDOUI/ck8ktaL3nk9ZOne+eaBq9SWXjkvfce+TcR+SSAqTj3D9C7fAPytiulrl9eXr5tcnLyp/3uHzQv3yR5Ae9fX/JzNXjnqTRYm603cOK78er1RsxTgpLRSx55/eTp3rkmzZuYGN9ZqSy+G1DfBXB13PsH6F2+EXgPNQzj86ZpfmFiYuLhzh/qXr7DZO6Ai8E3zd2ZcaQd5XQX340nEZMcsMZM3hDzdO9cE+Yp0zRfmM+P3Ang12GbWKxLeWjG+z+5XO420zTffckll2wDtC/fVHhuR5rr0t4Ah8E3P6AtV0Q0d93F6/5Njjzy+snTvb0lySsUCucVi8WPKqU+grV94GPfP0Dv8k2IlwPwGysrK9+dmpq6EpqWb7q89nuoS3trxTqw+QHOErcGUTzNnTzyvEP39pYkzzTNJwK4CWsHvSRy/wC9yzcF3rSI/Fe1uvimc87Zev3OnTtaO6v1vXx7ydOlvdmYnsvkOk6lGRTxNHfyyPMO3dtbUrwrrrhiZHl5+Y8A/K5yuYG6lEeGeCMieOfx4yeecubMykv37t19cJDqix8vzv1LMj9bjg+CnY/mdTH3pMX32NyPAliMwHPrbCLfQPKGjvcwEQm0lMkjtG1vSfFM09y1vLz8aQA/rrF5nlRKHQNwEsBZrL0uzQHYLCLbAOxAiK3GU8jPi/dTZ86cvbVSWXwhgHIYlq71pTtPEMfe3F5jR82vmWOrTghcxEvMbw3aiu/DyP3marV6Tb/yI284efPzC/sATIblAe5fPnTXG5ZXKBQeCuDzAEwNzP24Uuq7AG6zLOsOwzDmlFILZ8+evfuhD50+46PXuPjii3ecPXt2HEBBKXWRUuoRAB6NtZPkOvrOHurdLSJfLBaLf1ypVN4Cl4NsnKFrffHjWZY03JtNtPsXNb9mjm1f+MrlWck7L0QEay1e98fyWa3c5OnHC8tqhc7tLUFzf5JS6tMAzuuTuR8FUBaRr1iW9fXFxcUfweUksIB6rbvuuuswgMMAvmf/pV27dm3ZtGnTlUqppwF4OoBH9kGvEpE3m6a5p1qtvhKA57JjXetLEF6S9y9mfm0j91bkgejGniHxNHfyhoJnmmZYpNbtLSlesVh8voh8GMBIj83uIIB/BfCJycnJ/5qdne3aLyah99ChQycBfA3A10qlmTfVavunLcv6OUD9HIAnYu0grbT0OuPlpmnuyOVyL5ibmzubht5+8mwH8MW6fzHz69i3psUKdR58RsXT3MkjzyN0bm8JmvvvisifeulNwexWlVKfEJEPVavVL6M5Sq9Wq325f4XCeA3A3wD4m6Wlg+eePbvyLBH5LaXUpQnp9fuzX2o0Guddeumlz7r99ttPpK1XV577/ZO4+eXsIKB9wB56kkbGxNPcySPPI4bE3H+7h+Z+r2VZbzYMY6xSqTy3Wq1+CS6P4Pt5/8bG9hypVqvvr9Vqj1RKXQ3g3xDgHXkC96906tSpL+/du3dnL/XqwvO6f5YlkfeZQec8i47Vb5FG8BkRT3MnjzyP8KjPkSbZ6qrXNM0XichfdtEb5dZ13D+l1AEReWej0fjAwsLCqYzcP6lUKmUA5ampqWnLsn4TwMvhceBQQvfvMaOjo9+46KKLfgrAPT3W2zcekKp/2EfuHV8mQ4/gMyZ+4PMjj7ywMQz12TTNnwfwoaT1OnhHlVKv37x50yXF4sS7M2TubTE/Pz9XrVZ/C8BDAfxLF71J3L+HNRqN8v79B7b3S28veUBP2puUy7OukxhDGXxGxQ9sfuSRFzaGoT4XCoUnYc2ocimZuwXgb0dG8g81zfHrd+06/6QO5RuXV61WF6rV6nMAPLG5fC+tL0cXr67W/+WBB06O9lNv2ryk71+X/DxfAwV+RJ9h8ZHyU2uhbX7kkRc2hqE+T05OXq6U+iyADSmZ062GoX61UBj/vg560+BVq9Vv7Nix/TE7dux4iWXJ2wDsSvD+teJJhw8vv+fAgQMv2b//7oG6fx56ASQ/cofPWTGBRvAZFR85v1JpRuXzuaE5KIe8weYB+re3JHjFYvFiwzD+HcC2FMx9BZDfLxQmfnKQzb3Fu/zyRxuFwviNmzdvugxrGwMlvtrAsqwX5fOjb9RBb5I8L70ptDffOWq+Bu8xWy8L4rXYa1j3ykjeYPOAbLa3sLyxsbFNlmV9EsBDUjD3uwxD/USxOPlnhrG+v4cW5Zs2b/fuhxy+4IKdz7Is67cBrEa8fx3XbOXxJ4VC4Tm66I3LC6C3p/l1NXibuTszHgjxQXm650ceeV6RxfYWhTcyMvLnSqlLUzD3f8rljMfaRu1a6O0lb+vWLau1Wu1dhmE8DsBcyPvXcc1ZHkqpG6emph6vi96ovKB6e5mf3wje7ecDIz4Ib1APyiFvsHlANttbFF6hUHgGgFcmbO4NAK/dtev8ayYnx07qpLdfvPn5+VtHR0cvh8tMe7cIUR4bLMv69Pj4+IU66Q0bOrY3T4MvlWY4co/3zT+xL0e6V27y9OIB2WxvUXhjY2N7lVIfStjcH1BK/fzU1OS7t2zZbIf0XW+/eXfeeecD1Wr1uQD+uhszQnk8JJfL3QQXT9L9/kXU25P8XA3eeSoN1mbrDZz4brx6vdEIy+qmN+n8yCPPK7LY3iLycqOjozcppXYkpRfAPYZhPKVYnPiShnp14VnVavXVIvJmtx9GrX9KqaeYpvkaDfX65R1Jby/yc/u2ZKBz5B5pRzndxXfjRT2jm+ZOXj95HufNh0VlQm+xWHwDgCcnpRfA/g0bRmdMs+19uzZ6NeNJrVb7YwC/ab+YQH//J5OTkw/TUK8rz+1Ic13aG+Aw+OYHtOWKiOauu3ju7U3eMPAGtb0Vi8XHAHhrUnoBLOTzuaeMje2p6KhXV161Wv0bpdTzATQSGsyNGobxwW3btuZ11NvJa9esS3trxbrBNz/AWULWIIqnuZM3DLxBbW/j43sNAO+GY/luDHM/YBjqaZOTYws66tWdVyxO/JNhqFc6r8coj8ddcMGuX9VVr+7trcUslWaU1yQ7KZdnEz3oRRfxPXwHE/PLkZ56ycsGb1DbW6k0o0ZHNz4HwGOS0Avg2Ojo6M+Y5kRVV71Z4JnmxIdF5LrW9bib4ojIW++++9AFuup1XtdltZUtRwDNEbzz0bzbqTSDIH7YJliQN5y8QW1vpdKMOnLk6ObW8a8J6F1VSv3i+PieH+qqN0u8887b9ocAPpHQjnfnnT179o901rsWEqu9ub3GjppfM8e2OXQds+WTNXd9xNPcyRsGXtTJocDa+Qu6673//hO/BqBg0xtVLnI545XF4sQ3dNabJd7OnTusRqPxIgDfCssDXPvTl9Zq+x+qq15g7UjzKFof1NuhOa65r0e5PCsdFyKCtRZPcydvWHhhWa3IwhyShYWlHSLye63rMUeKf1cojN+os94s8ppH5j4DwEIYpkd/ajQa1p/orDcsq5veOPl57FuzNoIvl2claXPXSTxo7uSR5xk6tzc7r9Gw3ghgOxDb3G99yEN2vl53vVnlVavVQ0qpZyOgB/j0p08vFAo/rrPesJFCe3N7Ei9AyPPgMyqe5k4eeR6hc3uz86rV/SaAXwdim/sJpdTztm3bsqKz3qzzKpXKLQDe7McM0p8ahvGHuusNGp16JW5+HSN3OyuywWdEPM2dPPI8Iivm3ozXARiJO4FLKfU60xy3z5jXVW/meZOTk9cBuMWLGbQ/FZGfnpycvFx3vX7hfmSuxFmt5pyj1jGHLpLBZ0Q8zZ088jzCoz5HelWXtt6DB+89V0Sel8Ds7C9dcMHODyedH3nuMTs7WwdwLVwe1YftT5VSr9Ndb7dIyT98V7+FNvgMiR+K/MgjL2xkrT6fPn3m+SKyJVKCD+o9o5T6DdvhMVqUx6DzqtXqbQCut1+LUv+UUs8eGxvbq7tej9xD6w2Zn5TLs64T2kMZfEbFD2x+5JEXNrJWn0+cOKkAvDxSgja9InKd7dG8FuUxLLxcLvfHAO4FYtW//MjIyCuyoNcePWpvnkvbAxt8hsVHyk8p13M7tMmPPPLCRhbr8z333Pd4EXl4TL13b9688S/SyI88/5ibm7tfKfVHCdS/a2dmZvK6621FL0bu8DkrJpDBZ1R85PxKpRmVz+eG5qAc8gabB+jf3rx4SqlfS0Dvm/fs2XU6jfzIC8bbs2fXDQDskxuj1L89i4uL/0d3vUDP2pvvHDVfg/eYrZcF8Vps/6l7ZSRvsHlANtsbgPrcXG0XgF+IqfeuQmHiH9PIj7zgvE2bNtQNw3h763rU+ici1+isF9CrvXU1eK91doMiPihP9/zII88rstjeWjyl1LUePw+sVym8wzBwVofyGHbezp3bPwrg7pirIX7u0KHD5+iot5lfx7V+tje/EbzbzwdGfBDeIB/cQd7g8oBstjcbTwF4YUy9d+/YsfMfdSgP8oBt27asiMj1YVmtaJbvhtOnz/ysbnpt+bVFv9ubp8F77G07UOL9eDG/aSb25SiLjZm8/vGAbLY3O69YLD4CwMVx9AL4m1tuuWUlKKOfeoeFt7q6+kEAZ8Iy7eXbaDSepZNeZ36t0KG9uRq881QarM3WGzjx3Xj1eiPmQTnp5kceeV6Rxfbm5InIM2LqXcnn8x/Iit5h4S0tLS0D+OcwzM7XLurq/fsP5nTQ65YfoE976zD4kuM82WZE2lFOd/HdeFGP3aS5k9dPntvaziy0NxfezwVhdulfPnXXXXcdzpDeoeGJyIeDMj3Kd8vKyspP6qDX7UhzXdob4DD45ge05YqI5q67eO7tTd4w8LLY3sbGxnYAuMqP2W3wYFnWjVnRO2y8Wq32DQCLfkyfweHT9NDbnqMu7a0V6wbf/ADnHbUGUTzNnbxh4GW1vY2Ojj4ZPhOAfTr/5fPPP7+cFb1DyLMA/Gs3ZoAnv0/WTa8u7a3FLJVmlFcjknJ5NtGDXnQR38N3MDG/HOmpl7xs8LLc3kTkSd2YATr/L996662rWdE7jDyl1Ke7/Kzjmkt9vmx6evoc+ITu7a0ZiZt7678N5wXA/VSaQRA/bBMsyBtO3gC0N8/3qwHbW6DRe1bLdxB4lUrlvwEsO6+H6E8Ny7Ie03+9Equ9ub3GjppfM8e2OXQds+WTNXd9xNPcyRsGXtTJocDa+Qv91rtr164tAB7lkV/HNTe5uVzuy2nlR15ivAYcX8TC9qci8th+67UsibnaqkNzXHNfj3J5VvLOCxHBnuI93k0HFN8RWlRur/xo7uT1mxeW1Qpd2tuWLVsuE5GOV4ch2tvC3NxcJa38yEuOJyJfUUr9MhD5CNkr+603LMuWu9vlOPm12kzb3xvAmrEnbe6aiae5k0eeR+jU3kTkx4Lk16W9leHo5NK8f+RF5+Xz+W8C0ftTEel40qOz3lakaO7rt6bFCnUefEbF09zJI88jNGxvbZ122PamlPJ8PK97eQwbb3n5yI+UUvc7r4foT83mK51M6AXc6rPEza9jx1k7K7LBZ0Q8zZ088jxCQ3MHgId1y8+vvdXr9W+lnB95CfEuv/zRBoD/sV8P2Z+qTZs2XZQFvYB7fbYsibNazTlHrWMOXSSDz4h4mjt55HmER32O9Kou4fwu7pKf39+eWFxcrKV9/8hLlHdb63qU/lQpNa273maeHdcS8A/f1W+hDT5D4ociP/LICxu61ufm49YLYuT3I6xtopLa/SMvcd6PgFhLO02d9QI9aW9SLs+6zuYPZfAZFT+w+ZFHXtjQuT5v2rRpMmZ+82nmR17yPMMw9sU8tXNSV73N/DqupdDePJe2Bzb4DIuPlJ9Srud2aJMfeeSFDd3rcz6fH4+Tn1KqlmZ+5CXPU0pVwrJsfwsAF+qo15ZfWyQ9cofPWTGBDD6j4iPnt9bZ5IbmoBzyBpsH6N/emrxdcfKzLOtAyvmRlzBvdXV1KSwPaKvPD9FNryO/9UihvfnOUfM1eI/ZelkQr8X2n1lufORlnwdkp71ZVuP8mPndq3t5kNfOq9VqZwAcD8O012cR2aGTXmd+tjyjoGLn19XgvdbZDYr4oDzd8yOPPK/IUnsTwblx8gNwLM38yEuNtxwQ2VGflVLn6qLXLT+gv+3NbwTv9vOBER+ENwAHd5A3hDwge+1NKbUlTnvL5/On08yPvNR4gUbwHvV5sw56u+QXBZVYfp4GXyrNcOQeb3ZnYl+OBqwxk5cyD8hse9sQKcGmXsMwzqSZH3mp8U77ILvV54391uuTX+hIMj9Xg3eeSoO12XoDJ74br15vxDwlKN38yCPPK7LY3gDUlVIjcfRaVlub1aI8yAvEW+3G9KnPeYSIYWtvHQZfcpwn24xIO8rpLr4bL+qxmzR38vrJc1vbmYX2lkT/Ylnrp9BpkR95gXmePwvgH31b6l0qzSi3I811aW8dN6f5AW25IqK56y5+iPb2Jm+IeRlrb6G4LmdXbEg5P/JS4ImI65ObgIPDQKeWpqe3PUdd2lsr1oHND3DeUWsQxdPcyRsGXgbb29mgTPf2pjboXB7kuYdSaoPLtY7f86jPK7ro1aW92Zie7y86TqUZFPE9fAcT88uRnnrJywYvi+3NsqzTHl+U28Kr81dKnZMlveStx7n2f4R8rXtKB726rLay5Qig+Yje+WheF3NPWvywTbAgbzh5WW1vhmHc78fs1t5E5Hy/v4+TH3mp8ba3/iNCf/pAf/VKrPbm9ho7an7NHNvm0HXMlk/W3PURT3Mnbxh4USeHAmvnL/RTr2VZR33y67hmlysiu9PMj7zkeTMzM3kAO4DI/alrnemVXsuSmKutOjTHNff1KJdnJe+8EBHsKT7IIzdv8R2hReX2yo/mTl6/eWFZrdChvRmGcZ9XGwrS3pRSY2nmR17yvKWlpd3w+G4ZpD8Vkfv6qTcsqxUptLeWubf9fR6IbuwZEk9zJ28oeKZphkVq096UUgfd2lGI9lZMMz/ykueJSCFmf3pPP/UWCoWwyDTNff32tVihzoMPKz4KU5fOJkx+NHfyssgD9GpvIrIUJL8u7e2iNPMjL3meiHWx83rII4LvzoreZr5OtXHz69hx1s6KbPAZEU9zJ488j9DJ3AFgYmLiAGy7mkVobxPT09OuM+l1L49h5SllPNR+PWx/qpSqZUFvM9eOa5YlkfeZQecprx1z6CIZfEbE09zJI88jPOqz9DO/2dnZOoBKl/x8GZZlPSrt+0deorxHtq5H6U8ty5rXXS+Qmn/4rn4LbfAZEj8U+ZFHXtjQuT4D+FGc/CzLujLN/MhLjnfy5CklIpcB0eufUuounfU2c+y4lnB7k3J51nU2fyiDz6j4gc2PPPLChu71WSl1e5z8lFKPTzM/8pLjHT68PAFgV4yVncu7dp1/RFe9QM/am+fS9r5t1N9D8ZHyU0pFXrrRi/zIIy9sZKE+G4bx/Zj5/SQApXt5kAdYlvWEmEdy/2Dr1i1OgBZ6m/l1XEt65A6fs2ICGXxGxUfOr1SaUfl8bmgOyiFvsHmA/u2txTMMdWvM/HZPT089Iq38yEtyUyY8KSyrFUopiMj/6Ki3lV+n3sTbm+8cNV+D95itlwXxWmz/mdXGR95g8IBstbedO7fvB3BPnJFdo2H9Ylr5kZcM78479zVE5KfC8oAH67NS6tu66bXnZ49+tbeuBu+1zm5QxAfl6Z4feeR5Rdba25Ytm0VEvhkpwQf1Pjut/MhLhmcY+UcD2BOWaa/PIyP5/6eTXmd+rehne/Mbwbv9fGDEB+Fl9eAO8oabB2SzvWFtB8zZOHqVUg/fv//gw9PKj7z4PMMwfiEs01GfF8fHL9yvi16X/AD0v715GnypNMORe7wJIIl9Ocp6Yyavtzwgm+3NxivH1Vuv138xxfzIi8dTAJ4ThuksXxH5qi563fJr5hgFlWh+rgbvPJUGa7P1Bk58N1693oh5SlC6+ZFHnldksb3ZedVq9S4AtTh6Lcv6pXJ5NhN6h41XKBQeC59the3hUZ+/oIPeLvlFQSWeX4fBlxznyTYj0o5yuovvxot67CbNnbx+8tzWdmahvTl4AuCzQZhd+peHmab5yCAMDfQOFU8p9bKgTI/ytSzL+qIOet2ONNelvQEOg29+QFuuiGjuuosfhr29ySMvq+3NMIxP+zEDDB5+Myt6h4VXKBTOA/C8IEyv8lVKfW1xcfGoHno7Xh2ERaWSXyvWDb75Ac47ag2ieJo7ecPAy3J7Gx8f/zqA+7yYAZ8Mvnh6etr3jHgd9A4LTyl1LYDNfsxu5Ssin9RRry7trcUslWaU1yQ7KZdnEz3oRRfxPXwHE/PLkZ56ycsGL+vtrXnwzL+4/SzEa7+Rer3+mizoHQbe9PT0BqXUq/2YPuUrIvJx3fTqstrKliOA5gje+Wje7VSaQRA/bBMsyBtO3gC1t484L4Rtb0qpV1x88cXnp5QfeSF49Xr9GhHZ240ZoHzLtVrtHn30Sqz25vYaO2p+zRzb5tB1zJZP1tz1EU9zJ28YeFEnhwJr5y/opLdard4C4A5bfh2/E0Du5nq93vEuPqvlm1VeoVDYqJT6/W7MIOWrlLpBJ72WJTFXW3Vojmvu61Euz0rHhYhgrcXT3MkbFl5YVis0nUMiIvL3XvkFbW8i8qpisXhuCvmRF5CnlPpNAONezIDle3RlZeVTOukNy+qmN05+HvvWrI3gy+VZSdrcdRIPmjt55HmGzu3NMNRHlFKnnNdDtrfzLMt6exr5kefPM01zF4A3eTFD9KcfWlpaOq27Xr9Iob25PYkXIOR58BkVT3MnjzyP0Lm9lUozqlicPCEiN9mvR2lvSqlfm5qaekLS+ZEXiHcdgHPcfhCiP5VGo/GejOj1jE69Eje/jpG7nRXZ4DMinuZOHnkeobu5t3gjIyPXo9kZxJxA+L7l5WMbdNc7SLypqamnAHiR289C9qefXFxcrOiut1u477gocVarOeeodcyhi2TwGRFPcyePPI/wqM+RXtWlrXdi4sI5AJ+MeTYERORhR48ef33S+ZHnHpdccsk2y7I+6PazsP2pZVl/orvebpGSf/iufgtt8BkSPxT5kUde2MhmfZa3RkrQoVcp9cZabf8lyedHnjPOnj37LgAF5/UI9e8fFhYWvqe7Xq/oQXuTcnnWdUJ7KIPPqPiBzY888sJGVutzpVL9voj8UwJ6RxsN60Nzc7UNYVm6l69OvEKh8CtKqZc6r0eof2e8ltfppNcretTePJe2Bzb4DIuPlJ9Srud2aJMfeeSFjazXZ8Mw3gjgTAJ6r1JKvR8uy4p00ptV3uTk5MOa97ctotQ/EfmrSqWyqLNer+jFyB0+Z8UEMviMio+cX6k0o/L53NAclEPeYPMA/dtbEF6zo/+LhPS+oFAovD4IS/fy1Yk3MTGx3TCMzwDYar8esf7dl8/n36GzXq/oUXvznaPma/Aes/WyIF6L7T91r4zkDTYPyGZ78+Jt3rz5HQC6blUaVK9S6h2maT5dZ71Z4l1xxRUjuVzuX+E46z1q/VNK/dHc3Nz9uurtknckvWnk19XgvdbZDYr4oDzd8yOPPK/IYnvrxrv99ttPdNvyNKReBeCj09PTl+qqN0M8Y3l5+YMAnmq/GKP+3bl9+/a2x/ya6XUN3dqb3wje7ecDIz4Ib4AO7iBviHhANttbEF6lUrkRwLcS0ru10Wh8bnJy0tRVbwZ4yjTNvwLwwraLMeqfUup1t95666qmer1yjqw3rfw8Dd5jb9uBEu/Hi7nuNrEvR7pXbvL04gHZbG8heA0RuQa2CXcx9U7mcrlvmKZ5iaZ6deYp0zSvA/CqtovxyuODlUrl3zTV634TNG1vrgbvPJUGa7P1Bk58N1693oh5UE66+ZFHnldksb2F5dVqtR+JyO8mpbd5jOnXi0Xz0Trq1ZRnmKb5LgCvs1+MWR53nTp16rc01esaOre3DoMvOc6TbUakHeV0F9+NF/XYTZo7ef3kua3tzEJ7i8K7//7j71ZKfT0pvQAuANRXFxbuvlJHvTrxrrjiihHTNG9AsiP3Vcuynnvo0KGTuun14rkdaa5LewMcBt/8gLZcEdHcdRc/zHt7kzc8vEFtb6XSjLr88kcbhqGuBXAyrl5gvf1ubzQa/1GtLj5RN7268AqFwnnLy8tfQILv3Jt//8aFhYXv6qa3O69dsy7trRXrBt/8AGcJWYMonuZO3jDwBrW92XmFwnhNKfUbcfQCHe13mwj+Y26u9tvl8mzgzXCyeP/C8gqFwo8rpb6L5GbLt+I/KpXKu3TTG4anS3trMUulGeU1yU7K5dlED3rRRXwP38HE/HKkp17yssEb1PbmxjPN8X8E8K5IguHZfnNKqXeapnnz3r17d+qkt0+8XLFY/F2l1DcBtK04SMDc721OmrQ00huKp8tqK1uOAJojeOejebdTaQZB/LBNsCBvOHmD2t668SYmJl4vIl8JywzQfn92dHT0e4VC4cd10ttL3vj4+IWFQuGLIvKncGx6lkD/t6qUel6tVrtHF73heBKrvbm9xo6aXzPHtjl0HbPlkzV3fcTT3MkbBl7UyaHA2vkLWdPb4s3OztZHR0efA6AWQm/HNY/bN66U+kahUHjDFVdcMaKD3l7xTNN8ej6fv00p9ZQY988rREReVKlUvqyL3rA8y5KYq6067mFcc1+PcnlWOi5EBGstnuZO3rDwwrJaMQhzSO66667DAJ4J4FQUvT7tN6+UeueRI0e+VywW294/Z7m+ePGmp6fPMU3zbwHcDKDjFUVC/d9v1Wq1j+mgNyovLKsVSbc3j31r1kbw5fKsJG3uOokHzZ088jxD5/YWlletVr+vlHoGgLNh9IbYYe1SESmbpvnxQqFQ6LfeFHiGaZovajQaPwLwyqTvny3eWq1W362B3p7ygFTam9uTeAFCngefUfE0d/LI8wid21tUXqVSKSulfgkug4wE2+8vKqXuqFb3v2Vp6eDmAbh/yjTNq03T/DaAGwHscWMmdP/eV61W36xLfekVD3C7fxI3v46Ru50V2eAzIp7mTh55HjGI5t6K5lanzwWwPqcoyfbb5G0UkT9YWVmdr1QW/7haXdyTwfunTNN8mmmaXwfwRQBXdNEb+/6JyCer1eorS6UZ9ElvX3he98+yJM5qNecctY45dJEMPiPiae7kkecRHvU50qs6XfVWq9WPA7gGgKRg7vZ/7gTwRsuSufn5hY9MTk5ervv9KxQKGwuFwotN0/wegP8A8IQQeqPev88BeH6pNGP1Wm8/eUBq/uG7+i0fFJpB8UORH3nkhY1hqs9TU5P/UKksjAB4P2wDmgTN3c4bAfACwzBe0BwRv7/RaHxucXHxqCb3D5OTk5cZhnENgBcA2BFTb5h79t6JiYnfzOfR6KHevvOSun8++Um5POs6oT2UwWdU/MDmRx55YWMY63OxOHlTpbJ4HMA/ANiYkrk744kAnpjL5eqmaX4NwKcNw/jM/Pz8/l7ev8OHjxj333/yUSLy86ZpPhvAJSnp7RZvqFQqf14sTiBtvTrxgJ61N8+l7YENPsPiI+WnlOu5HdrkRx55YWOY63OxOHFztbp4tWXJpwCc38P7l8fatq5PtSzr3aZp3qqU+jcA3zxw4ND3Lrxw1/1J6j148FCuXrcuqdfrj7cs64kAngxgVw/12uMsgBdVq9V/yVp9ictL6P755SfwOSsmkMFnVHzk/EqlGbWwsJRrNNq/GOmUH3nkhQnd21sveKY58Z/79lUfYxjGZwA8sk/37woRuUIphTNnzkqlsjivlLrdsqwfKaXuBLA4OTl5oF6v37t79+77b7311lVnKpdeeumW06dP7xCR3UqpMREpViqLDwPw8KauLVESS1jvEcMwnjE/P/+fWa0vUXkJ3b8g+fnOUVPwCa+p+EHEFwqFa5RSH44qXkReUqvVbogoPlZhLywsTTYa1r5u+fnEKpobbqQ8wYc88uxxDhxtNQRvoVqtFrrBde9cg/AuvfTSradOnfoAgOcEYfa5fFea/2tNTNuE6OWbRn5uMaeU+plKpbJvEOpLt3DzuDD3z8/j4ubXdQQfx9y9IosjiYj5jQA4V8PGRx55kVi6da5RebfffvsJAM81TfMbAP4Ma6aZ+v2LyBtt/k/X/Jzx/tHR0dfeeeedDwxKfenx/Us0P79lcm4/HxjxQXi6dK7kkddPnu6dawSeVKvVvzUM41EAvpb2/RsC3iGl1NOr1erLae6R7l8q+XkavMfetgMl3o83QI2PPPK0b2/94M3Pz89Vq9WniMivAXggjfs3BLxPjIyMPKK5uZBW5dsLXgL3L7X8XA3eeSoN1mbrDZz4brx6vRHzoJxk9JJHXj95uneuCfGsWq32XsMwLlVKfUHn8tCMdxzAC6vV6rObB/3oWr6p8WLev9Tz6zB453myzYi0o5zu4rvxoh67qVHjI4+8WDzdO9ekeaY5vnTBBTufqZR6CYDluPcP0Lt8Y/JuNgzjkdVq9R/Q3FNc9/JNg+d2pLku7Q1wGHzzA9pyRURz11287t/kyCOvnzzd21tavK1bt4hpjv/jyMjIo5VSfy0iZyLdQOhdvjF43zQM4wnVavUZvd60R09e+z3Upb21Yh3Y/ABniVuDKJ7mTh553qF7e+sFb3x8zyEAr56bq71dKfU6AL8GYHNQps7lG5H3v0qp361UKp9Dc8Te7f41Q9vyTYOnS3uzMT2XyXWcSjMo4oPy8vn8yUbA1/AaND7yyEuCt5zVzjVF3j0AXjc1NXWdiLxWRH4dPhvJaFy+UXiLAP6gWq3+I4CODnEAyjcRXpzySDI/W44Amo/onY/mdTH3pMWHKey5ubkjAE76MQesMZM3xDyl1PeRwc61F7z5+fl7K5XK74yMjBQA/ClsM+4d97Djmi7lG5JXA/CqXC53cbVa/Qho7h48iVUebq+xo+bXzLFtDp3bqTRxvjW4iI+sPVHxEQrbAlAG8Awv5gA1ZvLIg1KYdbmscefae15ztvjvF4vF60TkRQCuBfCotfune/kG4pVF5G9rtdpn4WLqce/foPEsSxpu9zVIePxdXHNfj3J5VvLOCxHBWouPWtiWZV1vGIarwQ9IYyaPvBbv6HnnnXuz47LWnWs/eZVK5TiAdwP4m0Jh8vJcLv9iEfklAHtav6NZ+XbjVZRS/9BoNG5YWFio9uL+DQovLKsVKfhby9zb/j4PRDf2DImPVNgLCwtfNU3zHwE83y+/DDVm8shz471p+/ZzT9gua9+5asIDgNsAvPbgwUNvOHt25XGNhvUMAD8D4KKwPKBn9WUfgE8D+Hi1Wr0FDmPo4f3LNK9QKIRFpmnurVh/Eh/qPPiMio9V2GfPnn35hg0bxgA8ySs/DTtr8sgLzBOR63fvfsgHbJcz0bnqxtuzZ1cDwDcBzJbLs6+enp6eqtfrJaXUkwH8JIAL/Zgp1pdlpdQ3ROSrSqkvVCqVu3S7f4POA9zKV+Lml7ODgPYBe2SDz4j42PkdOHDg1PT09E/V6/W3G4bxKjx4Q9cy1KyzJo+8ELyjSqnf3bXr/A9v2bK5BdKiMxwE3tzc3DyAeQB/DwDFYnECwFUicjnW3ts/HEABzRFYguV7H4AfKqV+AOB7hmF8e9u2zft27txhZen+DRIPcC9fy5LI+8zA4UVwWf0WyeAzIj6x/AqFsRUAv7OwsPSeRsN6gVLqMhHZIyKjYVk2vR2Co+6eRx55IeIBEdmfy+X+a+PGDR/bs+eC47afadEZDiqvUqksYm3Z2Sda16anpzc0Go2iUspsnu2+Wyl1vohsx9pyvM0ANuDBmdGrAM6IyAOGYRwXkSMADlmWtQRgQUSqF19cPKaDXvIejBT3qbCP3DtWv4U2+IyJj52fnTc5ObYA4E+S4iWdH3nkkZctXnPwMNf8n3b5kRePB/TE36RcnnVd8eB3XOwgiI+cH3nkkUceeeRp7m+e+9YENvgMi9eisMkjjzzyyBsOHtCbkTt8zooJZPAZFR85P/LII4888sjT3N9856j5GrzHbL0siNeisMkjjzzyyBsOHqCXv3U1eJu5OzMeCPHkkUceeeSRlwQP0M/f/Ebwbj8fGPHkkUceeeSRF5cH6OlvngZfKs1w5E4eeeSRRx55PqGrv7mug3eeSoMAs/WyKJ488sgjjzzyovIAvf2tYwRfcpwn2wyaO3nkkUceeeTZeG5Hmuvib4DD4Jsf0JYrIpq77uLJI4888sgjLx6v3TJ18bdWrAObH+A0eGsQxZNHHnnkkUdekjxd/M3GdH8HD5dTaQZFPHnkkUceeeTpYO7NSMXc18HOR/O6mHvS4rNaecgjjzzyyNORJ4hjb26vsaPm18yx9dpdgM5JdgmP3CWWuScpPpuVhzzyyCOPPF15liWNsKxWrE1A75iEnoS5AwDK5VnJOy9EBHuKd5tFH1x8R2hd2OSRRx555A0PLyyrFSn4W9vIvRV5ILqxZ0h8JisPeeSRRx55+vIKhUJYZJrm3gppsUKdBx9WfBQmzZ088sgjj7xB4wFu/iZx8+vYcdbOimzwGRGvbWGTRx555JE3HDzAffBqWRJ5nxl0nvLaMYcuksFnRLy2hU0eeeSRR95w8IDUdnT1Xf0W2uAzJD6R/MgjjzzyyCNPY3+TcnnWdTZ/KIPPqPjI+ZFHHnnkkUee5v7mubQ9sMFnWLwWhU0eeeSRR95w8IDejNzhc1ZMIIPPqPjI+ZFHHnnkkUee5v7mO0fN1+A9ZutlQbwWhU0eeeSRR95w8AC9/K2rwXutsxsU8eSRRx555JGXBA/Qz9/8RvBuPx8Y8eSRRx555JEXlwfo6W+eBl8qzXDkTh555JFHHnk+oau/uUFQcpxKgwCz9bIonjzyyCOPPPKi8gC9/a1jBN80d2fGNHfyyCOPPPLIs/HcjjTXxd8Ah8E3P6AtV0Q0d93Fk0ceeeSRR148Xrtl6uJvrVjPrvkBynHdiiO+Ull8EYAPRBUvIi+p1Wo36FLYu3bt2rJly5ZnWJb1BMMw9ojI+v1Ta48q7KUtErW0M8AzDOOsiNxhGMZnC4Wx24LcP69Iu3wPHjyUO3NmZcayrKeIyJRSKheWqXt5hODVAVQBfKlarX4ZQMcWl7q0N/LI051n97gozVdEXjI9XbgxyfxsObq/g4fLqTRRxDuERMHpUtjKNM2XAniHiJyvlGrTk+RriKzwWn9vWdab5+cXvqCUemWlUqmFZaVdvouLdz9+dbX+HgAP97oX/bh/GvBeZ5rmHQBeUa1Wv+F1/2yhXedKHnm68OK03yTzs+UIoPmI3vloXhdzT1p8xMI2TNN8H9a+pZ3v/KEmnXVfeQB+WkS+UywWrwzDSrvxVSqLL6rXG19B09x1vX995D0MwKxpmi8Dstu5kkde/3gSq/26vcaOml8zx7Y5dB2z5ZM1d33ERy1s0zTfAuBat59p1ln3m7dTRL4wNja2Nwgr7cZXre6/GsD7RCTSkch9uH/94hkA3l8oFH4ametcySOvvzzLkkZYVis636pFz6+ZY1tfVy7PSseFiGCtxccw90cB+D3v/NpDg86637zzR0ZGrvdj9eCd+yYR+Xuae3CcYRjvP3jw0CbHda07V/LI6zcvLKsVHk9CI+fnsW/N2gi+XJ6VpM1dJ/GIXtivg8tSQs07637zfrFYLF7k9cNeNL6zZ1eeIyJjPdI7KLy9Z86s/IrtsvadK3nkZY0HpOJvbk/iBQh5HnxGxUfNTwF4epD8NOys+8qzLOtn3K73qvE1GtbP9lLvAPFa902LzpA88gaJB7i1X4mbX8fI3c6KbPAZER85v0KhsAvAed3z07qz7hvPMIyHOa/1+LHZQ3upd1B4IvJQaNIZkkfeIPEA9/ZrWRJ5nxl0nvLaMYcuksFnRHzc/Db65adzZ91Pnoi03bs+NL6NIZFa3b8+8jbo0BmSR94g8YDUdnT1Xf0W2uAzJF7L/IaNN2yNb9h4upcveeT1kwf0pL1JuTzrOqE9lMFnVLw2+Q0bb9ga37DxdC9f8sjrJw/oWXvzXNoe2OAzLD5SfmotEssvab2684at8Q0bT/fyJY+8fvKA3ozc4XNWTCCDz6j4yPmVSjMqn88ldlBO0nqzwMMQNb5h4+neuZJHXj95QM/am+8cNV+D95itlwXx2uw1rHNnnRLPrV4NZOMbNp7unSt55PWTB+jV3roavNc6u0ERH5SnS+eaVR4GtPENG0/3zpU88vrJA/Rrb34j+MRGYjqKD8LTpXPNKg8D2viGjad750oeef3kAXq2N6/jYuGxt+1AiffjxXwH/c8bNoz+po0lKysrjShnfhuGUqOjozn7rL80eUqpCQDfD8McIHPfLyKPinP/wuaWJE8pdRuA8Sy2N/LIyyIP0NffXA3eeSoNAszWy6L4brx6vRHzoBys7N27+1ha+aXJKxQK54U5N32AzB0ArFqtdqxX+SXNM03TymJ7I4+8LPIAvf2t4xG88zzZZgyVuQOoRxmJeelNIz8deF56RcTSPL8oKO3Lo1SacV3bOch6ySOvnzy3I811aW+Aw+CbH9CWKyKau+7iB/ygnL7p1aV8dc9P99dMWdVLHnm95bX3Mbq0t1asA5sf4OwRY47E9BRPc09Hry7lq3t+NHfyyBs8ni7tzcb0nGTXcSrNoIgftsfUw2ielcri0D+mHja95JHXT54um4LZcnwQ7Hw0r4u5Jy1+GM2OevXPTxe9zcicXvLI6x9PEKe5ub3GjppfM8fWa3cBOifZJTxyl1idTZLiaXbDqVf3/FLQG7nBKff3TFrrJY+8fvIsS2KutupockmYOwCgXJ6VvPNCRLCn+DDLrTrFd4QWhe2V36CaSVb16p5fGrxIgqF3eyOPPF15YVmtSKG9tY3cW5EHoht7hsQPvdkNm95hfUxtmmZosTq3N/LI05lXKBTCItM091ZIixXqPPiw4qMwde5svPLT3eyGTS8fU4fS63ZZi/zII2+QeIBbe5O4+XXsOGtnRTb4jIgferMbRr2REsRwmd2w6SWPvH7yAPf2ZlkSeZ8ZdJ7y2jGHLpLBZ0Q8zS4iTynXDdEGVm9Ts9tlLfLrYX0WHfIjj7xB4gGp+Yfv6rfQBp8h8UORXxq8fD7HHQg1yY/1mTzysssDetLepFyedZ3NH8rgMyp+YPPTfcKa7noBmjswuOVLHnn95AE9a2+eS9vzCBgZFt+vx9Q7CoXCjz3Ig6pW9+fsSBHAshoNEYSejZkuT10YQW9bZLjxjczN1R6tV3mE4o2G1Bvl1mlfvuSR108e0JuRO3zOiglk8BkVHzm/UmlGLSws5RqN9i9GIfN7ulLq6Xa9Iu27Hq3xFKJsFZAuT6LodUZWG98epdT3ovB0L18PvaFD986VPPL6yQN61t5856j5PqL3mK2XBfFaPKZOWm9GeG71aiAb37DxdO9cySOvnzxAr/bW1eC91tkNivigPF0616zyMKCNb9h4uneu5JHXTx6gX3vzG8EnNhLTUXwQni6da1Z5GNDGN2w83TtX8sjrJw/Qs715GnypNMORuyada1Z5GNDGN2w83TtX8sjrJw/Qt725TrJznkqDALP1sii+G69eb8Q8JSgZvVnlYUAb37DxdO9cySOvnzxA7/bWMYJvmrsz46EydwD1qPuZ69xZ95BnDWLjGzae7p0reeT1m+d2pLku7Q1wGHzzA9pyRURz1108zUQvHstDL57u7Y088vTgtbc5XdpbK9aBzQ9w9hAxR2J6ig/Cy+fzJxshntLr3Fn3gXciDCuFTYpOul3P0P3rC09ETgBZ6lzJI08fni7+ZmN6TrKTcnk20YNedBEflDc3N3cYwKEgTB07637yROR/g7JSKt/be6l3UHhKqf/NaudKHnn95OmyKZgtRwBNg3c+mnc7lWYQxIcsbAHwCT+mrp11H3mNRqNxcxBWWo1PKfXJHuodJN4nkMHOlTzy+seTWO3X7TV21PyaObbNoeuYLZ+suesjPkphi8ifATjjxdS8s+4LTyn1/v379x/wY6XZ+CYnxz8jIj/M4v3rI+9/TXPysy7XNe5cySOvvzzLkpirrTracFxzX49yeVY6LkQEay0+amHXarWaiPy2d37toVFn3S/ePgBv9GOl3fgMA3Wl1EtE5ExYVp/vX794Z5RSLzMMONur1p0reeT1mxeW1YqklxZ77FuzNoIvl2claXPXSTxiFHatVnuvUur3/PLTqLPuF+9OAFdXKpXj3Vi9anzF4sQtAH4ewAMZuX/94j2Qy+WeWSxOfM9xXfvOlTzyssYDUvE3tyfxAoQ8Dz6j4mPnV6lU3q6UKgG4TfPOuh+8s0qp60dHR6+qVqsL3Vi9bnzVavVLuVzuMgCfDcocgPIIE5/dsGH0qkJh7CuO61p0huSRN0g8wK39Stz8Okbudlbg8+AzKj6x/IrFia+cOHHyqsOHj14pYj1BBHuUUjkRsTy+lATR2/EFKys8ETmhlPrhysrKvy8tLS37sfq4GmIewM9PTEwUDcO42jCMIoAN/b5/feSdtSyrKiJfuugic9Hv/gUN3TtX8sjrJw9w/3JuWRJntZpzjlrHHLpIBp8R8YkX9tatW2Tr1i23ALglCV7S+ZHnzVtcXKwA+Htd8yOPPPIGkwekugnVOsRtgnzoR/QZEx87P/LII4888sjT2N+kXJ51ndAeyuAzKj5yfuSRRx555JGnub95Lm0PbPAZFq9FYZNHHnnkkTccPKA3I3f4nBUTyOAzKj5yfuSRRx555JGnub/5zlHzNXiP2XpZEK9FYZNHHnnkkTccPEAvf+tq8F7r7AZFPHnkkUceeeQlwQP08ze/EbzbzwdGPHnkkUceeeTF5QF6+punwXvsbTtQ4skjjzzyyCMvDg/Q199cN7opOU6lQYDZelkUTx555JFHHnlReYDe/tYxgi85zpNtBs2dPPLII4888mw8tyPNdfE3wGHwzQ9oyxURzV138eSRRx555JEXj9dumbr4WyvWgc0PcBq8NYjiySOPPPLIIy9Jni7+ZmO6v4OHy6k0gyKePPLII4888nQw92akYu7rYOejeV3MPWnxWa085JFHHnnk6cgTxLE3t9fYUfNr5th67S5A5yS7hEfuEsvckxSfzcpDHnnkkUeerjzLkkZYVivWJqB3TEJPwtwBAOXyrOSdFyKCPcW7zaIPLr4jtC5s8sgjjzzyhocXltWKFPytbeTeijwQ3dgzJD6TlYc88sgjjzx9eYVCISwyTXNvhbRYoc6DDys+CpPmTh555JFH3qDxADd/k7j5dew4a2dFNviMiNe2sMkjjzzyyBsOHuA+eLUsibzPDDpPee2YQxfJ4DMiXtvCJo888sgjbzh4QGo7uvqufgtt8BkSn0h+5JFHHnnkkaexv0m5POs6mz+UwWdUfOT8yCOPPPLII09zf/Nc2h7Y4DMsXovCJo888sgjbzh4QG9G7vA5KyaQwWdUfOT8yCOPPPLII09zf/Odo+Zr8B6z9bIgXovCJo888sgjbzh4gF7+1tXgvdbZDYp48sgjjzzyyEuCB+jnb34jeLefD4x48sgjjzzyyIvLA/T0N0+DL5VmOHInjzzyyCOPPJ/Q1d/cICg5TqVBgNl6WRRPHnnkkUceeVF5gN7+1jGCb5q7M2OaO3nkkUceeeTZeG5Hmuvib4DDyJsfoBzXrajiK5WFlwLqAzHEnwawsp5sgl8WyCOPPPLIIy8mbxTApqg8EXlJrVa7IQ1zhx1oM3d7RDb3NXY7LsLN3NS6eRkpbPLII4888sgLHGmYe5Pp/g4eLqfSxE1Wl5tJHnnkkUceebrwkJK5A8138PYLgPupNCHANHfyyCOPPPLI8wm3d/iIZ+5tc+jcTqWJ863BwRPE+WKje+GQRx555JFHXlI8xDf39SiXZyXvvBAR7DpytyxpeIiIJF73wiGPPPLII4+8KDzEWx3QMve2v88D0Y3dBnd9h5CkeN0LhzzyyCOPPPKi8JCMua+n12KFOg/eA67tpgHkkUceeeSRpy9PgHjm3rHjrJ0V2eCDmLthGPfHE6974ZBHHnnkkUdeNJ5lyeGY5t6WnnOCfCSDDzpyV0otxBGve+GQRx555JFHXlSeiNwVlmXzX9/Vb6ENPsxj+Y0bN/4AwNGo4qMGeeSRRx555GnOu3dhYeHOMCwP/5Vyebbh9vuhDD7sO/fbb799BcB7IoqPFOSRRx555JGXAd77AQTec6aL/3oyAht81Al1o6Oj7xSR+QjiQwd55JFHHnnk6c4TkfnNmze/IyjLa+QOn4PgAi1SjztbvlAoPFQp9VUAu/txM8kjjzzyyCNPE949IvLkWq32oyCsOP7rO4L3mK0XCN6KWq32o9XV1SsBfKYPN5M88sgjjzzy+s5TSn0hl8td1QtzB3xG8F7r7ILC3XiLi3c/rNFoPF0EjwFQAJAX77s5AWB71JsJ4A7YjpsNEsoFKNFKeweA8RiVZz+A5RTzS5O3A8BYSL2u2jOi1x47RGQsEmyNtwRHuWuu187bAWA8JM/+zyUAyxnSa49A2rv0B67tXWO9gbQH7P8Ca09B7wYAD/XJr1scBbDolZ9SqiEi91iW9SMA/1yr1b4VFJzEPjN+Bt8yd/vvxVmUHypZ0zRvAPBiz+R9Ko+ImLVardarm2mPQqFwjWEYH+6WX7eQ5jnBaeWXJq9SWXwRgA+E0evUPj1duDEreu0xN1d7vlLqw2F5wHp9vrZYnPhIVvTaeYVC4Zow2l02/bi2WJz8UFb02iOIdp93sm3tXXe9QbQHHdwE0Z6W3oWFpclGw9rXLT+fuLFarV6jU3nYw/MRvc3ctUnWHkk+VkmjcNxOCdIpv17w4jzmyqJeJLw9cxb0Jtl+LUsaOuQ3jP0V9eqfXxSeq8E7T6XB2my9vifbimxUnvYc9csvTZ7EMvckj1DU/f4BNHdgcNsH9WZD76AORjoM3nmebDO0+GYNDFfl0b0xdztFMJJgtMq3o4y11huV96Bee4g2+bH9Uu8w6I05oc5tkKxNebTBmh/Qph2ApUuyw1Z5epFfGryoYjmS5WNq6qXeXuqt1xsxByPp5heV14p1YPMDnBnT3CPzBHG8PcuPqQuFQmi9OjcW1mfqpd7B1Csi4tH3hNabRn5Ry6M1WM97/LzjVJp+JpvFymNZ0ohScbz0Jp2fLjx3vXxMTb3UmwW9pdKMqlQWMjuheNAGIzYmgOY7eOejeZp7fF6kBKF35eFj6nT0ZqE+Uy/1evOGY0IxoHf/3GS2zaHrmC2vi7mXSjPKbQIDK89g6x228qVe6s2i3mGbUAx4lq82r7Gdq9/K5VnJOy9EBLPyxOABfEwNDFv5Uu+g6M36Y+qkeIM6oRjIRH1umXvb3+eB6MaeYrJDbu58TE291JsFvcP2mHrYJhQDmajPbk/iBQh5HnyPkk3M3Jv7AmvbWJo5dlzTrPJQL/VSbwjesOkd1H0vHsyvPTQr344dZ+2syAave2MBgHw+x2+G1Eu9PeJxe+bBfUw9bBOKvfLTrD4721vHHLpIBt/DxhJpwh/AykO91Nt73rA/po5u7jo/ph62CcVe+WlYn31Xv4U2eH4zjMfzyk/DykO91BuZN2x6B/Ux9bBNKHbPT/v6LOXyrGv9C2Xw2aw8+ueneeWh3hA8PqbmY+owoXN/NWwTir3yy0D79XzSHdjgs1p5+pWfYRgd9zZM5TEMo+s2eDqXR0t71Mbipl1nvXaeYeTayj1s59DSnhW97bkrI+acmUzptfPc2rtf2NuHrc5nQq/9QlDtXv2BX1/XC73d8osSvRq5w+cguBwCRL8qz/bt258J4MeCMN2/GVrv+u53/+doWvm5xdTU1BXnnXfedQBeb2dEqDwz27dv37tz5859R48eXU4qv6T1emlXSsUZ2bVp11Wvnbe4ePdjjhw59nYReU2LHbFzmNm+ffvekydPVc49d5uz7mqj185bXDxw+ZEjR99uWQ9qDxtKKYjgSUePHt974sSpfU3tWuq186rV/Ze7tfcgeu0hIk9aXj625/jxB+5ytned9Np5Xn1dEL1Nza3/9Ozr0tZ73nnnnaeUenUMc//+sWPHPp1Wfj483ycfvt+cvKbip5BsB880zRsAvNiP6VU4ImLWarVaWvnZY3p6+tJGo/FOAD8bNL+AYYnIjfV6/Q+Wlpbu1tHsnNoT/CZsiciNhqHeUixOHtBFrz0uumj6EY2G9U4AP5OAXtjunyUiNyml/qhYnLhbF7123v79Bx++urr6pwB+JgG99rAsy1qv87rotcfCwtIl9XrjHXBp7xH02utLW3vXRa+d162vi6DXHr7ak9ZrmqaplKoEzM8tbqxWq9eklV9cXtcRfD/NHQg2gvepPNcfO3bsWJo3c3p6esM555zzNhG5CcAlIfMLEkopdVkul3vFeeedd9KyGt/bvHmzE9CXyuOmPcnHXACUYRiXAer/Hjt2/IRlNW7dvHmT9Euvm3YAHeWekNkppdSPAfi/y8vHjn/3u/9zCxy7VPVSr523vHxsw4EDh95iWdYNAC5J2NyxdsDXWp3fvn37A8eOHftOEO296FyPHDk6euDAoTd7tfeIeh2/Ekx7r83Er6+LqDew9jT0PvDAiZ0i8qqA+bnF+gheN3MHfEbwpdJMy9ztv9ezZP1G8H6VJ8wIPqK5TzUajX8FcFmU/MJGk1feuHHjiy+88IL7/PJLWq+f9pT02uNLuVzuBfv27bu313rdtCulOso9BbNr/ecXc7ncC+bm5u4Lwkqrs1lauqe4srLyzwAenbJee/hq70XnurR0sHj27MrHEPC1YQy9vtr7YO5TjUbj42G0J9AfrGtPS+/CwtJko2Hti5gf0BzB62juQJdJdjZz1yZZe/R7QsTU1NRPNBqNb6O35g4ApTNnzvz3/v0HHx71/sUtDzftPTB3iMjV9Xr9lunp6Ut7qddNe4/NHQCe1mg0vhNEe4qd4U+srKz8N3pr7r7ae9G51mpLjz97duW/0Vtzd9XeazMpFotPaDQat4TRnlB/8LRGo/Gdiy6afkQv9Go+oS4Sz9XgnafSYO0xSd+TbUW/zb1YLD7VsqwvAdiRdn4evImVlZWvViqLV/RCr5/2Hpn7uvZGo/GNYrF4ZS/0umlXSnWUe4/Mzld7Wp1Ntbq/1GhYnwewvYd6fbX3onOtVvc/tdFofKGlvUd6XbX32kxM07xaRL4YRnvC/cFEo2F9fWHhbmdfp4W5N0NLcwdcDN55nmwzuE6xGcVi8UoRuRnAprTz8+FtF5EvhhnNJmDuHdp7bO6tCKQ9YXO/UkRuVkp1lHuPzc5Te1qdf622dJWIfBzNcu+Dubtq783Iff9VlmV9Ah7tPWW9Hdr37z/4qDT12nmmaT4GwKfDaE+pP9jeaDQ+33xqmbjemPm5DZK1MHfAYfDND2jTDpr7ehQKhd0i8lkAm9POLyBve6PR+Pz09PRD0tDrov1mu/Y+mbtd++e8tCdZ/1ralVId5d4ns+vQnt5j+bv3WJb1cTTLvY/m3qb9oosuuiANvfZrCwtLuxuNB7X3Sa+dt311dfXmAwfutdf5VMxkcnJyD9bMPbD2lPuD7aurqzcvLNy9PUm99Xoj5g6E7vcvqfyi8lqxbvDND3BmrM1h9v02dwCGUuojAHannV9I3kSj0fgHdJ9PEbc8DKXUTQD2aKDXHpNu2hOuf4ZS6ial1B7nD/psduva0zL3I0eWjUaj8SE0y10Dc2/TfuTIsrPOJ9a5Hj58xKjXH9TeZ7123sSZM2duOHz4iJGkXsf9MwzD+EgY7T3qDybq9fpNSHAHVomYpO7mXirNqFJpRnndKCmXZzlyt4VpmtcCuDrt/CLynlYsFn81Sb0u2ksa6W3TbprmryWp16ldKVVyXtfE7FraUxnJ3n//yZcCeKpGeu28q++//8QrktRrj+PHT7wYtjqvgV57XH38+Ilr0+qfne1dA712Xlt7T0JvEvlF5aVl7uu5Oi6srcNyOZWmH8mapnmDUqpjmVzQyuNcJhc1v4mJie25XG4eLhNNNDK7+w3DuGh+fn59CVkS5dHUPofmpDqN9NrjOIBLpqYm742r1x6FwuQOw8jtg2MypQZ67bzjIyMjjxgf33Morl57fVlYWNrRaFh3YO3dr0567f88PjKSv3R8/MIDSXaud901f04ul9+HCJPqetg+jgO4pFqtHgrKCtIfjI2N7RgZGZkLqr1P/UEg7UH0FgqFglKqGiO/m4rFiRdrZO6tQbsAnY86RBdzL5VmlNsEhn4sZTAM4w3Q29wB4BzLsn4/Cb32yOfzvwO9zR0AzgXwe0nobUWpNKNyufwbobe5A8C5q6urv5OEXtjuX73e+G3obe4AcO7Kyuobku5cDSP3Wuht7sCDdT62Xvv9y+fzrwuqvY/9ga/2Hj5J1uY1tnP1W7k8Kx0XIoJ7snSjH+Y+PT19jlLq153XNTW7V0xNTV2QVHlMT0+fIyKv1Fivnfdyx+Sj0HpbUSrNqHvuuW+7iLS99tBMr/2f1x44cOj8OHphqy8HD957rlLqlRrrtfNeHmSSaTe9tqhXKovnKKV+Q2O99gikPWh/UCwWzw2qXYP+4OW9mGCbht40/NJj35q1EXy5PCs0d/doNBovBLDNfk2Dyu0VG0TkpXH0OrS/CMA2jfXaeRvPnj37kjh6gQfry+nTp9vKXUO99th45szZxB4Tnj595vkisi0sq4d67byNlmW9LI7eZtTL5VkRkY72rplee/hqD9P/BdWuSX/gqn0YzR3uT+IFHh/U72QTM3e1VjJx82ubAxCzsI8opT4uIrdYlrWcy+W2K6V+XESeBeD8uHpt+f5FDL1trAQr92EAnzIM9R3LkuVcLrddRK4SkWeJyPlRgEBHeTwfwHVR9drrnwheGFOvPb/DAD6jlPq2ZVnLSqlzlFKPEZFfhK3cI+hdz08p9UIA74iq18F7QUy99lhurqH/tmVZy4Zh7FBKXSUivwRgZ1S9jgikPWB/9WI/Toj8lgGE0h6hvXlqj9A/+2oPkV8g7TH7lzbtQ2rurfNk1v/ezlJhoSkn28arVBY/2PxWGSny+dxFk5NjC1Hzm5qaGrcsa3H9ZkUv7LNKqT9aWVm5fmlp6bRT79LSwc0rK6uvBvD7IjISVW8rv3w+f+nExIWt/ZUjlcfU1NSkiNQi6nVqf0uj0bj+oovMVecP77xzfjSfz78GwB8i5BdOt/JQSl0yPz9/V9gk209JOzC+ulqfj6jXnstZpdTbNm4c/es9e3adbl5eL48LL7xw84YNG14bVLtf/VNKXVypVPb5cZx67VGrLe1pNBoLQRg++Z1VSr21Xq//1cLCwinn7wbRHqa9+WkP0l8523tIvfb8ziql3rKysvKuVnsPoj1q/+KmPWz/HER7wPwCa495pHSb9qh+1G2SXUC9bafJeUXK5g6sGXzHHLpQ6wlTTtatsCNN+AOSWcpgWdbTuvECVsajIvKkSqXyDjdzB4CxsT2nisWJP7Us66cAnAoC7abXshpPjaK3FWv5yU9F1GuPYyLypGJx4h1u5g6gvn///pPVavWtzXsdWHuXI4JDL21ymWBWiqjXnt8xpdRTTXP8nW7mDgAHDhw4FVR7wPp3NQJEt/ZrWVYSS8OOKoWnmub4n7qZexDtEdqbp/ag/ZWIBLp/Pvm12vvb3QzOS3vMkWJb3lH6Zz/tAfMLpH1qavJtAH4ajnKP2N6uHtKRex6OAbrbBPnQBt/LvZDDslqR1DpFEXm8Fy9gYTcAPLNWq30riN5arfZVEXl+XL2WJY+Noteen2XJ4yLobUtDRJ45PV34NgLUl4WFha9alhXo0XC38hCRx0bR237/rMfFNHdLKfySaY5/20uvPfy0B61/QbT7tV/Lsp4QQa/9nw2l1C+Y5sR/Bal/CwsLX22+XgitN4j2MP1VUO1d8msAeIa9vQfRHtdM7Nqj9s/dtAfML5D2Vn5TU5NfMwzjmih6XbQPo7m3pVcuz7ruyJfYjkC6LBVIchMCpdSjYxb2e6rV6tfD6K3Vap8G8C9x9IrIpXHLwzCMR0fQ26Z9errwdT+99lhYWPgUgH+NoNf+z0chYHiVh1IqMMMjv/ea5sTXbZd965+X9pD1r2veQeqfvdxD6LXHe01z/Gth6l+lUvlkS3uM9tahPWz/EkS7T37vqVar3wiqu1SaUcXixGcBfCKC3g7tMZcCu2oPUR6+2p35FQpjnwbwiZhfpt3yHiZzBwDPJ92BDX7YzH18fK+hlLrIeT1EYYthGH8WRa9lWYEmS3WpjMWwep35ichUSL1tYRjGnwfV69D+9gh67TEVRa89PxGZjqK5ld/ISN4+yTFw/XNqj9DZeGoPWP+UiFyEgOGWXy6Xe2eU9iZivTNm59qmPUL/4qvdL79cLndd0GQd+V3nxgsRUzH7U1ftYcrDT7tXfpbVeDsiRjM/Z183TOYu8DkrJpDBZ9Xc6/VG5O12N2zYuA3AOfbrIQv7tvn5+f1R9C4sLPwPgFpYvbb8zhkbGwt8ApQzv4WFpS0Azonxzfo20xw/EFRvEO0hGt+2QqGwMYxee34/+MEdm+Eo9yBhy+8H4+MX7g+q10t7xM7GVXvQ+rdr167NCLhEzCO/7+/bt29/kL935rd79wU/ALDg4IXBrGuP0r/4aQ9QHt+fm5tbCqrXnt+uXef/D4CFGO1t26FDh7eE0eunPWT966q9+2vJhe/Cp69zC1t+2+6990irzg+TuQMBDoLzNXiX2XppJZt44UQ5SKCVn1LGuU5eyJiLoVcA3BZWrz02bty4NYxex+VtMR+bzYXU21V72MY3Ojrqqd2vPDZu3BjH3IFmuYfQ26E9Tmfj1B6m/gXV3iW/QDP43fLbunWLAPhBWL1O7VH7l27aA5ZH5NULW7ZsFhH5fmjBtvxc9i0IXP+c2iPUvzirF7r2dV567WFZ1pYweh0slVFzD8TravA2c3feAe3NPUrY88vnc7mYPImjV0ROxtHbaDSCfnlzyS/y6slEXpPYtUcp39XVVbcvpIHq38jISA4hwiU/CavXkV/H7OMw9c+uPWz9C6LdpzxCaXZ5LXQyrN42UfV6PozeINpD1D/fpH1eC530+/tu+a2u1u35h6p/du0R+1PXXwixeiGwdrf8Tp06HWkX1lJpRtn7+RB6PXlB9PaS52cCWh9mn+43L7UShwfAjKNXKXVhHL25XM51mYq33gfzE5EzUQTb8psMq9dNe9TyHR0d7Vh2FaL+nY2g157fRJz24TyWNmz9a2mPuFRqJYJe+z/NsHod/D1xnhxt27bVrewC1T837SHrX1ftfuXh1t79wp7fxo0bTtl5YTgt7TH60w7tYepfUO1e+Y2MjIT+cqTbjqlp8bqdIT6UI/dW7Nhx3nLc2Z0LC0s7HJcD6W2+P78qht7Vubm5B8Loted37rnnHkPI0Zgjvx+r1fZvD6rXTXuM8q3feeedJ8LotV8Iqr1LfpeNjY3t8Pt7t/wOHjy0CcCVIfV2aI/a3s4777yjEfTa47K9e/f67k7nlt+BA/dsFJEr/f62S371zZs3Ojv6wPXPqT1C/fPU7lcebu09gN42zqZNG06E0WuPHTt2HIvZn7ZpD1P/gmrvkl9He/eLYTF3wMPgnafSIP5jx0yZOwBs2rThjFLq7hj55S3LuiaK3pGRkRcC2BxD737EeGx26623rgIIrN0lv1yjYb0oSvmOjIy8UCm12Xk9xBHBC3btYetfEO0+5ZEbGRl5aVC99vzOnFl5PprlHqU+i8hCqTSDMHqd2t3qfIj6lxsdHe2q3as8Tp8++1zY6nyYaL6DXtyyZbM9qVD9i117xP7FVXvA10Jt7T2IXkdui1u3blmN2j+fe+4WUUodcDDDYNa1R3gt5KvdZ9+LtvYeRC8SNPdmaGnugIvBN83deUcjz0ZPMlmgt7MdReSOOPmJ4A379x+4IIzeQqGwG8DbYup1zTtkefwwrF5Hfr9rmuauMPfONM09Sqm3efAChVJqXXuM+uepPWB5BNJuz29x8cBuEXlLWL0u2mO1N2edj1D/3uil3as85ucXzoetzofU3Pr/H0XR69Qes39p0x7wPPK29h5UryN+GP/shQfLPWL9e2OxWNztp9ceQbQH2J45cB+dhrm7HWkOTcwdcBh88wPatGNIzb353/8vZn47VlZW/2FurrYhyN9PTExsV0p9FsBD4uhVSn0nol57+O7G5ZPfDgAf81uy1opCYXKHXXsYvY6cbo2o11d7iPLw1e7Y+357vV7/FICHxOlsDMP4XkS99liv8xHr3w4A/+JcpulVHnNz1W0Aboaj3IOEPT+l1Hcj6l3PTyn1bef1kOWxrj1I/XO29zB67fm16nxYvY78vhVBb4f25msmV732CKI9SP0Lqt2rPOr1RiPI3wfNDxqZO2Az+OYHODPW5jD7fixlEJEvJ5DfjFLqi9PT02Pd/n5qaurxuVzu22i+g42jt9FofC2KXsdnddUeML8ZpdSXxsbG9vpo/wnDyH0bwBVR9NrDsqzZuPXPTXuE8vDU3j5yv/txq6v1/wJwRfxT6+TrjstRJlx9OaJeezxxZGTkP1ravcqjWt3/GKWMb8E27yCc3rbcZqPoteenFL4aUW+H9kplYcLlZ/aDbdrae1i99vwsy5qNotdx+SsJnJr4k6dPn/1cpbLYqvNeB9v4ag9a/4Jo95lQ3PdN1dLwy+YZ8Q9m6TR4t43re52saZo3IMaRpSJi1mq1WtT8rrjiipHl5eWD8DnWMmB+JwC8V0Q+vmHDhh9u3br1zPLy8oVKqccDeKGI/HRInlcc27x5867bb799Jaxee8zMzOQXFhYOwuU40wj5ddWOtYMnouq1x/Hzzz//gnPP3eL2x4Hrn1N7zPJo037OOeecPX782LhlyeNE5Pki8n9i6IUtv+MXXrj7wo0bR1uH+kTqHK666qrRI0eOHICjzkfM7wSA9xqG+vTWrVvv2LZt65l7771vj2VZj7MseZ69zkfQa4/jO3fuvOCWW25ZCctyzIEYOXDgnkUAOxMojxMA3qeU+uTWrVt+ODq64eThw4f3uLX3CHrt5XF8x44dD2nOHQmlt+0GHj+pDh8+3FHuEfM7ISKB+roIetvS9tPu1/91O00uYH43FYsTL4Nm5r6eq+OCAvQwd2DN4JVSL3ZeDzHhqs3go+Rnmub1AF7l9RlJPllIiPfBarV6bVS99igWi38lIq/WXG+b9qmpyV+LqtdNu+Z67bwPF4sTr4iqF3iwvlQqi38J4Dc012vnrdf5KHrt1yqVxb8Ukd8Iy+qxXvs/A2v36w/8+jpN9AbWHnAORCiDd8nvpmJx4sUamXvrqbwAnZPsRBdzb74T65jA0OulDCLyd62b5QxNO//3xdHr+Oz32rVrqnc98vncB+PodcTfK6U6/k4nvXZeLpd7fxy9joOG/h7NctdVr52nlPr7OHodvPcAwWdl90Ov43cCaQ/SH3Tr63TRG1R7D18Ta/Ma27n6rVyelY4LEcE9WQfYj3WKtVrtR3Cc9gT0v3J7xNeq1eq3kyqParV6J4CPa6zXzvv65OSYc3Jh5PpXLE7MA/ikxnrt//z65OTe78TRi/ZTvu4E8CmN9dp5X6tUKrfE0WuLerVavQMu7V0jvfYIpD1of+DV12mkN5D2QZkDFobnsW/N2gi+XJ4Vmrt3iMgfwHY+vQaV24vzpqTLQyn1h0qpuvO6DnrtvFzOeHMSeu33L5fLvRnNctdNrz0Mw/jDJPQ68nsTbHVeJ712nlLqTUnoRftItq2966TX8Xu+2sP2B0G069D/eWkfRnOH+5N410f0OiSbmLk3TxGInV+tVvuRUuovmsyOn+vQ+YvIR4vFif9MQm8rWiNZEflL3fTaeSLyscnJsf9MQq/9/k1O7r1LRP5SN70O1scKhbGvJ/2YsFqt3tGq8zrptfNE5KOVSuWbSeh1jmSDau9XfxBEe5T+2U+7Dv2fl/YhNfeOkbudFdngdTd3oP3AmLj5NRqNPzYMo2NTBU06/0MjIyO/jZTKY9u2rW9rbSihiV4779CmTZtem6ReexiG8UdKqUCb/vRIrz0O5fP530rrHeDKyspbwmjvced/KJ/PvzpJvfYIor2PZuerPU7/7KVdB3P30j7E5t6WnnMOXSSD76G5R5rwByS/TvGii8zVXC73PADrB5loYnaWYRjPn5zcezRJvbCVxwUX7DyTz+efG/XEq4T12nlWLpd70YUXXnBfknrt929+fv60YRi/DCCU9h50hpZS6vn79u27N0m99vu3tLR0Win1HNjqfB/12nmWYRjPm5ubuy8IK0p/5ae9j2bnqz1u/+ymXRNzd9U+pOaeR+fIvcMvQxt8LzfWD8tqRVqbEExMXHi7iLwYiHTUfNf8YvBeZZrjX3e5nmh5jI/vuU1Eno8IM4zT6hyUwm9PTu5tbU6S2jrUubm528No71Fn+Kr5+fnAGzGF0WuP+fn5/7Us6wXdtPeh83/V/Pz8V9LQG0R7n82uq/ak+me7dk3M3VX7EJt7W3rl8qzrjnyhDF7nU3NakfYOQ1NTk58RkV+NkptXfjEay5umpibfl6ZeO69Wq30GwMv7qNfOe7NpTvxdmnrtF4Jq71Fn+KZqtfq3aeq1x8LCwqcAuNb5PnT+gbUn0b84tffZ7LpqT7o/vegi89OGoX69j3q7aqe5r4fnk+7ABk9zf5BXrVbfp5R6GYBQ+xgnWXmUUq+Zmpq8rhd67bxqtfoBEbkmiPb0Ru7q9cXixNt7odceftp70fkDeE21Wv2TXuh1aO+o8702O6VUYO1J9i8t7UqpjnLvldn5aU+rfzbNiQ8YhvFyNMu9H+bupp3mvpYefM6KCWTwWTX3er2R2kE5lUrlQ5ZlPR3A8aj5Raw894vIM4vFib9J6v6FLY9arXajiPwsgGM90Gvn3Q/gl0xz/Ppe6g2ivQdmd79lWc+sVCp/1Uu99rDX+R6b+/0iElh7Gv1VsThxk4g8C7b23iOz89Wedv9cKIzdICLPFJFAfV1Mvb7aae7r4etvvgbvMVsvjWQTL5woL8rD5LewsPCFRqNxOXxOnUuw8nxDRC6bni58Pqn7F7U8arXaf1iWdbmI/FeKeu28bxqGurJYnLi5H3q7ae+B2X3TsqzLmq8Jeq7XHhddZP67YajHwHHiXopm9w3Lsn4sqPY0O9epqcl/V2pNe4/M3Vd7r8xkamryc0H6uph6fbWnsM+Hyqi5B+J1NXivdXb9StYt+l04i4uLlWq1+oTmnu0d33ATyu8QgGuPHz/25Onpwv6k7l/c8lhYWKjWarUnishvtbSnYHaHlFKvOPfcraVCYbzWT71O7UeOHH4SgNfAUe4Jdv6HlMIrjh07OlOr1Sr91GvnmeZEddOmDTOAvBbA8ZTM7hCAa6vV6szCwkK1n3rt10xzvHrfffd6tvcYeu0RSHuvzcSvr4uhN5D2NPS6LaUeFHMH/EfwWh9m329zt0WjVqtdv7KyMqWUeifWHiUnkd+SUuq1p06dmpqamvzQ5Zc/WsfyaNRqtb9uNOpTAK5raY+ot027YRhvyOWMh5rm+Id37tzRmkjSb73rvMc+9ko1NTX5N7mccYmIXIe1R4pR9drry91KqTcYhrrENCfev7x8NPSZ1Wl3Nnv27GoUi5PvXl1dmbbX+Yh610NE1ut8tVr9ILpMIOqlXjvvgQdO1N3ae0S99n8G1t5HM2kE1R6y/+uqXfd9V3Q0d8Bl71rbB9hH7q3/72myreNiXRMPUHncjotN82a24hGPeMS206dPPdey5FeUUj/ZYgesPMsAPq+U+qeJiYkvzs7O1nWtPG68o0ePbz127P5nW5b1KwDWtQeMlvaPFQoTXzaMjsls2um1xz33HN548uTJXxaR5ymlnhhGu1JqGcC/G4bxzxMTY18yDNR112vnXXrppVtPnTr1nKDaHe13GcC/A/joxMTEf8zOzoZaItvv9hFEe5f+qqO96643iPaA5h5Ie5p6FxaWJhsNa59HfkHixqmpyZeklV9cnqvBN0+lUY6fpzZhzSu8DD7Edo6+Bp92Yzl06PA5J0+eeiyARwG4RET2ADi3eW/PKqWOAFgQkR+KyC21Wu022L696tSYw/JqtaVt9Xr9cYZhXBZUe6k0I1nVa+dNT0+fE1S7YRjfO+ecLT+wPaXInF57+Gk3DGMZwCKAO5TCd7Zu3fyD88/fuZJVvX7alVLn4cFyXwawYFnW/7q196zpddH++Fwud3lT+240y11Ezvj1df3Q2zL4GE/ebpyamvy/aeUXl9fhlDZzt/+85+YOuBt8mMc+fgavc2MhjzzyyCMvXd7CwtJkvd7YF5bVCqXUTcXixMt01AsnrPkB9hAA2px3q9E7d/LII4888jLOq9cboee3tKJX+65E9UvYgc0PcGZMcyePPPLII28geSIiHkbdNXQ399Zg3WsiTMepNP1MluZOHnnkkUde0rxCoRAWmRlzB5rL4JyP5mnu5JFHHnnkkdceGTB3+xy6jnXu2ozcS6UZpZTqWPdNcyePPPLII6+XPMBzsKnNa+ymua9HuTwreeeFiGBuQkAeeeSRR97A8YBMPElumXvb3+eB6MaeYrI0d/LII4888vrKAzJl7uvptVihzoPvUbKJmXvzFAFtKw955JFHHnl68oBMmHvHWTF2VmSD193cAcDtIIGk8yOPPPLII2+weEBmzL0tPeccukgG30NzjzThD9B7tiN55JFHHnl68oBMmHsenSP3Dr8MbfC9LJywrFbQ3MkjjzzyyAvLAzJj7m3plcuzrjvyhTL4rBaOLvmRRx555JGnJw/IpLkDXQ7sCWzwWS0cXfIjjzzyyCNPTx6QSXMX+BwEF8jgs1o49XqjL6fgkUceeeSRlw0ekElzBwKc8qrgE15T8VNItoPndR58hwjvwnmriCyHzVEplbMjRQARiXPqEHnkkUceeZrxlFI7lFJ/4LwewtxvrFar17T+oduXmXy3H/bT3IOGzzevPwh7UpD77wuinDhEHnnkkUdetngZGLkH5vk9onf7eVbMnTzyyCOPPPJS5+lo7kAXgy+VZrI8ciePPPLII4+81Hm6mjs8IB2n0iDAbL1eiQf0LmzyyCOPPPKGhwdNzR1wGcE7z5NtBs2dPPLII4888tp5Wr/GboM1P6BNOwBtzrvNQGGTRx555JE3pDxoZO6wA5sf4MyY5k4eeeSRRx55PjxoZO6twbrXMrmOU2n6kayIWEqpTBY2eeSRRx55A89rnZminbmjBXY+mtfB3AHAMIx73a5rXNjkkUceeeQND+8Q9DL31pwAATon2WkxcrfxfuC8rnlhk0ceeeSRNyQ8AD/Q0NwBAOXyrOSdFyKCU1kHuG3b1i888MCJBwBsA/QvbPLII4888oaGdyKXy/1bWFZKftk2cm9FDgAqlRoqlVok4Wku8t+yZdPK0aPHDQBPzkBhk0ceeeSRNzy8t1UqlS+FYaVs7uvptVihzoPvUbJtvD17dv25ZVlfiZpjhisPeeSRRx55GvJE5Cs7dux4RxhWSn7ZseOsnZWLKrxX2/ONjORXzp5d/cTq6uojAVwShpnVykMeeeSRR562vM9s2bLll7///e+fCcpK0dzb0nPOoVPBkakn68dTxWLxuSLyRgCP9GNmuPKQRx555JGnH+97IvLOWq32L3C86+4WKftl6++lXJ7tODI3tMHrsLH+2NjY3pGRkaKI7HT7uWEYHU8mLMuKfP4weeSRRx55w8lTSi0bhjG3b9++/WFZPfBLgYe5Az7nwfch2UC8paWluwHcrWt+5JFHHnnkkdcjnufS9sAj+AyLJ4888sgjj7xB4wl8DoILNIs+o+LJI4888sgjb1B5vqe8+hq8x2y9LIgnjzzyyCOPvKHldX1E77XOblDEk0ceeeSRR96g8vxG8NoeZk8eeeSRRx555HmHp8GXSjMcuZNHHnnkkUdeRnmuy+Scp9IgwGy9LIonjzzyyCOPvEHldYzgm+buHLnT3MkjjzzyyCMvIzw4Yc0PsIcAsHRIljzyyCOPPPLICx7rwOYHOA2e5k4eeeSRRx55GeHZmO7v4OFyKs2giCePPPLII4+8QeTZmACa7+Cdj+Zp7uSRRx555JGXHV6T2TaHzgmXmN8atBVPHnnkkUceeYPIazLbJs2Xy7OSd16ICNZaPHnkkUceeeQNMK9l7m1/r8LCMiqePPLII4888gaRZx+5C2xP4gOdJpdx8eSRRx555JE3iLyOHWftrMgGnxHx5JFHHnnkkTeIPOcprx2r3yIZfEbEk0ceeeSRR96g8nxXv4U2+AyJJ4888sgjj7xB50m5PNtw+/1QBp9R8eSRRx555JE3qDzPfWsCz6LPsHjyyCOPPPLIGzSewOcguEAj+IyKJ4888sgjj7xB5fme8upr8B6z9bIgnjzyyCOPPPKGltf1Eb3XOrtBEU8eeeSRRx55g8rzG8G7/XxgxJNHHnnkkUfeoPI8Db5UmuHInTzyyCOPPPIyynODoOQ4lQYBZutlUTx55JFHHnnkDSqvYwRfcpwn2wyaO3nkkUceeeRlhAcnrPkB9hAAlg7JkkceeeSRRx55wWMd2PwAp8HT3MkjjzzyyCMvIzwb0/0dPFxOpRkU8eSRRx555JE3iDwbE0DzHbzz0TzNnTzyyCOPPPKyw2sy2+bQOeES81uDtuLJI4888sgjbxB5TWbbpPlyeVbyzgsRwVqLJ4888sgjj7wB5rXMve3vVVhYRsWTRx555JFH3iDy7CN3ge1JfKjz4DMqnjzyyCOPPPIGkdex46ydFdngMyKePPLII4888gaR5zzltWP1Wz440h+OeDvekUceeeSRRx55wXgKtnfubqvfQr+D90gWCYsnjzzyyCOPPPL8eVIuzzbcfj/UCN7lhT4Qfztb8sgjjzzyyCMvIs/rb8I+ou+Yiu/1zYE88sgjjzzyyOsfL7DBl1yOkI264x155JFHHnnkkZcuL9A7eBd45O1sySOPPPLII4+89Hm+I/iSY596xNjOljzyyCOPPPLI6w2v6wjeBR55O1vyyCOPPPLII693vMDv4OMkSh555JFHHnnk9Zb3/wEr7krYuqYzcQAAACV0RVh0ZGF0ZTpjcmVhdGUAMjAxOS0wMi0yMVQwODo1NTo1NC0wNjowMFgSOHUAAAAldEVYdGRhdGU6bW9kaWZ5ADIwMTktMDItMjFUMDg6NTU6NTQtMDY6MDApT4DJAAAAAElFTkSuQmCC" vertex="1" parent="1">
          <mxGeometry x="111" y="540" width="49" height="50" as="geometry"/>
        </mxCell>
        <mxCell id="Om71xXF0C_-sWj4UQDyn-6" value="" style="shape=image;verticalLabelPosition=bottom;verticalAlign=top;aspect=fixed;image=data:image/png,iVBORw0KGgoAAAANSUhEUgAAAfgAAAIACAYAAABuAX6WAAAABGdBTUEAALGPC/xhBQAAACBjSFJNAAB6JgAAgIQAAPoAAACA6AAAdTAAAOpgAAA6mAAAF3CculE8AAAABmJLR0QA/wD/AP+gvaeTAAAACXBIWXMAAAsTAAALEwEAmpwYAAAAB3RJTUUH4wIVDjc3YycfcAAAdM1JREFUeNrtnXmcJGdd/z9Pdc/snWR3Q3Y3O0dXzyQBwmEuEEQYoIM/DwRURO4A+YGiInKJiiKCAvEiooicCVFE5QwCCg0Mh/qDEJBgCMnOdPfMTnazye7sbrLnTHd9f39M96S6uqrr7n6q+/N9vXiRrZl59/dTz/Hpp+o5AAaDwWAwGAMXKglIqTSzzimXZ4U88sgjjzzyyOsvL58UOIkgjzzyyCOPPPKS4UX+wCbc/vcS59sIeeSRRx555JGXHC/SCL5UmjGc12ImSx555JFHHnnkJcgLPYJvwp3fHKyYyZJHHnnkkUceeQnyQo3gS6WZnPNazGTJI4888sgjj7wUeIEMvvm8v+ObA4BIyZJHHnnkkUceeenyfA2+Cc+5/MiK8h6BPPLII4888shLn9f1HbwN7vzm0IiZLHnkkUceeeSRlyLPbwRvuFyLk2yePPLII4888shLn2d4/aD5Qt85wq8nnCx55JFHHnnkkZcCz3UE77LOLu5jBi3Fk0ceeeSRR96g8jpG8C7r7ACaO3nkkUceeeRlhgcnrNS5t60g3uw/bcWTRx555JFH3iDyWrEOLHXubQvQ3MkjjzzyyCMvMzwb03MWfeTt9HQXTx555JFHHnmDyLMxATTfwTsfzdPcySOPPPLIIy87vCazbQ6dEx75CDvdxZNHHnnkkUfeIPKazLZJ8+XyrOSdFyKCtRZPHnnkkUceeQPMa5l729+rsLCMiiePPPLII4+8QeTZR+4C25N4Iywwg+LJI4888sgjbxB5HTvO2lmRDT4j4skjjzzyyCNvEHnOU+Y6Vr9FMviMiCePPPLII4+8QeX5rn4LbfAZEk8eeeSRRx55g86Tcnm24fb7oQw+o+LJI4888sgjb1B5nvvWBJ5Fn2Hx5JFHHnnkkTdoPIHPQXCBRvAZFU8eeeSRRx55g8rzPeXV1+A9ZutlQTx55JFHHnnkDS2v6yN6r3V2gyKePPLII4888gaV5zeCd/v5wIgnjzzyyCOPvEHleRp8qTTDkTt55JFHHnnkZZTnBkHJcSoNAszWy6J48sgjjzzyyBtUXscIvuQ4T7YZNHfyyCOPPPLIywgPTljzA+whACwdkiWPPPLII4888oLHOrD5AU6Dp7mTRx555JFHXkZ4Nqb7O3i4nEozKOLJI4888sgjbxB5NiaA5jt456N5mjt55JFHHnnkZYfXZLbNoXPCJea3Bm3Fk0ceeeSRR94g8prMtknz5fKs5J0XIoK1Fk8eeeSRRx55A8xrmXvb36uwsIyKJ4888sgjj7xB5NlH7gLbk/hQ58FnVDx55JFHHnnkDSKvY8dZOyuywWdEPHnkkUceeeQNIs95ymvH6rdIBp8R8eSRRx555JE3qDzf1W+hDT5D4skjjzzyyCNv0HlSLs823H4/lMFnVDx55JFHHnnkDSrPc9+awLPoMyyePPLII4888gaNJ/A5CC7QCD6j4skjjzzyyCNvUHm+p7z6GrzHbL0siCePPPLII4+8oeV1fUTvtc5uUMSTRx555JFH3qDy/Ebwbj8fGPHkkUceeeSRN6g8T4MvlWY4ciePPPLII4+8jPLcICg5TqVBgNl6WRRPHnnkkUceeYPK6xjBlxznyTaD5k4eeeSRRx55GeEBDiNvfoByXLdSSBaFQmGXYRgPsSwrF4SnFJRh5HLKlpkIYFmNhghC50ceeeSRRx55afKUUpZhGPfMz8/fB3h/ThrmDtiM3Gbu9uuJmvvcXG1cKfU7AJ4NYHu4G9o54V8ksm7yyCOPPPLI6xXvgFLqAysrK9cvLS0t23+Qhrk3mZ4G77pxfQhwR7KVyuILReRvAWzswc0kjzzyyCOPPN14R0XklbVa7WNAuuYONA3ddkEByZv73FztZUqpv+vDzSSPPPLII4883Xi/MTU1+R4kb+6teXUCdE6yk+RH7gsPV0r9dRSmxoVDHnnkkUceeVFx76rVli53uZ6EuQMAyuVZyTsvRAR7PmYQwVsBjIRlal445JFHHnnkkReVl7cs6y0AnmW7HGf2fdvIff1zImfYDnc19zvu2LdjdHT0XoQ8ljYDhUMeeeSRRx55cXiWYai9hcL4ESRj7sCawUuLFcp4PeCe7xA2bNhwWdjPyFDhkEceeeSRR15UngGoRyOeuXfsOGtnRTb4ILP/RGR3DPFoMqKmSB555JFHHnna8hqNxkNimntbes45dJEMPujUfhHJB2VmsXDII4888sgjLyovjEe2wua/zpF7xwT50AafynZ6GS0c8sgjjzzyyOsVz8N/pVyebbj9fiiDp7mTRx555JFHXu95XfzXc2l7YIOnuZNHHnnkkUde73leI3f4HAQXyOBp7uSRRx555JHXe14X//U95dXX4D1m6wE0d/LII4888shLjRd3cN3V4L3W2QWFpy2ePPLII4888gaRl8STc78p+m5fAHpp7l9SSv2wC89w4VlunxMwP/LII4888sgLFCLycABXN3luP4+UW1KvxT0NvlSa6fvIXUQ+Wq1Wb0hLPHnkkUceeeRF5RUKhWuUUlfraO7wgHScSoMAs/W6ha7iySOPPPLIIy8qD9Db3zoeUTTN3ZkxzZ088sgjjzzybDzDUB0T0HXxN8Bh8M0PaMsVEc1dd/HkkUceeeSRF4/Xbpm6+Fsr1oHND3AavDWI4skjjzzyyCMvSZ4u/mZjek6y6ziVZlDEk0ceeeSRR54O5t6MVMx9Hex8NK+LuSctPquVhzzyyCOPPB15gjj25vYaO2p+zRxbr90F6Jxkl/DIXWKZe5Lis1l5yCOPPPLI05VnWdIIy2rF2gT0jknoSZg7AKBcnm0/izbmIwFX8TE2IXC7rHVhk0ceeeSRNzy8sKxWpOBvbSP3VuSB6MaeIfGZrDzkkUceeeTpyysUCmGRaZp7K6TFCnUefFjxUZg0d/LII4888gaNB7j5m8TNr2PHWTsrssFnRLy2hU0eeeSRR95w8AD3watlSeR9ZtB5ymvHHLpIBp8R8doWNnnkkUceecPBA1Lb0dV39Vtog8+Q+ETyI4888sgjjzyN/U3K5VnX2fyhDD6j4iPnRx555JFHHnma+5vn0vbABp9h8VoUNnnkkUceecPBA3ozcofPWTGBDD6j4iPnRx555JFHHnma+5vvHDVfg/eYrZcF8VoUNnnkkUceecPBA/Tyt64G77XOblDEk0ceeeSRR14SPEA/f/Mbwbv9fGDEk0ceeeSRR15cHqCnv3kafKk0w5E7eeSRRx555PmErv7mBkHJcSoNAszWy6J48sgjjzzyyIvKA/T2t44RfNPcnRnT3MkjjzzyyCPPxnM70lwXfwMcBt/8gLZcEdHcdRdPHnnkkUceefF47Zapi7+1Yh3Y/ACnwVuDKJ488sgjjzzykuTp4m82pvs7eLicSjMo4skjjzzyyCNPB3NvRirmvg52PprXxdyTFp/VykMeeeSRR56OPEEce3N7jR01v2aOrdfuAnROskt45C6xzD1J8dmsPOSRRx555OnKsyxphGW1Ym0Cesck9CTMHQBQLs9K3nkhIthTvNss+uDiO0LrwiaPPPLII294eGFZrUjB39pG7q3IA9GNPUPiM1l5yCOPPPLI05dXKBTCItM091ZIixXqPPiw4qMwae7kkUceeeQNGg9w8zeJm1/HjrN2VrTn5wHFFwqFa5RSH44h/tpicfJDOhROqTSjarWlJzYajZcopS4DsBvAhjhzDJLcBIg88gIyTliWtaCU+nw+n/vI5OTYPY5f0aIzHAKempyc3K2UutgwjCkAE83/7QKwE8C5ALaKyEYAI82/sQCcFZGTSqn7ASyLyL1KqQMisl8pVbEsa+7888+f2759W10zvQPJC+Nxbu3XsqyX1Gq1GyLmZ5+jJnCZQ5cPRU3pZnqLl8ib7CSZ3/j42PnV6v4PiMgz7Hn2u7Mmj7ywISLnKqX2KqUe32hYf1CpLP5FoTDxNsNAHRnrXLPE27t37858Pv/EXC73RBG5AsCjsGbiEJFQ5Wv/3dZ/t/7fMAwsLy/Xjx49eieA7wNyq1LGt3bvvuC7mzZtOJPV+5dlHpDqjq7rELcJ8qENPmPiY+c3PT29y7Ksr4nIJUnkl7Re8siLwdsA4PdqtcWHTk5O/MpXv9r/znBQeFNTUxdYlvVEAE9q/u+RgHu5pVC+eQCXrv1PPU9EcODAPSeVUl8sFAo35/P5z83Nzd2n8/0bFB7QE3+TcnnWdTZ/KIPPqPjI+Y2P7zUsy/ooAJo7eYPM+4VqtfZ7AN4ShqV759prXtPUfxnA8yzLelwQZg/ryxYReZZS6lmNRkNM0/x/SqmbDcP47Nzc3A/hmH3dj/s3aDygZ/7mubQ98CS7DIuPXNijoxufDeApSeSXtF7yyEuSp5T6vbGxsb1BWbp3rr3iLS7evXl+fuGFpmn+u2VZBwC8G4Bu5t7xqwAeJyJvbzQa/2ua5rxpmtcVbFPCs1oeuvCA3ozc4XNWTCCDz6j4yPm1eCLy8iTyS1oveeSlwBsdGRl5SRCW7p1rL3i12tKj5ucXPrS6Wr8HwI0Afgrtk566hmb1xQTweqXUfLFY/GShUHjyiRMnR1x+T9vy0IkH9MzffOeo+Rq8y2y9rIiPVdgHDx7KAXhC3PyS1kseeSnynuTH0r1zTZN38uQpVa3uL1Uqi59vNBrfAfACABvDMjWuL4aIPMswjK/ce++RW6vV/S89ePDQpqTunyMGkgfo5W9d38F7rbMbFPHdeKurjYcAGI2TX9J6ySMvZd54N5bunWtavDNnVkYOHjz0bBF5DYBHZbh8w/AeISLvPX367J/OzdXet7q6+ucAjkS5fy4/0qp8k+I57t969NPf/Ebwbj8fGPHdeCLWhjj5Ja2XPPJ6wPMcjereuabBO3Hi5Ei1uv/nDhy45zYRuQHDY+523g6l1BtHR0f3FQqFV11xxRUjQVhZKN8keV3uXxRUYvl5GnypNDOUI/ck8ktaL3nk9ZOne+eaBq9SWXjkvfce+TcR+SSAqTj3D9C7fAPytiulrl9eXr5tcnLyp/3uHzQv3yR5Ae9fX/JzNXjnqTRYm603cOK78er1RsxTgpLRSx55/eTp3rkmzZuYGN9ZqSy+G1DfBXB13PsH6F2+EXgPNQzj86ZpfmFiYuLhzh/qXr7DZO6Ai8E3zd2ZcaQd5XQX340nEZMcsMZM3hDzdO9cE+Yp0zRfmM+P3Ang12GbWKxLeWjG+z+5XO420zTffckll2wDtC/fVHhuR5rr0t4Ah8E3P6AtV0Q0d93F6/5Njjzy+snTvb0lySsUCucVi8WPKqU+grV94GPfP0Dv8k2IlwPwGysrK9+dmpq6EpqWb7q89nuoS3trxTqw+QHOErcGUTzNnTzyvEP39pYkzzTNJwK4CWsHvSRy/wC9yzcF3rSI/Fe1uvimc87Zev3OnTtaO6v1vXx7ydOlvdmYnsvkOk6lGRTxNHfyyPMO3dtbUrwrrrhiZHl5+Y8A/K5yuYG6lEeGeCMieOfx4yeecubMykv37t19cJDqix8vzv1LMj9bjg+CnY/mdTH3pMX32NyPAliMwHPrbCLfQPKGjvcwEQm0lMkjtG1vSfFM09y1vLz8aQA/rrF5nlRKHQNwEsBZrL0uzQHYLCLbAOxAiK3GU8jPi/dTZ86cvbVSWXwhgHIYlq71pTtPEMfe3F5jR82vmWOrTghcxEvMbw3aiu/DyP3marV6Tb/yI284efPzC/sATIblAe5fPnTXG5ZXKBQeCuDzAEwNzP24Uuq7AG6zLOsOwzDmlFILZ8+evfuhD50+46PXuPjii3ecPXt2HEBBKXWRUuoRAB6NtZPkOvrOHurdLSJfLBaLf1ypVN4Cl4NsnKFrffHjWZY03JtNtPsXNb9mjm1f+MrlWck7L0QEay1e98fyWa3c5OnHC8tqhc7tLUFzf5JS6tMAzuuTuR8FUBaRr1iW9fXFxcUfweUksIB6rbvuuuswgMMAvmf/pV27dm3ZtGnTlUqppwF4OoBH9kGvEpE3m6a5p1qtvhKA57JjXetLEF6S9y9mfm0j91bkgejGniHxNHfyhoJnmmZYpNbtLSlesVh8voh8GMBIj83uIIB/BfCJycnJ/5qdne3aLyah99ChQycBfA3A10qlmTfVavunLcv6OUD9HIAnYu0grbT0OuPlpmnuyOVyL5ibmzubht5+8mwH8MW6fzHz69i3psUKdR58RsXT3MkjzyN0bm8JmvvvisifeulNwexWlVKfEJEPVavVL6M5Sq9Wq325f4XCeA3A3wD4m6Wlg+eePbvyLBH5LaXUpQnp9fuzX2o0Guddeumlz7r99ttPpK1XV577/ZO4+eXsIKB9wB56kkbGxNPcySPPI4bE3H+7h+Z+r2VZbzYMY6xSqTy3Wq1+CS6P4Pt5/8bG9hypVqvvr9Vqj1RKXQ3g3xDgHXkC96906tSpL+/du3dnL/XqwvO6f5YlkfeZQec8i47Vb5FG8BkRT3MnjzyP8KjPkSbZ6qrXNM0XichfdtEb5dZ13D+l1AEReWej0fjAwsLCqYzcP6lUKmUA5ampqWnLsn4TwMvhceBQQvfvMaOjo9+46KKLfgrAPT3W2zcekKp/2EfuHV8mQ4/gMyZ+4PMjj7ywMQz12TTNnwfwoaT1OnhHlVKv37x50yXF4sS7M2TubTE/Pz9XrVZ/C8BDAfxLF71J3L+HNRqN8v79B7b3S28veUBP2puUy7OukxhDGXxGxQ9sfuSRFzaGoT4XCoUnYc2ocimZuwXgb0dG8g81zfHrd+06/6QO5RuXV61WF6rV6nMAPLG5fC+tL0cXr67W/+WBB06O9lNv2ryk71+X/DxfAwV+RJ9h8ZHyU2uhbX7kkRc2hqE+T05OXq6U+iyADSmZ062GoX61UBj/vg560+BVq9Vv7Nix/TE7dux4iWXJ2wDsSvD+teJJhw8vv+fAgQMv2b//7oG6fx56ASQ/cofPWTGBRvAZFR85v1JpRuXzuaE5KIe8weYB+re3JHjFYvFiwzD+HcC2FMx9BZDfLxQmfnKQzb3Fu/zyRxuFwviNmzdvugxrGwMlvtrAsqwX5fOjb9RBb5I8L70ptDffOWq+Bu8xWy8L4rXYa1j3ykjeYPOAbLa3sLyxsbFNlmV9EsBDUjD3uwxD/USxOPlnhrG+v4cW5Zs2b/fuhxy+4IKdz7Is67cBrEa8fx3XbOXxJ4VC4Tm66I3LC6C3p/l1NXibuTszHgjxQXm650ceeV6RxfYWhTcyMvLnSqlLUzD3f8rljMfaRu1a6O0lb+vWLau1Wu1dhmE8DsBcyPvXcc1ZHkqpG6emph6vi96ovKB6e5mf3wje7ecDIz4Ib1APyiFvsHlANttbFF6hUHgGgFcmbO4NAK/dtev8ayYnx07qpLdfvPn5+VtHR0cvh8tMe7cIUR4bLMv69Pj4+IU66Q0bOrY3T4MvlWY4co/3zT+xL0e6V27y9OIB2WxvUXhjY2N7lVIfStjcH1BK/fzU1OS7t2zZbIf0XW+/eXfeeecD1Wr1uQD+uhszQnk8JJfL3QQXT9L9/kXU25P8XA3eeSoN1mbrDZz4brx6vdEIy+qmN+n8yCPPK7LY3iLycqOjozcppXYkpRfAPYZhPKVYnPiShnp14VnVavXVIvJmtx9GrX9KqaeYpvkaDfX65R1Jby/yc/u2ZKBz5B5pRzndxXfjRT2jm+ZOXj95HufNh0VlQm+xWHwDgCcnpRfA/g0bRmdMs+19uzZ6NeNJrVb7YwC/ab+YQH//J5OTkw/TUK8rz+1Ic13aG+Aw+OYHtOWKiOauu3ju7U3eMPAGtb0Vi8XHAHhrUnoBLOTzuaeMje2p6KhXV161Wv0bpdTzATQSGsyNGobxwW3btuZ11NvJa9esS3trxbrBNz/AWULWIIqnuZM3DLxBbW/j43sNAO+GY/luDHM/YBjqaZOTYws66tWdVyxO/JNhqFc6r8coj8ddcMGuX9VVr+7trcUslWaU1yQ7KZdnEz3oRRfxPXwHE/PLkZ56ycsGb1DbW6k0o0ZHNz4HwGOS0Avg2Ojo6M+Y5kRVV71Z4JnmxIdF5LrW9bib4ojIW++++9AFuup1XtdltZUtRwDNEbzz0bzbqTSDIH7YJliQN5y8QW1vpdKMOnLk6ObW8a8J6F1VSv3i+PieH+qqN0u8887b9ocAPpHQjnfnnT179o901rsWEqu9ub3GjppfM8e2OXQds+WTNXd9xNPcyRsGXtTJocDa+Qu6673//hO/BqBg0xtVLnI545XF4sQ3dNabJd7OnTusRqPxIgDfCssDXPvTl9Zq+x+qq15g7UjzKFof1NuhOa65r0e5PCsdFyKCtRZPcydvWHhhWa3IwhyShYWlHSLye63rMUeKf1cojN+os94s8ppH5j4DwEIYpkd/ajQa1p/orDcsq5veOPl57FuzNoIvl2claXPXSTxo7uSR5xk6tzc7r9Gw3ghgOxDb3G99yEN2vl53vVnlVavVQ0qpZyOgB/j0p08vFAo/rrPesJFCe3N7Ei9AyPPgMyqe5k4eeR6hc3uz86rV/SaAXwdim/sJpdTztm3bsqKz3qzzKpXKLQDe7McM0p8ahvGHuusNGp16JW5+HSN3OyuywWdEPM2dPPI8Iivm3ozXARiJO4FLKfU60xy3z5jXVW/meZOTk9cBuMWLGbQ/FZGfnpycvFx3vX7hfmSuxFmt5pyj1jGHLpLBZ0Q8zZ088jzCoz5HelWXtt6DB+89V0Sel8Ds7C9dcMHODyedH3nuMTs7WwdwLVwe1YftT5VSr9Ndb7dIyT98V7+FNvgMiR+K/MgjL2xkrT6fPn3m+SKyJVKCD+o9o5T6DdvhMVqUx6DzqtXqbQCut1+LUv+UUs8eGxvbq7tej9xD6w2Zn5TLs64T2kMZfEbFD2x+5JEXNrJWn0+cOKkAvDxSgja9InKd7dG8FuUxLLxcLvfHAO4FYtW//MjIyCuyoNcePWpvnkvbAxt8hsVHyk8p13M7tMmPPPLCRhbr8z333Pd4EXl4TL13b9688S/SyI88/5ibm7tfKfVHCdS/a2dmZvK6621FL0bu8DkrJpDBZ1R85PxKpRmVz+eG5qAc8gabB+jf3rx4SqlfS0Dvm/fs2XU6jfzIC8bbs2fXDQDskxuj1L89i4uL/0d3vUDP2pvvHDVfg/eYrZcF8Vps/6l7ZSRvsHlANtsbgPrcXG0XgF+IqfeuQmHiH9PIj7zgvE2bNtQNw3h763rU+ici1+isF9CrvXU1eK91doMiPihP9/zII88rstjeWjyl1LUePw+sVym8wzBwVofyGHbezp3bPwrg7pirIX7u0KHD5+iot5lfx7V+tje/EbzbzwdGfBDeIB/cQd7g8oBstjcbTwF4YUy9d+/YsfMfdSgP8oBt27asiMj1YVmtaJbvhtOnz/ysbnpt+bVFv9ubp8F77G07UOL9eDG/aSb25SiLjZm8/vGAbLY3O69YLD4CwMVx9AL4m1tuuWUlKKOfeoeFt7q6+kEAZ8Iy7eXbaDSepZNeZ36t0KG9uRq881QarM3WGzjx3Xj1eiPmQTnp5kceeV6Rxfbm5InIM2LqXcnn8x/Iit5h4S0tLS0D+OcwzM7XLurq/fsP5nTQ65YfoE976zD4kuM82WZE2lFOd/HdeFGP3aS5k9dPntvaziy0NxfezwVhdulfPnXXXXcdzpDeoeGJyIeDMj3Kd8vKyspP6qDX7UhzXdob4DD45ge05YqI5q67eO7tTd4w8LLY3sbGxnYAuMqP2W3wYFnWjVnRO2y8Wq32DQCLfkyfweHT9NDbnqMu7a0V6wbf/ADnHbUGUTzNnbxh4GW1vY2Ojj4ZPhOAfTr/5fPPP7+cFb1DyLMA/Gs3ZoAnv0/WTa8u7a3FLJVmlFcjknJ5NtGDXnQR38N3MDG/HOmpl7xs8LLc3kTkSd2YATr/L996662rWdE7jDyl1Ke7/Kzjmkt9vmx6evoc+ITu7a0ZiZt7678N5wXA/VSaQRA/bBMsyBtO3gC0N8/3qwHbW6DRe1bLdxB4lUrlvwEsO6+H6E8Ny7Ie03+9Equ9ub3GjppfM8e2OXQds+WTNXd9xNPcyRsGXtTJocDa+Qv91rtr164tAB7lkV/HNTe5uVzuy2nlR15ivAYcX8TC9qci8th+67UsibnaqkNzXHNfj3J5VvLOCxHBnuI93k0HFN8RWlRur/xo7uT1mxeW1Qpd2tuWLVsuE5GOV4ch2tvC3NxcJa38yEuOJyJfUUr9MhD5CNkr+603LMuWu9vlOPm12kzb3xvAmrEnbe6aiae5k0eeR+jU3kTkx4Lk16W9leHo5NK8f+RF5+Xz+W8C0ftTEel40qOz3lakaO7rt6bFCnUefEbF09zJI88jNGxvbZ122PamlPJ8PK97eQwbb3n5yI+UUvc7r4foT83mK51M6AXc6rPEza9jx1k7K7LBZ0Q8zZ088jxCQ3MHgId1y8+vvdXr9W+lnB95CfEuv/zRBoD/sV8P2Z+qTZs2XZQFvYB7fbYsibNazTlHrWMOXSSDz4h4mjt55HmER32O9Kou4fwu7pKf39+eWFxcrKV9/8hLlHdb63qU/lQpNa273maeHdcS8A/f1W+hDT5D4ociP/LICxu61ufm49YLYuT3I6xtopLa/SMvcd6PgFhLO02d9QI9aW9SLs+6zuYPZfAZFT+w+ZFHXtjQuT5v2rRpMmZ+82nmR17yPMMw9sU8tXNSV73N/DqupdDePJe2Bzb4DIuPlJ9Srud2aJMfeeSFDd3rcz6fH4+Tn1KqlmZ+5CXPU0pVwrJsfwsAF+qo15ZfWyQ9cofPWTGBDD6j4iPnt9bZ5IbmoBzyBpsH6N/emrxdcfKzLOtAyvmRlzBvdXV1KSwPaKvPD9FNryO/9UihvfnOUfM1eI/ZelkQr8X2n1lufORlnwdkp71ZVuP8mPndq3t5kNfOq9VqZwAcD8O012cR2aGTXmd+tjyjoGLn19XgvdbZDYr4oDzd8yOPPK/IUnsTwblx8gNwLM38yEuNtxwQ2VGflVLn6qLXLT+gv+3NbwTv9vOBER+ENwAHd5A3hDwge+1NKbUlTnvL5/On08yPvNR4gUbwHvV5sw56u+QXBZVYfp4GXyrNcOQeb3ZnYl+OBqwxk5cyD8hse9sQKcGmXsMwzqSZH3mp8U77ILvV54391uuTX+hIMj9Xg3eeSoO12XoDJ74br15vxDwlKN38yCPPK7LY3gDUlVIjcfRaVlub1aI8yAvEW+3G9KnPeYSIYWtvHQZfcpwn24xIO8rpLr4bL+qxmzR38vrJc1vbmYX2lkT/Ylnrp9BpkR95gXmePwvgH31b6l0qzSi3I811aW8dN6f5AW25IqK56y5+iPb2Jm+IeRlrb6G4LmdXbEg5P/JS4ImI65ObgIPDQKeWpqe3PUdd2lsr1oHND3DeUWsQxdPcyRsGXgbb29mgTPf2pjboXB7kuYdSaoPLtY7f86jPK7ro1aW92Zie7y86TqUZFPE9fAcT88uRnnrJywYvi+3NsqzTHl+U28Kr81dKnZMlveStx7n2f4R8rXtKB726rLay5Qig+Yje+WheF3NPWvywTbAgbzh5WW1vhmHc78fs1t5E5Hy/v4+TH3mp8ba3/iNCf/pAf/VKrPbm9ho7an7NHNvm0HXMlk/W3PURT3Mnbxh4USeHAmvnL/RTr2VZR33y67hmlysiu9PMj7zkeTMzM3kAO4DI/alrnemVXsuSmKutOjTHNff1KJdnJe+8EBHsKT7IIzdv8R2hReX2yo/mTl6/eWFZrdChvRmGcZ9XGwrS3pRSY2nmR17yvKWlpd3w+G4ZpD8Vkfv6qTcsqxUptLeWubf9fR6IbuwZEk9zJ28oeKZphkVq096UUgfd2lGI9lZMMz/ykueJSCFmf3pPP/UWCoWwyDTNff32tVihzoMPKz4KU5fOJkx+NHfyssgD9GpvIrIUJL8u7e2iNPMjL3meiHWx83rII4LvzoreZr5OtXHz69hx1s6KbPAZEU9zJ488j9DJ3AFgYmLiAGy7mkVobxPT09OuM+l1L49h5SllPNR+PWx/qpSqZUFvM9eOa5YlkfeZQecprx1z6CIZfEbE09zJI88jPOqz9DO/2dnZOoBKl/x8GZZlPSrt+0deorxHtq5H6U8ty5rXXS+Qmn/4rn4LbfAZEj8U+ZFHXtjQuT4D+FGc/CzLujLN/MhLjnfy5CklIpcB0eufUuounfU2c+y4lnB7k3J51nU2fyiDz6j4gc2PPPLChu71WSl1e5z8lFKPTzM/8pLjHT68PAFgV4yVncu7dp1/RFe9QM/am+fS9r5t1N9D8ZHyU0pFXrrRi/zIIy9sZKE+G4bx/Zj5/SQApXt5kAdYlvWEmEdy/2Dr1i1OgBZ6m/l1XEt65A6fs2ICGXxGxUfOr1SaUfl8bmgOyiFvsHmA/u2txTMMdWvM/HZPT089Iq38yEtyUyY8KSyrFUopiMj/6Ki3lV+n3sTbm+8cNV+D95itlwXxWmz/mdXGR95g8IBstbedO7fvB3BPnJFdo2H9Ylr5kZcM78479zVE5KfC8oAH67NS6tu66bXnZ49+tbeuBu+1zm5QxAfl6Z4feeR5Rdba25Ytm0VEvhkpwQf1Pjut/MhLhmcY+UcD2BOWaa/PIyP5/6eTXmd+rehne/Mbwbv9fGDEB+Fl9eAO8oabB2SzvWFtB8zZOHqVUg/fv//gw9PKj7z4PMMwfiEs01GfF8fHL9yvi16X/AD0v715GnypNMORe7wJIIl9Ocp6Yyavtzwgm+3NxivH1Vuv138xxfzIi8dTAJ4ThuksXxH5qi563fJr5hgFlWh+rgbvPJUGa7P1Bk58N1693oh5SlC6+ZFHnldksb3ZedVq9S4AtTh6Lcv6pXJ5NhN6h41XKBQeC59the3hUZ+/oIPeLvlFQSWeX4fBlxznyTYj0o5yuovvxot67CbNnbx+8tzWdmahvTl4AuCzQZhd+peHmab5yCAMDfQOFU8p9bKgTI/ytSzL+qIOet2ONNelvQEOg29+QFuuiGjuuosfhr29ySMvq+3NMIxP+zEDDB5+Myt6h4VXKBTOA/C8IEyv8lVKfW1xcfGoHno7Xh2ERaWSXyvWDb75Ac47ag2ieJo7ecPAy3J7Gx8f/zqA+7yYAZ8Mvnh6etr3jHgd9A4LTyl1LYDNfsxu5Ssin9RRry7trcUslWaU1yQ7KZdnEz3oRRfxPXwHE/PLkZ56ycsGL+vtrXnwzL+4/SzEa7+Rer3+mizoHQbe9PT0BqXUq/2YPuUrIvJx3fTqstrKliOA5gje+Wje7VSaQRA/bBMsyBtO3gC1t484L4Rtb0qpV1x88cXnp5QfeSF49Xr9GhHZ240ZoHzLtVrtHn30Sqz25vYaO2p+zRzb5tB1zJZP1tz1EU9zJ28YeFEnhwJr5y/opLdard4C4A5bfh2/E0Du5nq93vEuPqvlm1VeoVDYqJT6/W7MIOWrlLpBJ72WJTFXW3Vojmvu61Euz0rHhYhgrcXT3MkbFl5YVis0nUMiIvL3XvkFbW8i8qpisXhuCvmRF5CnlPpNAONezIDle3RlZeVTOukNy+qmN05+HvvWrI3gy+VZSdrcdRIPmjt55HmGzu3NMNRHlFKnnNdDtrfzLMt6exr5kefPM01zF4A3eTFD9KcfWlpaOq27Xr9Iob25PYkXIOR58BkVT3MnjzyP0Lm9lUozqlicPCEiN9mvR2lvSqlfm5qaekLS+ZEXiHcdgHPcfhCiP5VGo/GejOj1jE69Eje/jpG7nRXZ4DMinuZOHnkeobu5t3gjIyPXo9kZxJxA+L7l5WMbdNc7SLypqamnAHiR289C9qefXFxcrOiut1u477gocVarOeeodcyhi2TwGRFPcyePPI/wqM+RXtWlrXdi4sI5AJ+MeTYERORhR48ef33S+ZHnHpdccsk2y7I+6PazsP2pZVl/orvebpGSf/iufgtt8BkSPxT5kUde2MhmfZa3RkrQoVcp9cZabf8lyedHnjPOnj37LgAF5/UI9e8fFhYWvqe7Xq/oQXuTcnnWdUJ7KIPPqPiBzY888sJGVutzpVL9voj8UwJ6RxsN60Nzc7UNYVm6l69OvEKh8CtKqZc6r0eof2e8ltfppNcretTePJe2Bzb4DIuPlJ9Srud2aJMfeeSFjazXZ8Mw3gjgTAJ6r1JKvR8uy4p00ptV3uTk5MOa97ctotQ/EfmrSqWyqLNer+jFyB0+Z8UEMviMio+cX6k0o/L53NAclEPeYPMA/dtbEF6zo/+LhPS+oFAovD4IS/fy1Yk3MTGx3TCMzwDYar8esf7dl8/n36GzXq/oUXvznaPma/Aes/WyIF6L7T91r4zkDTYPyGZ78+Jt3rz5HQC6blUaVK9S6h2maT5dZ71Z4l1xxRUjuVzuX+E46z1q/VNK/dHc3Nz9uurtknckvWnk19XgvdbZDYr4oDzd8yOPPK/IYnvrxrv99ttPdNvyNKReBeCj09PTl+qqN0M8Y3l5+YMAnmq/GKP+3bl9+/a2x/ya6XUN3dqb3wje7ecDIz4Ib4AO7iBviHhANttbEF6lUrkRwLcS0ru10Wh8bnJy0tRVbwZ4yjTNvwLwwraLMeqfUup1t95666qmer1yjqw3rfw8Dd5jb9uBEu/Hi7nuNrEvR7pXbvL04gHZbG8heA0RuQa2CXcx9U7mcrlvmKZ5iaZ6deYp0zSvA/CqtovxyuODlUrl3zTV634TNG1vrgbvPJUGa7P1Bk58N1693oh5UE66+ZFHnldksb2F5dVqtR+JyO8mpbd5jOnXi0Xz0Trq1ZRnmKb5LgCvs1+MWR53nTp16rc01esaOre3DoMvOc6TbUakHeV0F9+NF/XYTZo7ef3kua3tzEJ7i8K7//7j71ZKfT0pvQAuANRXFxbuvlJHvTrxrrjiihHTNG9AsiP3Vcuynnvo0KGTuun14rkdaa5LewMcBt/8gLZcEdHcdRc/zHt7kzc8vEFtb6XSjLr88kcbhqGuBXAyrl5gvf1ubzQa/1GtLj5RN7268AqFwnnLy8tfQILv3Jt//8aFhYXv6qa3O69dsy7trRXrBt/8AGcJWYMonuZO3jDwBrW92XmFwnhNKfUbcfQCHe13mwj+Y26u9tvl8mzgzXCyeP/C8gqFwo8rpb6L5GbLt+I/KpXKu3TTG4anS3trMUulGeU1yU7K5dlED3rRRXwP38HE/HKkp17yssEb1PbmxjPN8X8E8K5IguHZfnNKqXeapnnz3r17d+qkt0+8XLFY/F2l1DcBtK04SMDc721OmrQ00huKp8tqK1uOAJojeOejebdTaQZB/LBNsCBvOHmD2t668SYmJl4vIl8JywzQfn92dHT0e4VC4cd10ttL3vj4+IWFQuGLIvKncGx6lkD/t6qUel6tVrtHF73heBKrvbm9xo6aXzPHtjl0HbPlkzV3fcTT3MkbBl7UyaHA2vkLWdPb4s3OztZHR0efA6AWQm/HNY/bN66U+kahUHjDFVdcMaKD3l7xTNN8ej6fv00p9ZQY988rREReVKlUvqyL3rA8y5KYq6067mFcc1+PcnlWOi5EBGstnuZO3rDwwrJaMQhzSO66667DAJ4J4FQUvT7tN6+UeueRI0e+VywW294/Z7m+ePGmp6fPMU3zbwHcDKDjFUVC/d9v1Wq1j+mgNyovLKsVSbc3j31r1kbw5fKsJG3uOokHzZ088jxD5/YWlletVr+vlHoGgLNh9IbYYe1SESmbpvnxQqFQ6LfeFHiGaZovajQaPwLwyqTvny3eWq1W362B3p7ygFTam9uTeAFCngefUfE0d/LI8wid21tUXqVSKSulfgkug4wE2+8vKqXuqFb3v2Vp6eDmAbh/yjTNq03T/DaAGwHscWMmdP/eV61W36xLfekVD3C7fxI3v46Ru50V2eAzIp7mTh55HjGI5t6K5lanzwWwPqcoyfbb5G0UkT9YWVmdr1QW/7haXdyTwfunTNN8mmmaXwfwRQBXdNEb+/6JyCer1eorS6UZ9ElvX3he98+yJM5qNecctY45dJEMPiPiae7kkecRHvU50qs6XfVWq9WPA7gGgKRg7vZ/7gTwRsuSufn5hY9MTk5ervv9KxQKGwuFwotN0/wegP8A8IQQeqPev88BeH6pNGP1Wm8/eUBq/uG7+i0fFJpB8UORH3nkhY1hqs9TU5P/UKksjAB4P2wDmgTN3c4bAfACwzBe0BwRv7/RaHxucXHxqCb3D5OTk5cZhnENgBcA2BFTb5h79t6JiYnfzOfR6KHevvOSun8++Um5POs6oT2UwWdU/MDmRx55YWMY63OxOHlTpbJ4HMA/ANiYkrk744kAnpjL5eqmaX4NwKcNw/jM/Pz8/l7ev8OHjxj333/yUSLy86ZpPhvAJSnp7RZvqFQqf14sTiBtvTrxgJ61N8+l7YENPsPiI+WnlOu5HdrkRx55YWOY63OxOHFztbp4tWXJpwCc38P7l8fatq5PtSzr3aZp3qqU+jcA3zxw4ND3Lrxw1/1J6j148FCuXrcuqdfrj7cs64kAngxgVw/12uMsgBdVq9V/yVp9ictL6P755SfwOSsmkMFnVHzk/EqlGbWwsJRrNNq/GOmUH3nkhQnd21sveKY58Z/79lUfYxjGZwA8sk/37woRuUIphTNnzkqlsjivlLrdsqwfKaXuBLA4OTl5oF6v37t79+77b7311lVnKpdeeumW06dP7xCR3UqpMREpViqLDwPw8KauLVESS1jvEcMwnjE/P/+fWa0vUXkJ3b8g+fnOUVPwCa+p+EHEFwqFa5RSH44qXkReUqvVbogoPlZhLywsTTYa1r5u+fnEKpobbqQ8wYc88uxxDhxtNQRvoVqtFrrBde9cg/AuvfTSradOnfoAgOcEYfa5fFea/2tNTNuE6OWbRn5uMaeU+plKpbJvEOpLt3DzuDD3z8/j4ubXdQQfx9y9IosjiYj5jQA4V8PGRx55kVi6da5RebfffvsJAM81TfMbAP4Ma6aZ+v2LyBtt/k/X/Jzx/tHR0dfeeeedDwxKfenx/Us0P79lcm4/HxjxQXi6dK7kkddPnu6dawSeVKvVvzUM41EAvpb2/RsC3iGl1NOr1erLae6R7l8q+XkavMfetgMl3o83QI2PPPK0b2/94M3Pz89Vq9WniMivAXggjfs3BLxPjIyMPKK5uZBW5dsLXgL3L7X8XA3eeSoN1mbrDZz4brx6vRHzoJxk9JJHXj95uneuCfGsWq32XsMwLlVKfUHn8tCMdxzAC6vV6rObB/3oWr6p8WLev9Tz6zB453myzYi0o5zu4rvxoh67qVHjI4+8WDzdO9ekeaY5vnTBBTufqZR6CYDluPcP0Lt8Y/JuNgzjkdVq9R/Q3FNc9/JNg+d2pLku7Q1wGHzzA9pyRURz11287t/kyCOvnzzd21tavK1bt4hpjv/jyMjIo5VSfy0iZyLdQOhdvjF43zQM4wnVavUZvd60R09e+z3Upb21Yh3Y/ABniVuDKJ7mTh553qF7e+sFb3x8zyEAr56bq71dKfU6AL8GYHNQps7lG5H3v0qp361UKp9Dc8Te7f41Q9vyTYOnS3uzMT2XyXWcSjMo4oPy8vn8yUbA1/AaND7yyEuCt5zVzjVF3j0AXjc1NXWdiLxWRH4dPhvJaFy+UXiLAP6gWq3+I4CODnEAyjcRXpzySDI/W44Amo/onY/mdTH3pMWHKey5ubkjAE76MQesMZM3xDyl1PeRwc61F7z5+fl7K5XK74yMjBQA/ClsM+4d97Djmi7lG5JXA/CqXC53cbVa/Qho7h48iVUebq+xo+bXzLFtDp3bqTRxvjW4iI+sPVHxEQrbAlAG8Awv5gA1ZvLIg1KYdbmscefae15ztvjvF4vF60TkRQCuBfCotfune/kG4pVF5G9rtdpn4WLqce/foPEsSxpu9zVIePxdXHNfj3J5VvLOCxHBWouPWtiWZV1vGIarwQ9IYyaPvBbv6HnnnXuz47LWnWs/eZVK5TiAdwP4m0Jh8vJcLv9iEfklAHtav6NZ+XbjVZRS/9BoNG5YWFio9uL+DQovLKsVKfhby9zb/j4PRDf2DImPVNgLCwtfNU3zHwE83y+/DDVm8shz471p+/ZzT9gua9+5asIDgNsAvPbgwUNvOHt25XGNhvUMAD8D4KKwPKBn9WUfgE8D+Hi1Wr0FDmPo4f3LNK9QKIRFpmnurVh/Eh/qPPiMio9V2GfPnn35hg0bxgA8ySs/DTtr8sgLzBOR63fvfsgHbJcz0bnqxtuzZ1cDwDcBzJbLs6+enp6eqtfrJaXUkwH8JIAL/Zgp1pdlpdQ3ROSrSqkvVCqVu3S7f4POA9zKV+Lml7ODgPYBe2SDz4j42PkdOHDg1PT09E/V6/W3G4bxKjx4Q9cy1KyzJo+8ELyjSqnf3bXr/A9v2bK5BdKiMxwE3tzc3DyAeQB/DwDFYnECwFUicjnW3ts/HEABzRFYguV7H4AfKqV+AOB7hmF8e9u2zft27txhZen+DRIPcC9fy5LI+8zA4UVwWf0WyeAzIj6x/AqFsRUAv7OwsPSeRsN6gVLqMhHZIyKjYVk2vR2Co+6eRx55IeIBEdmfy+X+a+PGDR/bs+eC47afadEZDiqvUqksYm3Z2Sda16anpzc0Go2iUspsnu2+Wyl1vohsx9pyvM0ANuDBmdGrAM6IyAOGYRwXkSMADlmWtQRgQUSqF19cPKaDXvIejBT3qbCP3DtWv4U2+IyJj52fnTc5ObYA4E+S4iWdH3nkkZctXnPwMNf8n3b5kRePB/TE36RcnnVd8eB3XOwgiI+cH3nkkUceeeRp7m+e+9YENvgMi9eisMkjjzzyyBsOHtCbkTt8zooJZPAZFR85P/LII4888sjT3N9856j5GrzHbL0siNeisMkjjzzyyBsOHqCXv3U1eJu5OzMeCPHkkUceeeSRlwQP0M/f/Ebwbj8fGPHkkUceeeSRF5cH6OlvngZfKs1w5E4eeeSRRx55PqGrv7mug3eeSoMAs/WyKJ488sgjjzzyovIAvf2tYwRfcpwn2wyaO3nkkUceeeTZeG5Hmuvib4DD4Jsf0JYrIpq77uLJI4888sgjLx6v3TJ18bdWrAObH+A0eGsQxZNHHnnkkUdekjxd/M3GdH8HD5dTaQZFPHnkkUceeeTpYO7NSMXc18HOR/O6mHvS4rNaecgjjzzyyNORJ4hjb26vsaPm18yx9dpdgM5JdgmP3CWWuScpPpuVhzzyyCOPPF15liWNsKxWrE1A75iEnoS5AwDK5VnJOy9EBHuKd5tFH1x8R2hd2OSRRx555A0PLyyrFSn4W9vIvRV5ILqxZ0h8JisPeeSRRx55+vIKhUJYZJrm3gppsUKdBx9WfBQmzZ088sgjj7xB4wFu/iZx8+vYcdbOimzwGRGvbWGTRx555JE3HDzAffBqWRJ5nxl0nvLaMYcuksFnRLy2hU0eeeSRR95w8IDUdnT1Xf0W2uAzJD6R/MgjjzzyyCNPY3+TcnnWdTZ/KIPPqPjI+ZFHHnnkkUee5v7mubQ9sMFnWLwWhU0eeeSRR95w8IDejNzhc1ZMIIPPqPjI+ZFHHnnkkUee5v7mO0fN1+A9ZutlQbwWhU0eeeSRR95w8AC9/K2rwXutsxsU8eSRRx555JGXBA/Qz9/8RvBuPx8Y8eSRRx555JEXlwfo6W+eBl8qzXDkTh555JFHHnk+oau/uUFQcpxKgwCz9bIonjzyyCOPPPKi8gC9/a1jBN80d2fGNHfyyCOPPPLIs/HcjjTXxd8Ah8E3P6AtV0Q0d93Fk0ceeeSRR148Xrtl6uJvrVjPrvkBynHdiiO+Ull8EYAPRBUvIi+p1Wo36FLYu3bt2rJly5ZnWJb1BMMw9ojI+v1Ta48q7KUtErW0M8AzDOOsiNxhGMZnC4Wx24LcP69Iu3wPHjyUO3NmZcayrKeIyJRSKheWqXt5hODVAVQBfKlarX4ZQMcWl7q0N/LI051n97gozVdEXjI9XbgxyfxsObq/g4fLqTRRxDuERMHpUtjKNM2XAniHiJyvlGrTk+RriKzwWn9vWdab5+cXvqCUemWlUqmFZaVdvouLdz9+dbX+HgAP97oX/bh/GvBeZ5rmHQBeUa1Wv+F1/2yhXedKHnm68OK03yTzs+UIoPmI3vloXhdzT1p8xMI2TNN8H9a+pZ3v/KEmnXVfeQB+WkS+UywWrwzDSrvxVSqLL6rXG19B09x1vX995D0MwKxpmi8Dstu5kkde/3gSq/26vcaOml8zx7Y5dB2z5ZM1d33ERy1s0zTfAuBat59p1ln3m7dTRL4wNja2Nwgr7cZXre6/GsD7RCTSkch9uH/94hkA3l8oFH4ametcySOvvzzLkkZYVis636pFz6+ZY1tfVy7PSseFiGCtxccw90cB+D3v/NpDg86637zzR0ZGrvdj9eCd+yYR+Xuae3CcYRjvP3jw0CbHda07V/LI6zcvLKsVHk9CI+fnsW/N2gi+XJ6VpM1dJ/GIXtivg8tSQs07637zfrFYLF7k9cNeNL6zZ1eeIyJjPdI7KLy9Z86s/IrtsvadK3nkZY0HpOJvbk/iBQh5HnxGxUfNTwF4epD8NOys+8qzLOtn3K73qvE1GtbP9lLvAPFa902LzpA88gaJB7i1X4mbX8fI3c6KbPAZER85v0KhsAvAed3z07qz7hvPMIyHOa/1+LHZQ3upd1B4IvJQaNIZkkfeIPEA9/ZrWRJ5nxl0nvLaMYcuksFnRHzc/Db65adzZ91Pnoi03bs+NL6NIZFa3b8+8jbo0BmSR94g8YDUdnT1Xf0W2uAzJF7L/IaNN2yNb9h4upcveeT1kwf0pL1JuTzrOqE9lMFnVLw2+Q0bb9ga37DxdC9f8sjrJw/oWXvzXNoe2OAzLD5SfmotEssvab2684at8Q0bT/fyJY+8fvKA3ozc4XNWTCCDz6j4yPmVSjMqn88ldlBO0nqzwMMQNb5h4+neuZJHXj95QM/am+8cNV+D95itlwXx2uw1rHNnnRLPrV4NZOMbNp7unSt55PWTB+jV3roavNc6u0ERH5SnS+eaVR4GtPENG0/3zpU88vrJA/Rrb34j+MRGYjqKD8LTpXPNKg8D2viGjad750oeef3kAXq2N6/jYuGxt+1AiffjxXwH/c8bNoz+po0lKysrjShnfhuGUqOjozn7rL80eUqpCQDfD8McIHPfLyKPinP/wuaWJE8pdRuA8Sy2N/LIyyIP0NffXA3eeSoNAszWy6L4brx6vRHzoBys7N27+1ha+aXJKxQK54U5N32AzB0ArFqtdqxX+SXNM03TymJ7I4+8LPIAvf2t4xG88zzZZgyVuQOoRxmJeelNIz8deF56RcTSPL8oKO3Lo1SacV3bOch6ySOvnzy3I811aW+Aw+CbH9CWKyKau+7iB/ygnL7p1aV8dc9P99dMWdVLHnm95bX3Mbq0t1asA5sf4OwRY47E9BRPc09Hry7lq3t+NHfyyBs8ni7tzcb0nGTXcSrNoIgftsfUw2ielcri0D+mHja95JHXT54um4LZcnwQ7Hw0r4u5Jy1+GM2OevXPTxe9zcicXvLI6x9PEKe5ub3GjppfM8fWa3cBOifZJTxyl1idTZLiaXbDqVf3/FLQG7nBKff3TFrrJY+8fvIsS2KutupockmYOwCgXJ6VvPNCRLCn+DDLrTrFd4QWhe2V36CaSVb16p5fGrxIgqF3eyOPPF15YVmtSKG9tY3cW5EHoht7hsQPvdkNm95hfUxtmmZosTq3N/LI05lXKBTCItM091ZIixXqPPiw4qMwde5svPLT3eyGTS8fU4fS63ZZi/zII2+QeIBbe5O4+XXsOGtnRTb4jIgferMbRr2REsRwmd2w6SWPvH7yAPf2ZlkSeZ8ZdJ7y2jGHLpLBZ0Q8zS4iTynXDdEGVm9Ts9tlLfLrYX0WHfIjj7xB4gGp+Yfv6rfQBp8h8UORXxq8fD7HHQg1yY/1mTzysssDetLepFyedZ3NH8rgMyp+YPPTfcKa7noBmjswuOVLHnn95AE9a2+eS9vzCBgZFt+vx9Q7CoXCjz3Ig6pW9+fsSBHAshoNEYSejZkuT10YQW9bZLjxjczN1R6tV3mE4o2G1Bvl1mlfvuSR108e0JuRO3zOiglk8BkVHzm/UmlGLSws5RqN9i9GIfN7ulLq6Xa9Iu27Hq3xFKJsFZAuT6LodUZWG98epdT3ovB0L18PvaFD986VPPL6yQN61t5856j5PqL3mK2XBfFaPKZOWm9GeG71aiAb37DxdO9cySOvnzxAr/bW1eC91tkNivigPF0616zyMKCNb9h4uneu5JHXTx6gX3vzG8EnNhLTUXwQni6da1Z5GNDGN2w83TtX8sjrJw/Qs715GnypNMORuyada1Z5GNDGN2w83TtX8sjrJw/Qt725TrJznkqDALP1sii+G69eb8Q8JSgZvVnlYUAb37DxdO9cySOvnzxA7/bWMYJvmrsz46EydwD1qPuZ69xZ95BnDWLjGzae7p0reeT1m+d2pLku7Q1wGHzzA9pyRURz1108zUQvHstDL57u7Y088vTgtbc5XdpbK9aBzQ9w9hAxR2J6ig/Cy+fzJxshntLr3Fn3gXciDCuFTYpOul3P0P3rC09ETgBZ6lzJI08fni7+ZmN6TrKTcnk20YNedBEflDc3N3cYwKEgTB07637yROR/g7JSKt/be6l3UHhKqf/NaudKHnn95OmyKZgtRwBNg3c+mnc7lWYQxIcsbAHwCT+mrp11H3mNRqNxcxBWWo1PKfXJHuodJN4nkMHOlTzy+seTWO3X7TV21PyaObbNoeuYLZ+suesjPkphi8ifATjjxdS8s+4LTyn1/v379x/wY6XZ+CYnxz8jIj/M4v3rI+9/TXPysy7XNe5cySOvvzzLkpirrTracFxzX49yeVY6LkQEay0+amHXarWaiPy2d37toVFn3S/ePgBv9GOl3fgMA3Wl1EtE5ExYVp/vX794Z5RSLzMMONur1p0reeT1mxeW1YqklxZ77FuzNoIvl2claXPXSTxiFHatVnuvUur3/PLTqLPuF+9OAFdXKpXj3Vi9anzF4sQtAH4ewAMZuX/94j2Qy+WeWSxOfM9xXfvOlTzyssYDUvE3tyfxAoQ8Dz6j4mPnV6lU3q6UKgG4TfPOuh+8s0qp60dHR6+qVqsL3Vi9bnzVavVLuVzuMgCfDcocgPIIE5/dsGH0qkJh7CuO61p0huSRN0g8wK39Stz8Okbudlbg8+AzKj6x/IrFia+cOHHyqsOHj14pYj1BBHuUUjkRsTy+lATR2/EFKys8ETmhlPrhysrKvy8tLS37sfq4GmIewM9PTEwUDcO42jCMIoAN/b5/feSdtSyrKiJfuugic9Hv/gUN3TtX8sjrJw9w/3JuWRJntZpzjlrHHLpIBp8R8YkX9tatW2Tr1i23ALglCV7S+ZHnzVtcXKwA+Htd8yOPPPIGkwekugnVOsRtgnzoR/QZEx87P/LII4888sjT2N+kXJ51ndAeyuAzKj5yfuSRRx555JGnub95Lm0PbPAZFq9FYZNHHnnkkTccPKA3I3f4nBUTyOAzKj5yfuSRRx555JGnub/5zlHzNXiP2XpZEK9FYZNHHnnkkTccPEAvf+tq8F7r7AZFPHnkkUceeeQlwQP08ze/EbzbzwdGPHnkkUceeeTF5QF6+punwXvsbTtQ4skjjzzyyCMvDg/Q199cN7opOU6lQYDZelkUTx555JFHHnlReYDe/tYxgi85zpNtBs2dPPLII4888mw8tyPNdfE3wGHwzQ9oyxURzV138eSRRx555JEXj9dumbr4WyvWgc0PcBq8NYjiySOPPPLIIy9Jni7+ZmO6v4OHy6k0gyKePPLII4888nQw92akYu7rYOejeV3MPWnxWa085JFHHnnk6cgTxLE3t9fYUfNr5th67S5A5yS7hEfuEsvckxSfzcpDHnnkkUeerjzLkkZYVivWJqB3TEJPwtwBAOXyrOSdFyKCPcW7zaIPLr4jtC5s8sgjjzzyhocXltWKFPytbeTeijwQ3dgzJD6TlYc88sgjjzx9eYVCISwyTXNvhbRYoc6DDys+CpPmTh555JFH3qDxADd/k7j5dew4a2dFNviMiNe2sMkjjzzyyBsOHuA+eLUsibzPDDpPee2YQxfJ4DMiXtvCJo888sgjbzh4QGo7uvqufgtt8BkSn0h+5JFHHnnkkaexv0m5POs6mz+UwWdUfOT8yCOPPPLII09zf/Nc2h7Y4DMsXovCJo888sgjbzh4QG9G7vA5KyaQwWdUfOT8yCOPPPLII09zf/Odo+Zr8B6z9bIgXovCJo888sgjbzh4gF7+1tXgvdbZDYp48sgjjzzyyEuCB+jnb34jeLefD4x48sgjjzzyyIvLA/T0N0+DL5VmOHInjzzyyCOPPJ/Q1d/cICg5TqVBgNl6WRRPHnnkkUceeVF5gN7+1jGCb5q7M2OaO3nkkUceeeTZeG5Hmuvib4DDyJsfoBzXrajiK5WFlwLqAzHEnwawsp5sgl8WyCOPPPLIIy8mbxTApqg8EXlJrVa7IQ1zhx1oM3d7RDb3NXY7LsLN3NS6eRkpbPLII4888sgLHGmYe5Pp/g4eLqfSxE1Wl5tJHnnkkUceebrwkJK5A8138PYLgPupNCHANHfyyCOPPPLI8wm3d/iIZ+5tc+jcTqWJ863BwRPE+WKje+GQRx555JFHXlI8xDf39SiXZyXvvBAR7DpytyxpeIiIJF73wiGPPPLII4+8KDzEWx3QMve2v88D0Y3dBnd9h5CkeN0LhzzyyCOPPPKi8JCMua+n12KFOg/eA67tpgHkkUceeeSRpy9PgHjm3rHjrJ0V2eCDmLthGPfHE6974ZBHHnnkkUdeNJ5lyeGY5t6WnnOCfCSDDzpyV0otxBGve+GQRx555JFHXlSeiNwVlmXzX9/Vb6ENPsxj+Y0bN/4AwNGo4qMGeeSRRx555GnOu3dhYeHOMCwP/5Vyebbh9vuhDD7sO/fbb799BcB7IoqPFOSRRx555JGXAd77AQTec6aL/3oyAht81Al1o6Oj7xSR+QjiQwd55JFHHnnk6c4TkfnNmze/IyjLa+QOn4PgAi1SjztbvlAoPFQp9VUAu/txM8kjjzzyyCNPE949IvLkWq32oyCsOP7rO4L3mK0XCN6KWq32o9XV1SsBfKYPN5M88sgjjzzy+s5TSn0hl8td1QtzB3xG8F7r7ILC3XiLi3c/rNFoPF0EjwFQAJAX77s5AWB71JsJ4A7YjpsNEsoFKNFKeweA8RiVZz+A5RTzS5O3A8BYSL2u2jOi1x47RGQsEmyNtwRHuWuu187bAWA8JM/+zyUAyxnSa49A2rv0B67tXWO9gbQH7P8Ca09B7wYAD/XJr1scBbDolZ9SqiEi91iW9SMA/1yr1b4VFJzEPjN+Bt8yd/vvxVmUHypZ0zRvAPBiz+R9Ko+ImLVardarm2mPQqFwjWEYH+6WX7eQ5jnBaeWXJq9SWXwRgA+E0evUPj1duDEreu0xN1d7vlLqw2F5wHp9vrZYnPhIVvTaeYVC4Zow2l02/bi2WJz8UFb02iOIdp93sm3tXXe9QbQHHdwE0Z6W3oWFpclGw9rXLT+fuLFarV6jU3nYw/MRvc3ctUnWHkk+VkmjcNxOCdIpv17w4jzmyqJeJLw9cxb0Jtl+LUsaOuQ3jP0V9eqfXxSeq8E7T6XB2my9vifbimxUnvYc9csvTZ7EMvckj1DU/f4BNHdgcNsH9WZD76AORjoM3nmebDO0+GYNDFfl0b0xdztFMJJgtMq3o4y11huV96Bee4g2+bH9Uu8w6I05oc5tkKxNebTBmh/Qph2ApUuyw1Z5epFfGryoYjmS5WNq6qXeXuqt1xsxByPp5heV14p1YPMDnBnT3CPzBHG8PcuPqQuFQmi9OjcW1mfqpd7B1Csi4tH3hNabRn5Ry6M1WM97/LzjVJp+JpvFymNZ0ohScbz0Jp2fLjx3vXxMTb3UmwW9pdKMqlQWMjuheNAGIzYmgOY7eOejeZp7fF6kBKF35eFj6nT0ZqE+Uy/1evOGY0IxoHf/3GS2zaHrmC2vi7mXSjPKbQIDK89g6x228qVe6s2i3mGbUAx4lq82r7Gdq9/K5VnJOy9EBLPyxOABfEwNDFv5Uu+g6M36Y+qkeIM6oRjIRH1umXvb3+eB6MaeYrJDbu58TE291JsFvcP2mHrYJhQDmajPbk/iBQh5HnyPkk3M3Jv7AmvbWJo5dlzTrPJQL/VSbwjesOkd1H0vHsyvPTQr344dZ+2syAave2MBgHw+x2+G1Eu9PeJxe+bBfUw9bBOKvfLTrD4721vHHLpIBt/DxhJpwh/AykO91Nt73rA/po5u7jo/ph62CcVe+WlYn31Xv4U2eH4zjMfzyk/DykO91BuZN2x6B/Ux9bBNKHbPT/v6LOXyrGv9C2Xw2aw8+ueneeWh3hA8PqbmY+owoXN/NWwTir3yy0D79XzSHdjgs1p5+pWfYRgd9zZM5TEMo+s2eDqXR0t71Mbipl1nvXaeYeTayj1s59DSnhW97bkrI+acmUzptfPc2rtf2NuHrc5nQq/9QlDtXv2BX1/XC73d8osSvRq5w+cguBwCRL8qz/bt258J4MeCMN2/GVrv+u53/+doWvm5xdTU1BXnnXfedQBeb2dEqDwz27dv37tz5859R48eXU4qv6T1emlXSsUZ2bVp11Wvnbe4ePdjjhw59nYReU2LHbFzmNm+ffvekydPVc49d5uz7mqj185bXDxw+ZEjR99uWQ9qDxtKKYjgSUePHt974sSpfU3tWuq186rV/Ze7tfcgeu0hIk9aXj625/jxB+5ytned9Np5Xn1dEL1Nza3/9Ozr0tZ73nnnnaeUenUMc//+sWPHPp1Wfj483ycfvt+cvKbip5BsB880zRsAvNiP6VU4ImLWarVaWvnZY3p6+tJGo/FOAD8bNL+AYYnIjfV6/Q+Wlpbu1tHsnNoT/CZsiciNhqHeUixOHtBFrz0uumj6EY2G9U4AP5OAXtjunyUiNyml/qhYnLhbF7123v79Bx++urr6pwB+JgG99rAsy1qv87rotcfCwtIl9XrjHXBp7xH02utLW3vXRa+d162vi6DXHr7ak9ZrmqaplKoEzM8tbqxWq9eklV9cXtcRfD/NHQg2gvepPNcfO3bsWJo3c3p6esM555zzNhG5CcAlIfMLEkopdVkul3vFeeedd9KyGt/bvHmzE9CXyuOmPcnHXACUYRiXAer/Hjt2/IRlNW7dvHmT9Euvm3YAHeWekNkppdSPAfi/y8vHjn/3u/9zCxy7VPVSr523vHxsw4EDh95iWdYNAC5J2NyxdsDXWp3fvn37A8eOHftOEO296FyPHDk6euDAoTd7tfeIeh2/Ekx7r83Er6+LqDew9jT0PvDAiZ0i8qqA+bnF+gheN3MHfEbwpdJMy9ztv9ezZP1G8H6VJ8wIPqK5TzUajX8FcFmU/MJGk1feuHHjiy+88IL7/PJLWq+f9pT02uNLuVzuBfv27bu313rdtCulOso9BbNr/ecXc7ncC+bm5u4Lwkqrs1lauqe4srLyzwAenbJee/hq70XnurR0sHj27MrHEPC1YQy9vtr7YO5TjUbj42G0J9AfrGtPS+/CwtJko2Hti5gf0BzB62juQJdJdjZz1yZZe/R7QsTU1NRPNBqNb6O35g4ApTNnzvz3/v0HHx71/sUtDzftPTB3iMjV9Xr9lunp6Ut7qddNe4/NHQCe1mg0vhNEe4qd4U+srKz8N3pr7r7ae9G51mpLjz97duW/0Vtzd9XeazMpFotPaDQat4TRnlB/8LRGo/Gdiy6afkQv9Go+oS4Sz9XgnafSYO0xSd+TbUW/zb1YLD7VsqwvAdiRdn4evImVlZWvViqLV/RCr5/2Hpn7uvZGo/GNYrF4ZS/0umlXSnWUe4/Mzld7Wp1Ntbq/1GhYnwewvYd6fbX3onOtVvc/tdFofKGlvUd6XbX32kxM07xaRL4YRnvC/cFEo2F9fWHhbmdfp4W5N0NLcwdcDN55nmwzuE6xGcVi8UoRuRnAprTz8+FtF5EvhhnNJmDuHdp7bO6tCKQ9YXO/UkRuVkp1lHuPzc5Te1qdf622dJWIfBzNcu+Dubtq783Iff9VlmV9Ah7tPWW9Hdr37z/4qDT12nmmaT4GwKfDaE+pP9jeaDQ+33xqmbjemPm5DZK1MHfAYfDND2jTDpr7ehQKhd0i8lkAm9POLyBve6PR+Pz09PRD0tDrov1mu/Y+mbtd++e8tCdZ/1ralVId5d4ns+vQnt5j+bv3WJb1cTTLvY/m3qb9oosuuiANvfZrCwtLuxuNB7X3Sa+dt311dfXmAwfutdf5VMxkcnJyD9bMPbD2lPuD7aurqzcvLNy9PUm99Xoj5g6E7vcvqfyi8lqxbvDND3BmrM1h9v02dwCGUuojAHannV9I3kSj0fgHdJ9PEbc8DKXUTQD2aKDXHpNu2hOuf4ZS6ial1B7nD/psduva0zL3I0eWjUaj8SE0y10Dc2/TfuTIsrPOJ9a5Hj58xKjXH9TeZ7123sSZM2duOHz4iJGkXsf9MwzD+EgY7T3qDybq9fpNSHAHVomYpO7mXirNqFJpRnndKCmXZzlyt4VpmtcCuDrt/CLynlYsFn81Sb0u2ksa6W3TbprmryWp16ldKVVyXtfE7FraUxnJ3n//yZcCeKpGeu28q++//8QrktRrj+PHT7wYtjqvgV57XH38+Ilr0+qfne1dA712Xlt7T0JvEvlF5aVl7uu5Oi6srcNyOZWmH8mapnmDUqpjmVzQyuNcJhc1v4mJie25XG4eLhNNNDK7+w3DuGh+fn59CVkS5dHUPofmpDqN9NrjOIBLpqYm742r1x6FwuQOw8jtg2MypQZ67bzjIyMjjxgf33Morl57fVlYWNrRaFh3YO3dr0567f88PjKSv3R8/MIDSXaud901f04ul9+HCJPqetg+jgO4pFqtHgrKCtIfjI2N7RgZGZkLqr1P/UEg7UH0FgqFglKqGiO/m4rFiRdrZO6tQbsAnY86RBdzL5VmlNsEhn4sZTAM4w3Q29wB4BzLsn4/Cb32yOfzvwO9zR0AzgXwe0nobUWpNKNyufwbobe5A8C5q6urv5OEXtjuX73e+G3obe4AcO7Kyuobku5cDSP3Wuht7sCDdT62Xvv9y+fzrwuqvY/9ga/2Hj5J1uY1tnP1W7k8Kx0XIoJ7snSjH+Y+PT19jlLq153XNTW7V0xNTV2QVHlMT0+fIyKv1Fivnfdyx+Sj0HpbUSrNqHvuuW+7iLS99tBMr/2f1x44cOj8OHphqy8HD957rlLqlRrrtfNeHmSSaTe9tqhXKovnKKV+Q2O99gikPWh/UCwWzw2qXYP+4OW9mGCbht40/NJj35q1EXy5PCs0d/doNBovBLDNfk2Dyu0VG0TkpXH0OrS/CMA2jfXaeRvPnj37kjh6gQfry+nTp9vKXUO99th45szZxB4Tnj595vkisi0sq4d67byNlmW9LI7eZtTL5VkRkY72rplee/hqD9P/BdWuSX/gqn0YzR3uT+IFHh/U72QTM3e1VjJx82ubAxCzsI8opT4uIrdYlrWcy+W2K6V+XESeBeD8uHpt+f5FDL1trAQr92EAnzIM9R3LkuVcLrddRK4SkWeJyPlRgEBHeTwfwHVR9drrnwheGFOvPb/DAD6jlPq2ZVnLSqlzlFKPEZFfhK3cI+hdz08p9UIA74iq18F7QUy99lhurqH/tmVZy4Zh7FBKXSUivwRgZ1S9jgikPWB/9WI/Toj8lgGE0h6hvXlqj9A/+2oPkV8g7TH7lzbtQ2rurfNk1v/ezlJhoSkn28arVBY/2PxWGSny+dxFk5NjC1Hzm5qaGrcsa3H9ZkUv7LNKqT9aWVm5fmlp6bRT79LSwc0rK6uvBvD7IjISVW8rv3w+f+nExIWt/ZUjlcfU1NSkiNQi6nVqf0uj0bj+oovMVecP77xzfjSfz78GwB8i5BdOt/JQSl0yPz9/V9gk209JOzC+ulqfj6jXnstZpdTbNm4c/es9e3adbl5eL48LL7xw84YNG14bVLtf/VNKXVypVPb5cZx67VGrLe1pNBoLQRg++Z1VSr21Xq//1cLCwinn7wbRHqa9+WkP0l8523tIvfb8ziql3rKysvKuVnsPoj1q/+KmPWz/HER7wPwCa495pHSb9qh+1G2SXUC9bafJeUXK5g6sGXzHHLpQ6wlTTtatsCNN+AOSWcpgWdbTuvECVsajIvKkSqXyDjdzB4CxsT2nisWJP7Us66cAnAoC7abXshpPjaK3FWv5yU9F1GuPYyLypGJx4h1u5g6gvn///pPVavWtzXsdWHuXI4JDL21ymWBWiqjXnt8xpdRTTXP8nW7mDgAHDhw4FVR7wPp3NQJEt/ZrWVYSS8OOKoWnmub4n7qZexDtEdqbp/ag/ZWIBLp/Pvm12vvb3QzOS3vMkWJb3lH6Zz/tAfMLpH1qavJtAH4ajnKP2N6uHtKRex6OAbrbBPnQBt/LvZDDslqR1DpFEXm8Fy9gYTcAPLNWq30riN5arfZVEXl+XL2WJY+Noteen2XJ4yLobUtDRJ45PV34NgLUl4WFha9alhXo0XC38hCRx0bR237/rMfFNHdLKfySaY5/20uvPfy0B61/QbT7tV/Lsp4QQa/9nw2l1C+Y5sR/Bal/CwsLX22+XgitN4j2MP1VUO1d8msAeIa9vQfRHtdM7Nqj9s/dtAfML5D2Vn5TU5NfMwzjmih6XbQPo7m3pVcuz7ruyJfYjkC6LBVIchMCpdSjYxb2e6rV6tfD6K3Vap8G8C9x9IrIpXHLwzCMR0fQ26Z9errwdT+99lhYWPgUgH+NoNf+z0chYHiVh1IqMMMjv/ea5sTXbZd965+X9pD1r2veQeqfvdxD6LXHe01z/Gth6l+lUvlkS3uM9tahPWz/EkS7T37vqVar3wiqu1SaUcXixGcBfCKC3g7tMZcCu2oPUR6+2p35FQpjnwbwiZhfpt3yHiZzBwDPJ92BDX7YzH18fK+hlLrIeT1EYYthGH8WRa9lWYEmS3WpjMWwep35ichUSL1tYRjGnwfV69D+9gh67TEVRa89PxGZjqK5ld/ISN4+yTFw/XNqj9DZeGoPWP+UiFyEgOGWXy6Xe2eU9iZivTNm59qmPUL/4qvdL79cLndd0GQd+V3nxgsRUzH7U1ftYcrDT7tXfpbVeDsiRjM/Z183TOYu8DkrJpDBZ9Xc6/VG5O12N2zYuA3AOfbrIQv7tvn5+f1R9C4sLPwPgFpYvbb8zhkbGwt8ApQzv4WFpS0Azonxzfo20xw/EFRvEO0hGt+2QqGwMYxee34/+MEdm+Eo9yBhy+8H4+MX7g+q10t7xM7GVXvQ+rdr167NCLhEzCO/7+/bt29/kL935rd79wU/ALDg4IXBrGuP0r/4aQ9QHt+fm5tbCqrXnt+uXef/D4CFGO1t26FDh7eE0eunPWT966q9+2vJhe/Cp69zC1t+2+6990irzg+TuQMBDoLzNXiX2XppJZt44UQ5SKCVn1LGuU5eyJiLoVcA3BZWrz02bty4NYxex+VtMR+bzYXU21V72MY3Ojrqqd2vPDZu3BjH3IFmuYfQ26E9Tmfj1B6m/gXV3iW/QDP43fLbunWLAPhBWL1O7VH7l27aA5ZH5NULW7ZsFhH5fmjBtvxc9i0IXP+c2iPUvzirF7r2dV567WFZ1pYweh0slVFzD8TravA2c3feAe3NPUrY88vnc7mYPImjV0ROxtHbaDSCfnlzyS/y6slEXpPYtUcp39XVVbcvpIHq38jISA4hwiU/CavXkV/H7OMw9c+uPWz9C6LdpzxCaXZ5LXQyrN42UfV6PozeINpD1D/fpH1eC530+/tu+a2u1u35h6p/du0R+1PXXwixeiGwdrf8Tp06HWkX1lJpRtn7+RB6PXlB9PaS52cCWh9mn+43L7UShwfAjKNXKXVhHL25XM51mYq33gfzE5EzUQTb8psMq9dNe9TyHR0d7Vh2FaL+nY2g157fRJz24TyWNmz9a2mPuFRqJYJe+z/NsHod/D1xnhxt27bVrewC1T837SHrX1ftfuXh1t79wp7fxo0bTtl5YTgt7TH60w7tYepfUO1e+Y2MjIT+cqTbjqlp8bqdIT6UI/dW7Nhx3nLc2Z0LC0s7HJcD6W2+P78qht7Vubm5B8Loted37rnnHkPI0Zgjvx+r1fZvD6rXTXuM8q3feeedJ8LotV8Iqr1LfpeNjY3t8Pt7t/wOHjy0CcCVIfV2aI/a3s4777yjEfTa47K9e/f67k7nlt+BA/dsFJEr/f62S371zZs3Ojv6wPXPqT1C/fPU7lcebu09gN42zqZNG06E0WuPHTt2HIvZn7ZpD1P/gmrvkl9He/eLYTF3wMPgnafSIP5jx0yZOwBs2rThjFLq7hj55S3LuiaK3pGRkRcC2BxD737EeGx26623rgIIrN0lv1yjYb0oSvmOjIy8UCm12Xk9xBHBC3btYetfEO0+5ZEbGRl5aVC99vzOnFl5PprlHqU+i8hCqTSDMHqd2t3qfIj6lxsdHe2q3as8Tp8++1zY6nyYaL6DXtyyZbM9qVD9i117xP7FVXvA10Jt7T2IXkdui1u3blmN2j+fe+4WUUodcDDDYNa1R3gt5KvdZ9+LtvYeRC8SNPdmaGnugIvBN83deUcjz0ZPMlmgt7MdReSOOPmJ4A379x+4IIzeQqGwG8DbYup1zTtkefwwrF5Hfr9rmuauMPfONM09Sqm3efAChVJqXXuM+uepPWB5BNJuz29x8cBuEXlLWL0u2mO1N2edj1D/3uil3as85ucXzoetzofU3Pr/H0XR69Qes39p0x7wPPK29h5UryN+GP/shQfLPWL9e2OxWNztp9ceQbQH2J45cB+dhrm7HWkOTcwdcBh88wPatGNIzb353/8vZn47VlZW/2FurrYhyN9PTExsV0p9FsBD4uhVSn0nol57+O7G5ZPfDgAf81uy1opCYXKHXXsYvY6cbo2o11d7iPLw1e7Y+357vV7/FICHxOlsDMP4XkS99liv8xHr3w4A/+JcpulVHnNz1W0Aboaj3IOEPT+l1Hcj6l3PTyn1bef1kOWxrj1I/XO29zB67fm16nxYvY78vhVBb4f25msmV732CKI9SP0Lqt2rPOr1RiPI3wfNDxqZO2Az+OYHODPW5jD7fixlEJEvJ5DfjFLqi9PT02Pd/n5qaurxuVzu22i+g42jt9FofC2KXsdnddUeML8ZpdSXxsbG9vpo/wnDyH0bwBVR9NrDsqzZuPXPTXuE8vDU3j5yv/txq6v1/wJwRfxT6+TrjstRJlx9OaJeezxxZGTkP1ravcqjWt3/GKWMb8E27yCc3rbcZqPoteenFL4aUW+H9kplYcLlZ/aDbdrae1i99vwsy5qNotdx+SsJnJr4k6dPn/1cpbLYqvNeB9v4ag9a/4Jo95lQ3PdN1dLwy+YZ8Q9m6TR4t43re52saZo3IMaRpSJi1mq1WtT8rrjiipHl5eWD8DnWMmB+JwC8V0Q+vmHDhh9u3br1zPLy8oVKqccDeKGI/HRInlcc27x5867bb799Jaxee8zMzOQXFhYOwuU40wj5ddWOtYMnouq1x/Hzzz//gnPP3eL2x4Hrn1N7zPJo037OOeecPX782LhlyeNE5Pki8n9i6IUtv+MXXrj7wo0bR1uH+kTqHK666qrRI0eOHICjzkfM7wSA9xqG+vTWrVvv2LZt65l7771vj2VZj7MseZ69zkfQa4/jO3fuvOCWW25ZCctyzIEYOXDgnkUAOxMojxMA3qeU+uTWrVt+ODq64eThw4f3uLX3CHrt5XF8x44dD2nOHQmlt+0GHj+pDh8+3FHuEfM7ISKB+roIetvS9tPu1/91O00uYH43FYsTL4Nm5r6eq+OCAvQwd2DN4JVSL3ZeDzHhqs3go+Rnmub1AF7l9RlJPllIiPfBarV6bVS99igWi38lIq/WXG+b9qmpyV+LqtdNu+Z67bwPF4sTr4iqF3iwvlQqi38J4Dc012vnrdf5KHrt1yqVxb8Ukd8Iy+qxXvs/A2v36w/8+jpN9AbWHnAORCiDd8nvpmJx4sUamXvrqbwAnZPsRBdzb74T65jA0OulDCLyd62b5QxNO//3xdHr+Oz32rVrqnc98vncB+PodcTfK6U6/k4nvXZeLpd7fxy9joOG/h7NctdVr52nlPr7OHodvPcAwWdl90Ov43cCaQ/SH3Tr63TRG1R7D18Ta/Ma27n6rVyelY4LEcE9WQfYj3WKtVrtR3Cc9gT0v3J7xNeq1eq3kyqParV6J4CPa6zXzvv65OSYc3Jh5PpXLE7MA/ikxnrt//z65OTe78TRi/ZTvu4E8CmN9dp5X6tUKrfE0WuLerVavQMu7V0jvfYIpD1of+DV12mkN5D2QZkDFobnsW/N2gi+XJ4Vmrt3iMgfwHY+vQaV24vzpqTLQyn1h0qpuvO6DnrtvFzOeHMSeu33L5fLvRnNctdNrz0Mw/jDJPQ68nsTbHVeJ712nlLqTUnoRftItq2966TX8Xu+2sP2B0G069D/eWkfRnOH+5N410f0OiSbmLk3TxGInV+tVvuRUuovmsyOn+vQ+YvIR4vFif9MQm8rWiNZEflL3fTaeSLyscnJsf9MQq/9/k1O7r1LRP5SN70O1scKhbGvJ/2YsFqt3tGq8zrptfNE5KOVSuWbSeh1jmSDau9XfxBEe5T+2U+7Dv2fl/YhNfeOkbudFdngdTd3oP3AmLj5NRqNPzYMo2NTBU06/0MjIyO/jZTKY9u2rW9rbSihiV4779CmTZtem6ReexiG8UdKqUCb/vRIrz0O5fP530rrHeDKyspbwmjvced/KJ/PvzpJvfYIor2PZuerPU7/7KVdB3P30j7E5t6WnnMOXSSD76G5R5rwByS/TvGii8zVXC73PADrB5loYnaWYRjPn5zcezRJvbCVxwUX7DyTz+efG/XEq4T12nlWLpd70YUXXnBfknrt929+fv60YRi/DCCU9h50hpZS6vn79u27N0m99vu3tLR0Win1HNjqfB/12nmWYRjPm5ubuy8IK0p/5ae9j2bnqz1u/+ymXRNzd9U+pOaeR+fIvcMvQxt8LzfWD8tqRVqbEExMXHi7iLwYiHTUfNf8YvBeZZrjX3e5nmh5jI/vuU1Eno8IM4zT6hyUwm9PTu5tbU6S2jrUubm528No71Fn+Kr5+fnAGzGF0WuP+fn5/7Us6wXdtPeh83/V/Pz8V9LQG0R7n82uq/ak+me7dk3M3VX7EJt7W3rl8qzrjnyhDF7nU3NakfYOQ1NTk58RkV+NkptXfjEay5umpibfl6ZeO69Wq30GwMv7qNfOe7NpTvxdmnrtF4Jq71Fn+KZqtfq3aeq1x8LCwqcAuNb5PnT+gbUn0b84tffZ7LpqT7o/vegi89OGoX69j3q7aqe5r4fnk+7ABk9zf5BXrVbfp5R6GYBQ+xgnWXmUUq+Zmpq8rhd67bxqtfoBEbkmiPb0Ru7q9cXixNt7odceftp70fkDeE21Wv2TXuh1aO+o8702O6VUYO1J9i8t7UqpjnLvldn5aU+rfzbNiQ8YhvFyNMu9H+bupp3mvpYefM6KCWTwWTX3er2R2kE5lUrlQ5ZlPR3A8aj5Raw894vIM4vFib9J6v6FLY9arXajiPwsgGM90Gvn3Q/gl0xz/Ppe6g2ivQdmd79lWc+sVCp/1Uu99rDX+R6b+/0iElh7Gv1VsThxk4g8C7b23iOz89Wedv9cKIzdICLPFJFAfV1Mvb7aae7r4etvvgbvMVsvjWQTL5woL8rD5LewsPCFRqNxOXxOnUuw8nxDRC6bni58Pqn7F7U8arXaf1iWdbmI/FeKeu28bxqGurJYnLi5H3q7ae+B2X3TsqzLmq8Jeq7XHhddZP67YajHwHHiXopm9w3Lsn4sqPY0O9epqcl/V2pNe4/M3Vd7r8xkamryc0H6uph6fbWnsM+Hyqi5B+J1NXivdXb9StYt+l04i4uLlWq1+oTmnu0d33ATyu8QgGuPHz/25Onpwv6k7l/c8lhYWKjWarUnishvtbSnYHaHlFKvOPfcraVCYbzWT71O7UeOHH4SgNfAUe4Jdv6HlMIrjh07OlOr1Sr91GvnmeZEddOmDTOAvBbA8ZTM7hCAa6vV6szCwkK1n3rt10xzvHrfffd6tvcYeu0RSHuvzcSvr4uhN5D2NPS6LaUeFHMH/EfwWh9m329zt0WjVqtdv7KyMqWUeifWHiUnkd+SUuq1p06dmpqamvzQ5Zc/WsfyaNRqtb9uNOpTAK5raY+ot027YRhvyOWMh5rm+Id37tzRmkjSb73rvMc+9ko1NTX5N7mccYmIXIe1R4pR9drry91KqTcYhrrENCfev7x8NPSZ1Wl3Nnv27GoUi5PvXl1dmbbX+Yh610NE1ut8tVr9ILpMIOqlXjvvgQdO1N3ae0S99n8G1t5HM2kE1R6y/+uqXfd9V3Q0d8Bl71rbB9hH7q3/72myreNiXRMPUHncjotN82a24hGPeMS206dPPdey5FeUUj/ZYgesPMsAPq+U+qeJiYkvzs7O1nWtPG68o0ePbz127P5nW5b1KwDWtQeMlvaPFQoTXzaMjsls2um1xz33HN548uTJXxaR5ymlnhhGu1JqGcC/G4bxzxMTY18yDNR112vnXXrppVtPnTr1nKDaHe13GcC/A/joxMTEf8zOzoZaItvv9hFEe5f+qqO96643iPaA5h5Ie5p6FxaWJhsNa59HfkHixqmpyZeklV9cnqvBN0+lUY6fpzZhzSu8DD7Edo6+Bp92Yzl06PA5J0+eeiyARwG4RET2ADi3eW/PKqWOAFgQkR+KyC21Wu022L696tSYw/JqtaVt9Xr9cYZhXBZUe6k0I1nVa+dNT0+fE1S7YRjfO+ecLT+wPaXInF57+Gk3DGMZwCKAO5TCd7Zu3fyD88/fuZJVvX7alVLn4cFyXwawYFnW/7q196zpddH++Fwud3lT+240y11Ezvj1df3Q2zL4GE/ebpyamvy/aeUXl9fhlDZzt/+85+YOuBt8mMc+fgavc2MhjzzyyCMvXd7CwtJkvd7YF5bVCqXUTcXixMt01AsnrPkB9hAA2px3q9E7d/LII4888jLOq9cboee3tKJX+65E9UvYgc0PcGZMcyePPPLII28geSIiHkbdNXQ399Zg3WsiTMepNP1MluZOHnnkkUde0rxCoRAWmRlzB5rL4JyP5mnu5JFHHnnkkdceGTB3+xy6jnXu2ozcS6UZpZTqWPdNcyePPPLII6+XPMBzsKnNa+ymua9HuTwreeeFiGBuQkAeeeSRR97A8YBMPElumXvb3+eB6MaeYrI0d/LII4888vrKAzJl7uvptVihzoPvUbKJmXvzFAFtKw955JFHHnl68oBMmHvHWTF2VmSD193cAcDtIIGk8yOPPPLII2+weEBmzL0tPeccukgG30NzjzThD9B7tiN55JFHHnl68oBMmHsenSP3Dr8MbfC9LJywrFbQ3MkjjzzyyAvLAzJj7m3plcuzrjvyhTL4rBaOLvmRRx555JGnJw/IpLkDXQ7sCWzwWS0cXfIjjzzyyCNPTx6QSXMX+BwEF8jgs1o49XqjL6fgkUceeeSRlw0ekElzBwKc8qrgE15T8VNItoPndR58hwjvwnmriCyHzVEplbMjRQARiXPqEHnkkUceeZrxlFI7lFJ/4LwewtxvrFar17T+oduXmXy3H/bT3IOGzzevPwh7UpD77wuinDhEHnnkkUdetngZGLkH5vk9onf7eVbMnTzyyCOPPPJS5+lo7kAXgy+VZrI8ciePPPLII4+81Hm6mjs8IB2n0iDAbL1eiQf0LmzyyCOPPPKGhwdNzR1wGcE7z5NtBs2dPPLII4888tp5Wr/GboM1P6BNOwBtzrvNQGGTRx555JE3pDxoZO6wA5sf4MyY5k4eeeSRRx55PjxoZO6twbrXMrmOU2n6kayIWEqpTBY2eeSRRx55A89rnZminbmjBXY+mtfB3AHAMIx73a5rXNjkkUceeeQND+8Q9DL31pwAATon2WkxcrfxfuC8rnlhk0ceeeSRNyQ8AD/Q0NwBAOXyrOSdFyKCU1kHuG3b1i888MCJBwBsA/QvbPLII4888oaGdyKXy/1bWFZKftk2cm9FDgAqlRoqlVok4Wku8t+yZdPK0aPHDQBPzkBhk0ceeeSRNzy8t1UqlS+FYaVs7uvptVihzoPvUbJtvD17dv25ZVlfiZpjhisPeeSRRx55GvJE5Cs7dux4RxhWSn7ZseOsnZWLKrxX2/ONjORXzp5d/cTq6uojAVwShpnVykMeeeSRR562vM9s2bLll7///e+fCcpK0dzb0nPOoVPBkakn68dTxWLxuSLyRgCP9GNmuPKQRx555JGnH+97IvLOWq32L3C86+4WKftl6++lXJ7tODI3tMHrsLH+2NjY3pGRkaKI7HT7uWEYHU8mLMuKfP4weeSRRx55w8lTSi0bhjG3b9++/WFZPfBLgYe5Az7nwfch2UC8paWluwHcrWt+5JFHHnnkkdcjnufS9sAj+AyLJ4888sgjj7xB4wl8DoILNIs+o+LJI4888sgjb1B5vqe8+hq8x2y9LIgnjzzyyCOPvKHldX1E77XOblDEk0ceeeSRR96g8vxG8NoeZk8eeeSRRx555HmHp8GXSjMcuZNHHnnkkUdeRnmuy+Scp9IgwGy9LIonjzzyyCOPvEHldYzgm+buHLnT3MkjjzzyyCMvIzw4Yc0PsIcAsHRIljzyyCOPPPLICx7rwOYHOA2e5k4eeeSRRx55GeHZmO7v4OFyKs2giCePPPLII4+8QeTZmACa7+Cdj+Zp7uSRRx555JGXHV6T2TaHzgmXmN8atBVPHnnkkUceeYPIazLbJs2Xy7OSd16ICNZaPHnkkUceeeQNMK9l7m1/r8LCMiqePPLII4888gaRZx+5C2xP4gOdJpdx8eSRRx555JE3iLyOHWftrMgGnxHx5JFHHnnkkTeIPOcprx2r3yIZfEbEk0ceeeSRR96g8nxXv4U2+AyJJ4888sgjj7xB50m5PNtw+/1QBp9R8eSRRx555JE3qDzPfWsCz6LPsHjyyCOPPPLIGzSewOcguEAj+IyKJ4888sgjj7xB5fme8upr8B6z9bIgnjzyyCOPPPKGltf1Eb3XOrtBEU8eeeSRRx55g8rzG8G7/XxgxJNHHnnkkUfeoPI8Db5UmuHInTzyyCOPPPIyynODoOQ4lQYBZutlUTx55JFHHnnkDSqvYwRfcpwn2wyaO3nkkUceeeRlhAcnrPkB9hAAlg7JkkceeeSRRx55wWMd2PwAp8HT3MkjjzzyyCMvIzwb0/0dPFxOpRkU8eSRRx555JE3iDwbE0DzHbzz0TzNnTzyyCOPPPKyw2sy2+bQOeES81uDtuLJI4888sgjbxB5TWbbpPlyeVbyzgsRwVqLJ4888sgjj7wB5rXMve3vVVhYRsWTRx555JFH3iDy7CN3ge1JfKjz4DMqnjzyyCOPPPIGkdex46ydFdngMyKePPLII4888gaR5zzltWP1Wz440h+OeDvekUceeeSRRx55wXgKtnfubqvfQr+D90gWCYsnjzzyyCOPPPL8eVIuzzbcfj/UCN7lhT4Qfztb8sgjjzzyyCMvIs/rb8I+ou+Yiu/1zYE88sgjjzzyyOsfL7DBl1yOkI264x155JFHHnnkkZcuL9A7eBd45O1sySOPPPLII4+89Hm+I/iSY596xNjOljzyyCOPPPLI6w2v6wjeBR55O1vyyCOPPPLII693vMDv4OMkSh555JFHHnnk9Zb3/wEr7krYuqYzcQAAACV0RVh0ZGF0ZTpjcmVhdGUAMjAxOS0wMi0yMVQwODo1NTo1NC0wNjowMFgSOHUAAAAldEVYdGRhdGU6bW9kaWZ5ADIwMTktMDItMjFUMDg6NTU6NTQtMDY6MDApT4DJAAAAAElFTkSuQmCC" vertex="1" parent="1">
          <mxGeometry x="170" y="540" width="49" height="50" as="geometry"/>
        </mxCell>
        <mxCell id="Om71xXF0C_-sWj4UQDyn-81" style="rounded=0;orthogonalLoop=1;jettySize=auto;html=1;exitX=1;exitY=0.5;exitDx=0;exitDy=0;entryX=0;entryY=0.75;entryDx=0;entryDy=0;elbow=vertical;" edge="1" parent="1" source="Om71xXF0C_-sWj4UQDyn-8" target="Om71xXF0C_-sWj4UQDyn-80">
          <mxGeometry relative="1" as="geometry"/>
        </mxCell>
        <mxCell id="Om71xXF0C_-sWj4UQDyn-8" value="" style="shape=image;verticalLabelPosition=bottom;labelBackgroundColor=#ffffff;verticalAlign=top;aspect=fixed;imageAspect=0;image=data:image/png,iVBORw0KGgoAAAANSUhEUgAAAgAAAAH+CAYAAADqCLYOAAAABHNCSVQICAgIfAhkiAAAAAlwSFlzAAALiQAAC4kBN8nLrQAAIABJREFUeJzt3Xl8ZFWZ//HnuVVJJ9ALiwLd7BAQgp2kzqmE0I5GZFBRFgGjIiIIKgqyiNiAOruO6E/nN/pzd5DRF45L4waCirLEpW3SqaoGnGbUBoYBbRxl7YZekrrP7w/S2kBnq7pV51bV5/168Ucn957zte3kPHXuueeIAAAAAAAAAAAAAAAAAAAAAAAAAAAAAAAAAAAAAAAAAAAAAAAAAAAAAAAAAAAAAAAAAAAAAAAAAAAAAAAAAAAAAAAAAAAAAAAAAAAAAAAAAAAAAAAAAAAAAAAAAAAAAAAAAAAAAAAAAAAAAAAAAAAAAAAAAAAAAAAAAAAAAAAAAAAAAAAAAAAAAAAAAAAAAAAAAAAAAAAAAAAAAAAAAAAAAAAAAAAAAAAAAAAAAAAAAAAAAAAAAAAAAAAAAAAAAAAAAAAAAAAAAAAAAAAAAAAAAAAAAAAAAAAAAAAAAAAAAAAAAAAAAAAAAAhDQwdoVUNDQx1PPPHEbm1tbVHoLAAQ2pYtWyybzW4sFAqPh87SKigA6qi3t3fvTCZzgYicpKovEP7+AeAZzOxBEfl2Npv9P6Ojow+GztPMGIDqxHt/jpl9UlV3Cp0FABrARhE5u1AorAgdpFlRANRBPp8/28yuCp0DABpMHMfxcKlU+nboIM2IAqDGvPfPE5H7RGR+6CwA0GjM7IlsNnsEjwOSxwK02jtNGPwBoCKqurBcLn84dI5mRAFQQ8PDwxkRuTB0DgBoZGZ2mnPu4NA5mg0FQA3dd999wyLSFToHADQyVc2o6vLQOZoNBUDtaBzH7wsdAgCaxJm5XG5J6BDNhAKgRvL5/AmqujR0DgBoEvNU9T2hQzQTCoAa4dM/ACRLVd8+ODi4W+gczYICoAZyudwxqnpk6BwA0GTmj4+Ps7A6IRQANaCq7w+dAQCakZld0N3dzavVCaAASFgulztKVY8OnQMAmpGq7tbR0XFu6BzNgAIgYVEU8ewfAGpIVS/p7u5uD52j0WVDB2gmfX19vSJyfOgcaElfFJGvhA4hImJmp6jqu0PnQFNb0tHRcZaIfCF0kEZGAZCgTCbDp//pXTJ//vzPhg4hIrJx48aLROTK0DkS9D+FQuHnoUOIiHjv+0JnSNDN8+fPD17UP/roo5m2traHhG3Ft7d8eHj4qhUrVpRDB2lUFAAJ6e/vPzSO49eGzpFyvxgZGdkcOoSIiHPuCFXOwsKM/MjIyBYRsdBBnHOrVPWvQ+dIC1U9+N57732diHwtdJZGxRqAhMRxfLnw9zmdLZs2bVoTOsQ2qtobOgMawi7e+xeEDjHpZ6EDpNDloQM0MgasBHjv9zOzN4XOkXKltWvXbg0dQkSku7u73cwOD50DjcHMBkNnmEQB8Fw9zrngj2gaFQVAMparalvoECl3e+gA27S3tx/O/1+Yg1Rs6qWqt5vZeOgcaaOqrL2qEAVAlY488sg9zeyc0DnSTlVXhc6wTRRFzbRIDbWXihmAQqHwlIgUQ+dIoaPy+fxQ6BCNiAKgSuPj45eoakfoHGkXRVFqZgBEhOf/mIul3vudQocQEVFVHgPsAGevVIYCoApLly7dVUTeGTpHA/jf0dHR+0KH2IYFgJgLVc3EcZwPnUOEAmAqqvpy55wLnaPRUABUoa2t7UJVXRA6RwNI06d/MTMKAMxJWg73UtVfSApeSUwpZgHmiAKgQpOHUXAq1eykpgAYGBjYR1V3D50DjUVVU7EOYPXq1Q+LyN2hc6SRqp6cz+fT8spmQ6AAqFBHR8c7VJVzqWdBVVNTAExMTPDpH5VIxQyAiIiZ8RhgxyIzY1+AOaAAqEBXV9c8EXlP6BwNIo6iaDR0iG1UlTcAUIm9BwYG9gkdYhIFwBTM7PR8Pr9v6ByNggKgAgsXLjxbVfcKnaNB/Nfo6OgToUNshxkAVCSO41TMArAQcGqq2hbH8XtD52gUFABzNDQ0lFXV5aFzNJDUTP+LsAAQlUvLjoCFQuF/zOyB0DlS7K19fX3PDx2iEVAAzNGGDRtOF5EDQudoFGaWmg2AvPc7qWpX6BxoWKmYAZjELMAUVLUzk8lcHDpHI6AAmJtIOHxiTuI4Ts0MgJn1CP/mUSEz80NDQ6k4QZXHADM6f2BgYGHoEGnHL8M58N6foqqHhc7RQJ485JBDfhU6xDZsAIRqqOpOTz755NLQOUREoiiiAJjeonK5fF7oEGlHATAHZvb+0BkaiZmNrVixohw6xzY8/0e14jhOxTqA1atXrzWzR0LnSLl3Dw4OdoYOkWYUALPkvX8Vr5DNWWqm/0V4BRDVS8uOgCJik7sCYmp7bN269ezQIdKMAmCWzIxtJufIzNJUAKiIpGL6Fo0rLW8CiLAh0Gyo6nvTsm4jjSgAZiGfzw+p6otC52hAqXkDIJfLHSwi80PnQGNT1UN7e3t3CZ1jEgXAzPbfuHHjG0OHSCsKgFmI45hn/3NkZg+WSqXfh86xTSaT4fk/kqCZTGYgdAgREVUtmNmm0DkawOXy9AwgnoUCYAa5XC6vqseGztGA0jT9L3Ec8/wfSUnFY4BCoTAuKfs5S6nDnXOvCR0ijSgAZqCqfPqvTGqm/0V4BRCJSstCQBEeA8zWFaEDpBEFwDTy+fwLVfWk0DkaVKo+mfAKIBKUmgKADYFmR1X78/n8X4fOkTYUANOI4/gK4dnRnJnZRHt7+1joHNssXbp0V1XdL3QONAdV3T2Xy6ViS+lNmzb90sxSs9dGmsVxzJtcz0IBMAXn3MEi8vrQORrUXatWrUrN4qT29nY+/SNpqVgHsHbt2o2quiZ0jkagqkc751Ize5MGFABTUNXLVDUTOkeDYvofTS1FGwKJsA5gLpgF2A4FwA709vbuLSJnhs7RwFgAiKamqqmYARARieOYAmCWVPWEfD7/wtA50oIdknYgm81eKiLtoXPUg5n9l4h8K8k2y+XyT5Jsr1pm1qeavqUcZnaXiFyXRFtpOhzGzFaLyIeSak9VzxKRvRNo6odmVkigHRGRrQm1U7VyufzzKOKz3CypmV0uIm8KHSQN0vdbMbC+vr7nR1H036q6U+gs9WJmFxeLxU+EzlEr3vtXSfUF3UFm9vequiCJTNuY2UeKxeL7RCROst1m0NPTs3NbW9vVIjKcRHtmNi4iH1ywYME/j4yMTCTRZlok9G9cRJ7e7lhVL0uirTQys3I2mz1kdHT0vtBZQqMAeBbv/YekNZ8TXVYoFD4aOkQKqXPuPFX9iIjsXKM+rp83b97pK1eu3FCj9htOb2/vAdls9nsi0pN022Y2mslkzli9evVvkm670TnnjlbV66TJt802s88Vi8V3hs4RGgXAdrz3i0TkfhFZFDpLCGb2t8Vi8Z9C50iLXC63fxRFXxKRl9W6LzP7VTabPZFPJSLOuZeJyDdVdfda9WFmT6nqZYVC4dMiYrXqp5E4514tIteqakfoLHWwJYqiA1avXv1Q6CAh8eBoO2Z2vrTo4C8ioqr/6JyjABAR7/25qnqX1GHwFxFR1RdOTEyM5vP5oXr0l1bOuYtF5Ee1HPxFRCYf8f0/59yPJhf9tjTn3OtE5DstMviLiMyL4/iS0CFCYwZgkvd+JzO7X1WfFzpLCvyfQqGwPHSIEPL5/L5xHF8V6vwHMxtX1QsKhcLnQ/QfSldX17xFixZ9XsK8ffOYmZ1fLBb/I0DfwXnvzxGRL0iLfSA0sw3j4+P733XXXY+GzhIK77lPWrx48fmqekroHCnxoiVLluy6fv36H4YOUk/e+3PM7Huq2h0qw+TeE8cvWbLk+YceeuhN999/f9MvDuzt7d27s7Pzh6r66kAROlT11CVLlnTvv//+tzz44IOp2cSq1pxzF6nqp6XFBn8REVWdF0XRk+vXr/9p6CyhMAMgIt3d3e2dnZ33SjKvGjWNyYUy50mTPyPt7e3dO5PJfFFVjwud5Vlu3rp163Azf0LJ5/PL4jj+lqruFTqLiIiZrTezs0ulUtMXv977D4hISz/yM7OHJyYm9r/zzjufDJ0lhJar+nako6PjTGHwfw5VfYdz7t+kif+dOOfOzGazv0rh4C8ickx7e/uo9/6w0EFqwTn3NjO7NS2Dv4iIqi6OougHzrnP9vT01Oqtj+Cccx+RFh/8RZ4+1yGbzb4tdI5QWn4GYHh4OHPPPff8WlUPDp0lxa456KCDzlqxYkXTHDrS39+/VxzHXxCRE0JnmYXHVfW0sbGxH4QOkgTvfZuZfUJV0/4a1jozO6NYLKZqZ8sqqXPu0w3wd183Zvbg5s2bD167dm1qNneql5ZfA9DR0fFGVX1r6Bwp1/Poo48eduihh363GZ5JO+dON7Pvq2pf6Cyz1CEipy1evPjJ9evX/zJ0mGr09PTskclkblDVU0NnmYXdROQtS5YsmbdkyZKfrV+/vqH/7Q8PD2c6Ojr+XVXPCZ0lTVR1YVtb2/3r168vhc5Sb60+A6DOubtU9YjQQRrEdzZt2vSGRq2Ue3p69mhra/usiDTyYs9/37Rp07mN+P+Bc87L06+a7Rs6y1yZWWly86D/DJ2lEpPrnL4mjf1vv5Z+WygUDpMW25GzpWcAvPevUdULQudoIIdns1m38847f+uRRx5pqMcB3vvhKIpuVFUfOkuV+rLZ7DH77bffDb/73e8aZuGSc+50eXrwr+n7/bWiqovN7JzFixdvWr9+/e3SQAtjBwcHO6Mo+p40xuOuUHbfa6+97n7ooYcassCrVEvPADjnRlW1P3SORmNmN7W3t79m1apVqX9dynv/PBH5jCS0n3xamNkDmUzmxNWrV6f6LPjJNTYfVdWm2XTFzEbM7MxSqXR/6CwzGRgYWFgul78vIi8OnSXtzGxNsVjMhc5RTy1bAHjvjxWRm0LnaFRmduvExMQJaX59xjl3sqp+TkT2CJ2lFia3sz2zUChcGzrLjgwODu62devWr4faVKmWzOwJM7u4VCpdHTrLVPr7+3eP4/iHIpIPnaWBvLpQKNwYOkS9tOwjgMWLF39JVQ8InaNRqeqBURS95MADD7z2gQceSNXz6MHBwd322GOPq1T1g1K7A3yCU9U2ERlevHixpG0zk3w+/8KJiYlbVLUpBx9VnaeqJy1evLhvzz33vOWhhx56KnSm7fX39+9VLpdvbaCFrqlgZvuvX78+tUVd0lpyBsB7/yIR+XnoHE1ilYi8slAoPB46iIhILpc7QVW/kKZ3y+vBzK6dnA0IPhDlcrlToij6sjT5iXLb+V9VfdvY2Nh1oYOI/PkQq5+ISFfoLI3IzF5SLBZ/FjpHPTTtBi/TMbNWPO63VgZF5ObBwcHdQobo7e3dxTn35SiKrmu1wV9ERFVfa2Y/z+fzIVfYq3PuH6MoulZaZ/AXEdnDzL7nvf/SsmXLFoQM0t/ff6iq/kwY/KtxRegA9dJyMwD5fD5nZsXQOZrQHeVy+dg1a9b8sd4d5/P548zsi8JujmJmfzCzk0ulUl33C1i2bNmCzZs3X6OqJ9az3xT6b1U9a2xsbKTeHedyuR5VvUlV96x3380miqJc2hfYJqHlZgDiOObTf230RlF0a39/f90+fQ8MDCx0zl1lZjcKg7+IiKjqnlEU3eqcq9upev39/Ydu2bLldgZ/ERE5wMxucc59rKura169OnXOHRlF0W0M/smI47glZgFaagZgck/1/5QWLHzqxcx+bWYvK5VKv69lP977Y83sqkbcVKZezOzjxWJxudRwc5PJ2ZeviciiWvXRqMzsPzOZzJtq/UnSe/9SEbleWuuxS63F5XL5sDVr1vw2dJBaarWB8HJpvf/NdaWqL1DVn3rv96tF+93d3fO9958XkZsY/Kenqu9xzl0/MDCwsBbte+8vN7PvC4P/DqnqEeVyedQ5977h4eGavHHlvX/V5AwYg3+yoiiKLgsdotZaZgagt7f3gEwm81tVzYbO0iLuz2QyR4+Ojt6XVIPOuaNV9UsickBSbbaIu+M4PrFUKq1LojHv/U4icrWIvC6J9lrELycPFronqQa99681s/+YfB0UyduayWQOHh0dfTB0kFppmU/DmUxmOYN/Xe0/MTHx076+vkOqbainp2dn7/2nVPVmYfCvxOGqertz7mXVNtTb23uAiKwUBv+5OkpV7/DevyOJxnK53FvM7OsM/jXVXi6XLw0dopZaYgZgclOM+1S1I3SWVmNm683smFKpdHcl9zvnXiwiV3Ncc/XMbEJELi4Wi5+u5H7n3NEi8k1VfV6yyVqLmf1ARM4pFovrK7nfe3+BiHxCWuT3d0iTu23uXygU/hQ6Sy20xAxAHMfvYfAPQ1UXR1F0m3Nu6VzuGxwc7PTe/6uqjjD4J0NVs6r6Kefc57z3c/rk6Jy7UJ5ed8HgXyVVPU5E7vLez/l8Cufc+0Tkk8LgXxequpOZXRQ6R600/T+iwcHB3cbHx+8XFskEZWYPR1F07NjY2Ixnbufz+WVm9u8iUvXjA+yYmd2WyWReu3r16oenu66rq2veokWLPiciZ9UnWWsxs/8ol8vn33HHHY/NdK1z7sOqenk9cuEZHps3b95+K1eu3BA6SNKafgZgfHz8ImHwD05Vdzezm/P5/JSnLw4NDXU45z5mZj8TBv+aUtWXlsvl0f7+/iOmuiaXyy1ZuHDhiDD414yqvjGTydyVz+f/errLJtfAMPiHscuWLVveGTpELTT1DMCyZcsWbNmy5X4R2TV0FjzNzJ6Ioui4sbGxldt/3Xs/YGZfVtXDQmVrRWa2wcxOL5VK12//9Vwud5SqfrsVt1UOxMzs0+3t7cu3P2Z7eHg4c++9914lInXb2AnPZWYPLViw4MCRkZHNobMkqalnACarNgb/FFHVhWb2o3w+PyTy9BSzc+5KM1vJ4F9/qrogiqLveu///M6zc+6tk7vKMfjXj6rqu7Zu3Vry3g+IiHR3d7ffc8893xAG/+BUda8NGza8JXSOpDXtDMDQ0FDHhg0b/putMdPJzJ4SkfeKyHmqOuU0NOrqGhF5QkTOCx2klU2+rfFhEclPLhhECpjZfQcffPAhK1asKIfOkpSmLQCcc+er6qdC5wAANIc4js8olUrXhM6RlKZ8BDD5itPy0DkAAM1jciFm03xwbsoCII7jN6lqTfaiBwC0JlU9wnvfNKdeNuPWuFGDvC6z1cxmfCceAFqJqr5QRHYOnWMqZnaFiHwvdI4kNM1UxjbOudep6jdC55iJmd1QLBaPD50DANLEOfcvqvru0DmmY2bHFIvFW0LnqFbTPQJQ1feFzjAbqnr9zFcBQGtR1S+EzjCTRhlnZtJUBYBz7ngR6Q2dYzYmJia+HzoDAKRNoVD4LxH5aegcMzhmul1NG0VTFQCNUpWZWfGOO+74XegcAJBGZpb6WYA4jhtivJlO0xQAk0eVHhU6x2ww/Q8AU3viiSeuNbNpD6oKTVVP6uvr6w6doxpNUwCo6vtDZ5gtM6MAAIAprFu3bouIfCV0jhloFEWN8MbZlJqiAHDOHSkix4TOMUu/LxaLxdAhACDNGmExoIic1tvbe0DoEJVqigJARBrpWcz3RcRChwCANGuExYCqms1ms+8NnaNSDV8AOOeWquoJoXPMFtP/ADA7Zvb50BlmYmZnH3nkkQ156FzDFwDy9Kf/htjQyMw2tbe33xw6BwA0gieeeOJbDbAYsGN8fDzVGxdNpaELgFwu1yUiw6FzzJaq/mTVqlWbQucAgEYwuRjwy6FzzMI7vfeLQoeYq4YuAFT1clXNhM4xW0z/A8DcRFGU+sWAqrpQRN4VOsdcNWwBkM/n9xWRN4fOMQcmTy8ABADM0tjY2K/NbCR0jlm4yHu/U+gQc9GwBUAcx5eqalvoHHNQKBaL60OHAIBGo6qpXwwoIs83s7eGDjEXDVkA9PT07CEibwudYy6Y/geAyjz++OPfNrM/hc4xC5d67xvmg2lDFgDZbPbdqtoZOsdcRFFEAQAAFWiUxYCqum8cx28KnWO2Gq4A6O3t3UVEzgudYy7M7MGxsbFS6BwA0KgymUzqFwOKiKjqZdIgY2tDhNxeNpt91+SKy0bC4j8AqMLq1at/Y2a3hc4xE1V9gff+lNA5ZqOhCoCenp6dzezi0DnmitP/AKB6URQ1wmJAMbMrQmeYjYYqANra2s5V1d1D55gLM3tq/vz5t4TOAQCN7qmnnmqIxYCq6pxzrwidYyYNUwB0dXXNE5H3hM5RgR+PjIxsDh0CABrd2rVrt6rqv4fOMRuqmvpD6hqmAFi0aNFZIrIkdI65YvofAJJTLpcbYjGgiLwkn88vCx1iOg1RAAwNDWXN7LLQOSpgURTdEDoEADSLNWvW/NbMbg2dYzbiOE71LEBDnKKXz+fPMLOvhM4xV2b2oKpeEDoHmlM2m/3l7bff/ofQOWbinDtYVZeGzoHmYWavUNV3hM4xG+VyuW/NmjV3hM6xI9nQAWZBzezy0CEqoar7iMh3QudAcxofHz9BGuMV0xNE5P+GDoHmodoQn11FRCSKostF5LTQOXYk9Y8AcrncySLSHToHAAAVGJ48uj51Ul8ARFGU6mcoAABMRVUzURQtD51jR1JdAEy+R+lD5wAAoApn5nK51L3FluoCQFXfHzoDAABValfV1O1jk9oCwDn3YhF5cegcAABUS1XPHRwc3C10ju2ltgDg0z8AoInsPD4+fmHoENtLZQHgnPMikvp9lAEAmC0zu6C7u3t+6BzbpLIAaIQ9lAEAmAtV3a2jo+Pc0Dm2SV0BkMvlDheRk0PnAAAgaap6yeThdsGlrgBQ1SukQbYoBgBgjpYsXLjwzNAhRFJWAAwMDBwoKd0yEQCAhCwfHh7OhA6RqgJgYmLiMlVthPMJAACoiKoefM8997w+dI7UFAC5XG6Jqp4VOgcAAHVwuQR+3J2aAmByl6RULIwAAKCWVHVpLpc7PmSGVBQA/f39u6tqal6NAACg1qIouiJo/yE736ZcLl8sIjuHzgEAQB0d5b1/aajOgxcAAwMDC1X1XaFzAABQb2YWbBYgeAFQLpfPE5FdQucAAKDeVPXlk9vf113QAmBwcLBTRN4dMgMAAIEFmQUIWgCMj4+/VUT2CJkBAICQVPVk7/1h9e43WAHgvW8zs/eG6h8AgJSIROSyEJ2G8mZV3Tdg/wAApIKZne6936+efQYpACb3QL48RN8AAKSNqtZ9VjxIAXDfffcNi0hXiL4BAEipc3p6euq2Li5EAaBxHL8vQL8AAKSWqna2tbVdXK/+6l4A5PP5E1R1ab37BQCgAZw3MDCwsB4d1b0A4NM/AABTWjQxMXF+PTqqawGQy+WOUdUj69knAACNRFUvntwor6bqWgCo6vvr2R8AAA1oj/Hx8XNq3Um21h1sk8vljlLVo+vVH5AWZna7iEwk3W4URY8k3SaA1Lh0aGjocyMjI4n/7timbgVAFEU8+0eremDBggWn1fIHOc2iKCqZ2SeSbNPMFqjqW0REk2wXSJH9N2zYcLqIfLlWHdTlh6evr683k8msqUdfQBqZ2bWtXAQkqbu7e35HR8cPVfVFobMANXZ3oVA4QkSsFo3XZQ1AJpPh0z9amqq+dsOGDV8bGhqq26xbM/Le79TZ2XkDgz9axOG5XO7kWjVe8wKgv7//UBF5ba37AdKOIqA6g4ODnWb2fRF5SegsQL1EUVSzo4JrXgDEcXx5PfoBGsFkEfB1ioC5GRoa6ti6dev3WEiMFpT33h9bi4ZrOjB77/czszfVsg+g0ajqqRQBs9fV1TVv48aN31HVmvwSBNLOzGryGL3Wn8yXq2pbjfsAGg5FwOx0d3e3L1q06FoReWXoLEAoqvpS59xg0u3WrAA48sgj9zSzmm9kADQqioDpee/bOjo6vikix4fOAoSmqonPAtSsABgfH79EVTtq1T7QDFT11I0bN36DIuCZhoaGsmb2NVU9KXQWICWOz+fzL0yywZoUAEuXLt1VRN5Zi7aBJnQKRcBfDA8PZzZu3PhVVT01dBYgRTSO40TfCKhJAdDW1naBqi6oRdtAkzpl48aN3/Det/qameiee+75ioi8LnQQIIVen8/nD0qqscQLgO7u7vkiclHS7QIt4BQR+XoLFwGRc+5qVX1j6CBAGqlqJo7j5Um1l3gB0NHR8Q5V3S3pdoEW0apFgDrnvqiqbw4dBEgzVT3LObc4ibYSLQC6urrmicglSbYJtKBWKwLUe/95VT07dBCgAcxT1UTG2UQLgIULF56tqolUJkCLO0VEWmJNgPf+UyLyttA5gAbyjsnF9lVJrAAYGhrKqmpizyYAyMnS5EWAc+4TInJe6BxAg5nf1tZ2QbWNJFYATJ5bfEBS7QEQkSYuApxzH1fVC0PnABrUhT09PTtX00BSBUAkIpcn1BaAZ2q6IsA595GknmMCrUhVd29ra3t7NW0kUgB4709R1cOSaAvADp1sZt9shiLAOfdBHhcCiXhPd3d3e6U3J1IA1OqkIgB/oaqvafQiwHv/96r6/tA5gCaxd0dHR8WvzlZdAOTz+eNUNVdtOwBm1shFgPf+/SLyd6FzAM1EVS8bHh7OVHJv1QVAHMdU80AdNWIR4L2/TEQ+GDoH0IS61q1b99pKbqyqAMjn80Oq+qJq2gAwd5NFwIpGKAK895eIyJWhcwDNKoqiig4JqqoA4NM/EI6qnpT2IsA5d6GIfDx0DqDJ9XrvXzXXmyouAHK5XF5Vj630fgDVS3MR4Jw7T1U/EToH0AoqWYxfcQHASl4gHdJYBDjn3q6qnwqdA2gVqvoi59yL53JPRQVAf3//Eap6UiX3AkjeZBFwbRqKgHw+f7aqfk5ENHQWoJWo6pxmASoqAOI4vkL44QZSRVVPDF0EeO/fbGZfFH4/ACG8Mp/Pz/q1/DkXAM65g83sDXO9D0DtbSsCqtkdrFLOudNF5GpJ+JRRALNnZrN+I2DOP6iqepmqVrTpAIDaU9UTOzo6VtSzCMjlcq8XkS8Lgz8Q2qn9/f2HzubCOf0/UqMBAAAWqUlEQVSw9vb27i0iZ1YUCUDd1LMIyOfzp6rqNXwwAFIhKpfLl83qwrm0ms1mLxWRuk8tApi7ehQB3vuT4jj+mqpma9UHgDk7I5/P7zvTRbMuAPr6+p5vZlUdPQigvlT1xM7OzpqsCXDOHS8i31TV4G8eAPgLVW0zs/fMdN2sC4BMJnOxqu5UXSwAAZyQdBGQy+VeqarXCjOCQCqZ2du898+b7ppZFQDe+0Uicn4iqQCEkFgR4L0/VlW/IyLzEsgFoAZUdSczu2i6a2ZVAJjZ+SKyKJFUAEKpughwzr3MzL6nqh1JBgOQPFV917JlyxZM9f0ZV+1673cSkW8w/Q80hRe0tbXldt1112/98Y9/LM/lxlwu9xJVvYHfBUDD6CiXy4+tX7/+Fzv65owzAGb2dlWd9jkCgIZyfGdn57fmMhPgvX9RFEUM/kCDMbN3Dw0N7XDGbtoCoLu7u11VL61NLAABzboIcM4NmtkPRGR+HXIBSJCq7rVhw4a37Oh70xYAHR0dZ4rI3jVJBSC0GYsA7/2AiPxIVad8jggg9d47NDT0nL06piwAJg8UubymkQCEdnxHR8e3d1QEOOe8PD34LwyQC0BCVPXADRs2nP7sr09ZAJjZ61T1oNrGAhCaqr762UVAf39/n4jcJCK7hEsGICmquvw5X5vqYufcd1X1pNpGApAWZnbD5s2bT+no6HiBiNyqqruHzgQgOXEcd5dKpbu3/Xm6NQCuDnkApISqvrqzs/NGVb2ZwR9oPqqa2/7P0x3gwdQf0HqOCR0AQM3suv0fppsBeLTGQQAAQJ2o6iPb/3nKAkBVx2ofBwAA1EO5XH7GuD5lARDH8VdrHwcAANSama1es2bNb7f/2pQFQKlU+q6Zra59LAAAUGN/8+wvTLcGIDazN5rZwzUMBAAAasjMPlIsFn/07K9PuxVwqVRal8lkhkRkXc2SAQCAWohF5B+KxeIOd/Wd8Tjg3//+939csmTJVSKyycwOZVtQAADSy8zGReT7ZvbmYrH4H1NdN+VOgFNdn8vlDoui6FAzm29mc70fAADUxriIrO/s7CytXLlyQ+gwAAAAAAAAAAAAAAAAAAAAAAAAAAAAAAAAAAAAAAAAAAAAAAAAAAAAAAAAAAAAAAA0Ip3rDUuXLt01iqKd5s2bN+d7AQBAsrZs2WKdnZ2bVq1a9aiI2Gzvm3EQ7+vr646i6A0icoyq9orIzlXkBAAANWBmm0TkLhG5xcy+ViqV7pzu+ikLgHw+3x/H8T+r6l8nHRIAANSWmd0mIpcXi8Xbd/T95xQA3d3d7Z2dnR8VkQt39H0AANAwTEQ+ISLLC4XC+PbfeMYA39vbu0smk7leVf+qnukAAEDtmNltHR0dJ65cuXLDtq/9uQDw3u9kZreq6kCYeAAAoFbMbGTz5s0vX7t27VYRkWi7732ewR8AgOakqkMdHR0f//OfRURyudwJURRdFy4WAACoAxORFxcKhV9EIqKq+uHQiQAAQM2pmV0pIqLOuZep6s2hEwEAgPqIoigXqeopoYMAAID6KZfLr4/M7KjQQQAAQP2o6ksjEekKHQQAANTV0khVF4ZOAQAA6mrnaOZrAABAs6EAAACgBVEAAADQgigAAABoQRQAAAC0IAoAAABaEAUAAAAtiAIAAIAWRAEAAEALogAAAKAFUQAAANCCKAAAAGhBFAAAALQgCgAAAFoQBQAAAC2IAgAAgBaUDR0AAJJiZg+JyJ0i8htVfcDMHhWRcVXNmNl8Vd1DRPYTkS4z61bVhUEDAwFRAABoVCYid5rZT1X1ZxMTEyvvuOOO382lgd7e3gPa2tp8HMd5Ecmral5EdqlJWiBl1HtvoUMA9WRmm0SkWOn9qvqiCvp8UETuqbTPWciqaoeILDSz3VR1V2neR3w/i+P46iiKri8UCn9KuG3t6+s7PJPJnGhmZ6nqCxJuH0gNCgC0HDP7dbFYPKySe4eGhrIbN24cr6DPjxeLxUsr6bMSw8PDmXXr1u0ZRdE+IrK/iBxkZoeKyAtE5DBV3b1eWRL0oziOP1Aqlcbq1J/m8/kT4jj+Z1U9ok59AnXDIwCgCa1YsaIsIr+f/G/02d/v6+t7fjab7Y7jeEhV3yAih9c742yZ2X1RFJ0/Njb2g3p3PTY2dt3Q0NCNGzduvFRE/kFE2uucAagZCgCgBa1Zs+aPIjIy+d8/5vP5XBzHZ6jq6SKyR9h0f2Yi8glVff/Y2NhToUKMjIxMiMiVuVzuJ6r6LVXdL1QWIEnN+owQwByMjY2VisXiJSKyj4gMm9mtgSOZiLytUCi8u1AoBBv8t1cqlcba2toGzKzi9SNAmlAAAPizQqEwXigUri0Wiy+L47hXRK4xs3KAKO8rFApXBeh3WrfffvsfVPUVIrIxdBagWhQAAHaoVCrdWSgUzjCzw0TkGhGJ69GvmX2lUChcWY++KhCJyKdEZH7oIEC1KAAATKtUKq0rFApnTL4j/9Na9mVmdy1YsODcWvZRDe/9Z0Xk9aFzAEmgAAAwK2NjY6VCoTCkqudIDabAzWyTmb1+ZGRkc9JtJ8E5d6WIvD10DiApFAAA5mRsbOxL5XL5SBG5P+GmLy+VSncn3GYivPfLVfWy0DmAJFEAAJizNWvWrM1kMn9lZonsbmhmtxWLxf+XRFtJc869VUQ+EjoHkDQKAAAVGR0dfTCbzR4rIv9bTTtmtllE3ipPv/qXKt77YVX9fOgcQC2wERCAio2Ojt7nvT/VzG5V1Up/n3ymWCwmdk5CLpfrUtWDzUy3fU1VTUTGM5nMI1u2bPntnXfe+eRM7TjnXi5Pv/3AByU0JQoAAFUpFAo/997/jYh8uILbzcw+WW2G/v7+3cvl8hUi8spt+/ar6nOui+NYstls2Tl3SxRFHx0bG/vJjtrL5XJHqeq3ha1/0cQoAICUy+fz/XEc/91srlXV2My2qupGM/uTiDwgIndnMpnC6tWrH65VxkKh8FHn3PFzPSnRzH5ZKpWqWkzY39+/exzHN6tq72yuV9WMiBxrZsc6524VkYuKxeJd277vnFuqqjeIyM7V5ALSjgIASLk4jvdU1VfP9vptn3y3/wQcx7F572+KoujC1atX/yb5lBJHUXSOmd0hIvNme5Oq/riaTrcN/iIyq8F/B/0fbWYF7/3fFAqFjzjnDhaRm0Rk12pyAY2AZ1tAa1AReUW5XP6Vc+4zvb29eyfdwdjY2K9FZK47+D3npMK5KJfLV0mFg/82qtomIld6768RkR+r6l7VtAc0CgoAoIWoapuqvjObzd7jvf9ULpdbkmT78+fPv9LM7p3t9Wb260r7GhoayqrqcZXevwOnq+qBCbYHpBoFANCa5onI+ar6W+fc33V1dc162n46k7v4XTTb6xcsWPC7Svt69NFHdxMW6QEVowAAWpiq7qSqf79o0aJif39/XxJtFovF75vZL2Zx6dZqtv2Noih1+wYAjYQCAICISHe5XP6l9/60JBozs3+ZxWXj1fRxyCGHPCIiW6tpA2hlFAAAREREVTtE5Kve+zdX21YURdeb2bSvHZpZVb9/VqxYURaRn1XTBtDKKAAAbE/N7N/y+fyyahopFArjqnrdtB2pdkqVv4NU9Z9EJK6mDaBVUQAAeAZVbYvj+Brv/U7VtBPH8Y9muqa/v3+PavoYGxsbMbPTZpptAPBcFAAAnkNVDzSzy6tpo62tbcaFgOVy+ZBq+hARKRaL31TVg0Xk08JsADBrFAAAdkhVLxkYGFhY6f2jo6MPyswnBQ5U2v72CoXC44VC4V2qOigiPxQKAWBGFAAAprLzxMTEK6tpwMzWTvd9VT2pmvafbWxsbHWhUDhORPY0s5fEcXyiiHzAzG5Psh+gGXAWAIApTe60980qmrhHRF46zfdfnM/nl42Nja2soo/nKBQKf5K/vCFwvYh8yDm3VEQuFJE3Tb7xALQ0ZgAATOfoam5W1QdnusbMVuTz+Vw1/cxGsVi8q1gsvi2TyewjIu8RkUKt+wTSjAIAwHT27+/vr/hwHDP7wywuW2Jm3/beL6q0n7lYvXr1w4VC4V8KhUI+juNDzOzvRaSqI4mBRkQBAGBa5XK5p9J7zeyRWV56gIhcI3X+nVQqldYVi8V/KBQKB8VxfKqZraln/0BIFAAApqWqh1Zx78Y5XH68c+4z8vTRxfUWl0qlbxeLRRfH8dlzKFyAhkUBAGAmFR8ZbGZzOuxHVc/13l/tvW+rtM8qWalUulpEXigitwTKANQFBQCAaZnZrpXeq6qVHNZzppndms/n962032oVi8X1Bx100MvN7JOhMgC1RgEAYCYVvy6sqhUd2auqLzKzu5xz7xwaGgryuvKKFSvKxWLxIhH55xD9A7VGAQBgWpUO4iIiZlbNVP4iVf3Mhg0b/st7f0Fvb+8uVbRVsUKh8H4RuTpE30AtUQAAmJaZlSu9d/LEv6pM7vP/yUwms945d20+n39DNVsUV+Lxxx9/p5mV6tknUGsUAACmpapzWsj3rHsTG6hVtUNVTzWzr5XL5T865250zl3Y19fXnVQfU1m3bt2WOI7fJCKVrGkAUomtgAHM5IlKbzSz5ycZZDvtk9sUH5fJZMQ594CI3Kiq1z3++OM3r1u3bkvSHa5Zs2atc+5TqnpJ0m0DITADAGBas9zNb6p790kyy1RUdV9VPVdEbli4cOH/Oue+6r1/TVdX17yEu/qYmU0k3CYQBAUAgGlFUfSbKm4/KLEgs6SqC1X1jSLynYULF/7OOfe+wcHBqtciiDz9eqCI3JREW0BoFAAApmRm4+3t7dUcpfvCxMJUQFV3V9UPbd269S7n3IsTavaGhNoBgqIAADCdG1auXLmhkhu994uq2UY4Sap6sKre5pz7RLWHDkVR9MukcgEhUQAAmIqJyAcrvTmO45dIun7HRKp6oZnd45x7RaWNPPbYY2tFJE4wFxBEmn44AaSImd1WLBYLld4fRdEJSeZJiqruLiLfzuVy+1dy/7p167ZUszASSAsKAAA7pKofq/Terq6ueWZ2SpJ5kqSqO6nqO6togtMC0fDYBwDAc5jZTcVi8cZK799ll11eZ2a7J5kpaaq6rIrbn0osCBAIMwAAnsHM/hRF0VuraCKK43h5YoFqxMz2rOL29YkFAQKhAACwvY1mduLY2NgDlTaQz+fPUtWgr//VmqreGzoDUC0KAAAiImJmD8ZxfHSpVKr4NbelS5fuGsfxRxLM9INqDiOawZ8qvdHMWAOAhkcBACA2s39rb2/vLZVKY9U01NbW9mFVfV4SoczspgULFpwoIn+bRHvPpqpfqeJeXgNEw2MRINC6torIClW9slAo/Kraxpxzg6r69gRyiYjcmc1mh0dGRiZE5MPe+24ROT2htsXMriwWi5+v4v4FqppUHCAICgCgtWwxs5+KyHfjOF6xZs2aPybRaHd3d7uIfFFEkhgVf5/JZF49Ojq67RRCO+igg8689957nxSRqguMycH/iiqb2a/aHEBoFABA89poZg+q6m/NbI2I/FxVf14sFhN/ha2jo+NvE1r4tzGKolePjo4+uP0XV6xYURaRc733N5rZh1T1iEoaN7MPFovFv6k2pKr2VtsGEBoFAJByqnpLHMeHTPN9i6LIxsfH47a2trKZbZo/f/7GkZGRzfXI573/KzO7vNp2zKwcRdHrVq9evWaqawqFwvdE5Hve+wERea2InCwiXTO0u0lE7jazj5ZKpW9Um9M5t1hEDq+2HSA0CgAg5QqFwlMisi50jh3p7+/fK47jb6hqJoHmLhgbG/vBbC4sFAqjIjIqIstzuVxXJpN5SRzHOVXd38zmi8iEiKw3sx9v2LBhxbp167YkkG+b10syjzqAoCgAAFRkcHCwc+vWrd9V1SUJNPexYrH42UpuLJVK66ROBdLkWocL69EXUGsUAADmbLvB/8hq2zKza4vFYup3DhQR6ejouFBVDwydA0gC+wAAmJOenp49tm7d+hNVfXkCzf1ywYIFZ8jTRw+nWn9//+6q+r7QOYCkMAMAYNZyuVyXqv5QVQ+uti0zu0dVT6zXYsVqxXH8MRHZNXQOICnMAACYlVwu90pVXZXQ4P9wHMfHFQqFirfjrad8Pn+qiJwVOgeQJGYAAEyrt7d3l0wm82FVPVeSW/1+45o1a36bUFs1lc/nXxjH8ZfY+Q/NhgIAwA5NLvR7u4h8IKn9/bdR1TO895vnz59/3uR2v6mUy+X2j+P4B6q6MHQWIGk8AgDwDLlcbon3/h/Gx8fvV9V/TXrw387bNmzY8OPJjXVSZ2BgYB9VvUVV9wmdBagFZgAAiPd+J1U9MY7jN4nIK0UkiY19ZqSqLzWzO3O53LuS2KUvKX19fd3lcvm7qnpQ6CxArVAAAC3MObdUVd8jIq81s51DPOdW1eep6te99283s+XFYrFQ9xCTuru72zs7O5eLyAdEZF6oHEA9UAAALWbZsmULtmzZcrKZna2qQ6HzbOdlqjrmnLtOVT9aKBR+Uc/O8/n8cXEc/4uIHFbPfoFQKACAJtfT07Nze3t7r5n9lZkds2XLlpeKSHtaV7Wr6okicqL3fkxVP/vYY499NeG9/P9saGgo+8QTT5wYRdGlZnZUWv9OgFpQ733qd+ACkmRmD6vqpyq8N1LVSo6TXWVmN1fS51yoaruI7Gxmu4rIEhE5UFX3lQY+vMbM/iAiV5vZ10ql0p3VtpfL5faPomhIRI42s+NruMgRSDUKAAANw8weUNURM1utqneb2b2qun7yxMRn6O7unj9v3rx9RaQriqIjzMyLyCCr+oGnUQAAaAZbReRJM9sqIllVnS8s4gOmxRoAAM2gXVK8rgFIIzYCAgCgBVEAAADQgigAAABoQRQAAAC0IAoAAABaEAUAAAAtiAIAAIAWRAEAAEALogAAAKAFUQAAANCCIhGJQ4cAAAD1FZnZI6FDAACAuoojVV0XOgUAAKir/4lE5PbQKQAAQP2Y2aoojuPrQwcBAAD1Y2Y3qIhEzrnfqOrBoQMBAICae2x8fHyfSERiVf1w6DQAAKD2zOxf77zzzicjEZFCoXC1mY2GDgUAAGrHzO5pb2//qMhfNgKKzex0EXksXCwAAFArZrY5iqLTVq1atUlku50AS6XSOhE52cyeCpYOAAAkzszGVfW0sbGx1du+9oytgAuFwm1RFB1rZn+ofzwAAJA0M3s4iqJXFQqF727/9eecBTA2Nrayra2t18yurV88AABQA98pl8u9Y2NjP3n2N3S6u5xzR4rIxSJykqp21iodAABIxuSj/OtE5F+LxeKUm/1NWwBsMzg42Ll169ajRKRHVfc2s52FkwQBAEgDE5EnReRBEblzwYIFK0dGRjYHzgQAAAAAAAAAAAAAAAAAAAAAAAAAAAAAAAAAAAAAAAAAAAAAAAAAAAAAAAAAAAAAAAAAAAAAAAAAAAAAAAAAAAAAAAAAAAAAAAAAAAAAAAAAAAAAAAAAAAAAAAAAAAAAAAAAAAAAAAAAAAAAAAAAAAAAAAAAAAAAAAAAAAAAAAAAAAAAAAAAAAAAAAAAAAAAAAAAAAAAAAAAAAAAAAAAAAAAAAAAAAAAAAAAAAAAAAAAAAAAAAAAAAAAAAAAAAAAAAAAAAAAAAAAAAAAAAAAAAAAAAAAAAAAAAAAAAAAAAAAAAAAAAAAAAAAAAAAAAAAAAAAAAAAAAAAAAAAAAAAAAAAAAAAAAAAAAAAAAAAAAAAAAAAAAAAAAAAAAAAAAAAAAAAAAAAAAAAAIAm9P8Bh7hW20ViZfYAAAAASUVORK5CYII=;" vertex="1" parent="1">
          <mxGeometry x="282" y="540" width="50" height="50" as="geometry"/>
        </mxCell>
        <mxCell id="Om71xXF0C_-sWj4UQDyn-10" value="" style="endArrow=none;html=1;exitX=0.5;exitY=0;exitDx=0;exitDy=0;" edge="1" parent="1" source="Om71xXF0C_-sWj4UQDyn-4" target="Om71xXF0C_-sWj4UQDyn-11">
          <mxGeometry width="50" height="50" relative="1" as="geometry">
            <mxPoint x="50" y="660" as="sourcePoint"/>
            <mxPoint x="100" y="520" as="targetPoint"/>
          </mxGeometry>
        </mxCell>
        <mxCell id="Om71xXF0C_-sWj4UQDyn-11" value="" style="line;strokeWidth=4;html=1;perimeter=backbonePerimeter;points=[];outlineConnect=0;" vertex="1" parent="1">
          <mxGeometry x="50" y="490" width="450" height="10" as="geometry"/>
        </mxCell>
        <mxCell id="Om71xXF0C_-sWj4UQDyn-12" value="Field Network" style="text;html=1;resizable=0;points=[];autosize=1;align=left;verticalAlign=top;spacingTop=-4;" vertex="1" parent="1">
          <mxGeometry x="50" y="470" width="90" height="20" as="geometry"/>
        </mxCell>
        <mxCell id="Om71xXF0C_-sWj4UQDyn-14" value="" style="endArrow=none;html=1;exitX=0.5;exitY=0;exitDx=0;exitDy=0;" edge="1" parent="1" source="Om71xXF0C_-sWj4UQDyn-5" target="Om71xXF0C_-sWj4UQDyn-11">
          <mxGeometry width="50" height="50" relative="1" as="geometry">
            <mxPoint x="84.5" y="550" as="sourcePoint"/>
            <mxPoint x="84.5" y="506.33333333333337" as="targetPoint"/>
          </mxGeometry>
        </mxCell>
        <mxCell id="Om71xXF0C_-sWj4UQDyn-15" value="" style="endArrow=none;html=1;exitX=0.5;exitY=0;exitDx=0;exitDy=0;" edge="1" parent="1" source="Om71xXF0C_-sWj4UQDyn-6" target="Om71xXF0C_-sWj4UQDyn-11">
          <mxGeometry width="50" height="50" relative="1" as="geometry">
            <mxPoint x="169.5" y="523.5" as="sourcePoint"/>
            <mxPoint x="169.5" y="479.83333333333337" as="targetPoint"/>
          </mxGeometry>
        </mxCell>
        <mxCell id="Om71xXF0C_-sWj4UQDyn-17" value="" style="endArrow=none;html=1;entryX=0.5;entryY=0;entryDx=0;entryDy=0;" edge="1" parent="1" source="Om71xXF0C_-sWj4UQDyn-11" target="Om71xXF0C_-sWj4UQDyn-8">
          <mxGeometry width="50" height="50" relative="1" as="geometry">
            <mxPoint x="305" y="510" as="sourcePoint"/>
            <mxPoint x="260" y="499.83333333333337" as="targetPoint"/>
          </mxGeometry>
        </mxCell>
        <mxCell id="Om71xXF0C_-sWj4UQDyn-20" value="" style="line;strokeWidth=4;html=1;perimeter=backbonePerimeter;points=[];outlineConnect=0;" vertex="1" parent="1">
          <mxGeometry x="53" y="280" width="720" height="10" as="geometry"/>
        </mxCell>
        <mxCell id="Om71xXF0C_-sWj4UQDyn-21" value="" style="endArrow=none;html=1;entryX=0.5;entryY=1;entryDx=0;entryDy=0;" edge="1" parent="1" source="Om71xXF0C_-sWj4UQDyn-20" target="5qyHvGWRTOX7RbQ3_Q41-1">
          <mxGeometry width="50" height="50" relative="1" as="geometry">
            <mxPoint x="70" y="240" as="sourcePoint"/>
            <mxPoint x="94.5" y="466.33333333333337" as="targetPoint"/>
          </mxGeometry>
        </mxCell>
        <mxCell id="Om71xXF0C_-sWj4UQDyn-22" value="" style="endArrow=none;html=1;entryX=0.5;entryY=1;entryDx=0;entryDy=0;" edge="1" parent="1" source="Om71xXF0C_-sWj4UQDyn-20" target="5qyHvGWRTOX7RbQ3_Q41-2">
          <mxGeometry width="50" height="50" relative="1" as="geometry">
            <mxPoint x="190" y="240" as="sourcePoint"/>
            <mxPoint x="200" y="230" as="targetPoint"/>
          </mxGeometry>
        </mxCell>
        <mxCell id="Om71xXF0C_-sWj4UQDyn-25" value="" style="endArrow=none;html=1;entryX=0.5;entryY=1;entryDx=0;entryDy=0;" edge="1" parent="1" source="Om71xXF0C_-sWj4UQDyn-20" target="5qyHvGWRTOX7RbQ3_Q41-3">
          <mxGeometry width="50" height="50" relative="1" as="geometry">
            <mxPoint x="214" y="260" as="sourcePoint"/>
            <mxPoint x="214.5" y="230" as="targetPoint"/>
          </mxGeometry>
        </mxCell>
        <mxCell id="Om71xXF0C_-sWj4UQDyn-26" value="" style="endArrow=none;html=1;entryX=0.5;entryY=0;entryDx=0;entryDy=0;" edge="1" parent="1" source="Om71xXF0C_-sWj4UQDyn-20" target="5qyHvGWRTOX7RbQ3_Q41-5">
          <mxGeometry width="50" height="50" relative="1" as="geometry">
            <mxPoint x="327" y="203" as="sourcePoint"/>
            <mxPoint x="404" y="290" as="targetPoint"/>
          </mxGeometry>
        </mxCell>
        <mxCell id="Om71xXF0C_-sWj4UQDyn-27" value="Back-end Network" style="text;html=1;resizable=0;points=[];autosize=1;align=left;verticalAlign=top;spacingTop=-4;" vertex="1" parent="1">
          <mxGeometry x="653" y="260" width="110" height="20" as="geometry"/>
        </mxCell>
        <mxCell id="Om71xXF0C_-sWj4UQDyn-33" value="" style="image;html=1;labelBackgroundColor=#ffffff;image=img/lib/clip_art/networking/Firewall_02_128x128.png" vertex="1" parent="1">
          <mxGeometry x="376.5" y="410" width="54" height="50" as="geometry"/>
        </mxCell>
        <mxCell id="Om71xXF0C_-sWj4UQDyn-35" value="" style="endArrow=none;html=1;exitX=0.5;exitY=1;exitDx=0;exitDy=0;" edge="1" parent="1" source="Om71xXF0C_-sWj4UQDyn-33">
          <mxGeometry width="50" height="50" relative="1" as="geometry">
            <mxPoint x="409.5" y="451.33333333333337" as="sourcePoint"/>
            <mxPoint x="404" y="495" as="targetPoint"/>
          </mxGeometry>
        </mxCell>
        <mxCell id="Om71xXF0C_-sWj4UQDyn-41" value="" style="endArrow=none;html=1;exitX=0.5;exitY=1;exitDx=0;exitDy=0;" edge="1" parent="1" source="5qyHvGWRTOX7RbQ3_Q41-5">
          <mxGeometry width="50" height="50" relative="1" as="geometry">
            <mxPoint x="403" y="375" as="sourcePoint"/>
            <mxPoint x="404" y="410" as="targetPoint"/>
          </mxGeometry>
        </mxCell>
        <mxCell id="Om71xXF0C_-sWj4UQDyn-42" value="" style="line;strokeWidth=4;html=1;perimeter=backbonePerimeter;points=[];outlineConnect=0;" vertex="1" parent="1">
          <mxGeometry x="50" y="50" width="720" height="10" as="geometry"/>
        </mxCell>
        <mxCell id="Om71xXF0C_-sWj4UQDyn-43" value="" style="pointerEvents=1;shadow=0;dashed=0;html=1;strokeColor=none;fillColor=#505050;labelPosition=center;verticalLabelPosition=bottom;verticalAlign=top;outlineConnect=0;align=center;shape=mxgraph.office.servers.reverse_proxy;" vertex="1" parent="1">
          <mxGeometry x="516" y="190" width="41" height="53" as="geometry"/>
        </mxCell>
        <mxCell id="Om71xXF0C_-sWj4UQDyn-44" value="" style="endArrow=none;html=1;" edge="1" parent="1">
          <mxGeometry width="50" height="50" relative="1" as="geometry">
            <mxPoint x="531" y="283" as="sourcePoint"/>
            <mxPoint x="531" y="250" as="targetPoint"/>
          </mxGeometry>
        </mxCell>
        <mxCell id="Om71xXF0C_-sWj4UQDyn-47" value="" style="image;html=1;labelBackgroundColor=#ffffff;image=img/lib/clip_art/networking/Firewall_02_128x128.png" vertex="1" parent="1">
          <mxGeometry x="503.5" y="99" width="54" height="50" as="geometry"/>
        </mxCell>
        <mxCell id="Om71xXF0C_-sWj4UQDyn-48" value="" style="endArrow=none;html=1;entryX=0.5;entryY=1;entryDx=0;entryDy=0;" edge="1" parent="1" target="Om71xXF0C_-sWj4UQDyn-47">
          <mxGeometry width="50" height="50" relative="1" as="geometry">
            <mxPoint x="530" y="182" as="sourcePoint"/>
            <mxPoint x="530" y="148.5" as="targetPoint"/>
          </mxGeometry>
        </mxCell>
        <mxCell id="Om71xXF0C_-sWj4UQDyn-50" value="" style="endArrow=none;html=1;exitX=0.5;exitY=0;exitDx=0;exitDy=0;" edge="1" parent="1" source="Om71xXF0C_-sWj4UQDyn-47" target="Om71xXF0C_-sWj4UQDyn-42">
          <mxGeometry width="50" height="50" relative="1" as="geometry">
            <mxPoint x="520" y="65" as="sourcePoint"/>
            <mxPoint x="520.5" y="32" as="targetPoint"/>
          </mxGeometry>
        </mxCell>
        <mxCell id="Om71xXF0C_-sWj4UQDyn-51" value="Firewall" style="text;html=1;resizable=0;points=[];autosize=1;align=left;verticalAlign=top;spacingTop=-4;" vertex="1" parent="1">
          <mxGeometry x="560" y="110" width="60" height="20" as="geometry"/>
        </mxCell>
        <mxCell id="Om71xXF0C_-sWj4UQDyn-52" value="Firewall" style="text;html=1;resizable=0;points=[];autosize=1;align=left;verticalAlign=top;spacingTop=-4;" vertex="1" parent="1">
          <mxGeometry x="430.5" y="420" width="60" height="20" as="geometry"/>
        </mxCell>
        <mxCell id="Om71xXF0C_-sWj4UQDyn-53" value="Reverse Proxy&lt;br&gt;(Nginx) + Auth" style="text;html=1;resizable=0;points=[];autosize=1;align=center;verticalAlign=top;spacingTop=-4;" vertex="1" parent="1">
          <mxGeometry x="560" y="202.5" width="90" height="30" as="geometry"/>
        </mxCell>
        <mxCell id="Om71xXF0C_-sWj4UQDyn-54" value="External network" style="text;html=1;resizable=0;points=[];autosize=1;align=left;verticalAlign=top;spacingTop=-4;" vertex="1" parent="1">
          <mxGeometry x="660" y="30" width="100" height="20" as="geometry"/>
        </mxCell>
        <mxCell id="Om71xXF0C_-sWj4UQDyn-56" value="" style="aspect=fixed;pointerEvents=1;shadow=0;dashed=0;html=1;strokeColor=none;labelPosition=center;verticalLabelPosition=bottom;verticalAlign=top;align=center;fillColor=#00188D;shape=mxgraph.azure.user" vertex="1" parent="1">
          <mxGeometry x="64" y="-40" width="47" height="50" as="geometry"/>
        </mxCell>
        <mxCell id="Om71xXF0C_-sWj4UQDyn-57" value="PC client" style="text;html=1;resizable=0;points=[];autosize=1;align=left;verticalAlign=top;spacingTop=-4;" vertex="1" parent="1">
          <mxGeometry x="120" y="-25" width="60" height="20" as="geometry"/>
        </mxCell>
        <mxCell id="Om71xXF0C_-sWj4UQDyn-58" value="" style="endArrow=none;html=1;" edge="1" parent="1">
          <mxGeometry width="50" height="50" relative="1" as="geometry">
            <mxPoint x="87" y="55" as="sourcePoint"/>
            <mxPoint x="87" y="20" as="targetPoint"/>
          </mxGeometry>
        </mxCell>
        <mxCell id="Om71xXF0C_-sWj4UQDyn-63" value="" style="endArrow=none;html=1;" edge="1" parent="1">
          <mxGeometry width="50" height="50" relative="1" as="geometry">
            <mxPoint x="258" y="53" as="sourcePoint"/>
            <mxPoint x="258" y="30" as="targetPoint"/>
          </mxGeometry>
        </mxCell>
        <mxCell id="Om71xXF0C_-sWj4UQDyn-64" value="" style="outlineConnect=0;fontColor=#232F3E;gradientColor=none;fillColor=#5A30B5;strokeColor=none;dashed=0;verticalLabelPosition=bottom;verticalAlign=top;align=center;html=1;fontSize=12;fontStyle=0;aspect=fixed;pointerEvents=1;shape=mxgraph.aws4.vpn_connection;" vertex="1" parent="1">
          <mxGeometry x="230" y="-37" width="54" height="60" as="geometry"/>
        </mxCell>
        <mxCell id="Om71xXF0C_-sWj4UQDyn-67" value="" style="line;strokeWidth=4;html=1;perimeter=backbonePerimeter;points=[];outlineConnect=0;" vertex="1" parent="1">
          <mxGeometry x="243" y="-78" width="526" height="10" as="geometry"/>
        </mxCell>
        <mxCell id="Om71xXF0C_-sWj4UQDyn-68" value="" style="endArrow=none;html=1;" edge="1" parent="1">
          <mxGeometry width="50" height="50" relative="1" as="geometry">
            <mxPoint x="259" y="-45" as="sourcePoint"/>
            <mxPoint x="259" y="-71" as="targetPoint"/>
          </mxGeometry>
        </mxCell>
        <mxCell id="Om71xXF0C_-sWj4UQDyn-71" value="Internet" style="text;html=1;resizable=0;points=[];autosize=1;align=left;verticalAlign=top;spacingTop=-4;" vertex="1" parent="1">
          <mxGeometry x="709" y="-98" width="60" height="20" as="geometry"/>
        </mxCell>
        <mxCell id="Om71xXF0C_-sWj4UQDyn-72" value="VPN" style="text;html=1;resizable=0;points=[];autosize=1;align=left;verticalAlign=top;spacingTop=-4;" vertex="1" parent="1">
          <mxGeometry x="291" y="-5" width="40" height="20" as="geometry"/>
        </mxCell>
        <mxCell id="Om71xXF0C_-sWj4UQDyn-75" value="" style="aspect=fixed;pointerEvents=1;shadow=0;dashed=0;html=1;strokeColor=none;labelPosition=center;verticalLabelPosition=bottom;verticalAlign=top;align=center;fillColor=#00188D;shape=mxgraph.azure.user" vertex="1" parent="1">
          <mxGeometry x="400" y="-168" width="47" height="50" as="geometry"/>
        </mxCell>
        <mxCell id="Om71xXF0C_-sWj4UQDyn-76" value="" style="endArrow=none;html=1;" edge="1" parent="1">
          <mxGeometry width="50" height="50" relative="1" as="geometry">
            <mxPoint x="423" y="-73" as="sourcePoint"/>
            <mxPoint x="423" y="-108" as="targetPoint"/>
          </mxGeometry>
        </mxCell>
        <mxCell id="Om71xXF0C_-sWj4UQDyn-77" value="Remote Client" style="text;html=1;resizable=0;points=[];autosize=1;align=left;verticalAlign=top;spacingTop=-4;" vertex="1" parent="1">
          <mxGeometry x="457.5" y="-153" width="90" height="20" as="geometry"/>
        </mxCell>
        <mxCell id="Om71xXF0C_-sWj4UQDyn-78" value="PLC" style="text;html=1;resizable=0;points=[];autosize=1;align=center;verticalAlign=top;spacingTop=-4;" vertex="1" parent="1">
          <mxGeometry x="54.5" y="590" width="40" height="20" as="geometry"/>
        </mxCell>
        <mxCell id="Om71xXF0C_-sWj4UQDyn-79" value="" style="shape=image;verticalLabelPosition=bottom;verticalAlign=top;aspect=fixed;image=data:image/png,iVBORw0KGgoAAAANSUhEUgAAA3wAAAKCCAMAAAC9JSvNAAADAFBMVEVHcEwAAAEMCwwNDAwMDA0ODQ0ODA1MXEwQDAYtKBkREBAODA0MCwz///8hHR8ODA4hHh8iHiATEBEhHR7///8hHR4iHh8hHR7yvRkdHyPzvBkiHh8hHR9dW10iHh/xvRsZHCAhHR5hwrbrZ5siHh8iHh9Kuq4+vbBHva0MfrY9uKhUtOQMfLTv5ck+vbA9vrDtuRo9vrAIU3gMe7PyvRrq7ez19vbzvRgFP1sMea/n5+QMcJ/39fE2pZQMeq7t9PELdqwLfLQKa50MfrcJZZEMfbT6+vgLd60JXYeHysryvhwKb6D6g7W04uGo3Nz79/Pyvhqw3toNdKY2pZYKa5jtvUTzvRiSlJbyvRyC0Mfyvh6Y18/6o8nV7Oj016X6+vnX7ez207K6xMfy0317zMPwuZ/45bR/0/b8+Pi75eD779NFX27pwV7u3uOV1NfZ7/BPvLBbwbZrxrvzpsPtzIL01Xn13Jl6y8703aHsaZ79wt25vb3wjLP3wdZqwukcquDfm3EkpJf67MiZeh3ktz/uzHDmToxUX2LXh1ncrSdmwOC2ysxbcXZsw+rnvE95d1BRVFc/RzqwXn4ersUquqs+rqAbV2x7Zzk1bmfAlho+vrAjHyDzvRnpR4vwvxo3pZU1NTUHpd4Bm48NgLnXoikkICE+wLL2vxk3qJk9va/qQYk6r6A2pJQdFRT8xRsZGBxCyrvvugLh+/lAvrFVU1T0ZZ7frRzwTZFIxbcCo97yvxAye3ErTEdfy78Qq+UiHBwVnpE3ODgvJyAAkoXnMX8pKSrc3NyefRxLu+02v7A1LS/UmgopuanYoyzYoxI8t6n/+t0yu63/4fMxWFQlNDMiLiv//98MBwc4n5L0R5A3in8uNTSR5NteTB4FntgGp+Iht6gyaWVAQUKu7upx2c44lopU0MP+5oP90TlXtqgkuaodr6H82V3Wnx7E9vhgQE0Sdpw1w7R/RV3/+K6kSG4rvK0os+nBSHrhSIj2VZnUSYMbSFoLksNGxPb856ohva6F4MU+AAAAmnRSTlMASUI6Cg8WAQIFHTIsh8AioPwnsJ5u88/dX4Lcj2r4JlJ+a2vl7AyxGvRpauMQk+X98IeLWyk8tnHSHSpT6kBpWXMXt6ehu8eZPz/A/LpueOtT5pK0/pv+c/PN3PuWUNu4cpzwvz+5/oPhrz7uo6vp1fngv2jLpZvhzP78l9rY14b+7+qYqvn+vN6uvfuAzbC42m5YourNguXmSR1EEgAAWuhJREFUeNrs3bFq40gYwPEh2UR2cnhzF5LIIpzsYkuDCoHewZUqIfRqGbYzXzfXpUh5EO4p8i4nO7eMmwtZr5kZ/P1/u4bFbNL9+cYzkmwAAAB2ssl0Nf3s38lomhkAvy5blfWnrcsdA+AIyrprPqsrimJ87TrchriaGgCHKovcOfkUK+Jky9k8H0vs63KSTSYT1qHAYfG1u/g+eomTHff+xzkR27Z5PgxjgvWadShwgGw7+awV+7+vH/8Qu0dE3I7djsDtGvSLAfBTdvEdSETsqLJ515crA+DnJ9/hdiOwaoem62vWn0CYybcf4Kht+nW5YvkJhJh8nojYtsqbYm0AhJp8++vPoSvqkrMHINDk88S5dijKktN3IMzk80ReqjbvWHwCAePzw8/lTc/ROxAsPk9EqqZeTSYGQKj4fH15U3PuDoSKzxPnXpqCtScQLj5PpBpqtj2B8PFZJ9t9z4kxnPsBYeOz4lzVrUv2XYBg8XkiecEHPyBGfK4aOHIHAsbniWubNYcOQIT4rK3ynvqAYPF54tzQc601EDA+T/KCTU8gSny2ZdsFiBKfuLxbs/IEgsXniWt5xAQQJT6RltkHBIzP2608ucwTCB+fFVex8gRixGfFsfIEgsbnuZbLrIEo8Ylt+xWn7UD4+Ky8DAXXeQIR4rPi8jWzD4gQn5V2qA2ACPG9VN2a0QeEj8+K48kSgI8vKMlrvsYPiBCfONvxsQ+IMvlEuhVXukA7H19IfOwDIsUnduASa2gXJz7rLKMP2kWKT2xeGEA1H19gruFpgtAtXnx5x8ITqkWLT2zOYR9UixafdVKUPNIFisWLT+zQc4E1FIsZn2341AfFfHzhuaHmrnboFTW+tuE6F+gVMz6pWjY8odcH8bHhCZxsfOKamstcoFXc+GzLZS5QK2p8VlzOd6dAq7jxWdfWjD4o9WF8nDYAJxuf2LY3gEqR47MiBfud0Cl6fI7nV0Op+PENPRd4QqXY8VnhjnYoFT8+GYgPKkWPz7p2PeWgHQrFn3yu6hl90CiFycd+J1SKH5/YoWbZCYVSiK/l4dXQKH58VlxnAH2SiK/h2/qgUBrx8RQzKOTji8cNHDZAoSTi43tqoVEK8UnblJz0QZ0E4hOpuJ0dCiUx+SQnPuiTRHyuIj7o4+OLyNn6iwGUSSS+nsfGQ5004uOuIiiURnyWgz7ok0Z8Fbf0QZ8k4hPbcUsf1EkiPmcbJh/USSI+Jh80SiS+hu+HhjqJxDf0LDuhTSLx5TzGBeokEx+TD9qkEd93Jh/0SSM+Jh8USiY+AyiTRnzfmXzQJ434mHxQKJn4mHzQJo342O2EQmnEx+SDQmnEx+SDQmnEx+SDQsnEZwBl0oiPcz4olEZ8TD4oFDW+6p9Rlcxnvov5cnnG03sxUhDf219Pb8/J7HZ+nW1eby55ngWMOf34nt+e/n57TmXyZVezzebm0gDm9OMbJ9/myJPven43P3R4XT2M8V1kjD4oiO/5bXPkyTdd3m/uzw+efE8sO7GlIL73ySe7+DJzFMs/X79dHzi8rmZMPrw7/fjeJ98Rz/myyTj5vp0flk82brj8zuTD1unHtz/5zFFkY3y/NPkeL5l8MOb04zv+Z75x8r0ePPk4asB/FMT3Y/L53c5sMp1mZt/H749vTz4x+bKp/39e5n9676ghe/+1XO6Gk45vf/JlJrs4u7uZPcxuH+d/TI03vr/cvn/zOD87WywW8/nXXRnZb3ePtw+z8f27+dn2J7Lz+eL2fvO6XMy3rqcmyy6uF3fLm9vZv+ydTavc1hnHZb09kuaiK+mgkWWJqQTSTVyycMnGocQ4cUMC3WbVr9CP4W6ySktbSjzBWZiTODi0gUIoScAwMHTXLrrpJst21+/Qc45m5sjzcvOCx7rR/H9jGx3NkWbjH38952VG3LY2HUNjW92HRXWaW4G/Sj5euv4kL5nsXjkGAGOVr5985OUh5zzmkrZMtHtVyLfIbXE+iRquKSzf8BiXzPmCS0qHjCqbxgLeEU42UpvCUk12Tquaj9X6jVDcE4BxytdPPrue8h7ZxOjw0pYL4tmsJ59vkJXxPtPKM3ym3JtzxaJ05MVLrllu7po2vMeyEK4TSfnifv9iYgAwTvn6yScdi7Myr6qUSd1YQIbkWiHMYtUkSapSdgmjiJm+EGU55w2r07wuIxYWmUlEdRgWsbhLqMgdoioMWVTWeZrnUSO0LN0u9wqpViTOq6ubMCFZ8ymf24yV4q5hK8MTi83ASOXbJN+t678JhWO1SwpLNJapbcg4ijifpTaRT0RVw2P5MElEaaueIj2irixMHJIYasDFkMi3yLY9qZX6K40rEnXTcsZ5FBB5qkVuYtMq+ZrasuXFHuWN6g7AKOXrzfP9tn3KS0dqQtR5ws4NwVkmRyCVYmRIaYqJaoij1pS9DQWtehi9SXb9bweVLZ9WsqMT8mWYyCN9sR7t3HSfie4+Zh7AKOXbJN+Xv/rm6UJXWGREwi1LHlWNysAOShu+qKQONouXLDA20Mo0kvN8+ys1da9F6osDVxltbOEL+Rbl+jSpj66xvQ+MU74u+b4UyfdeMXvKznXK5E03pkniYJ5v4qcqOFctm824LNS2IZ18u5jqpuJNJZ9De3c16OSbiGbpIPnAKOXTyfdBO1/0/qOr587SEWmkLPRXZ+Vp1SIqp/Jo39rOxaHk8+XVKvmckPPCpK1rV7sa1k1s7wNjlk/XfPfbhfBC65BkS166pJKPr5NPtpZdi1IhXxtVrv+dko982w2StOXdh1A0E/aVlvPM1fTsrgZyRZNhqScYp3yb5Pvk/kI4RtqDpKvKZNapCTsFSbXiitYd+GLWhmVqBt6zazsnZGjIrdIyCoumnXI5huqvHl8FccPq3HJIR11/VwM5jC9ZAPfAKOXrJd90wXOP+iG0iAIiFT/F2qZENs6UfIYZ8hWzguXuoeQ7L4sZVyy5JPU3NWXHNItMZ/Wh2TO7Gnw24ywwABijfHqe7/6mhNP1lkwdorrlPKtccehL3xbCjlWXnLV8TWb6q5qvP9q5Xgcza5uMRXXU8ljJR0RJHU75Gna2/tD+rgaf8SXkAyOVr5d8MyGfp6UJMuFB0GWgCrcszDKRjrywNrMKZJ/LFdcy2dT5TfL9euOPw5ZzHqZn54Fje54arrHXVztJVbOwiTlXnpOe5+snH3YYgXHKdyD5dM0nSYQDvYQj2nRSh35glg3ny9rZjHZamx55o8TqWI926svJsJMqann32XSuRzvVvVDzgfHKtzXaaWv5JkU32imR4yDtdDprsih3O+M0ekFMQLTZz2esUItU5CXqZTZLIR9tXe6nrSz19GingZoPGKOXb5N8f/6gXS8u0RN6tbOZXwjNZDJJXJ/I2IXoIoqXRUJd8vGpRWt9Vuf1FH2c+jvuBpkMvN3RTo/FqPnAWOXrre1sFjzUK1wobRdx3nliM85Th3ySGPspY95M1sk31Y+mjPMi0Xv4igXP7Z3kdLvBnT2jnTFqPjBW+Xr7+X4X89Y0NjAubNIhWKknx4N4Ubzokk9Yq1Z/dlAkpdxa4XLgi6r3jXbGqPnAWOXTazuvv98shAH9NZxRoFpUiXfSC+MyrExlV9db5mRvY0Ks18eIuy7TdUuTN2oNJ60sRM0HDGP88um1nddvhE85jyaelMTJCy6l0QOfTZmmeZXnleXQ6mxeTVybVPcq4/NlbdOq9zKzSH0HEkmvFlmXoI6VZrFUWjYmuZm4vqcm91LRZ1qR4Dzki95iTh81HxivfP3v7ZT5w5uQRYwJSXQEEZUtFyy4IG4LZvrUbS5qiyxkjHUTfdkZKflsxue8kaez2iU37Has1xHLllwRylwsp7wpQnV1M+NdyurRTtR8YPzyrZPvQ5F8ntCpR6/YqlveR01JqNqOazKz92zZIVOLzEIe8Y5CadpYhtwu2IclhiRBzQc6TkC+W98sFt/cWn914CQqYq5oRTwR9X76JIwYC1mYKXtak4gqVrQx75hlZUDr/pRn2l8ik83WC0DTIKgLNSxqpGEx5XzzYW53ccCaadlLvrKZ4jt0wUjle/jF//4h3FPyeUR+YOapILdsIuptZEht6YLvXwRmOOPL0pFNZyJ6S3LTIYEevazSukzzKvFFw3esrk/gyy7ivdyRpwNrdXVlac+DJHE9PQchm/jyQDBO+YR+Dz9cyUdqtYl4kTrSc3NLXnfJROSR2l7OzmW76+hTx/bMeffG6tjrdSFSNaNBm06kLzN6TdUJu/nAaOVbIZOvE2XjnS74GkuLQw6bL8OEVKvzQ6m0BdFGHNruou8Fu8AhTke+Lvn2Uk6XWUI9qyLOs3MYA0bA1ZePZ4luyuRbhOcGAD9+roZ8Dw/KV7dqBnzTnhScY/wfjIKrId+h3+cjypv+dnJy5QxdegH5wAi4MvJt+6R31c55llpJECSJVct1KlkC98AYuBryHX7spLTlguW0bZupWqtSmHAPjIKrIZ9Ovh0oL+Le149Nowl+PgGMg6suHxEFVRlmTdE0RcZSqAdGw9WQ7+ElySfxbFfiE/mYFQdjQcr3yfBcv2FcAnUY8gX3wFhQ8n04GPqx0wDgtPB+cuO9W18Mz3s3Xn7z5ZfF390/x+bCAGAQkj/d//sV4P77Px2K3xsADAEldba4Avzrq9df/8+B17//+LMj8rc/oIoEw5DUzfwvw/P1V0+ePD7Ak39+/Pnx+O9L2C8LBoGSuuCD85R//dVnjz86xJMHDx58+tdPH2xez5GPP38JyQeGQck3H5jL5Xv85NMHx+PzlzBzCIaAVPLNB2c4+UTyeQYAA0A/guT76KjJh8dOMBCUlN+SfCN/7ETygcEI0uyqJ99jJB8YI3RhhqeefJAPDAI5VricXwZqPgCOgndhZhjtBGAIHDNczC9j5I+dSD4wFETJla/5PkLNB0YJ2eyq13xIPjBOyGeo+QAYBIquyjzfZ0g+cFKQX06Hl29+ac2H5APjxKubK5J8qPnAieGnWfwt9qHmA+AYUMUuK/qQfAAcC79i8QnLh+QDw0FWNDth+ZB8YDCIgnSGmg+AASAnP+XHTiQfGA6ianrC8iH5wJBY7QnLh+QDA0KTLJ5fAmo+AI5FEl0SfUg+AI76cw2nKx+SDwyJk4f8kH2jlw/JBwaE7IRd5h5qPgCOBfnRYn4IJB8Ax6ScH2L08iH5wLCkzWy+n9HLh+QDg0IVu2SRC2o+AI7HpGwPyYfkA+CIkJufrHxIPjAoRFbD99s3evmQfGBQiIIwnh8CNR8Ax4PcskDyAfDiIXLy8ETlQ/KBYSH/LNpf9I1ePiQfGBYiqg+6h5oPgCNClBez+T6QfAAcFzL376gdvXxIPjA4Sdruq/pGLx+SDwwNHf5tdtR8ABwXh8VIPgAGgOw6m+8yevmQfGBwyDf3TfWNXj4kHxgc8i7q/fKh5gPgeUArLjxjh2rfVB+SD4DnIp7nXdy5++q91x694RFtv30WNTvRN3r5kHzgRYjn33nj3iuPOt7yPTK2cKqMb9s3evmQfOBFiHfzkeZte8c+ooDtcw81HwA/2Lw31+Jpbtob+zRUN/NtkHwA/EDzjDfv3nu0h0TL159tmG9l3+jlQ/KBY6CeNt9SmbfLHXdP8rnp9NTkQ/KBozxu/vzVfebdfO2X79y+mzj2rnxkZfF8G9R8AHy/0PPu3Nv1TmiXX7t2zZycnTu2T8Y2wc6vhSH5APh+6l3cfW1bvLffuX2tw7QmZ4FOvh4XE3Zi8iH5wHNEDW9uPW++8guReArTtCxLBJ/r+L6xh/LZqm/08iH5wHNVb6vUe+Xd233xJmdn58I9PdrZh8ydnUWo+QD4burZz6bezXdvVyvxJso7iSvcsw3P2IX+z975/LSRZHG83b+quttLg73gsbBQswpoLTm7WTuj2IJlIMBghcOMZtnLHGa1l2iVuU5G84fsSqthlTm0erInpFzzV0RaKf8CPnDLPdp+VdXtNgFDAm2qut/HEEMOXNCX73vf96rabk7umKHzTUDQJpFLZwvbnTDDoBsEXHlCeHaMZcbQmAt/RK2+djym8OL7GOcjhDzu9VB/yIdAwjkRsxz2heelwrMskwHKo9pFkMkntBdefNd3Pja7ibdiKUX1IZMQ4mzsTtSbLGIxhPKywtM0kN7FEMdtTc76sOcT9ebWPl9Jd1B9yPmKcycrvWGQVJs+i1csLjsAlDf1Cs+5TOKJzndubLpvoviQLIQ6GwcfSo8HmzbzO5OpDvR3BcRt3iuP+MD5rtNKp/V8z0L1IZfb3lEg6k3fF8WmBqKDz+tA/Ll03FB48YHzXR0gZ1Ksnms5FEMX5ELbO2yekx6lGryuj7WYzVxK3fPBslBvIkA+6G1vPaYE5YfETNreoA8Fpyekx5VHtY+DuK2lY0G5nW+8sTDJ7s5jDfVXemCjZRxytrus16tWk04P+IQDEXqSuRRefNOcL3a9/fAS2rH+sPosN4TSjc64JGoGFV0UnKbJI5ZPErTdXOaFZ+HFN835CHUg47xcf9vrqL/yAjlcO2N7WelBvfnJdurOp3supe35CHVM04ac81I6Oyi/skKo2cvYHuQsUHFayST900nvry6x84H4LNf3up3wcto9rD7LCCHaxu6k7QnpmTTmhvdXN5dh0aXw4pvqfLHxuVXP0IftTKL1Tfuc/PY3UH5lY6Ld63Db831IONkWyw0htRaM2gsvviucz3b9WHyVYC9VXL9Z6e+d88J9dL9yAWlAO53tBantUfOGrjc+3sDFV+qez7L92PoqlaB5FHK6FaA/nNBfewcH7yViImrZ47bnMtu7JYjTrEdRVGLng7oT1BfLT4/1tnjIna8iADmO6Wzh0llZyGqv3echp23dIOK8+Fzt8XHRxTfF+WBQA21fbH5MfkF/AOKD6wB0nckPitGUXWz9ykF2q6XTZCWnDdqbkJ46bZ+kzqdREJ8wPwP01v8mDKqAJ/Q3UX32sPYsAYTS3rjd03UjsT2N3upz2r35lePj0vZ8IreC2tNK5Gd0DR9I9RdkBxEHaH6Fh1CnlznBACXnbdseQDQaxGtmJXa+GDrhfoZRrbm2ZcG3ifyamUFEexs7v2IDZ1yyUYvn+zbfaNFuGWLpywUXX+J8090vkV+Vac+MEfrj8jvCqUNJyPZ7Q2j3fB9sLxeItdqICi0+7nzToVRL3M91bXYyGUjtL+4FDzKxJ17yUliyOWe3krZ7lGo5QBx7danEPd+E+8VYYms2hgnQthP367bHC2dYehYUmK1nRgxJu6fRvFbYaqtrUcmdbxx8ApR9M3ZDkB8kL4dYehYcQs10ryWjPZrjnWjV+Th0iYoqPuZ814XSzAJR/MYEmSah4+DlANVXQODGiHHNCdqzLFPLFcIOOJTe+YTa2PtFSahhxJ3fYNz4aVh6FgxCnceDJGvhIwbe7uUIIes6874y93zZ6vPCJJSbX3CEM4eiQojj7KYzBvacr9y1B5hGfS1C55uShFpcfpncpb2D6isUmQHfUUUf+17+mjfiyrOY4mPOdyNo/DKtxPz6nVCAoWeRyASdh6A92+ZbLflDnGBuJa48Cyi+GzrfOAm1LN75NQep+kxUX1GAsKUj+vlgVr43vlFpbgl7vuljQFF6BofofUUDjnYeiH6iCbN1PmKYEcQM5iN0vunmlzR+e+h9BSNzWVJXN2boewAhxNLn49QlKpr4hPPdhvmB/PjJ2y56X6HINHx7qfa0GQLzvgV0vssRM78qNH7dNnpfcSDUsUQnP4BzDLY5c/Fp63prJcKebxqgPvS+okGcpOhsQ9gCFyVpM8c05u9F6HzXaPx0faw+6qD6lCazVtaPtefyonPWEMdrrUXFEt+tOh9gWhbELmPvw10XtckknYdJ0HkXEKe2uBwVSnzC+W7V/Gzf9/S072vjvWZq4zg7SdGZhi13AdHs1cYK9nxX5C7M+9LKs7OB6lMXQh2/nUwZPJ81fFS7K/TGUoTOd0Xjx7wvVZ+F6lMVQtO05YCdIroz4wOIBbFLVBTx3bLzAVRLvC+Ztu/iY9xVZZy2tJui4btLCDFajZWiiI87Xx7eBxOHo5Czjzd6qgkY337IGIqik2p3CSFucw57viu8z7ZBfYOQgweM1IRQU3R8Hd2o+RZsdN41dtC6F6+aReh8V2SeQUcEZRu46qIgGePrpknnHUNg4tdYKkLZmThfPn2foTdFUjbA0EVBCDU3UuODolOTAeJYQX0FnW+690Hf1xfq2zcdbPsUA5Y6e6nxiaRTAuCYQ6uxEEXY812MUJ+hD3HTRVUIdezE+GCfWg7jY+oj9mJjbQGd73Lvs2zfMyqHou3DWbtiQMe3kzE+SXxPqM/yVueiSGnxCefLq+2zq56RhC4H2PapBVSdB6nxwYhPGvFpJMZt1pdXokhd8SXOl1vo4ht6H48XKQl1zO9Dxp5Rk8r4AEJg1bqxhD3fxYD6sm0fFp4qkYlbAs+3pTK+RH22DrVnhM43JXQZiMIT18wUglDT5h3DwKi6shlfor/aYr2xFEVKii9P5xOrLplZ+zaO2pUB4pZtEbfIaHwMwnLP+pKa4mPOl6v1QeiSHC9qP0b1qQKhprUbMnRJjQ8A9RnN+UYURdjznYfytu9AjNqx8FQF4pji2qRDr+bKaXyJ/LR47LC8dhyh853THm/7kjWzLbQ+JSAQt7ghow9bnY6s2uPrnqYbxMVnpJb48nU+QLR9Q9zxVAeytbXx2LS2RNYJVafE2uPYxmJrLtZfpI74cnU+gFIx7ROZy47Uf0ORGEK0HTZaT2Iyw5a25UshIvlcW1rAni8DLzz7SeaC1ic58BjMdjhBZ9CTtufjwNa+Y1rGYn05dj90voz3wZrZUcjoYeEpNzBjgFN8k2xQ2b2Pj91dfXG+3liJYqQX3yycj/LEsyLuAnFRfFID4rO3w0l6puNI7n0AAax47eXe0tJCJLv4cne+8aKLPkTrUwEY8NluZ7LsdC1FhkSEELpu12L/4/ZX9p4vho/a23ilhAIw8dW6YZbtmm058tedHALY+mJrfq5xbyECyut86Y7nECftCkAdx3JrepjhkO2XqfPQDcKxPPC/hZhISvHNyPnEsK+D1ic/MF63a95hmNIOPF8h5xvrz7Rrht5cnW/cizhyiS9/5wOoyFy6wvqw65MYSh2oU/phyhBuLlOwXCEMsxo0W/W5ucby8trKQpSS6fl+mSK+n3/NjRk5H0XrUwf4S+lWjXYoGFS8qq3AjsuHEIFDNcsIFlfrjeWV6LzzMfH995cLXtz5fv05J0B8M5FBYn0YeCoArzuHoaDPjE+tqjMLIfC5brs1Tw+C5upqa75er8dhDGf5f//+8+X864858qd/Ug2YifVVxbHato3WJzFQd7peEHKOdK9mS3FX9Y1N0CEa0SwQYbO5uNoSrP5lGn/Ik99pwIyszxPWt6NgB1EeKIW80zgIgXYFbi5T2Pgy8mNvlDjOumk6ppVirq+vOxe+cuX36+ta7oyvU0pmfQMLrU9eeOQi/lB2DWnPsd/AA7kW4UO7GpLLa5aIrm8vZGzh4QaZGUcuA92rKnCoAblO4BmIaQNan8RQ6sBK0h5/Kp9kV3Yin55gi+FtzVFnYaJ88FFfEIZ7UjyVD7m59bH74/s4bZAfWAh0a8ago3tVOZ7Kh9xK19cJgQ7WnRJDNbC+WrfvSfJUPuTm1pcZ3m7htEFiqGNarl+tVmV6OBFy4+GtLupOtD6JYfGY6/u+Lc1T+ZAbW186vO1YCp1RKR+UHam1bTS+gkApFcNb4HuLovVJC2XXzlnoe4WBTxsqWHcqAKUmQDHpLAgswfa9QQgMcLtaZih8mFSBS8uQ68HqzupQ1J2Yd8oM0x1Krzhg3akUWHMWCZZg15K6E/NOBJkZYtQ3FNfnYt2JILODwqivKZZcsO5EkJlB+f0gounDdfkZQ7SEzS+BZ4ynwLOn8OVv4X83NQG2fMUC6s5k2HAk9zMXi8j9zc3vYp48+fEd8P50gneMtz8+efJdzObmfQ0pEjzv3ONNn4qXQaoJYVC6+eZNLLiz0cvXr18/ePXqVfz2KmH81X9GZ6en79+82SQM/BUVBVZ39kOGh03frCrNr758+vT5o0efjUYnf3354uTk9av0xd8ewD+gxvjz5MXLF6OXo9Fnjx49f/r0b19pDPxNqQ5r+nw9ZOyg+PLX3edf/P27hw+fvzs9OxudCI97EfPgBecBfJwHdAgqHJ2dnb57/vDhD5tffI4KVB6+5NJhZec+Tvry5f66o/3m7fvTUSwmbmkfRVKUvh6dvn/7D8e5j02g2vCm7zCM6fQwccnX9Z799Pzbr0cnUGYCL4CP19/rlycvT0Zff/v8p2cE3U9p4EZWvzvY68IjAPAml3yAavOHh/9n79xC28jOAHzYLIzUraFL9eAGih9cTKAI8lBNQRWIvhgSJpH7oM0StPaqwpcmNn3wpbZrJ2DiLBs26UIfvR7WRMJwQDKz7Fh4CDIpkxAqJhiRWoiCRdMHqSDXoSpJvFmbzpGSrePcnPVoNPPP/9nOs6Pjb/7LOeefo7FSOaVIknhojtdy0FLs6C+iQR9BbMrTl+AceeedI+/Z8t03NsDr9ZJolSWbrL4zCqWegFajbi/mnzaFFX0/+OF7R468Z88XT1kbjuh4ZkZbu8qLi4qOaBwKI5XqOhub8WD6aUuevqdWBydCNqLOC0Q/jJUqtRbLomg0LPylynr++WE0gN1PG+JyswGeOJzHeDi/39vWV+9tKmLDYPlnuTrq9fr9uAFvM1yu2htimHrv4m1NI8Oer2cm1lpvbYoNRRFTitgam+nxYfCzGWw4Tx0cUmCced6B0GypwrqbohnUduBLY6EBL/pnJ1wMPejhsXnj8Pm716oV1tw0DUVh2edat9+H7tkJl/6Fs3kMgyP+nplBhRV6imgiyheKpAzO9Hgx9CGOhNN/+LFKrb8pmo0iSSz55DH1RByJ39c2W1LMzDj3tz5Ls229uO2OOAwWboLVLmaeqe7tP/3ZtRvE4Ic4iFrCee7Sp+HUoiI2E0kpl8/OenjUD3EMft43uxvOZpePi01GkVKV6pifIIhDCKyPa9nNuBbXlsWmo0iVPiz8DAfEFAGb//ov+9+ExmPh+GZNPgvYp0hl8Zd9IWiftDXgOD7YbltgPZM5QvjAyfFKNht/itb81FOUpFQp1o0nXhoB58nJj2VbIgg+aBv6neuDm9m49p18mtZ8+1jpV+omeNq6AXTm0jRtQwqFid53Yf1B+DpjYU3bjO9l2Qr2Kamzo5141914PLl5ldqOebUgtEPKhDjC+cd2w7Viby+WiH2ilKrsjvkgfd7WwJOj6rxxPJ43BzWdG4CVdLrGYqza248lmp6s9CuNwSqx34Ad5TMHqgqRoB/Mc5gjxO2f1Zb1uPcClmh61lLP8Kgf2y4oH6WFyJALzN8BR9zBkUth7S5LOa0b+1Llo9EgB+ZTtwKeXMF28qnbkSiBBL9W2lft7av7rFD4KVK5tMYTxMmRj1JZjvrBJEAcIcGZ//c4LRz7RDFVngmC+eBfD8r3KvmmCBiYe6OVva0Wy9Z97LB1ZRztc7J86cvtBBK94+HspqbFbRH7pMpuL0GcKp8qTPJgyn6OkGhsmXVa3oBmhaNm9cIvFsXY50z5KJ0XegIECBwhI9f0nfU3usdCnzVin27f6AiYh9/rwW7n86h0spOHs7vu7h0MZ+MHQbNK3Scq5Vgvuue8yEdpWpgOQMl6WNxjB6lfjQVPmukoqcoIlDV4JSjfS062TPNQlp0j7lrOGT8wFrFPkcqDaJ/T5FMLwjCgXd5nOacd7QufxJOejpKPpreHA3BOlek5J9tbt6d9YmWEIM5puFAqw7k+W+9zxlmf862wStNFSV2LYs/TQZEvPdUL5j0QXMdLc067bPfp9pUHuzsI4gz56LbQ7gIjH+mOaa8Ie7Y4aCaKbLgERj5nyEdVOddCYMARV3RwOf4c9ttwUFJ41sUZ8rFNhhYwY0S83XrO+RaBz3JjXZ6dNAu4CQJdPkrTk54OMI/Z7hktq9Xcs3PiKUrlXTAn/V4CdjvrqPJkFMjGEscG4y6/Pum0xw0H1nUZD2HPE3bko3RbGAAzPMsbHK/syzntudtXmyY/HgTyUNwPyldHpZEpKOqxlzHU9xgg2CdK5XXMPCHLp8pCO5x35bja2MGW74eV5sjXUcoVvFwLWb705SkoI1s4QnovPVMPQtknLoqX0D6wDRc6D2lkC/HOPn+Rwea7faIilcYIAjTyqYXcEJC4Rzji7wuzXosBWMQ+Sap2EgSkfFTdFjpDBAp83+DyAbot9tlrl1Klc9hxAStfpAfQFb6h6oE2GexT9imVHh+MrGQ/KJ9aiAyDOcLEEXKJFXzGoGlis2EFX58fzFn3F3B2w4VSeToA5QgFGxvxKRsKfxBscbdPSpX6wEzUeQGHRz72MiKfG8zaciOD4YPFPbt0PMs9PLoHUz5a2B7uhrK47EjnbvbAzRYbbLUrUrUTztmH/ThevrTQC2dki39g/GDjcRnWv98gpSrVPox7UOWjhQkwI1t0/GuxzbjBaGKTUJTF1tEennDoHkj5KI0MExeYxXUdG6+fpwaReEpKaYTgdQao3U52fbYTyiaDTqDvbTNOy15vUCSpUhrBd0TDjXyqnAtBKucHqneze/Wz7067IqbKsRY0D6x8lMoRD5jrs4yjGlMPgn2SWFoPcYCq8ZfjXPlUOjlEwMARMnQtu6kBkE9KlUtjfMCPrRaw8qmyAOYKH8MfjNW6LTav+qQvUuXW2XMBN5RDR6/HmQ0XWhCGvJCeraH17wo+Ozc8JTFcbXFzXjgL8zqcGfl09yBdn+UIie5qd+NxO4c+RZKUcnX0JI/nqEHLR+cvt/sgJTZefizMxrbYNfTp4i2mypXBD/oCBNDO6xtwpHyUChNeUEvs7Sll41rctqFPkZTjXbE1D0HAy6dO5iBt8HGEjFd0+RrHcsOk01H0mFetRtt6eUiLYhGs1nBRC5FpWHNYfdFr8WwjubssGQ1zjlGpnD36wdgYnLdkWAurRT5VzgGbCRJaD2fvNpRlxXDErtbwYGx8Zi3AEYIHyRwhn6pGpgGNbKkR+mp9rcGsG85QW1ubv83n84FKQqyGpeSjBXk4BO0xy7fYDw/Poh2gnVZrYin5VDnSTYDB2fNhwmGu6Sj52CYDj+/5RhyDhbqddH6i3YWpDuIYrBP56Lbci2UG4iAsIx9VhUke1UMchFXkY9dnO3EvF3ESVpFPpTkP7ikhjsIaDReqypEhUGMjEMQmkY9SodOL6iHOwhLyqenIFOaciNOwgnx0Wx7GnBNxHBaQj1J5mBAcT4A4jeY3XGg63Y45J+JAmh/52GnqDhzCijiPpstHqZALEgRxHs2Wj12fDWDWiTiRJstHC/I0vnQDcSbNlY+q8iSwkS069p16Ystf2r40tdupUmE40AFyzTlCzv/UVH5+KE6fPh0M4nTAPUCPfDQtRAG9AHMvHOf9/GsT2frsX3cOQ39//7+/Ok2OebH+rgFdPkploZdAhf/dVj5hHsl71zcyh+Ah4+LFC78fwOyzBnj5JtrBrrSbv30zv7S6lFwyhWT+b082MisLK/Xvt/1h/25srBQf7vRf+PVVHuyqWIymycdyznbAi3zizF/zq4k5xmrDfxJzqwldvuLKwvdlhVEs6j+Z/ivHjmHySQjkhosq51rgjmxxn//kVnLORJJL32YWDkWxLmAms3CxP4jBD3DkY9dnPQG468sdWZpbmjOPRDL5oFhcOKx+xVr0y+xcvPoRj/rBlW+yE3Jn2/uTfDIxZxqJVV2+jeLCYWHVH/Mvk/nnR5h6ApVP3Z6cAj0uyXMmn0+YaV8y+Y9vMzX7jDCwWCzunMLZAhDlo7Qgn4Od1nx8xuzIt/qEyWcMTL6Hd66cAL1EbwJow4WqkWGgm+vP+K3ZkW919cl1VvQZwwqr/nb+4MWbXtAiH92Wp3ywh1Nzf/okuWque6v3HtQjn3HRb+dCB4Y+WPJRennYxwFf1c/vLy3V5TPPPtbuNJKNzMMr4BfqVcCUj85vTwBfUI6QH91aWp0zkYRe9T0xWL7ixsOdK36s+wDJp9LJIfgL+uP8+3OmwuQzMu2sV34b/afwpW1w5KPz8mQLAY7v45/l5xJzJpJIJJNPNhaMhfVd7pyC9p5u62B2t5OqQg7o9dk98Le/zptZ8tUj343rCwaHPnbapf830LOUpsHkK7xAI6/PTge94LPOE3+8n0+YHPlW8zceGCwfa3lmin8mSKPke6xHvsfzj/Xv2tdTaKOuMkRCDuifnThzswmR796DlYzx9q3cuQr+YdkkPLe3/rLF+E+N/zIePXr0zTeX08aHQaoKAu+AI4Pcr858mU80Q76i8VXfys4FnC/RKPkSyVu37t28+fcbN+/f37pf83DrmYjMQj0m1jw0ZFTZRNTthKfo+c++TL7/P/bOLqaNK4vjVwlk7Hw4NmCiCMqGNE1Ro3TVB3hI0aJ9iYSUEEX7EEWUDVtlxaIopGEfULdtIl5aqUq1fdi+eB7spLJlr22BcFfFAgwmSxWPkBAFhIORDWODBJVoiQpJm0bZe8ZssMNHGNszzNy5v9C0cWpBcvnP/9xzzzmXlRVBfNGYBOqLrnaRv0uXH0F8Qx2RiC2SZDwyPjE+Pj6Bwf+K8FiFWIG/PslZ+6xGBsNf+ybiZWUGP0RxP+3dnOP3rzbRIk/JxGez2SLwASJcY3wcPmy2IA9gMwQNZuWAoL1P/0x+rkXgIF/WwcpNspldAvXFAm30tnypxBe0bUoQS5EbGhJskF8zQcEFsQAfZjQX/u/akB5i9pSZ7KysQH2ZF8a4SKC9qH/pLKLIKj6BIPym4IkT4xNBHlvg4ydYfQ8z0N6//3FWG0EnOvTR5KT86mO9Q9BUJEXg2XQeUWQUXzpCJDoRgZwMJEYfP34CIajI9tnrVYT3Ea3/peJ+IlZu7F5WCueDMpdnn2skZllHQeITwP8fNw5BKBgg1h9EoDv2vW/PnSW7fTaFIux8Q6zMQDO7JM4Ho11uayRmkRcQH6hqp4AHws/j4zwW4Kdgfzu9jEg76wfik9/5+rH4YpKEnTH/6g1a4SmV84kFTiSCEIH+/POvIMCHr4w5z13XjO+tiU929dlBfHelwB99sETFJ4n4vEFbJkQicBgI8nvy5NWD4T/5nXa0p2vA4tuNbKf3a4nE53+Aj/ooynC+JBGBIMSfOP2yXWXLuY+1E3MixLwP05NkVx+M7rwLSHPOrpVHZxLFi88WXAtAf/z/CcRWYyM+fh0RPbJlg/h2x/kGf4pKZH2B1T8giqLEJxCxQUFa8BEOP7cwvv98qLHCXNKcDyZKnNJS7LKG4rKdm9ofxmbjsf4g/Nw4J/D7Sk2NoNtN57srDf7AUhGiKM75ANAfhJ+PoAI0XX//fXjuk0NadD42BdU7H60wU1a2cxOwAH/E0ee36acM31/QlO8Ruefz+6nzKdf5ADh6t/EQfT58uN4++54GxkZs4nysvID6JHQ+f3SpSGOPULWJTzC/CR7O/qDyDBKdv7x3QWvSQzri9nyC82lsFVUoPlsETh/4R4+fPBRizvde12lv0UB8g2wa6t/zFWmkKn4dFWQ7N40+IfeCUy+/fPgXzcWca4fsJO35/NT51OF8L2o/wf1w+6wWAecjK9vpj1LnU3i2M4VIJBjhH33XiDR4uTdxez7B+c5qbRnV6nxAxN7bc7P1eEON9tS3cc+n8mwnPWpQmfhstlnnQPvC0o1KrWlPR9qe724s5qflZSoSH8fNzjk9Hrdzof6i1kJP4vZ8uLD6XQ1mrdWY7QQ429ic2+m0egba+958q6ZKS3u/Xatw6ZfqnI+2FKnI+YLc4NiU1WnFeMIDcwtLDTpGQ2HLrnSy2wdxM21AomM+Kj71ZDs5ju/Btifg8bQ7R7662vw37Vjf9d3qZP8tINUYiS46Nlctzoe1F3ZbARCfNTzguRlvvnhaK6Hn7kwvA/FJted7QAcoqUV8XHAWtLcO6G+h+aJWjml3ZXpZ/6BkzheL3dZYUxhSrfiw9uasL+GZcy580KKR0Z3C0Fz51ecdlGpiNR2aq5ZsJxccm3JvEJ+1fcB6uauhEmmAQ/I7n3DIPhEN3KXj4tVD7p0vyPFz1o14PB780/QNTcQv10ymXRia2z8elcT5otE4bWNXRbaT48Yg0bkpnvBCa0stQ37e5cC4vZ+VF3u/cEWYX5IT9haablGF83G2HieIb3PzG/BcbqmoJN79rvFDHazc4MsxY4GYJCfs2tiqp6FG8Q3yaYnOjfJr97TeOMQQvpbX7gS9rNwId7L7pTjko9dCq0B8Qc4WHAuD722JZyC8MF1fc4bsR+m7l7hJ1s7Ki1R3sj+7VaOh6qQ0VJXt5Gw40em0boMHb/zu34zXIaL56yWb3OKz94PzBSS4oujWF2Q/KbdCZc4naM+6PRB6Ot2t7xNdaV37ET/Zvwvii+Xe+WKxU4iigmwnx/dYXy0+OPK72fpWdTWxOz+m6sY38jvf5NPf/LHcX5ESv4goKnA+vsdt3QlhK3Q6XCH3wL3yOj/ZYWJlBJyvN+rP/THDg0Z6zKAC8XHBnjnrDsGdDguXzxLrfTpUKLPzQSvt05xLD2pbtFKQm47KxMfxuH3WulOg0nqpkdA+FQYho6mDlRNwvqe5PuWLxp61VRK8Nd8eFWU7uUHhkEEEztD0FWLnu3zJd8iZcYECl/6fArEc7/dWP6faU4HzrR0yiMA9EppPNFYTurj/vNMh6wwlqOwE8eW2i+8Wo6M3NCg/28nxU2ERQafH6nY5HMOh+PlKIvcUuvfvyDrADIzv6dc5FV801tRGD9eV73xBDg4ZxPiex+lyWCyW0HKimchkGtN4yTspa9jp9YL4/LkrKlt90FKp09Bl3umoR3ycDSc6RWz4PB7niAOLz2cZ7kycv0hi5Fkk7+hOEN9sLovLYv6mxtMMjTlVID5xiU6P1TlicVgAx+jKdD2JTQ4nX5O1mR3El8OJudHAs6UGEpdFWeQk28mNifE9K/Y9l2UNV2i5r55E79trYmVEmBUfy1GSMxZ4duuLQ7SNSBXOB+2zYmJOIdliAdYiz6sEqu/aZ0NeVj7s3v6cDHDx340ForebanR0u4eQCrKdHA/zccUkOkcclnV8o4uJ+grSVlpfe4mTL+6EZGdvNJCLPEss0NRy8sxp4h6GSiR75xvke8IiD/gsqUDk2U1e5HnxO9tkh7dDFrwdXm//U38s5s+CaDQaW33WdOuPX1QxpC2GQslWfBwXnHWK1Z7DkoZvZTlxtRYRha6qkZ+0ywVUVf8UC2TJ6u3bt24cQogGnAipRHw9c+IqW+CQ4SV8oeeJesJ6HHRnvvxGRn6843uQDU1N8aWuOlRx+iSiJFF8tpMLjs2JOly3QqLzZXyu0eV5siJPBuVde01WTmVD3am6uho6LSIF5TsfVHRaxVaVWTbg8vmGlxMtRF2EwzB6PYPkQpeD5xZDaoOXYskq28nZ+ClRvudxu4QN32bmt5KoJ6zSjH4rUyRzPqjonBPneyOWLRnunK8ntceBQsm1+OAyIpHV1A7LVviGcaUZsf19FEouxccNzoatorSHg87twJVmzbSoiaIZMs92QrJFXOf6yPba87mgx6GGqo+iETJ3Po4PO0X6nsOyPb7R5/Fmws77KJRcZzs5rndKZPus5ZX4XLi79ko1dT6KJsjU+Tio6HSKauFzWF6Nb6YzXkfPmyiaIEPxcbzYROeIw2fZAb7u5eNETnWhUHIiPo6ziU10QkXnTnA5HO+06an1UTRAMtsp7ZxATzLZsjNcrvnu44TfIEahZOx8YqvKhE6GneIYdkwTfoMYhZJpthMnOsOiW9d3TijUebnhNM26UEgnA+eD9llRGz6hfXbn+FzPE9M1dHYWhXTEi4+zwWVEoipbLCJxrTiWihCFQjYixRfkuMhnMCdQVPuswyKS0dB0C825UAhHbLaT48bmRFW2CO2z4ll+k5CBZir9U6j0y1YXIp2PC/JT4nwPOhnEAkNdHPW1ZHwLVB1SIdVUhwgpLdsJiU7RYyMyYbRzvoWM1toLXSqkoaLi3YraisrKSpr4UojzcRw/63R6xM8JFI9v+Hn8PBELf6Fr5P7APYl/DKws5w7HcqfrnXdutrZebm7uOou2Jj9/Xx4Bj8d08vLz83UIKVB8s1ZRg+HdIk7XN21wQOqnsuargfsSc++HxdHhHDIT6uycBxLTfW+/3dZQVIM2QW84csKch3KAfn9BwT5lXImkLz9SYjzMIKWJD+YEukVXdGbMzPwSAYEng/T13ffvSUu7w5dboMzP4ggtzszMLM9Px5eaK2rPbPSIEtZemhPx7TeWlJTmK2Kp84xl9iMHGYRRVLZzcCxsFd0+mzmu7r7jyngaZoXu5JVpicXX7l6/dybrf3wpK2BxhUIhV2hl1HEz3vBy9oXJK7GXZSg+nV6vT1nbAkNZmWEfUgJ6EF+B0pyP4/DYCJGHDJasCC23Nqjf+tDJqjb3gKTy+2HUZ5EK7IKu4eFQX+L3/2o7X3Q6VX95J+z2Uj3KhGOFhamx3WGD3V6Yj5RAnrH4hfgUk+1M3vzsFFnRmTHhqZ4p92JiunrrpMveo0ePKWPBXoG+Li6x+EIWCXFhAfpCi8+XE/H4xdoqJgfOpzMX299Yj+2Y/QYTqxDxKdD5gqA90e2zWSz4mN0+EXYsdnddSB+qvKe83Lwv+Z/4b6m4QA2+yFzoapdUfGB8kuNwhEaH++JXKlGq85VnJhlzmf3EgfW1yyvYu7dAr4i1TDqfDilIfJwtOBsWfftsFgjic412T9fp0/YZhWV2U3LVGKNdJeJDZ2ouO+5LaHwjPossjI529/VdbSxCiMku4aLHznciJavBYBRyN5ICnY8Lzs65RY9sydb5cMKts60SpWI02cuS4tMbTSoRH4NQwwf3JGNgOWSRCZ9lZQUHn3XJrR8OO0F8WTsfoBTtpTmfMrKdwoUogKhq6iydbyjswluNRPNpXar47IL4AMH5lLJmr+JPbumMD+dEZMPlCg2PxOuwWCDszHzPB86nyKVTnPNBotMq6tZ1J2gve+dz4cAz0ViN1ik9UXKkIMX51HIW0RC/d18i41t0yaS7EbewlRgNdX5w9UqVEHamZzuZvM1rXvS4aCQvbaVAfNt+h8Nb9C+bUupr6a9v8kkZ/Xa1KnDSkfq5dBudT3hZAdnOYI+o/Z7HKVSVZb3ng1OnxVBX0csLoELnq250D9yThJmQLMKbmx3r7e0dw8N7fK7FzsTS+arUbKd+/95j5UZjYaHBUGg0pz0S9x8tLTTAy8Zy857DOryEx8zmwjK2uNQssAfrKR+/dEyf9pZCAz6NKDXvyV+T0gGzsdAgvFZ+dO96NQxzEF6HT3pw/bV9B4+ZS4UvxmAs3bvuzfBZ4Fe6AnOhOW/9/cLnKj96IC/pfCb8eC+ALyH59t11vsFgj9ixEVkvdjLshOds93QbQul7c6SuPZ9ARb1bGusbliPqnOud6O9nWfwx0TuFVzc0M914Ju/EC+c7ZjjxhsnE2lnWZGdNJWaQjECe+Ugxa8Lg32KL3zDkMyjfYCo24V+VFeMfZawRv3TYUGYqzE99C4DfV1byP/auILSNLE2rpap6VZK2VKVqqRBVFKUgpZuBZNlDckj3bHZ7lgYfOk2YUwhhmiGHDgu9HV/67FPDMoedw7KL3yGwyzMu1EOHaA4BO8TdQQMOBhNsg3FyiDp2oGNoyCGnOWT+/72Sq2xJdldHJWWMv7bS0qt6VUJVX33//7//f09c4ZLheJRiL+zXcOUeTV0b201odVwFdhU7N5oe748bmkae7EXrqKUQ9R3DqXquLPo7VZMxymHle8pXt2yP92e06ZbI5MiHq64nzGzhDt9IlA/Qvn29b06JSPn+bub4VC/8WzoeX5A+94KtDYpgDPh331xYDZYf3b53dSpSvlpTsAXA+VELr4tsAPVwQ9jfUTJEtmkExgwZ6BKN86myy4kT9mkUuTzZZtREWY+opGSZyHfPM3GTJWhCirrZ+zb8X0MJL4FuMitfsJp4WlfGPa3YcZmeF8oHB6RMtCJcZVLkwxG+7k6izJb51ixiFD4ff7uy/dOBVTP/DpVPzahnn6eS3DKbPnbWKWWLC1ubOwuLjNLOVjCLSwlfj5Qvq9toEFZqfq2ORHFKGY56FZhou5VaBexA3W6g8kmGrjsmNOsIuy4TQT4l6kIbeh0s0rprWShnsu6BgllwGGzS7WZIecWC9obr53K+0TD3aJI3bJ1/mZpfwT3M0KIlQD7daDLGqNdEcZYNE7Y6Vh0PbOj4TVD5KOqohVaxi3pbzaoTinZioHMnmcPHuTc65QsePb/XX1cb9/lU7ogP9rilIdKI29Qh7XI6cvp5CnkuM63Z1IVvrrVI7290IdiyHATBwga9v4iXOHj6/HFP+YjW+51JRs2DnDAfPxPFphRvc1Ul+GOrUh6aVVVFhjUKqqpp8AEVDDVJFsxxKPWsIjRjBwIQumpntb3rqoQ+XwXarbKq4k454G9VsIxIGnwN8W0kOJNpyD3ycfGu2lYtr2LGBvRvcsby02kkVD7PqikaflIV1EFXnojyodH551+y6vqofD5E++Xq2f+BxxCa7iQLb5SY8mngiNuO49iGr5BYwkStbujY7uhGLAdNRgdfVUu+oYs+Mtm7oiUMGVi2wzfUlNFLqnb5x90RsG/8wwzAN9pdXQ6A58C+NUbpVhDA20frJnMH5KVkGyYT9zve3YY0oCieDzWoZF9upxJugS75A4/ZKmvW+p+ICioZ2j48CpADHTb6KyPylskaedIjHypopRQVMNC6dOg4X9lmzM5PItqJure4MN/aTEC+FuQhjVT5cMnaP3S+ZbpCwnG+YhTtdK0qY8xkCDvbC336DRaHvjecW4K9jYLhiHYTN2m9OyZqRNi5UcdRiaqd+vWIube0ejd97iHd1ud7ChugDbq2iu9a67QD1Oq/33XTtOVQmryaNGScLxpkJ5HPhwRpZg8QzTIHEiCLR9/TwyG1QCpIn1fYI1/V8qVej7zDILAZ3zmKdu5x0fVotUAmonwPeaAz/fLZ4T4frtq3s8HCa6Xuz3AxWRxNXxW/as1jAjxGAEzqBazKVdiryWJwepv8aryPON9oQQg5uzpa7sGQTvqDfPOLlKHRGWJ1kbHFFn+3Ttn/fpDpg2wBDRRBPlataEMyXIpkgPIpDmVWnhwgnzeQfK4QPkR4Ms/vdyXQ7syRPZ8vRs9ck6fHHaZ8Qomz2gTIJ7LKknDvFh/gG6HyIVqPgWQVQsKETi8McRqCcbZRB3fZRr7ZobHoOz2Pu4Yed5QEVRIMq/I+rs1oVBNTsMM+AKsKG6zRJ/qq7z57MFLDM5gbg/DtbKCdGc1thULYwndIvu70VL85aPTI5ze5w9UHLVI+jnLP5yMFDOIc7GF4g8xOSefWbVwIaf9eaOGaOXWPfBGJ1VoVOxyR4eJXKatNhnzJymc3w/LZ0fp8c2sdxr6+LB5e+5SPMrDfNa4peDkZC5+yWizjgeCGRhiE5uSz6wWJYB/JNSPpOy1LnG3wIqqPCpmCsXH+2r0Run1LT8EWTB8LHUpvtYO9AqMupfBcDFD57rNu+70pbZ9xrWZKlhk+B8sOpVWjIJGfq3xIV1qX+8WLOnilIwiRpG7s0IUGo3zoPP5lVE0oHwnJZ5VI/LCerx2hfEjpijb+aCdmlSWKtczz8tlRK98Wo2z97ief8mzefbmdtJfhQgCux5gl9c92p1rQP6v1lA99R0D47PQYbOpL7SWq4bHRP+8IUS/c+DEpxSY5zIAIgHxsc3UPQZfRzk4glI92n25fDyNW+ULWx4i90/AoFcqnWhjLr9puLVeWtaN9PuElHoiBIIcZvU+bet0v5GU1ctkwECnJApKGEZdeV00uZ/1a3bXsRpXuU75SzGyFOE72COUj2QYFSo9d+R4mWYwIEeneKH2+zXVGN7Ze//S7M6HymeWBVQ2lBmNOmQxw7j0hiaHPZ2kRyyoe7Qx8rPkeN0hHj9Pv3RyV9M2gez0GANnYYoQ1oNwGkA+U7/F9s7u7/Z/8OZZz7Sp3lnkyS88DKOrwCeE1dDebJ0cqH7DS678iNYcCTOCxY1VykuBfEWhhWxH0KgvJR8p1vekJ793Ejjkt0698+LhuZAk5XPlyWLSojTva+fD7NRxkSAAsXR+18qF/T2kX5o+/ygVNKB/pz+1EhQMZIwOIZDJWJ6Hy7fflchjX1sigQBqQTyUpzKZ07rcjyvFcWg3a4xC+ue4GpSzCt5TS9c1Q+e53n55Fp0+po0EP5Gg4tq43zFD5CCkBDXr5W6Zek0N5GaJ8KIm02ic0RM0aNj8BomrktNA9BDAT6S7+o4x31XyHn7LabMCXseF9jgzw+TQXvkROPVT5CEE9HbPyoe7htBGJjE4RbBmtzxcsMEoXV4Pg9vS186h8w+v5XI+ZNXWgipl1frlIfj/5iNJgpq4NsA9zzZSUj2hTP+6Ohnyge2NBd+Nbxjb2/uswDLi0w2hn9x5yjyD3mgaEq7K5slLi0U7SmxXQB+uvUeVE4RalELiDykeHKx9CK+LIbVPkgTk8qInk86oAryrgebQmiVEjSnVMt8kVSnK9uk/5ypFJ5JqgfEf4fIQr39jJ990CBDqTAHVv5Mq306G8tggmEuQzSoho58CqhtC87EOWKx/h5sgB8mE5qC71dxHkk0gq9Q132qMwPHdfzY4Hc12g28LWztaWeOHfDozzBaB8jHXvwCNRLTiMNbisEYBseah8ETSl4Fd4Algzqx4a7cTIvjdQaAjPnfDrIhKtQAOanZaf9X188X/f8TFxRbZMer9e0lSVIHi0U5wqUr7I5yNHKd/4fT4xR2cK5bNJlG9rZ2cLswoXApDAV/dgvVrSp3wx8tW8fda5puSL2RqmFDLGhigfsRlzpJgsyflijvcxU1E+xJkPb9x78wGHB7vLc7PjwQJjtBUEMIcLfy3DCy+1UL4/fHiBU8bkd2icfCTOHKQOz2J2pXgle5/yiWindMhQqeLblIJgkUxeRDsJNscDZjmHMSsfeyZz5RsY7WRVXyPJlC/9aKcon21tJll1HQgyWuWjjIOuiSlK5mDxhjN9lexaTOFiQRLZd/VGs8o4BPn6lA8bbDMin5R1dafpAe3QtEpL+QhRP73aenOjc2Vc5etzkF3GdjCdrN3GVzt0NdsBkO/7/5IxndOtxtJASDTIfmDyKwcTwHrK1ywO8Pm40BxRHe8Ky5QoNg4Jct7FQ9zEb8a1Sj2gfDHywRZW0946nw8DnYl07xsIdI46pUlQj9JuIPJcnsLMWYdEO7VsFcknLrPtsR6q3kHli90POmOOLN7nUO0EqFdlaSkfnvXys/k3lb7leFJn+jUN3QApx1/4x9HefXyfuZLIwYoXpiuGGSlfDLJNkWIIJF9hgM+Hcsbg3XCIkXvUIk2nIGT92/nYORmmfHlCYkN4KGrJlC/9aOfDH7Y2E3EPJ4YftfKxjc7GOqP42BXL1T658f4h0U6S7ZhhKksNueM5uuG6EAKooM+n9vt8CFQ+ObwSoo8FfSrZSmo+H+LM5ek38/uWno6Pe8GtRQYhr765dB+9uieqGkSGcjOKZCgDlY8X8oWeHYnSThBRVQPRYB+7oB5OPmaCFhFVDBUMIp9Z045WPlJuUCDjkcrHxunzfScWI0q48vNouYc5TJ0tGDmE/1NRwRLMPZ++eG54tJNgIpCriYRZ4FhWkTRCVEL8PV8wUr4QQvnEjQF99GxeEiPwYbQzNVyank/AtRRmyU1qhWAdQwQxk8v0d56oaiB1j9EoE102TDZI+XLC7BTFt5jdMKiqwfXoEZOB1qsiYZTw8SCZ9JFzv6BVhma4yLrHPF97u6KdSRcjuhXp3mijnWDmtNYZ4xEXwIvbd/4B5S7y+QYHXFDqLJmEENFONebzqQOUDxlq57We155itBOhnpm68gbFfTN9geWUS4rYt4s7wYEl3G5fucwr2YWQUeZGvjP+qooIJ0e/NVEMT9iLPd5I/dFOjDNT2jhQCaFJJBaIxqODlBGiQK9mRRrE8b1iBbVsiCwmQb6Onj+Q9mlntbfJ5+OBzvlkuhdhtBkuQbDVoTTM8nz68qdrh4zz1cOhBgIbmK+RkEiR8pHhypdxee427CLaU1Y+ZN+Pq7+YfTi8PkasLlL27Xp3a74FmN/c2VqYh0raK1MfNWhYz1dwTOBhSZLkku9ajseAZXnuDPJpkwr5fDlb16HZKZKQbVgPVlQgJS0r7VM+yTCx5q6eK8O2Wr2OrQWDT5tUzOeLNdcxUT95kBOdg6ZVKSqKAptyfuUdSQgvpVZOluR8tm7gfDDMKmh7g+wkFmTF0IBjVAqlUsGv1WvyxKOdYtX1lBYjSp7hEqxRytY4vR+93P4KyVfWBkY78RHnY0xbx4KgmF8d+XyloT6f5TEvp6U/zhet0nPqy5lfyL3d8XIPS/gYA/oBHsNrg9EtsDkvadKe8kEEklIT00mcXj6LZ1ckIjuY9dJ0HNEeJa9gB+ZBc6OpK5HPJ5QN+rBqw3GcZpU2ikTELz1owSaeu5YTl1PGS25WHRvgwKFCo9ZvwD4N+DJ2w6OiRqzhKj2zc597iHvSqoOdParnJ618Dzt/Xkjk8CWaNiJ5VUNwa53S+6KkZe72WSBfZ7DyKbqoRCCybsZjb3GfrzRE+Qix+HFTz3CJQNRTNwdZnm9J9fp+IPsojsAI0K1X9y5rRKzVEM2mImqRqafXdZPyyqC8TbE5RNycLPJdAB2nREikfCLsHHVq5gghNU45AcxSy2mEhJZsk8VhKLy5jpwSMJ264VGKgZae8sUvQs2JnUsvk4lGO9NfjCj57GWYYLY+3+aTlU//scq84sBoZ5YxEWOT9O/xmkUbvjcj5Rvi8xGLMS8bV75OqsqHUJNantF6YOPGXGthcR2CzxsboHyLf11bvTl1Gh9/ut6jk1zRG80maBwYjFImX4dPcMtKNdeyQa4ADUevl2IeYNmwG9UqNFt5IJFr6b07nBClZjkN3sXRjbJKSLli6CiS2GZbNZmQvVRZ37BFO6irZfS+jW854pSur6gSHM7j1Maz7I/C4jcNz2WLbVrF0t18NCxUNCzdH1c93w/dzVaaGZ3JK9mDRcbYGlfB19tfdwb7fCh8QqyEzxcb6Pk5Ph8vSKpEavnvTXRn0l7B4dSX84nnsV5amZsdO9pzs6utzZ2dTVgsZ7X16Pn0KZEQpGpRSF8uF3KFshI2SOVCXuP7SApsyBWKuCUOooC/B56dpBKcYiM6EoFPvE+5JMNGXmCZ0eQ8NIkTEELiqWuivaRIEola8wU8JXYXn4paeJa+bHlJKWL/vCwJPY2+CoLg3FBqZjzk+64LfEo6bUSqyodFRZR1tvDd8vOvPTporQatoJsiDhpGXnRFbCByzkB7RDtinA9DpXbvaHLBwENIJHX23VxKyr3BDvaYGNgO2mB+LG9fHjSbHAEM+EB66N89BL4fsina0n+QeHu0ddDu0RkOPUJmEERz+uTDzJbuVrJpI1pJdS95JXtY2dDiE5mtmWh29pSPuRWcKrJSt5osFD6ecctox/LL5YJfcW109JnnlrVDlS9vQx+9VhR9RC2YW9QyKWNqOpnlOdMKgtnJAbjH45waSXifDuZN5rAOiJ91dLHnm3FkMPfGu0rRwx92QPaSzhOYtvIFEOuGyjE+uoTki5SPokttmjF3WzjcyB2z2ayaGCMwOZWavnbYOB+pmIz3aXqM9fpUK2lbntqlL4MkWda74GBPEu1HL7anLx2DtbrfCsSU7zssn006yJBaVkUnmrczCHY6wMUdaH4E7T3yWSaLw4k8dtnlDPqeAap6peYwAJb6lYeO8xGtXmW9Tib0scN87JTZRy5d2UxgdD4Cs2+SgJqGKyfcSyHaiYHOVqJRhpQcPsTC2lo3onYAH9f4TK0L3T+6eUGJmmHpNgbBMFKF09xG/oHmW3aj0YDmSlGCICeGtHzYqriGUYlXNdQNoxdX0bIG9nF0q1KQCVEqEHKraZm0QaZu3H3wc7kXTJZ77eXd7WfnMycYvfIlXXV9fj5FGwiKxgDRx7k5+IjNL987TXpxKE2TFfDsymWkI9kXyiAKtItMTd6SL6MuHuYbEBL2yRABLV9WSOrcI+rFq/dEzPNo3ZubJPfasyuvnlz9UD3RvdGTDxcjSiJ7opJhXAjwD2+A13c/O39ooOvAxtgnTsvhiMXexrdMOJ7s0xurSz+Le3dnJ4d2sNy+e/s/Pn1r1m8+BhDkCwOdYHMmKZ8F7o0fK8+fXd5HGHwNc6gSu2CTwfk72zNHhl2WltsTDHRiqOXuszsnNmca0U5cdT2JzSkGGSaA4PnNKfVYPXyJql28/NvVw3PNHuxO0uZEk/Pl9tlLF7UTmzMF5cPy2VYK2dQpxNuWr356OnOcABKtXbjemnmL45wBLIZ5/ULmJM6ZSrTzh6TZ1MHcZMjXXln56eMzmeMGon3x5BDLc2l5smHOlafPPjvhXTrKh4sR3UqW0TmxJKdHr598duzIBzf2ud8/uTvM9NydpO5BUsvL7WfXLpAT2UuBfHwxooTTRkzO919e3r5+LM2fCx9f//XMkMmpJ+nuwYQR/3j94wvH8BefNNDshMWIkg4yBBPMcmo///LcsbwTSGbqysyDQTbnRHPKXtx9cjlzMsKQEvkeYjZ1CquupxZ4u/e7i5ljBwJ/709d3f6/Bw/enjhne+X18yc3Lp85IV865GN/+gEH+BKWz04QczBz/DEkn0i0/vyL38zMPHhb4pwQ5Pyn9z75PHOClMj3p87CrUTCN4+Bzknixe1nlzLHEpjUdvr6zTj5luYmGGpZfrH9ybELbr09ePcvj9cS6d5mC0vXJ4kguLt9KnNMQSDw8vtnEPaMFsCcDPnaPMj507X3T8zNFMnXXWglm6MzmJ007rZ/dSzjnWGm9fl3z/53sITJ1ktLKxOiHk6Kuz391bvnT5y9FMl355ulRPPCT1r3eD37q19lji9IRiMXn6DjN9MCAZoM+4JXKzefXcxoJ9z7pYXxH/2zSo4k38zSN0lWfp4499AVeT197Xi7ImfOfXB2e2ZmMrGW9uyL3ddPvvrg3PH+jVNkXuajf/nN//+rSsjIlA8BDt9bgEewZsqFzDEGAZz/4sqTe69WxuzzocG58ur59pMvzpO/sXc+rYlkaxg/paV1KnoRmmzcSS+cVChvIEXAimI0arQJSeOQTQh9Ey7Z9OIm+Qr3A8xqdr09EEZuL4K9cROY1YVAb9zNwoWgI0wGAllkPXPeY+kpJWnTiYn15/zsbkiQtpPO4/M87zmnCntrA/urALUB58oaISSjYmW68z1+Zxk7wjd/6ue9gyXkbbCaOjzdP79rwSHi14O+WuvufP/0MPX9B7JwzlD9nVJBeRlDJ4Auq6C+WTmfIwof47x/lvTqxGUEXluvNW56nT+vX8v8YAPDn53eTaO2voaU7/6529RIMYN8Kz8FvgWFCrEwQvJ08f36++dHFz5H+B5wsfLO64VEger3/v1Ju92/aH19DfejnnfRb7dPPrAjW8r3ak8uEkK0nE/DKphevqiREflwSJ6Z833+7BTfo1w3b94jz6MgjNcOTw9Wrui7Xv2lpffp/La+cnB6uP7EE8EGYRgy9p/5KZC5NWJDi8E1sKc636+PvkanY7T3qdNs/MMn/8Pr60tLO93Lu079ZbXXue51d5aW1teVJ2lPzmlkgJnxnfkpqGCScfbeLDzC+f77+2Pvuu6Y0Emv5HLR/TfyAwoCsrs/7bd7/VuYfX6Zdc+D+eYtnW8e/LSbfeqlbBSVi49oeZ+pT8FqRifjrFLnU9WZrPOB9j45iFaz7dHtnfcKUMFo8fTgbOWi2axf1Wd9WY5m82Ll7OB0EasKUp760yeHIxUypLzpp+gJfTc0qb7gm3Bo2sDlP7TzuWiRYUTz8p9+OlmtoFQqhXZv2pd/dWY6fKl/7dBDQze7Smo99Zy3friCaqRKhuh55B/zg7ee0EJkTH2VSCwsqxjPYp3PMYsMgHWfTOQ71jZ23y73aP686ly36pAYnxw1YbZ53YHV9N7y292N551OhsrHbuGV1v1ofsz3F6IBk3Cq0QUQH3p+54NdZc7iy9Xd/tYa8hfM6vHRx+OzlX6z2Ty/arXqT1xTaF2d07DZXzk7/njEW97znC8WCUqJCvFf8xt89dG0RjgJmLcg/IjO56pBJ+NLq9Nu+E18A1JqEn1odNuXzbtOp/W0xtzp3DUv293GB5RMKTN7738TDEpSlYwo+sT82FcfKxAbOqROjPHz93Z+/sVp2qPO12mf+vHyyYqVP2u15Z8Pum0aQfu3nQ6kUIihDwMbx1pf6TNv+/1er31z8PPbWm1jbUa3f4TcCckrEghIadPW/FQ/mB/rfHlipxSFyjf9PB91vm/zGxzhqzuMVqf30Z/ON1AgxghtHB6dHB//cNbvN+HRvGo9DB1pwpP6/ZUfjo93jrY2BqKblTQwBvXFaPIMSFKJjKhkfGB+ID6DjJGO0tQ5zfjwYuN/9OrT3+ZL04Hc9g7eIb+TTKoqzjYa3e7+fo9G8euHgJi5327//6aRRaqaTCZTCGE0QzBWZTp0iUVBfekfyQgj5HX5wZbOIrHY3iMULcIWGqYfpv3jlz++zaUz6e0L8QE4lc3+q1arvcudNLo33W633W1z6EeUm8ZJrvaOPimbXUcvBEayDHOHSfPTPT54GVth35PiVZAgVL7p4stuLC+/dSneumPDU1EUy3lwdmtra/GIsjPk5GiHfrhIP59FWEUvCkZYptGTyg/mLmmdjChmPFz9qPbyhGsvISWqGll9w1Ln9PKguvf74t5/+YuBp3zuBcEI5BeKDcwvUSIcw6tzT7jaXJkMqUqMVRKMQurESOAvFDQ/YOxizV3A/CpkhFZIelF+cGrdJBbaqiQFgkCCzTqF9gSvCUYY25rfqk5G6AXVa/JTFKzyc0Q/pqn0ItFoNBKJQuoUxid4XUB8GNTHmt949tTziqfkp2CcMcmQ7YQUiERjQDS2EJZF6hTMA5mbXyJuEo6Zw56RH7M9Yq97Qaq9cCgUBmQhPsE8gLGnZX5W9uQUcx4Jn7ztAfogcsZCIZlC/xShUzAfePODJXc2e+cU8x5wP1hXL2s8csZBe7EwiI4+ZOF7gjnBx57DwUu8pBGOmUfulh8kzoJGbFPOQAAiZ5gZHvxCQnuCuYHRePaM7xEbpqvdjydOm+1FB75HQfAQ2hPMCW5+kD0t+VXG5OfahQe+k9O2uEennCA9ITqBM8Bs7hmysidst94mNjQjg913FxZFUTcNjYyoxGHKybQnhiwCB4ExkvFIftJAfm4efYLrGYSjD2xvMOVEAoGzsOaeI/lVyHj6dNGmT+Z6hKOVEnzSIosZi8Bh4FH1e8D9tHLOHbNPRcEZg9jYjlu2Fxa2J3AmVvUbyi8wdD+OXth0evtj9/0qEhtmWgpIwaHtYWF7AkeCrZN+3P3iexoZo5h3cvtT4MyeScbKXkKSgtz2xJRT4FQwwpb7RS33k6rmhP0ZGWeu/SmUTUOflN5wbU/YnsDpYMp4+ITy53z9MdMrk/ulx4acWNiewOFgZBu9REF+fNeZXX857Jz+x+8zOyE9VvaE7QlcA8hP5vJj5U9a5fbH9ac6QH8QN3GyUCFjmEPXY4lTtD2Ba8Bo2P1s5S9e1ckEWjk/5/knvPhmoThhzNtpSRrNWaj2xP5pgYvg4dNuf+k9jUxSKeTQfASosLRpeR5HK8WlkeuB7WGROAUug637DWYv3P4SqxWNTKKX85lXbIBceTnDJBPo1QSTHnM9UfYEbgVjNCx/MPu07C/O9TcmwAIIkPJalgdhcwJtLy2Nux4SZU/gUjD8lkcL78z+mP9tk3vQioXc5ssqUBkIL1/WCcc+ZIGqFxl1PZE4BS4Gc/tj+gta8ZPqTyP3oRcNFkKBF9DdZs4o6ve9bClumR4sLjDpibOyAtfD7G8kP5v+0ns6uR+tUp6hCSoAxslcoWyS+zBLg7gJedNa1xNzFoE34PYXsukPiFdNboAPmCBWLJ6kOpCdmslzv5vErMYTA+UFo6zqMeWJrifwDBhZw0/QH+9/rACWdPIwWqVYNvL5zCZT4TQdKjYwxpuZfMEomuQhtO3VuAQEoOnFWN5k0hOuJ/AS4/Y3NECJEU/vfcMBtaERFg0jn2MyZCgTYEDOZHK5fKFglIv8r3wwbFqex+Lm0PTEkrrAg2CmQRkIW/4HBmg5YLrEZjDT0XRdN4sV+vi7vbtpTRyKAjCs8UYOE0GYXXbdDmQVN8lyaAYDbv2H80fnnOO5XgwUWqZCad4nMfYDuvLlXJOqr3/c6ffppLG9njv9A+/STb1291CeDz3eHAnflj+0JcX5F59/h108AzRtP1+6v0/162zhLcqL6+k81cO3JmI3y68E2ESAYZhtFfoE47Vvt8HDu5enhKGHFZDy0gfvrwRYCmz76ROH4HiZvbuX+8SzkeerTWYe1kZ8CKaHUzCHprECI0G/FjhP1/P4HxF2Z81ueNHqXFXC8/KSEU6yYGVuj/h0X4H6ElQ1iyFo5bRD378/w64bx8t16od260p3sdSMU5vMPKyY6K5iAHqBMQMjwW1p0G+e4WzbZC5X3S6jtXad5r4fhra95RrKuIuBFxPP8VknWLf4vJ+kSoFlCKpqV5UKS4vL75fRVTHsvLqYd8e6jvD4oBPARASxBtU8IkF1MI3amepmm7ei8tqC9moazc54dvt9Dk+0vA3nNoFMIgeRVJah6hgR3jPcvanRXR3C0e2NZ1cuKLDWBJYiDZNcnWq1zxW6g+62LdkPfx6zvatVyvNONqw1AfW2KMQL1P0hw3D0gxf5I1aVWe3rS7vl6jw32fD/0sAHhqAHo3sS3TLrqlZxsD1/defZWmy+8+o84KPkcRNJty1SlDjEnTXquRo7cv0c+LQOy52RXJiK3/nIJDrgKURKYRs/MuIAAAAAAAAAAAAAAAAAAAAAAAAAAAAAAACAL+gfG5RZZY6GbCkAAAAASUVORK5CYII=" vertex="1" parent="1">
          <mxGeometry x="589" y="400" width="195" height="140" as="geometry"/>
        </mxCell>
        <mxCell id="Om71xXF0C_-sWj4UQDyn-80" value="" style="rounded=1;whiteSpace=wrap;html=1;align=center;fillColor=none;" vertex="1" parent="1">
          <mxGeometry x="574" y="392.5" width="219" height="155" as="geometry"/>
        </mxCell>
        <mxCell id="Om71xXF0C_-sWj4UQDyn-82" value="Logging &amp;amp; Monitoring" style="text;html=1;resizable=0;points=[];autosize=1;align=left;verticalAlign=top;spacingTop=-4;rotation=348;" vertex="1" parent="1">
          <mxGeometry x="406.5" y="537.5" width="130" height="20" as="geometry"/>
        </mxCell>
      </root>
    </mxGraphModel>
  </diagram>
</mxfile>
